<svg width="26" height="20" viewBox="0 0 26 20" fill="none" xmlns="http://www.w3.org/2000/svg">
<path d="M25.5 2.36559C24.5625 2.76498 23.5938 3.04147 22.5625 3.16436C23.625 2.54992 24.4375 1.56682 24.8125 0.368664C23.8125 0.952381 22.7188 1.35177 21.5625 1.59754C20.625 0.61444 19.2812 0 17.8125 0C14.9688 0 12.6875 2.27343 12.6875 5.0384C12.6875 5.43779 12.7188 5.80645 12.8125 6.17512C8.5625 5.99078 4.8125 3.96313 2.28125 0.921659C0.46875 4.11674 2.5 6.75883 3.84375 7.64977C3.03125 7.64977 2.21875 7.404 1.53125 7.03533C1.53125 9.52381 3.3125 11.5822 5.625 12.043C5.125 12.1966 4 12.2888 3.3125 12.1352C3.96875 14.1321 5.875 15.6068 8.09375 15.6375C6.34375 16.9892 3.78125 18.0645 0.5 17.7266C2.78125 19.1705 5.46875 20 8.375 20C17.8125 20 22.9375 12.3195 22.9375 5.68356C22.9375 5.46851 22.9375 5.25346 22.9062 5.0384C23.9688 4.27035 24.8438 3.37942 25.5 2.36559Z" fill="#999AB6"/>
</svg>
