<svg width="26" height="25" viewBox="0 0 26 25" fill="none" xmlns="http://www.w3.org/2000/svg">
<path d="M22.8002 6.5H3.2002C1.546 6.5 0.200195 7.8458 0.200195 9.5V11.5C0.200195 12.8036 1.0363 13.9152 2.2002 14.328V21.5C2.2002 23.1542 3.546 24.5 5.2002 24.5H20.8002C22.4544 24.5 23.8002 23.1542 23.8002 21.5V17.5C23.8002 16.9477 23.3525 16.5 22.8002 16.5C22.2479 16.5 21.8002 16.9477 21.8002 17.5V21.5C21.8002 22.0514 21.3516 22.5 20.8002 22.5H5.2002C4.6488 22.5 4.2002 22.0514 4.2002 21.5V14.5H10.0002V15.5C10.0002 17.1542 11.346 18.5 13.0002 18.5C14.6544 18.5 16.0002 17.1542 16.0002 15.5V14.5H22.8002C24.4544 14.5 25.8002 13.1542 25.8002 11.5V9.5C25.8002 7.8458 24.4544 6.5 22.8002 6.5ZM14.0002 15.5C14.0002 16.0514 13.5516 16.5 13.0002 16.5C12.4488 16.5 12.0002 16.0514 12.0002 15.5V13.5C12.0002 12.9486 12.4488 12.5 13.0002 12.5C13.5516 12.5 14.0002 12.9486 14.0002 13.5V15.5ZM23.8002 11.5C23.8002 12.0514 23.3516 12.5 22.8002 12.5H15.8282C15.4154 11.3361 14.3038 10.5 13.0002 10.5C11.6965 10.5 10.585 11.3361 10.1722 12.5H3.2002C2.6488 12.5 2.2002 12.0514 2.2002 11.5V9.5C2.2002 8.9486 2.6488 8.5 3.2002 8.5H22.8002C23.3516 8.5 23.8002 8.9486 23.8002 9.5V11.5Z" fill="#0A192F"/>
<path d="M15.5994 4.00075C15.0639 3.07505 14.068 2.5 13.0002 2.5C11.9324 2.5 10.9364 3.07505 10.4009 4.00075C10.1244 4.47885 9.51272 4.64215 9.03457 4.3656C8.55652 4.08905 8.39317 3.4773 8.66972 2.99925C9.56147 1.45765 11.2208 0.5 13.0002 0.5C14.7795 0.5 16.4389 1.45765 17.3306 2.99925C17.6072 3.4773 17.4438 4.08905 16.9658 4.3656C16.4877 4.64215 15.876 4.4788 15.5994 4.00075Z" fill="#0A192F"/>
</svg>
