<svg width="8" height="15" viewBox="0 0 8 15" fill="none" xmlns="http://www.w3.org/2000/svg">
<path fill-rule="evenodd" clip-rule="evenodd" d="M5.3123 4.82437C5.31312 4.42919 5.30904 4.03402 5.31882 3.63884C5.33187 3.11222 5.46237 2.9511 5.95988 2.87817C6.19966 2.8434 6.44597 2.85527 6.68901 2.85188C6.94919 2.84849 7.20936 2.85103 7.4785 2.85103V0.431641C6.42313 0.496938 5.37755 0.485066 4.35643 0.646189C3.26109 0.818336 2.6021 1.57392 2.46263 2.73146C2.39167 3.32168 2.41043 3.92293 2.39086 4.51908C2.38678 4.66664 2.39004 4.81419 2.39004 4.99058H0.947266V7.35654H2.40717V14.206C3.28148 14.206 4.11909 14.1941 4.95589 14.2119C5.23156 14.2187 5.31801 14.1441 5.31638 13.8464C5.30414 11.8095 5.30985 9.77254 5.30985 7.73561V7.34213H7.25422C7.34067 6.53821 7.42304 5.77075 7.5095 4.96938H5.33024C5.32127 4.90238 5.3123 4.86338 5.3123 4.82437Z" fill="white"/>
</svg>
