<svg width="15" height="12" viewBox="0 0 15 12" fill="none" xmlns="http://www.w3.org/2000/svg">
<path fill-rule="evenodd" clip-rule="evenodd" d="M13.1937 2.39739C13.177 2.36921 13.1603 2.33998 13.1447 2.31075C13.4421 1.8598 13.9044 1.49757 14.0625 0.925525C13.6382 1.08628 13.2461 1.2199 12.8685 1.3817C12.4965 1.54246 12.1935 1.51114 11.8694 1.25121C11.21 0.723012 10.4214 0.586264 9.58711 0.73867C8.22599 0.98607 7.25472 2.16878 7.27032 3.52374C7.27254 3.73251 7.27032 3.94233 7.27032 4.14902C4.831 3.98304 2.94526 2.86714 1.33241 1.19589C1.18761 1.68234 1.04726 2.14791 1.02499 2.61661C0.981548 3.50808 1.42486 4.23984 2.07868 4.8766C2.05529 4.90166 2.03302 4.92775 2.00963 4.95385C1.66211 4.86303 1.31459 4.77326 0.940335 4.67618C1.07734 6.04053 1.78686 6.9581 3.09785 7.47377C3.0856 7.50196 3.07446 7.53014 3.06221 7.55833H2.03302C2.18227 8.17004 2.53982 8.58133 3.01654 8.8757C3.48324 9.16172 4.00118 9.37572 4.48459 9.61581C3.34735 10.4405 1.99737 10.6774 0.509277 10.6649C0.599499 10.7672 0.609523 10.785 0.625117 10.7954C0.667443 10.8236 0.709769 10.8507 0.755437 10.8737C3.25713 12.1796 5.85796 12.3654 8.40978 11.1461C11.4628 9.68575 12.7961 7.12721 13.0623 4.01958C13.0902 3.68971 13.1815 3.42666 13.4187 3.19283C13.6883 2.92873 13.9512 2.65836 14.2096 2.38382C14.2842 2.30449 14.3354 2.20532 14.3978 2.1145C14.3822 2.0978 14.3677 2.0811 14.3521 2.0644L13.1937 2.39739Z" fill="white"/>
</svg>
