<svg width="140" height="33" viewBox="0 0 140 33" fill="none" xmlns="http://www.w3.org/2000/svg">
<path d="M0 16.2661V32.5341H16.5327V16.2661H0ZM8.25881 28.9022C7.36784 28.9022 6.49688 28.6379 5.75606 28.1429C5.01525 27.6479 4.43787 26.9443 4.09692 26.1212C3.75596 25.2981 3.66675 24.3924 3.84057 23.5185C4.01439 22.6447 4.4434 21.842 5.07341 21.2119C5.70341 20.5819 6.50613 20.1529 7.37997 19.9791C8.25382 19.8052 9.15957 19.8944 9.98271 20.2354C10.8059 20.5764 11.5094 21.1537 12.0044 21.8946C12.4994 22.6354 12.7636 23.5064 12.7636 24.3973C12.7636 25.5908 12.29 26.7354 11.4468 27.58C10.6036 28.4246 9.45977 28.9002 8.26633 28.9022H8.25881Z" fill="white"/>
<path d="M8.26457 12.6342C7.3736 12.6342 6.50264 12.3699 5.76182 11.8749C5.02101 11.3799 4.44363 10.6764 4.10267 9.85322C3.76172 9.03007 3.67251 8.12428 3.84633 7.25043C4.02015 6.37659 4.44916 5.57396 5.07916 4.94396C5.70917 4.31395 6.51189 3.88489 7.38573 3.71107C8.25958 3.53725 9.16533 3.62646 9.98847 3.96742C10.8116 4.30838 11.5152 4.88576 12.0102 5.62657C12.5052 6.36738 12.7694 7.2384 12.7694 8.12936C12.7694 9.32411 12.2947 10.4699 11.4499 11.3147C10.6051 12.1595 9.45932 12.6342 8.26457 12.6342Z" fill="white"/>
<path d="M16.5327 0V16.266H33.0653V0H16.5327ZM24.7915 12.6341C23.9006 12.6341 23.0296 12.3699 22.2888 11.8749C21.548 11.3799 20.9705 10.6763 20.6296 9.85317C20.2886 9.03002 20.1994 8.12423 20.3732 7.25038C20.5471 6.37654 20.9761 5.57391 21.6061 4.94391C22.2361 4.3139 23.0388 3.88484 23.9126 3.71102C24.7865 3.5372 25.6923 3.62641 26.5154 3.96737C27.3386 4.30833 28.0421 4.88571 28.5371 5.62652C29.0321 6.36733 29.2963 7.23834 29.2963 8.12931C29.2963 9.32276 28.8227 10.4674 27.9795 11.312C27.1364 12.1566 25.9924 12.6321 24.799 12.6341H24.7915Z" fill="white"/>
<path d="M33.0652 16.2251V25.8729L26.2929 32.6451L26.1296 32.4837L28.2112 30.4021V23.3483H25.9551L33.0652 16.2251Z" fill="white"/>
<path d="M68.8392 14.9067H65.3066V24.791H68.8392V14.9067Z" fill="white"/>
<path d="M68.8392 9.80713H65.3066V13.3697H68.8392V9.80713Z" fill="white"/>
<path d="M58.8401 7.85547L54.3334 13.7042L54.187 13.875L54.0218 13.6704L49.5527 7.85547H45.5809L45.5659 24.7898H49.5527V13.8957L49.8023 14.2316L53.256 18.6389H55.133L58.5811 14.2467L58.8401 13.8806V24.7898H62.8024V7.85547H58.8401Z" fill="white"/>
<path d="M77.5071 14.139C78.2329 14.1391 78.9432 14.3496 79.5518 14.7451C80.1604 15.1405 80.6414 15.7039 80.9364 16.367H84.2324C83.8563 14.7146 82.8845 13.2587 81.5029 12.2774C80.1212 11.2961 78.4264 10.8583 76.7423 11.0475C75.0582 11.2368 73.5028 12.0398 72.3734 13.3033C71.244 14.5668 70.6196 16.2021 70.6196 17.8968C70.6196 19.5914 71.244 21.2268 72.3734 22.4903C73.5028 23.7537 75.0582 24.5568 76.7423 24.7461C78.4264 24.9353 80.1212 24.4975 81.5029 23.5162C82.8845 22.5349 83.8563 21.079 84.2324 19.4266H80.9364C80.6606 20.0429 80.2237 20.5734 79.6716 20.9622C79.1196 21.351 78.4729 21.5837 77.7997 21.6358C77.1265 21.6879 76.4517 21.5576 75.8464 21.2584C75.2411 20.9592 74.7277 20.5022 74.3603 19.9357C73.9929 19.3692 73.7851 18.7141 73.7588 18.0395C73.7324 17.3648 73.8885 16.6955 74.2107 16.102C74.5328 15.5086 75.0091 15.0131 75.5892 14.6676C76.1693 14.3222 76.8319 14.1395 77.5071 14.139Z" fill="white"/>
<path d="M108.463 11.0049C107.099 11.0049 105.767 11.4091 104.634 12.1665C103.5 12.9238 102.617 14.0003 102.095 15.2597C101.573 16.5191 101.437 17.9049 101.703 19.2419C101.969 20.5789 102.625 21.807 103.589 22.7709C104.553 23.7348 105.781 24.3912 107.118 24.6571C108.455 24.9231 109.841 24.7866 111.1 24.265C112.36 23.7433 113.436 22.8599 114.193 21.7264C114.951 20.593 115.355 19.2604 115.355 17.8972C115.355 16.0694 114.628 14.3166 113.336 13.0241C112.043 11.7317 110.29 11.0054 108.463 11.0049ZM112.217 17.9704C112.197 18.9595 111.788 19.901 111.079 20.5902C110.369 21.2795 109.416 21.6607 108.427 21.651C107.438 21.6414 106.492 21.2417 105.796 20.5387C105.1 19.8358 104.709 18.8865 104.709 17.8972C104.709 16.9079 105.1 15.9587 105.796 15.2557C106.492 14.5528 107.438 14.153 108.427 14.1434C109.416 14.1337 110.369 14.515 111.079 15.2042C111.788 15.8934 112.197 16.835 112.217 17.824V17.9704Z" fill="white"/>
<path d="M96.5699 12.4334C95.5488 11.6454 94.3274 11.1593 93.044 11.0302C91.7607 10.9012 90.4669 11.1344 89.3093 11.7032C88.1518 12.2721 87.1768 13.1539 86.4949 14.2487C85.8131 15.3436 85.4517 16.6076 85.4517 17.8973C85.4517 19.1871 85.8131 20.4511 86.4949 21.546C87.1768 22.6408 88.1518 23.5227 89.3093 24.0915C90.4669 24.6604 91.7607 24.8935 93.044 24.7644C94.3274 24.6354 95.5488 24.1494 96.5699 23.3614L96.9866 24.4256H99.8415V11.3767H96.9866L96.5699 12.4334ZM96.1326 17.9706C96.1133 18.9597 95.7044 19.9012 94.9947 20.5904C94.285 21.2796 93.3319 21.6608 92.3427 21.6512C91.3534 21.6415 90.408 21.2418 89.7119 20.5389C89.0158 19.836 88.6253 18.8866 88.6253 17.8973C88.6253 16.9081 89.0158 15.9588 89.7119 15.2559C90.408 14.553 91.3534 14.1532 92.3427 14.1435C93.3319 14.1339 94.285 14.5152 94.9947 15.2044C95.7044 15.8936 96.1133 16.8351 96.1326 17.8242V17.9706Z" fill="white"/>
<path d="M120.61 13.4282L120.192 11.8608H117.07V24.7896H120.603V19.3031C120.603 19.2262 120.616 18.3064 120.625 18.2332C120.686 17.7656 120.871 17.3227 121.16 16.9505C121.45 16.5782 121.833 16.2901 122.271 16.116C123.126 15.7853 124.055 15.6951 124.957 15.8551V11.9472C122.018 11.7895 120.61 13.4282 120.61 13.4282Z" fill="white"/>
<path d="M139.886 16.6639C139.569 14.9785 138.637 13.4715 137.269 12.4369C135.902 11.4022 134.198 10.9144 132.49 11.0684C130.782 11.2225 129.193 12.0074 128.033 13.2701C126.873 14.5327 126.225 16.1823 126.215 17.897C126.215 18.0416 126.228 18.1824 126.236 18.325C126.251 18.5522 126.275 18.7755 126.311 18.9951C126.4 19.5671 126.563 20.1253 126.793 20.6563C127.33 21.8845 128.213 22.9296 129.335 23.6635C130.456 24.3974 131.767 24.7883 133.108 24.7883C134.448 24.7883 135.759 24.3974 136.881 23.6635C138.002 22.9296 138.885 21.8845 139.422 20.6563H135.653C135.186 21.0874 134.618 21.3931 134.001 21.5446C133.384 21.6961 132.738 21.6885 132.125 21.5225C131.511 21.3565 130.95 21.0375 130.494 20.5955C130.037 20.1535 129.701 19.6028 129.515 18.9951H139.906C139.94 18.7755 139.966 18.5522 139.979 18.325C139.979 18.1824 140 18.0416 140 17.897C139.998 17.4834 139.96 17.0708 139.886 16.6639ZM129.562 16.6639C129.818 15.9276 130.297 15.2893 130.932 14.8376C131.568 14.3858 132.328 14.1431 133.108 14.1431C133.887 14.1431 134.648 14.3858 135.283 14.8376C135.918 15.2893 136.397 15.9276 136.653 16.6639H129.562Z" fill="white"/>
</svg>
