<svg width="29" height="32" viewBox="0 0 29 32" fill="none" xmlns="http://www.w3.org/2000/svg">
<path d="M21.2447 24.9207C25.1558 21.0096 25.1558 14.6686 21.2447 10.7575C17.3337 6.8465 10.9926 6.84649 7.08158 10.7575C3.17053 14.6686 3.17053 21.0096 7.08157 24.9207C10.9926 28.8317 17.3337 28.8317 21.2447 24.9207Z" fill="#BFD1FF" fill-opacity="0.5"/>
<path d="M3.92188 11.2238C3.92188 5.57376 8.51843 0.976318 14.1685 0.976318C19.8185 0.976318 24.416 5.57287 24.416 11.2238C24.416 16.8739 19.8194 21.4704 14.1685 21.4704C8.51843 21.4704 3.92188 16.8739 3.92188 11.2238ZM4.38694 11.2238C4.38694 16.6174 8.77493 21.0062 14.1685 21.0062C19.562 21.0062 23.9509 16.6182 23.9509 11.2238C23.9509 5.83025 19.5629 1.44139 14.1685 1.44139C8.77493 1.44139 4.38694 5.83025 4.38694 11.2238Z" fill="#505EDE"/>
</svg>
