<svg width="41" height="42" viewBox="0 0 41 42" fill="none" xmlns="http://www.w3.org/2000/svg">
<mask id="path-1-outside-1_733_9920" maskUnits="userSpaceOnUse" x="-0.492188" y="0" width="42" height="42" fill="black">
<rect fill="white" x="-0.492188" width="42" height="42"/>
<path fill-rule="evenodd" clip-rule="evenodd" d="M40.4795 20.9859C40.4795 32.0236 31.5317 40.9717 20.4943 40.9717C9.45568 40.9717 0.507812 32.0236 0.507812 20.9859C0.507812 9.94814 9.45568 1 20.4943 1C31.5317 1 40.4795 9.94814 40.4795 20.9859Z"/>
</mask>
<path d="M39.9799 20.9859C39.9799 31.7477 31.2557 40.4721 20.4943 40.4721V41.4714C31.8077 41.4714 40.9792 32.2995 40.9792 20.9859H39.9799ZM20.4943 40.4721C9.73162 40.4721 1.00746 31.7476 1.00746 20.9859H0.00816581C0.00816581 32.2995 9.17973 41.4714 20.4943 41.4714V40.4721ZM1.00746 20.9859C1.00746 10.2241 9.73162 1.49965 20.4943 1.49965V0.500353C9.17973 0.500353 0.00816581 9.67219 0.00816581 20.9859H1.00746ZM20.4943 1.49965C31.2557 1.49965 39.9799 10.2241 39.9799 20.9859H40.9792C40.9792 9.67221 31.8077 0.500353 20.4943 0.500353V1.49965Z" fill="#0A192F" mask="url(#path-1-outside-1_733_9920)"/>
<path fill-rule="evenodd" clip-rule="evenodd" d="M26.6875 16.7736C26.6535 16.7834 26.6171 16.7692 26.5997 16.7383C26.5857 16.7135 26.5871 16.6828 26.6032 16.6592C26.6734 16.5567 26.7512 16.4581 26.8316 16.3604C27.1919 15.9219 26.8037 15.481 26.2821 15.7045C25.8844 15.8764 25.5605 15.8429 25.214 15.565C24.5092 15.0004 23.6662 14.8542 22.7743 15.0171C21.3193 15.2816 20.2811 16.5459 20.2977 17.9943C20.3016 18.3559 19.9909 18.644 19.6328 18.594C17.8767 18.3486 16.3982 17.6231 15.0941 16.5622C14.554 16.1229 13.6547 16.3291 13.6216 17.0246C13.5762 17.9553 14.0272 18.7231 14.6993 19.3926C14.7262 19.4193 14.7276 19.4625 14.7026 19.491C14.6853 19.5106 14.6583 19.5189 14.633 19.5123C14.5334 19.4863 14.4337 19.4603 14.3333 19.4343C13.9443 19.3332 13.5727 19.6541 13.6908 20.0383C13.9986 21.0399 14.6904 21.7508 15.7814 22.1944C15.8118 22.2068 15.8268 22.2419 15.8142 22.2722C15.8053 22.2935 15.7844 22.3072 15.7613 22.3072H15.4254C15.0557 22.3072 14.7806 22.6618 14.9782 22.9742C15.173 23.2821 15.4378 23.5223 15.7505 23.7154C16.4324 24.1333 16.5158 25.0473 15.753 25.2873C14.9776 25.5313 14.141 25.6238 13.2571 25.6284C13.185 25.6288 13.1342 25.7275 13.1941 25.7676C13.2394 25.7977 13.2846 25.8267 13.3335 25.8512C16.0077 27.2472 18.7879 27.4458 21.5158 26.1425C24.7794 24.5814 26.2047 21.8463 26.4893 18.5243C26.519 18.1717 26.6167 17.8905 26.8703 17.6406C27.1584 17.3582 27.4394 17.0692 27.7157 16.7758C27.7862 16.7008 27.8371 16.6093 27.894 16.522C27.9072 16.5019 27.9053 16.4753 27.8892 16.4575C27.8763 16.4432 27.8564 16.4376 27.8379 16.443L26.6875 16.7736Z" fill="#0A192F"/>
</svg>
