<svg width="17" height="18" viewBox="0 0 17 18" fill="none" xmlns="http://www.w3.org/2000/svg">
<path d="M9.38467 8.26309C9.58052 8.16293 9.7987 8.10998 10.0251 8.10998C10.4002 8.10998 10.7528 8.25561 11.0187 8.52007L11.591 7.94783C13.0072 8.44427 14.6453 8.12645 15.7774 6.99433C16.7301 6.04169 17.1058 4.731 16.9052 3.49552C16.8831 3.35947 16.7868 3.24725 16.6557 3.20491C16.5245 3.16251 16.3806 3.19696 16.2832 3.29445L15.4334 4.1442C14.7414 4.8362 13.6194 4.8362 12.9274 4.1442C12.2353 3.4522 12.2353 2.33016 12.9274 1.63816L13.7771 0.788416C13.8746 0.690925 13.9094 0.546981 13.8669 0.415795C13.8245 0.284552 13.7121 0.188453 13.576 0.166357C12.3406 -0.0341909 11.0298 0.341503 10.0772 1.29414C8.92824 2.44314 8.61901 4.11294 9.14747 5.5434L7.90625 6.78462L9.38467 8.26309Z" fill="white"/>
<path d="M7.12221 10.512L5.65 9.03979L0.502037 14.1877C-0.167346 14.8571 -0.167346 15.9423 0.502037 16.6117C1.17142 17.2811 2.25669 17.2811 2.92607 16.6117L7.36393 12.1739C6.91633 11.7239 6.83565 11.0446 7.12221 10.512Z" fill="white"/>
<path d="M10.4062 9.13789C10.3009 9.03263 10.1629 8.97996 10.0249 8.97996C9.88696 8.97996 9.74893 9.03263 9.64367 9.13789L9.33636 9.4452L3.86206 3.9709L4.11793 3.71503C4.35107 3.48195 4.32213 3.09529 4.0564 2.89961L1.82288 1.25469C1.60824 1.09665 1.31038 1.1191 1.12189 1.30758L0.17355 2.25598C-0.014935 2.44447 -0.0373792 2.74239 0.120658 2.95697L1.76552 5.19049C1.9612 5.45617 2.34762 5.4854 2.58094 5.25202L2.83681 4.99609L8.31111 10.4704L7.98216 10.7993C7.77158 11.0099 7.77158 11.3513 7.98216 11.5619L13.0323 16.612C13.7017 17.2814 14.787 17.2814 15.4564 16.612C16.1258 15.9427 16.1258 14.8574 15.4564 14.188L10.4062 9.13789Z" fill="white"/>
</svg>
