<svg width="34" height="34" viewBox="0 0 34 34" fill="none" xmlns="http://www.w3.org/2000/svg">
<path d="M33.9494 16.5516C33.8743 12.2708 32.4223 8.44058 29.4182 5.36138C24.2862 0.079179 18.0026 -1.19756 11.1683 1.08055C4.43414 3.33362 0.804191 8.39051 0.103235 15.375C-1.07337 26.7155 7.96396 35.3773 19.2293 33.7501C23.2348 33.1743 26.4642 31.1465 29.0177 27.9171C29.1428 28.1174 29.1679 28.1425 29.1679 28.1675C29.1679 29.1689 29.1679 30.1702 29.1929 31.1466C29.2179 32.6987 30.1192 33.65 31.5211 33.65C32.9731 33.65 33.9494 32.6736 33.9494 31.0965C33.9744 26.2649 34.0495 21.4083 33.9494 16.5516ZM16.9512 29.7446C9.86655 29.6946 4.60938 24.2371 4.65945 16.9522C4.68448 9.71732 10.0418 4.30995 17.1515 4.36002C24.136 4.38505 29.3181 9.86753 29.293 17.1525C29.268 24.3623 23.9357 29.7947 16.9512 29.7446Z" fill="#FB8686"/>
<path d="M11.2934 16.8521C12.7955 18.6795 14.5228 19.2053 16.6006 18.2039C16.9261 18.0537 17.2015 18.0537 17.5519 18.1789C19.5046 19.03 21.1819 18.6044 22.5588 16.9522C23.2097 19.1802 22.2333 21.7337 20.1805 23.2608C18.4031 24.5876 16.125 24.7378 14.3225 23.6613C11.8942 22.2094 10.7677 19.756 11.2934 16.8521Z" fill="#FB8686"/>
<path d="M18.2279 12.0957C17.6522 11.3947 16.9512 11.4448 16.2002 11.7202C15.4492 11.9955 15.4992 12.6464 15.4992 13.2723C15.4992 13.8981 15.4992 14.524 15.4992 15.1248C15.4992 15.7507 15.1988 16.2013 14.573 16.2513C13.9221 16.3014 13.5966 15.8007 13.5716 15.2249C13.5215 14.1985 13.4715 13.1471 13.5966 12.1207C13.7719 10.5936 15.4492 9.46709 17.2266 9.56722C18.9539 9.66736 20.2807 10.9441 20.3308 12.5213C20.3558 13.4225 20.3558 14.3487 20.3308 15.25C20.3058 15.8007 20.0304 16.2263 19.4296 16.2513C18.7787 16.2764 18.4783 15.8258 18.4282 15.2249C18.3781 14.6492 18.3281 14.0734 18.303 13.4976C18.2029 13.047 18.2029 12.5463 18.2279 12.0957Z" fill="#FB8686"/>
</svg>
