<svg width="78" height="55" viewBox="0 0 78 55" fill="none" xmlns="http://www.w3.org/2000/svg">
<path d="M14.5949 35.9266C12.8799 40.2402 10.1774 44.5019 6.56539 48.6076C5.42202 49.9069 5.2661 51.7778 6.20156 53.233C6.92924 54.3764 8.12447 55 9.42375 55C9.78758 55 10.1514 54.9741 10.5153 54.8441C18.1549 52.6093 36.0071 44.6838 36.5009 19.2698C36.6826 9.47329 29.5107 1.05397 20.1818 0.0925024C15.0107 -0.427236 9.86561 1.26173 6.04565 4.69185C2.22584 8.14799 0.0429687 13.0853 0.0429687 18.2304C0.0429687 26.8056 6.12368 34.3155 14.5949 35.9266Z" fill="#080B35"/>
<path d="M61.655 0.0925024C56.5097 -0.427236 51.3646 1.26173 47.5448 4.69185C43.7249 8.14799 41.542 13.0853 41.542 18.2304C41.542 26.8056 47.6227 34.3155 56.094 35.9266C54.3789 40.2402 51.6765 44.5019 48.0644 48.6076C46.921 49.9069 46.7651 51.7778 47.7007 53.233C48.4283 54.3763 49.6237 55 50.9229 55C51.2866 55 51.6505 54.9741 52.0143 54.8441C59.654 52.6093 77.5062 44.6838 77.9999 19.2697V18.9061C77.9999 9.26535 70.9059 1.05397 61.655 0.0925024Z" fill="#080B35"/>
</svg>
