<svg width="43" height="32" viewBox="0 0 43 32" fill="none" xmlns="http://www.w3.org/2000/svg">
<g opacity="0.7">
<path d="M15.4307 31.8376C23.9528 31.8376 30.8613 24.9291 30.8613 16.407C30.8613 7.88485 23.9528 0.976318 15.4307 0.976318C6.90854 0.976318 0 7.88485 0 16.407C0 24.9291 6.90854 31.8376 15.4307 31.8376Z" fill="#DCE6FF"/>
<path d="M20.6432 9.29992L16.2812 4.93799C16.6861 4.5739 17.1095 4.23108 17.5507 3.9104L21.9959 8.3556L34.6547 21.0144L39.0999 25.4596C38.7792 25.9008 38.4373 26.3251 38.0723 26.7291L33.7104 22.3671L20.6432 9.29992Z" fill="#AEB8E8"/>
<path d="M23.5748 7.63717L18.9453 3.00771C19.4387 2.72512 19.9499 2.46912 20.4761 2.24146L25.4386 7.20399L35.804 17.5693L40.7665 22.5319C40.5388 23.0581 40.2828 23.5692 40.0002 24.0626L35.3708 19.4332L23.5748 7.63717Z" fill="#AEB8E8"/>
<path d="M18.5546 11.8003L14.1094 7.35513C14.4301 6.91397 14.772 6.48964 15.137 6.08569L19.4989 10.4476L32.5652 23.514L36.9272 27.8759C36.5223 28.24 36.0989 28.5828 35.6577 28.9035L31.2125 24.4583L18.5546 11.8003Z" fill="#AEB8E8"/>
<path d="M18.5217 20.9567L11.3906 13.8256C11.4978 13.1904 11.6431 12.5695 11.8247 11.9626L17.3985 17.5364L25.4748 25.6127L31.0486 31.1865C30.4426 31.3681 29.8208 31.5143 29.1856 31.6206L22.0545 24.4895L18.5217 20.9567Z" fill="#AEB8E8"/>
<path d="M17.4 15.2435L12.4375 10.281C12.6652 9.7548 12.9212 9.24366 13.2038 8.75024L17.8332 13.3797L29.6292 25.1757L34.2587 29.8052C33.7653 30.0878 33.2541 30.3438 32.7279 30.5714L27.7654 25.6089L17.4 15.2435Z" fill="#AEB8E8"/>
<path d="M27.73 7.20049L22.1562 1.6267C22.7622 1.4451 23.384 1.29893 24.0192 1.19263L31.1503 8.32374L34.684 11.8574L41.8151 18.9885C41.7079 19.6237 41.5626 20.2447 41.381 20.8515L35.8072 15.2777L27.73 7.20049Z" fill="#AEB8E8"/>
<path d="M41.2412 11.5221L31.4844 1.76538C36.0775 3.29702 39.7095 6.929 41.2412 11.5221Z" fill="#AEB8E8"/>
<path d="M26.6001 0.976318C27.2486 0.976318 27.8882 1.01706 28.5154 1.09502L41.9121 14.4918C41.99 15.1198 42.0308 15.7585 42.0308 16.407C42.0308 16.5717 42.0272 16.7347 42.0219 16.8977L26.1094 0.985175C26.2724 0.97986 26.4363 0.976318 26.6001 0.976318Z" fill="#AEB8E8"/>
<path d="M11.1807 15.9153L27.0933 31.8278C26.9303 31.8331 26.7664 31.8367 26.6025 31.8367C25.9541 31.8367 25.3145 31.7959 24.6873 31.718L11.2906 18.3212C11.2126 17.6932 11.1719 17.0545 11.1719 16.406C11.1719 16.2422 11.1754 16.0783 11.1807 15.9153Z" fill="#AEB8E8"/>
<path d="M11.9609 21.2908L21.7177 31.0476C17.1246 29.5159 13.4926 25.8839 11.9609 21.2908Z" fill="#AEB8E8"/>
</g>
</svg>
