<svg width="24" height="25" viewBox="0 0 24 25" fill="none" xmlns="http://www.w3.org/2000/svg">
<path d="M23.4724 12.7704L18.3282 11.0557V3.07807C18.3282 2.77545 18.1345 2.50676 17.8474 2.41104L12.2224 0.536035C12.078 0.487941 11.922 0.488035 11.7777 0.536035L6.15264 2.41104C5.86553 2.50671 5.67189 2.7754 5.67189 3.07807V11.0557L0.527626 12.7704C0.240516 12.8661 0.046875 13.1348 0.046875 13.4375V21.9219C0.046875 22.2245 0.240516 22.4932 0.527626 22.5889L6.15264 24.4639C6.22483 24.488 6.29992 24.5 6.37502 24.5C6.45011 24.5 6.5252 24.488 6.59739 24.4639L12 22.663L17.4027 24.4639C17.4749 24.488 17.55 24.5 17.625 24.5C17.7001 24.5 17.7752 24.488 17.8474 24.4639L23.4724 22.5889C23.7595 22.4932 23.9532 22.2245 23.9532 21.9219V13.4375C23.9532 13.1348 23.7595 12.8661 23.4724 12.7704ZM17.625 14.5713L14.2235 13.4375L17.625 12.3036L21.0265 13.4375L17.625 14.5713ZM6.37502 12.3036L9.77651 13.4375L6.37502 14.5713L2.97348 13.4375L6.37502 12.3036ZM11.2969 5.45984V12.4619L7.07814 11.0557V4.05359L11.2969 5.45984ZM16.9219 11.0557L12.7032 12.4619V5.45984L16.9219 4.05359V11.0557ZM7.07814 15.8192L11.2969 14.413V21.4151L7.07814 22.8213V15.8192ZM12 1.94421L15.4015 3.07807L12 4.21189L8.59849 3.07807L12 1.94421ZM1.45313 14.413L5.67189 15.8192V22.8213L1.45313 21.4151V14.413ZM12.7032 14.413L16.9219 15.8192V22.8213L12.7032 21.4151V14.413ZM18.3282 22.8213V15.8192L22.5469 14.413V21.4151L18.3282 22.8213Z" fill="#0A192F"/>
</svg>
