<svg width="22" height="14" viewBox="0 0 22 14" fill="none" xmlns="http://www.w3.org/2000/svg">
<path d="M20.9902 14H0.358672C0.155213 14 -0.00976562 13.835 -0.00976562 13.6316V0.368437C-0.00976562 0.164979 0.155213 0 0.358672 0H20.9902C21.1937 0 21.3586 0.164979 21.3586 0.368437V13.6316C21.3586 13.8351 21.1936 14 20.9902 14Z" fill="#F5F5F5"/>
<path d="M21.3586 1.07697H-0.00976562V0.368437C-0.00976562 0.164979 0.155213 0 0.358672 0H20.9902C21.1937 0 21.3586 0.164979 21.3586 0.368437L21.3586 1.07697Z" fill="#FF4B55"/>
<path d="M21.3586 4.30811H-0.00976562V5.38504H21.3586V4.30811Z" fill="#FF4B55"/>
<path d="M21.3586 2.15381H-0.00976562V3.23074H21.3586V2.15381Z" fill="#FF4B55"/>
<path d="M21.3586 7.5384H0.358672C0.155213 7.5384 -0.00976562 7.37342 -0.00976562 7.16996V6.46143H21.3586V7.5384Z" fill="#FF4B55"/>
<path d="M21.3586 10.7705H-0.00976562V11.8474H21.3586V10.7705Z" fill="#FF4B55"/>
<path d="M20.9902 13.9998H0.358672C0.155213 13.9998 -0.00976562 13.8348 -0.00976562 13.6313V12.9229H21.3586V13.6314C21.3586 13.8348 21.1936 13.9998 20.9902 13.9998Z" fill="#FF4B55"/>
<path d="M21.3586 8.61572H-0.00976562V9.69266H21.3586V8.61572Z" fill="#FF4B55"/>
<path d="M9.56915 0H0.358672C0.155213 0 -0.00976562 0.164937 -0.00976562 0.368396V7.16997C-0.00976562 7.37342 0.155213 7.5384 0.358672 7.5384H9.56919C9.77265 7.5384 9.93763 7.37342 9.93763 7.16997V0.368396C9.93759 0.164937 9.77261 0 9.56915 0Z" fill="#41479B"/>
<path d="M1.02494 0.846018L1.10649 1.09059L1.36429 1.09255C1.39768 1.09284 1.41149 1.13541 1.38466 1.15523L1.17727 1.3084L1.25507 1.55418C1.26517 1.58598 1.2289 1.61236 1.20173 1.59291L0.992012 1.44304L0.782293 1.59295C0.755124 1.61236 0.718939 1.58602 0.728956 1.55422L0.80675 1.30844L0.599368 1.15528C0.572533 1.13541 0.586347 1.09288 0.619735 1.09259L0.877533 1.09063L0.959083 0.84606C0.9696 0.814341 1.01434 0.814341 1.02494 0.846018Z" fill="#F5F5F5"/>
<path d="M1.02494 2.1248L1.10649 2.36936L1.36429 2.37132C1.39768 2.37162 1.41149 2.41419 1.38466 2.43401L1.17727 2.58718L1.25507 2.83296C1.26517 2.86476 1.2289 2.89114 1.20173 2.87169L0.992012 2.72182L0.782293 2.87173C0.755124 2.89114 0.718939 2.8648 0.728956 2.833L0.80675 2.58722L0.599368 2.43405C0.572533 2.41419 0.586347 2.37166 0.619735 2.37137L0.877533 2.3694L0.959083 2.12484C0.9696 2.09316 1.01434 2.09316 1.02494 2.1248Z" fill="#F5F5F5"/>
<path d="M1.02494 3.4036L1.10649 3.64817L1.36429 3.65013C1.39768 3.65043 1.41149 3.693 1.38466 3.71282L1.17727 3.86599L1.25507 4.11177C1.26517 4.14357 1.2289 4.16994 1.20173 4.1505L0.992012 4.00063L0.782293 4.15054C0.755124 4.16994 0.718939 4.14361 0.728956 4.11181L0.80675 3.86603L0.599368 3.71286C0.572533 3.693 0.586347 3.65047 0.619735 3.65018L0.877533 3.64821L0.959083 3.40365C0.9696 3.37197 1.01434 3.37197 1.02494 3.4036Z" fill="#F5F5F5"/>
<path d="M1.02494 4.68342L1.10649 4.92799L1.36429 4.92995C1.39768 4.93024 1.41149 4.97281 1.38466 4.99264L1.17727 5.1458L1.25507 5.39158C1.26517 5.42338 1.2289 5.44976 1.20173 5.43031L0.992012 5.28044L0.782293 5.43035C0.755124 5.44976 0.718939 5.42343 0.728956 5.39162L0.80675 5.14585L0.599368 4.99268C0.572533 4.97281 0.586347 4.93028 0.619735 4.92999L0.877533 4.92803L0.959083 4.68346C0.9696 4.65174 1.01434 4.65174 1.02494 4.68342Z" fill="#F5F5F5"/>
<path d="M1.02494 5.96275L1.10649 6.20732L1.36429 6.20928C1.39768 6.20957 1.41149 6.25214 1.38466 6.27196L1.17727 6.42513L1.25507 6.67091C1.26517 6.70271 1.2289 6.72909 1.20173 6.70964L0.992012 6.55977L0.782293 6.70968C0.755124 6.72909 0.718939 6.70275 0.728956 6.67095L0.80675 6.42517L0.599368 6.27201C0.572533 6.25214 0.586347 6.20961 0.619735 6.20932L0.877533 6.20736L0.959083 5.96279C0.9696 5.93103 1.01434 5.93103 1.02494 5.96275Z" fill="#F5F5F5"/>
<path d="M2.01737 1.47295L2.09892 1.71751L2.35672 1.71947C2.39011 1.71977 2.40392 1.76234 2.37709 1.78216L2.16971 1.93533L2.2475 2.18111C2.2576 2.21291 2.22133 2.23929 2.19416 2.21984L1.98444 2.06992L1.77472 2.21984C1.74756 2.23924 1.71137 2.21291 1.72139 2.18111L1.79918 1.93533L1.5918 1.78216C1.56496 1.76229 1.57878 1.71977 1.61217 1.71947L1.86996 1.71751L1.95151 1.47295C1.96199 1.44131 2.00681 1.44131 2.01737 1.47295Z" fill="#F5F5F5"/>
<path d="M2.01737 2.75227L2.09892 2.99684L2.35672 2.9988C2.39011 2.99909 2.40392 3.04166 2.37709 3.06149L2.16971 3.21466L2.2475 3.46043C2.2576 3.49224 2.22133 3.51861 2.19416 3.49916L1.98444 3.34925L1.77472 3.49916C1.74756 3.51857 1.71137 3.49228 1.72139 3.46043L1.79918 3.21466L1.5918 3.06149C1.56496 3.04162 1.57878 2.99909 1.61217 2.9988L1.86996 2.99684L1.95151 2.75227C1.96199 2.7206 2.00681 2.7206 2.01737 2.75227Z" fill="#F5F5F5"/>
<path d="M2.01737 4.03157L2.09892 4.27614L2.35672 4.2781C2.39011 4.27839 2.40392 4.32096 2.37709 4.34079L2.16971 4.49395L2.2475 4.73973C2.2576 4.77153 2.22133 4.79791 2.19416 4.77846L1.98444 4.62855L1.77472 4.77846C1.74756 4.79787 1.71137 4.77153 1.72139 4.73973L1.79918 4.49395L1.5918 4.34079C1.56496 4.32092 1.57878 4.27839 1.61217 4.2781L1.86996 4.27614L1.95151 4.03157C1.96199 3.99989 2.00681 3.99989 2.01737 4.03157Z" fill="#F5F5F5"/>
<path d="M2.01737 5.31181L2.09892 5.55638L2.35672 5.55834C2.39011 5.55863 2.40392 5.6012 2.37709 5.62103L2.16971 5.7742L2.2475 6.01997C2.2576 6.05178 2.22133 6.07815 2.19416 6.0587L1.98444 5.90879L1.77472 6.0587C1.74756 6.07811 1.71137 6.05178 1.72139 6.01997L1.79918 5.7742L1.5918 5.62103C1.56496 5.60116 1.57878 5.55863 1.61217 5.55834L1.86996 5.55638L1.95151 5.31181C1.96199 5.28018 2.00681 5.28018 2.01737 5.31181Z" fill="#F5F5F5"/>
<path d="M3.01078 0.846023L3.09233 1.09059L3.35013 1.09255C3.38352 1.09284 3.39733 1.13541 3.3705 1.15524L3.16311 1.30841L3.24091 1.55418C3.25101 1.58599 3.21474 1.61236 3.18757 1.59291L2.97785 1.443L2.76813 1.59291C2.74096 1.61232 2.70478 1.58599 2.7148 1.55418L2.79259 1.30841L2.58521 1.15524C2.55837 1.13537 2.57219 1.09284 2.60557 1.09255L2.86337 1.09059L2.94492 0.846023C2.95544 0.814346 3.00022 0.814346 3.01078 0.846023Z" fill="#F5F5F5"/>
<path d="M3.01078 2.1248L3.09233 2.36937L3.35013 2.37133C3.38352 2.37162 3.39733 2.41419 3.3705 2.43402L3.16311 2.58718L3.24091 2.83296C3.25101 2.86476 3.21474 2.89114 3.18757 2.87169L2.97785 2.72178L2.76813 2.87169C2.74096 2.8911 2.70478 2.86476 2.7148 2.83296L2.79259 2.58718L2.58521 2.43402C2.55837 2.41415 2.57219 2.37162 2.60557 2.37133L2.86337 2.36937L2.94492 2.1248C2.95544 2.09317 3.00022 2.09317 3.01078 2.1248Z" fill="#F5F5F5"/>
<path d="M3.01078 3.40361L3.09233 3.64818L3.35013 3.65014C3.38352 3.65043 3.39733 3.693 3.3705 3.71283L3.16311 3.86599L3.24091 4.11177C3.25101 4.14357 3.21474 4.16995 3.18757 4.1505L2.97785 4.00059L2.76813 4.1505C2.74096 4.16991 2.70478 4.14357 2.7148 4.11177L2.79259 3.86599L2.58521 3.71283C2.55837 3.69296 2.57219 3.65043 2.60557 3.65014L2.86337 3.64818L2.94492 3.40361C2.95544 3.37197 3.00022 3.37197 3.01078 3.40361Z" fill="#F5F5F5"/>
<path d="M3.01078 4.68343L3.09233 4.92799L3.35013 4.92995C3.38352 4.93025 3.39733 4.97282 3.3705 4.99264L3.16311 5.14581L3.24091 5.39159C3.25101 5.42339 3.21474 5.44977 3.18757 5.43032L2.97785 5.2804L2.76813 5.43032C2.74096 5.44972 2.70478 5.42339 2.7148 5.39159L2.79259 5.14581L2.58521 4.99264C2.55837 4.97278 2.57219 4.93025 2.60557 4.92995L2.86337 4.92799L2.94492 4.68343C2.95544 4.65175 3.00022 4.65175 3.01078 4.68343Z" fill="#F5F5F5"/>
<path d="M3.01078 5.96275L3.09233 6.20732L3.35013 6.20928C3.38352 6.20958 3.39733 6.25214 3.3705 6.27197L3.16311 6.42514L3.24091 6.67092C3.25101 6.70272 3.21474 6.72909 3.18757 6.70965L2.97785 6.55973L2.76813 6.70965C2.74096 6.72905 2.70478 6.70272 2.7148 6.67092L2.79259 6.42514L2.58521 6.27197C2.55837 6.2521 2.57219 6.20958 2.60557 6.20928L2.86337 6.20732L2.94492 5.96275C2.95544 5.93104 3.00022 5.93104 3.01078 5.96275Z" fill="#F5F5F5"/>
<path d="M4.0037 1.47295L4.08525 1.71751L4.34305 1.71947C4.37644 1.71977 4.39025 1.76234 4.36342 1.78216L4.15603 1.93533L4.23383 2.18111C4.24393 2.21291 4.20766 2.23929 4.18049 2.21984L3.97077 2.06992L3.76105 2.21984C3.73388 2.23924 3.6977 2.21291 3.70772 2.18111L3.78551 1.93533L3.57813 1.78216C3.55129 1.76229 3.56511 1.71977 3.59849 1.71947L3.85629 1.71751L3.93784 1.47295C3.94832 1.44131 3.99314 1.44131 4.0037 1.47295Z" fill="#F5F5F5"/>
<path d="M4.0037 2.75227L4.08525 2.99684L4.34305 2.9988C4.37644 2.99909 4.39025 3.04166 4.36342 3.06149L4.15603 3.21466L4.23383 3.46043C4.24393 3.49224 4.20766 3.51861 4.18049 3.49916L3.97077 3.34925L3.76105 3.49916C3.73388 3.51857 3.6977 3.49228 3.70772 3.46043L3.78551 3.21466L3.57813 3.06149C3.55129 3.04162 3.56511 2.99909 3.59849 2.9988L3.85629 2.99684L3.93784 2.75227C3.94832 2.7206 3.99314 2.7206 4.0037 2.75227Z" fill="#F5F5F5"/>
<path d="M4.0037 4.03157L4.08525 4.27614L4.34305 4.2781C4.37644 4.27839 4.39025 4.32096 4.36342 4.34079L4.15603 4.49395L4.23383 4.73973C4.24393 4.77153 4.20766 4.79791 4.18049 4.77846L3.97077 4.62855L3.76105 4.77846C3.73388 4.79787 3.6977 4.77153 3.70772 4.73973L3.78551 4.49395L3.57813 4.34079C3.55129 4.32092 3.56511 4.27839 3.59849 4.2781L3.85629 4.27614L3.93784 4.03157C3.94832 3.99989 3.99314 3.99989 4.0037 4.03157Z" fill="#F5F5F5"/>
<path d="M4.0037 5.31181L4.08525 5.55638L4.34305 5.55834C4.37644 5.55863 4.39025 5.6012 4.36342 5.62103L4.15603 5.7742L4.23383 6.01997C4.24393 6.05178 4.20766 6.07815 4.18049 6.0587L3.97077 5.90879L3.76105 6.0587C3.73388 6.07811 3.6977 6.05178 3.70772 6.01997L3.78551 5.7742L3.57813 5.62103C3.55129 5.60116 3.56511 5.55863 3.59849 5.55834L3.85629 5.55638L3.93784 5.31181C3.94832 5.28018 3.99314 5.28018 4.0037 5.31181Z" fill="#F5F5F5"/>
<path d="M4.99715 0.846023L5.0787 1.09059L5.3365 1.09255C5.36989 1.09284 5.3837 1.13541 5.35687 1.15524L5.14948 1.30841L5.22728 1.55418C5.23738 1.58599 5.20111 1.61236 5.17394 1.59291L4.96418 1.443L4.75446 1.59291C4.72729 1.61232 4.69111 1.58599 4.70112 1.55418L4.77892 1.30841L4.57154 1.15524C4.5447 1.13537 4.55851 1.09284 4.5919 1.09255L4.8497 1.09059L4.93125 0.846023C4.94181 0.814346 4.98659 0.814346 4.99715 0.846023Z" fill="#F5F5F5"/>
<path d="M4.99715 2.1248L5.0787 2.36937L5.3365 2.37133C5.36989 2.37162 5.3837 2.41419 5.35687 2.43402L5.14948 2.58718L5.22728 2.83296C5.23738 2.86476 5.20111 2.89114 5.17394 2.87169L4.96418 2.72178L4.75446 2.87169C4.72729 2.8911 4.69111 2.86476 4.70112 2.83296L4.77892 2.58718L4.57154 2.43402C4.5447 2.41415 4.55851 2.37162 4.5919 2.37133L4.8497 2.36937L4.93125 2.1248C4.94181 2.09317 4.98659 2.09317 4.99715 2.1248Z" fill="#F5F5F5"/>
<path d="M4.99715 3.40361L5.0787 3.64818L5.3365 3.65014C5.36989 3.65043 5.3837 3.693 5.35687 3.71283L5.14948 3.86599L5.22728 4.11177C5.23738 4.14357 5.20111 4.16995 5.17394 4.1505L4.96418 4.00059L4.75446 4.1505C4.72729 4.16991 4.69111 4.14357 4.70112 4.11177L4.77892 3.86599L4.57154 3.71283C4.5447 3.69296 4.55851 3.65043 4.5919 3.65014L4.8497 3.64818L4.93125 3.40361C4.94181 3.37197 4.98659 3.37197 4.99715 3.40361Z" fill="#F5F5F5"/>
<path d="M4.99715 4.68343L5.0787 4.92799L5.3365 4.92995C5.36989 4.93025 5.3837 4.97282 5.35687 4.99264L5.14948 5.14581L5.22728 5.39159C5.23738 5.42339 5.20111 5.44977 5.17394 5.43032L4.96418 5.2804L4.75446 5.43032C4.72729 5.44972 4.69111 5.42339 4.70112 5.39159L4.77892 5.14581L4.57154 4.99264C4.5447 4.97278 4.55851 4.93025 4.5919 4.92995L4.8497 4.92799L4.93125 4.68343C4.94181 4.65175 4.98659 4.65175 4.99715 4.68343Z" fill="#F5F5F5"/>
<path d="M4.99715 5.96275L5.0787 6.20732L5.3365 6.20928C5.36989 6.20958 5.3837 6.25214 5.35687 6.27197L5.14948 6.42514L5.22728 6.67092C5.23738 6.70272 5.20111 6.72909 5.17394 6.70965L4.96418 6.55973L4.75446 6.70965C4.72729 6.72905 4.69111 6.70272 4.70112 6.67092L4.77892 6.42514L4.57154 6.27197C4.5447 6.2521 4.55851 6.20958 4.5919 6.20928L4.8497 6.20732L4.93125 5.96275C4.94181 5.93104 4.98659 5.93104 4.99715 5.96275Z" fill="#F5F5F5"/>
<path d="M5.98978 1.47295L6.07134 1.71751L6.32913 1.71947C6.36252 1.71977 6.37633 1.76234 6.3495 1.78216L6.14212 1.93533L6.21991 2.18111C6.23001 2.21291 6.19374 2.23929 6.16657 2.21984L5.95686 2.06992L5.74714 2.21984C5.71997 2.23924 5.68378 2.21291 5.6938 2.18111L5.77159 1.93533L5.56421 1.78216C5.53738 1.76229 5.55119 1.71977 5.58458 1.71947L5.84238 1.71751L5.92393 1.47295C5.93449 1.44131 5.97923 1.44131 5.98978 1.47295Z" fill="#F5F5F5"/>
<path d="M5.98978 2.75227L6.07134 2.99684L6.32913 2.9988C6.36252 2.99909 6.37633 3.04166 6.3495 3.06149L6.14212 3.21466L6.21991 3.46043C6.23001 3.49224 6.19374 3.51861 6.16657 3.49916L5.95686 3.34925L5.74714 3.49916C5.71997 3.51857 5.68378 3.49228 5.6938 3.46043L5.77159 3.21466L5.56421 3.06149C5.53738 3.04162 5.55119 2.99909 5.58458 2.9988L5.84238 2.99684L5.92393 2.75227C5.93449 2.7206 5.97923 2.7206 5.98978 2.75227Z" fill="#F5F5F5"/>
<path d="M5.98978 4.03157L6.07134 4.27614L6.32913 4.2781C6.36252 4.27839 6.37633 4.32096 6.3495 4.34079L6.14212 4.49395L6.21991 4.73973C6.23001 4.77153 6.19374 4.79791 6.16657 4.77846L5.95686 4.62855L5.74714 4.77846C5.71997 4.79787 5.68378 4.77153 5.6938 4.73973L5.77159 4.49395L5.56421 4.34079C5.53738 4.32092 5.55119 4.27839 5.58458 4.2781L5.84238 4.27614L5.92393 4.03157C5.93449 3.99989 5.97923 3.99989 5.98978 4.03157Z" fill="#F5F5F5"/>
<path d="M5.98978 5.31181L6.07134 5.55638L6.32913 5.55834C6.36252 5.55863 6.37633 5.6012 6.3495 5.62103L6.14212 5.7742L6.21991 6.01997C6.23001 6.05178 6.19374 6.07815 6.16657 6.0587L5.95686 5.90879L5.74714 6.0587C5.71997 6.07811 5.68378 6.05178 5.6938 6.01997L5.77159 5.7742L5.56421 5.62103C5.53738 5.60116 5.55119 5.55863 5.58458 5.55834L5.84238 5.55638L5.92393 5.31181C5.93449 5.28018 5.97923 5.28018 5.98978 5.31181Z" fill="#F5F5F5"/>
<path d="M6.98295 0.846023L7.0645 1.09059L7.3223 1.09255C7.35568 1.09284 7.3695 1.13541 7.34266 1.15524L7.13528 1.30841L7.21308 1.55418C7.22318 1.58599 7.18691 1.61236 7.15974 1.59291L6.95002 1.443L6.7403 1.59291C6.71313 1.61232 6.67695 1.58599 6.68696 1.55418L6.76476 1.30841L6.55738 1.15524C6.53054 1.13537 6.54435 1.09284 6.57774 1.09255L6.83554 1.09059L6.91709 0.846023C6.92757 0.814346 6.97239 0.814346 6.98295 0.846023Z" fill="#F5F5F5"/>
<path d="M6.98295 2.1248L7.0645 2.36937L7.3223 2.37133C7.35568 2.37162 7.3695 2.41419 7.34266 2.43402L7.13528 2.58718L7.21308 2.83296C7.22318 2.86476 7.18691 2.89114 7.15974 2.87169L6.95002 2.72178L6.7403 2.87169C6.71313 2.8911 6.67695 2.86476 6.68696 2.83296L6.76476 2.58718L6.55738 2.43402C6.53054 2.41415 6.54435 2.37162 6.57774 2.37133L6.83554 2.36937L6.91709 2.1248C6.92757 2.09317 6.97239 2.09317 6.98295 2.1248Z" fill="#F5F5F5"/>
<path d="M6.98295 3.40361L7.0645 3.64818L7.3223 3.65014C7.35568 3.65043 7.3695 3.693 7.34266 3.71283L7.13528 3.86599L7.21308 4.11177C7.22318 4.14357 7.18691 4.16995 7.15974 4.1505L6.95002 4.00059L6.7403 4.1505C6.71313 4.16991 6.67695 4.14357 6.68696 4.11177L6.76476 3.86599L6.55738 3.71283C6.53054 3.69296 6.54435 3.65043 6.57774 3.65014L6.83554 3.64818L6.91709 3.40361C6.92757 3.37197 6.97239 3.37197 6.98295 3.40361Z" fill="#F5F5F5"/>
<path d="M6.98295 4.68343L7.0645 4.92799L7.3223 4.92995C7.35568 4.93025 7.3695 4.97282 7.34266 4.99264L7.13528 5.14581L7.21308 5.39159C7.22318 5.42339 7.18691 5.44977 7.15974 5.43032L6.95002 5.2804L6.7403 5.43032C6.71313 5.44972 6.67695 5.42339 6.68696 5.39159L6.76476 5.14581L6.55738 4.99264C6.53054 4.97278 6.54435 4.93025 6.57774 4.92995L6.83554 4.92799L6.91709 4.68343C6.92757 4.65175 6.97239 4.65175 6.98295 4.68343Z" fill="#F5F5F5"/>
<path d="M6.98295 5.96275L7.0645 6.20732L7.3223 6.20928C7.35568 6.20958 7.3695 6.25214 7.34266 6.27197L7.13528 6.42514L7.21308 6.67092C7.22318 6.70272 7.18691 6.72909 7.15974 6.70965L6.95002 6.55973L6.7403 6.70965C6.71313 6.72905 6.67695 6.70272 6.68696 6.67092L6.76476 6.42514L6.55738 6.27197C6.53054 6.2521 6.54435 6.20958 6.57774 6.20928L6.83554 6.20732L6.91709 5.96275C6.92757 5.93104 6.97239 5.93104 6.98295 5.96275Z" fill="#F5F5F5"/>
<path d="M7.97562 1.47295L8.05718 1.71751L8.31497 1.71947C8.34836 1.71977 8.36218 1.76234 8.33534 1.78216L8.12796 1.93533L8.20575 2.18111C8.21585 2.21291 8.17958 2.23929 8.15241 2.21984L7.9427 2.06992L7.73298 2.21984C7.70581 2.23924 7.66962 2.21291 7.67964 2.18111L7.75743 1.93533L7.55005 1.78216C7.52322 1.76229 7.53703 1.71977 7.57042 1.71947L7.82822 1.71751L7.90977 1.47295C7.92028 1.44131 7.96511 1.44131 7.97562 1.47295Z" fill="#F5F5F5"/>
<path d="M7.97562 2.75227L8.05718 2.99684L8.31497 2.9988C8.34836 2.99909 8.36218 3.04166 8.33534 3.06149L8.12796 3.21466L8.20575 3.46043C8.21585 3.49224 8.17958 3.51861 8.15241 3.49916L7.9427 3.34925L7.73298 3.49916C7.70581 3.51857 7.66962 3.49228 7.67964 3.46043L7.75743 3.21466L7.55005 3.06149C7.52322 3.04162 7.53703 2.99909 7.57042 2.9988L7.82822 2.99684L7.90977 2.75227C7.92028 2.7206 7.96511 2.7206 7.97562 2.75227Z" fill="#F5F5F5"/>
<path d="M7.97562 4.03157L8.05718 4.27614L8.31497 4.2781C8.34836 4.27839 8.36218 4.32096 8.33534 4.34079L8.12796 4.49395L8.20575 4.73973C8.21585 4.77153 8.17958 4.79791 8.15241 4.77846L7.9427 4.62855L7.73298 4.77846C7.70581 4.79787 7.66962 4.77153 7.67964 4.73973L7.75743 4.49395L7.55005 4.34079C7.52322 4.32092 7.53703 4.27839 7.57042 4.2781L7.82822 4.27614L7.90977 4.03157C7.92028 3.99989 7.96511 3.99989 7.97562 4.03157Z" fill="#F5F5F5"/>
<path d="M7.97562 5.31181L8.05718 5.55638L8.31497 5.55834C8.34836 5.55863 8.36218 5.6012 8.33534 5.62103L8.12796 5.7742L8.20575 6.01997C8.21585 6.05178 8.17958 6.07815 8.15241 6.0587L7.9427 5.90879L7.73298 6.0587C7.70581 6.07811 7.66962 6.05178 7.67964 6.01997L7.75743 5.7742L7.55005 5.62103C7.52322 5.60116 7.53703 5.55863 7.57042 5.55834L7.82822 5.55638L7.90977 5.31181C7.92028 5.28018 7.96511 5.28018 7.97562 5.31181Z" fill="#F5F5F5"/>
<path d="M8.96903 0.846023L9.05058 1.09059L9.30838 1.09255C9.34177 1.09284 9.35558 1.13541 9.32875 1.15524L9.12137 1.30841L9.19916 1.55418C9.20926 1.58599 9.17299 1.61236 9.14582 1.59291L8.9361 1.443L8.72639 1.59291C8.69922 1.61232 8.66303 1.58599 8.67305 1.55418L8.75084 1.30841L8.54346 1.15524C8.51662 1.13537 8.53044 1.09284 8.56383 1.09255L8.82162 1.09059L8.90317 0.846023C8.91369 0.814346 8.95843 0.814346 8.96903 0.846023Z" fill="#F5F5F5"/>
<path d="M8.96903 2.1248L9.05058 2.36937L9.30838 2.37133C9.34177 2.37162 9.35558 2.41419 9.32875 2.43402L9.12137 2.58718L9.19916 2.83296C9.20926 2.86476 9.17299 2.89114 9.14582 2.87169L8.9361 2.72178L8.72639 2.87169C8.69922 2.8911 8.66303 2.86476 8.67305 2.83296L8.75084 2.58718L8.54346 2.43402C8.51662 2.41415 8.53044 2.37162 8.56383 2.37133L8.82162 2.36937L8.90317 2.1248C8.91369 2.09317 8.95843 2.09317 8.96903 2.1248Z" fill="#F5F5F5"/>
<path d="M8.96903 3.40361L9.05058 3.64818L9.30838 3.65014C9.34177 3.65043 9.35558 3.693 9.32875 3.71283L9.12137 3.86599L9.19916 4.11177C9.20926 4.14357 9.17299 4.16995 9.14582 4.1505L8.9361 4.00059L8.72639 4.1505C8.69922 4.16991 8.66303 4.14357 8.67305 4.11177L8.75084 3.86599L8.54346 3.71283C8.51662 3.69296 8.53044 3.65043 8.56383 3.65014L8.82162 3.64818L8.90317 3.40361C8.91369 3.37197 8.95843 3.37197 8.96903 3.40361Z" fill="#F5F5F5"/>
<path d="M8.96903 4.68343L9.05058 4.92799L9.30838 4.92995C9.34177 4.93025 9.35558 4.97282 9.32875 4.99264L9.12137 5.14581L9.19916 5.39159C9.20926 5.42339 9.17299 5.44977 9.14582 5.43032L8.9361 5.2804L8.72639 5.43032C8.69922 5.44972 8.66303 5.42339 8.67305 5.39159L8.75084 5.14581L8.54346 4.99264C8.51662 4.97278 8.53044 4.93025 8.56383 4.92995L8.82162 4.92799L8.90317 4.68343C8.91369 4.65175 8.95843 4.65175 8.96903 4.68343Z" fill="#F5F5F5"/>
<path d="M8.96903 5.96275L9.05058 6.20732L9.30838 6.20928C9.34177 6.20958 9.35558 6.25214 9.32875 6.27197L9.12137 6.42514L9.19916 6.67092C9.20926 6.70272 9.17299 6.72909 9.14582 6.70965L8.9361 6.55973L8.72639 6.70965C8.69922 6.72905 8.66303 6.70272 8.67305 6.67092L8.75084 6.42514L8.54346 6.27197C8.51662 6.2521 8.53044 6.20958 8.56383 6.20928L8.82162 6.20732L8.90317 5.96275C8.91369 5.93104 8.95843 5.93104 8.96903 5.96275Z" fill="#F5F5F5"/>
</svg>
