<svg width="25" height="26" viewBox="0 0 25 26" fill="none" xmlns="http://www.w3.org/2000/svg">
<path d="M11.1637 23.3037C17.3293 23.3037 22.3274 18.3056 22.3274 12.14C22.3274 5.97448 17.3293 0.976318 11.1637 0.976318C4.99816 0.976318 0 5.97448 0 12.14C0 18.3056 4.99816 23.3037 11.1637 23.3037Z" fill="#F4D6F9"/>
<path d="M1.47266 13.7481C1.47266 7.51748 6.54165 2.44849 12.7722 2.44849C19.0028 2.44849 24.0718 7.51748 24.0718 13.7481C24.0718 19.9786 19.0028 25.0476 12.7722 25.0476C6.54165 25.0476 1.47266 19.9786 1.47266 13.7481ZM1.74438 13.7481C1.74438 19.8288 6.69151 24.7759 12.7722 24.7759C18.8529 24.7759 23.8001 19.8288 23.8001 13.7481C23.8001 7.66734 18.8535 2.72022 12.7727 2.72022C6.69203 2.72022 1.74438 7.66734 1.74438 13.7481Z" fill="#637DF2"/>
</svg>
