<svg width="20" height="25" viewBox="0 0 20 25" fill="none" xmlns="http://www.w3.org/2000/svg">
<path d="M13.7138 19.1169C16.2002 19.1169 18.223 17.0941 18.223 14.6077V12.6158H18.8785C19.5011 12.6158 20.0058 12.1111 20.0058 11.4885C20.0058 10.8659 19.5011 10.3612 18.8785 10.3612H18.223V10.0603C18.223 7.57393 16.2002 5.55112 13.7138 5.55112H13.3783C13.5577 5.12021 13.6568 4.64787 13.6568 4.15282C13.6567 2.13863 12.0163 0.5 9.99999 0.5C7.98366 0.5 6.34328 2.13863 6.34328 4.15288C6.34328 4.64793 6.44237 5.12027 6.62178 5.55117H6.28624C3.79988 5.55117 1.77707 7.57399 1.77707 10.0603V10.3613H1.12143C0.498829 10.3613 -0.00585938 10.866 -0.00585938 11.4886C-0.00585938 12.1112 0.498829 12.6159 1.12143 12.6159H1.77701V14.6078C1.77701 17.0941 3.79982 19.117 6.28618 19.117H8.8727V21.5424H4.08013C2.46457 21.5424 1.08884 22.1314 0.595439 23.3958C0.369106 23.9757 0.905461 24.5 1.52805 24.5C2.15063 24.5 2.73762 23.8554 3.35816 23.805C3.57 23.7877 3.81684 23.797 4.08013 23.797H15.9199C16.1956 23.797 16.4532 23.7869 16.6715 23.8076C17.2749 23.8649 17.836 24.5 18.4421 24.5C19.0812 24.5 19.6327 23.9607 19.3936 23.3681C18.891 22.1228 17.5236 21.5424 15.9199 21.5424H11.1273V19.117L13.7138 19.1169ZM8.59786 4.15288C8.59786 3.38187 9.22683 2.75459 9.99999 2.75459C10.7731 2.75459 11.4021 3.38187 11.4021 4.15288C11.4021 4.92389 10.7731 5.55112 9.99999 5.55112C9.22683 5.55112 8.59786 4.92383 8.59786 4.15288ZM4.03159 14.6077V10.0603C4.03159 8.81711 5.043 7.8057 6.28618 7.8057H13.7137C14.9569 7.8057 15.9683 8.81711 15.9683 10.0603V14.6077C15.9683 15.8509 14.9569 16.8623 13.7137 16.8623H6.28618C5.043 16.8623 4.03159 15.8509 4.03159 14.6077Z" fill="#0A192F"/>
<path d="M13.8453 12.6783C14.1128 12.2774 14.091 11.7395 13.797 11.3589C13.5033 10.9786 12.9798 10.8305 12.5288 10.9917C12.0935 11.1473 11.7896 11.5668 11.7814 12.0301C11.7731 12.4998 12.0648 12.9342 12.5029 13.1034C12.9889 13.2911 13.5564 13.1118 13.8453 12.6783Z" fill="#0A192F"/>
<path d="M8.30953 11.8322C8.22622 11.3885 7.86369 11.0362 7.42461 10.9472C6.95531 10.8521 6.46798 11.0767 6.22855 11.4889C5.99114 11.8976 6.04159 12.431 6.3508 12.7883C6.66086 13.1465 7.17711 13.275 7.61839 13.1C8.11733 12.902 8.41685 12.3606 8.30953 11.8322Z" fill="#0A192F"/>
</svg>
