<svg width="42" height="42" viewBox="0 0 42 42" fill="none" xmlns="http://www.w3.org/2000/svg">
<mask id="path-1-outside-1_733_9917" maskUnits="userSpaceOnUse" x="0" y="0" width="42" height="42" fill="black">
<rect fill="white" width="42" height="42"/>
<path fill-rule="evenodd" clip-rule="evenodd" d="M40.9726 20.9865C40.9726 32.0245 32.0242 40.973 20.9863 40.973C9.94965 40.973 1 32.0245 1 20.9865C1 9.94849 9.94965 1 20.9863 1C32.0242 1 40.9726 9.94849 40.9726 20.9865Z"/>
</mask>
<path d="M40.473 20.9865C40.473 31.7485 31.7482 40.4733 20.9863 40.4733V41.4726C32.3001 41.4726 41.4722 32.3004 41.4722 20.9865H40.473ZM20.9863 40.4733C10.2256 40.4733 1.49965 31.7485 1.49965 20.9865H0.500353C0.500353 32.3004 9.67371 41.4726 20.9863 41.4726V40.4733ZM1.49965 20.9865C1.49965 10.2245 10.2256 1.49965 20.9863 1.49965V0.500353C9.67371 0.500353 0.500353 9.67253 0.500353 20.9865H1.49965ZM20.9863 1.49965C31.7482 1.49965 40.473 10.2244 40.473 20.9865H41.4722C41.4722 9.67255 32.3001 0.500353 20.9863 0.500353V1.49965Z" fill="#0A192F" mask="url(#path-1-outside-1_733_9917)"/>
<path fill-rule="evenodd" clip-rule="evenodd" d="M22.1608 18.283C22.1616 17.8552 22.1572 17.4275 22.1678 16.9997C22.1819 16.4296 22.3232 16.2552 22.8618 16.1762C23.1213 16.1386 23.388 16.1514 23.6511 16.1478C23.9327 16.1441 24.2144 16.1469 24.5057 16.1469V13.5278C23.3633 13.5985 22.2314 13.5857 21.126 13.7601C19.9403 13.9464 19.2269 14.7644 19.076 16.0174C18.9991 16.6563 19.0194 17.3072 18.9983 17.9525C18.9938 18.1123 18.9974 18.272 18.9974 18.4629H17.4355V21.0241H19.0159V28.4388C19.9624 28.4388 20.8691 28.4259 21.7749 28.4452C22.0734 28.4525 22.1669 28.3717 22.1652 28.0495C22.1519 25.8445 22.1581 23.6395 22.1581 21.4345V21.0085H24.2629C24.3565 20.1383 24.4457 19.3075 24.5393 18.44H22.1802C22.1705 18.3675 22.1608 18.3253 22.1608 18.283Z" fill="#0A192F"/>
</svg>
