<svg width="24" height="25" viewBox="0 0 24 25" fill="none" xmlns="http://www.w3.org/2000/svg">
<path d="M11.5632 8.78426C11.3937 8.37241 10.9966 8.10645 10.5513 8.10645H10.5503C10.1046 8.10687 9.70752 8.37368 9.53868 8.78618C9.53577 8.79326 9.53296 8.80043 9.5302 8.8076L6.93468 15.6224C6.75042 16.1063 6.99328 16.6479 7.47712 16.8322C7.9611 17.0166 8.50265 16.7736 8.68692 16.2898L9.10335 15.1964H11.9794L12.391 16.2872C12.5327 16.6626 12.8894 16.8939 13.2683 16.8939C13.3783 16.8939 13.4901 16.8744 13.5991 16.8333C14.0835 16.6504 14.328 16.1096 14.1452 15.6251L11.5733 8.81004C11.5701 8.80137 11.5666 8.79279 11.5632 8.78426ZM9.81745 13.3213L10.5479 11.4034L11.2717 13.3213H9.81745Z" fill="#0A192F"/>
<path d="M16.1895 10.9922C15.6717 10.9922 15.252 11.4119 15.252 11.9297V15.956C15.252 16.4738 15.6717 16.8935 16.1895 16.8935C16.7072 16.8935 17.127 16.4738 17.127 15.956V11.9297C17.127 11.4119 16.7072 10.9922 16.1895 10.9922Z" fill="#0A192F"/>
<path d="M17.1223 9.07307C17.0809 8.6938 16.8148 8.37008 16.4468 8.26438C16.0657 8.15493 15.6429 8.30549 15.4185 8.63249C15.1994 8.95176 15.2 9.37926 15.4185 9.69857C15.6455 10.0302 16.0773 10.1794 16.4613 10.0622C16.8862 9.93243 17.1624 9.51412 17.1223 9.07307Z" fill="#0A192F"/>
<path d="M23.0625 17.1747H20.3421C19.8347 17.1747 19.4194 17.5783 19.4049 18.0855C19.3759 19.1062 18.5527 19.9057 17.5307 19.9057H6.46927C5.43539 19.9057 4.59427 19.0646 4.59427 18.0307V6.96931C4.59427 5.93544 5.43539 5.09431 6.46927 5.09431H17.5307C18.5646 5.09431 19.4057 5.93544 19.4057 6.96931V13.4247C19.4057 13.9424 19.8255 14.3622 20.3432 14.3622C20.8567 14.3622 21.2738 13.9494 21.2806 13.4375H22.125C22.6428 13.4375 23.0625 13.0178 23.0625 12.5C23.0625 11.9822 22.6428 11.5625 22.125 11.5625H21.2807V7.82534H23.0625C23.5803 7.82534 24 7.40562 24 6.88784C24 6.37006 23.5803 5.95034 23.0625 5.95034H21.1401C20.7867 4.70023 19.7998 3.71333 18.5497 3.35994V1.4375C18.5497 0.919719 18.1299 0.5 17.6122 0.5C17.0944 0.5 16.6747 0.919719 16.6747 1.4375V3.21931H12.9375V2.375C12.9375 1.85722 12.5178 1.4375 12 1.4375C11.4822 1.4375 11.0625 1.85722 11.0625 2.375V3.21931H7.32534V1.4375C7.32534 0.919719 6.90562 0.5 6.38784 0.5C5.87006 0.5 5.45034 0.919719 5.45034 1.4375V3.35998C4.20023 3.71338 3.21333 4.70028 2.85994 5.95039H0.9375C0.419719 5.95039 0 6.37011 0 6.88789C0 7.40567 0.419719 7.82539 0.9375 7.82539H2.71927V11.5625H1.875C1.35722 11.5625 0.9375 11.9822 0.9375 12.5C0.9375 13.0178 1.35722 13.4375 1.875 13.4375H2.71927V17.1747H0.9375C0.419719 17.1747 0 17.5944 0 18.1122C0 18.6299 0.419719 19.0497 0.9375 19.0497H2.85994C3.21333 20.2998 4.20023 21.2867 5.45034 21.6401V23.5625C5.45034 24.0803 5.87006 24.5 6.38784 24.5C6.90562 24.5 7.32534 24.0803 7.32534 23.5625V21.7807H11.0625V22.625C11.0625 23.1428 11.4822 23.5625 12 23.5625C12.5178 23.5625 12.9375 23.1428 12.9375 22.625V21.7807H16.6747V23.5625C16.6747 24.0803 17.0944 24.5 17.6122 24.5C18.1299 24.5 18.5497 24.0803 18.5497 23.5625V21.641C19.1449 21.4737 19.6925 21.1598 20.1465 20.7178C20.6253 20.2516 20.9647 19.6777 21.141 19.0496H23.0625C23.5803 19.0496 24 18.6299 24 18.1121C24 17.5943 23.5803 17.1747 23.0625 17.1747Z" fill="#0A192F"/>
</svg>
