<svg width="151" height="36" viewBox="0 0 151 36" fill="none" xmlns="http://www.w3.org/2000/svg">
<path d="M0.358521 17.9395V35.3694H18.0721V17.9395H0.358521ZM9.20725 31.4781C8.25264 31.4781 7.31946 31.195 6.52573 30.6646C5.73201 30.1343 5.11339 29.3804 4.74807 28.4985C4.38276 27.6165 4.28718 26.6461 4.47342 25.7099C4.65965 24.7736 5.1193 23.9136 5.79431 23.2386C6.46932 22.5635 7.32937 22.1038 8.26564 21.9176C9.2019 21.7314 10.1723 21.827 11.0543 22.1923C11.9362 22.5576 12.6901 23.1762 13.2204 23.9699C13.7508 24.7637 14.0338 25.6969 14.0338 26.6515C14.0338 27.9302 13.5264 29.1566 12.623 30.0615C11.7196 30.9664 10.494 31.4759 9.2153 31.4781H9.20725Z" fill="#0E1946"/>
<path d="M9.2133 14.0482C8.25869 14.0482 7.32551 13.7651 6.53178 13.2348C5.73805 12.7044 5.11943 11.9506 4.75412 11.0686C4.38881 10.1867 4.29323 9.2162 4.47946 8.27994C4.6657 7.34367 5.12535 6.48372 5.80036 5.80871C6.47537 5.1337 7.33542 4.674 8.27168 4.48776C9.20795 4.30153 10.1784 4.39711 11.0603 4.76242C11.9423 5.12773 12.6961 5.74635 13.2265 6.54008C13.7568 7.33381 14.0399 8.26704 14.0399 9.22164C14.0399 10.5017 13.5313 11.7293 12.6262 12.6345C11.721 13.5396 10.4934 14.0482 9.2133 14.0482Z" fill="#0E1946"/>
<path d="M18.072 0.511719V17.9396H35.7855V0.511719H18.072ZM26.9207 14.0483C25.9661 14.0483 25.033 13.7652 24.2392 13.2348C23.4455 12.7045 22.8268 11.9506 22.4615 11.0687C22.0962 10.1867 22.0006 9.21625 22.1869 8.27999C22.3731 7.34372 22.8328 6.48377 23.5078 5.80876C24.1828 5.13375 25.0428 4.67405 25.9791 4.48781C26.9154 4.30158 27.8858 4.39716 28.7678 4.76247C29.6497 5.12778 30.4035 5.7464 30.9339 6.54013C31.4642 7.33386 31.7473 8.26709 31.7473 9.22169C31.7473 10.5004 31.2399 11.7268 30.3365 12.6317C29.4331 13.5366 28.2074 14.0461 26.9288 14.0483H26.9207Z" fill="#0E1946"/>
<path d="M35.7857 17.8955V28.2324L28.5297 35.4884L28.3548 35.3154L30.585 33.0852V25.5275H28.1677L35.7857 17.8955Z" fill="#0E1946"/>
<path d="M74.1147 16.4834H70.3298V27.0737H74.1147V16.4834Z" fill="#0E1946"/>
<path d="M74.1147 11.0195H70.3298V14.8366H74.1147V11.0195Z" fill="#0E1946"/>
<path d="M63.4018 8.92822L58.5732 15.1947L58.4163 15.3777L58.2393 15.1585L53.451 8.92822H49.1955L49.1794 27.0721H53.451V15.3999L53.7184 15.7598L57.4188 20.4818H59.4299L63.1242 15.7759L63.4018 15.3838V27.0721H67.6471V8.92822H63.4018Z" fill="#0E1946"/>
<path d="M83.4019 15.6607C84.1796 15.6609 84.9405 15.8864 85.5926 16.3101C86.2447 16.7338 86.76 17.3374 87.0762 18.0479H90.6076C90.2046 16.2775 89.1634 14.7175 87.6831 13.6662C86.2027 12.6148 84.3868 12.1457 82.5825 12.3485C80.7781 12.5512 79.1116 13.4117 77.9015 14.7654C76.6914 16.1191 76.0225 17.8712 76.0225 19.6869C76.0225 21.5027 76.6914 23.2548 77.9015 24.6085C79.1116 25.9623 80.7781 26.8227 82.5825 27.0255C84.3868 27.2282 86.2027 26.7591 87.6831 25.7078C89.1634 24.6564 90.2046 23.0965 90.6076 21.326H87.0762C86.7806 21.9863 86.3125 22.5547 85.721 22.9713C85.1296 23.3879 84.4367 23.6372 83.7154 23.6931C82.9941 23.7489 82.2711 23.6093 81.6226 23.2887C80.9741 22.9681 80.424 22.4785 80.0303 21.8715C79.6367 21.2645 79.414 20.5627 79.3858 19.8398C79.3576 19.1169 79.5249 18.3998 79.87 17.764C80.2152 17.1282 80.7254 16.5973 81.347 16.2271C81.9686 15.857 82.6785 15.6613 83.4019 15.6607Z" fill="#0E1946"/>
<path d="M116.568 12.3027C115.108 12.3027 113.68 12.7358 112.466 13.5473C111.251 14.3587 110.305 15.5121 109.746 16.8614C109.187 18.2108 109.041 19.6956 109.326 21.1281C109.611 22.5606 110.314 23.8764 111.347 24.9092C112.38 25.9419 113.695 26.6452 115.128 26.9302C116.56 27.2151 118.045 27.0689 119.395 26.51C120.744 25.951 121.897 25.0045 122.709 23.7901C123.52 22.5757 123.953 21.1479 123.953 19.6873C123.953 17.729 123.174 15.851 121.79 14.4662C120.405 13.0814 118.527 12.3033 116.568 12.3027ZM120.591 19.7658C120.57 20.8255 120.132 21.8343 119.371 22.5728C118.611 23.3112 117.59 23.7196 116.53 23.7093C115.47 23.699 114.457 23.2707 113.711 22.5176C112.966 21.7644 112.547 20.7473 112.547 19.6873C112.547 18.6274 112.966 17.6103 113.711 16.8572C114.457 16.1041 115.47 15.6757 116.53 15.6654C117.59 15.6551 118.611 16.0636 119.371 16.802C120.132 17.5405 120.57 18.5492 120.591 19.609V19.7658Z" fill="#0E1946"/>
<path d="M103.826 13.833C102.732 12.9887 101.423 12.4679 100.049 12.3296C98.6735 12.1913 97.2873 12.4411 96.047 13.0507C94.8068 13.6602 93.7621 14.6049 93.0316 15.778C92.301 16.951 91.9138 18.3053 91.9138 19.6872C91.9138 21.0691 92.301 22.4234 93.0316 23.5964C93.7621 24.7695 94.8068 25.7143 96.047 26.3238C97.2873 26.9334 98.6735 27.1831 100.049 27.0448C101.423 26.9065 102.732 26.3858 103.826 25.5415L104.273 26.6818H107.332V12.7008H104.273L103.826 13.833ZM103.358 19.7657C103.337 20.8254 102.899 21.8342 102.138 22.5726C101.378 23.3111 100.357 23.7195 99.2971 23.7092C98.2372 23.6988 97.2242 23.2706 96.4784 22.5174C95.7325 21.7643 95.3141 20.7471 95.3141 19.6872C95.3141 18.6273 95.7325 17.6102 96.4784 16.8571C97.2242 16.1039 98.2372 15.6756 99.2971 15.6652C100.357 15.6549 101.378 16.0634 102.138 16.8019C102.899 17.5403 103.337 18.5491 103.358 19.6088V19.7657Z" fill="#0E1946"/>
<path d="M129.584 14.899L129.136 13.2197H125.791V27.072H129.576V21.1936C129.576 21.1112 129.59 20.1257 129.6 20.0473C129.665 19.5462 129.863 19.0718 130.173 18.6729C130.483 18.274 130.894 17.9654 131.364 17.7788C132.28 17.4246 133.275 17.3279 134.242 17.4992V13.3122C131.092 13.1433 129.584 14.899 129.584 14.899Z" fill="#0E1946"/>
<path d="M150.236 18.3658C149.897 16.5601 148.898 14.9454 147.433 13.8369C145.967 12.7284 144.142 12.2056 142.312 12.3707C140.482 12.5358 138.78 13.3768 137.537 14.7296C136.293 16.0824 135.599 17.8499 135.589 19.6871C135.589 19.8419 135.603 19.9928 135.611 20.1457C135.627 20.389 135.653 20.6283 135.692 20.8636C135.787 21.4764 135.961 22.0746 136.209 22.6434C136.783 23.9593 137.73 25.0791 138.931 25.8654C140.133 26.6518 141.538 27.0706 142.974 27.0706C144.41 27.0706 145.815 26.6518 147.016 25.8654C148.218 25.0791 149.164 23.9593 149.739 22.6434H145.701C145.201 23.1054 144.592 23.4329 143.93 23.5952C143.269 23.7575 142.578 23.7494 141.921 23.5715C141.264 23.3937 140.662 23.0519 140.173 22.5783C139.684 22.1047 139.323 21.5147 139.125 20.8636H150.258C150.294 20.6283 150.322 20.389 150.336 20.1457C150.336 19.9928 150.358 19.8419 150.358 19.6871C150.357 19.2439 150.316 18.8018 150.236 18.3658ZM139.175 18.3658C139.449 17.5769 139.962 16.893 140.643 16.4091C141.324 15.9251 142.139 15.665 142.974 15.665C143.809 15.665 144.624 15.9251 145.304 16.4091C145.985 16.893 146.498 17.5769 146.773 18.3658H139.175Z" fill="#0E1946"/>
</svg>
