<svg width="17" height="18" viewBox="0 0 17 18" fill="none" xmlns="http://www.w3.org/2000/svg">
<path d="M9.38467 8.63052C9.58052 8.53037 9.7987 8.47742 10.0251 8.47742C10.4002 8.47742 10.7528 8.62304 11.0187 8.8875L11.591 8.31526C13.0072 8.8117 14.6453 8.49389 15.7774 7.36176C16.7301 6.40913 17.1058 5.09843 16.9052 3.86296C16.8831 3.7269 16.7868 3.61468 16.6557 3.57234C16.5245 3.52995 16.3806 3.5644 16.2832 3.66189L15.4334 4.51163C14.7414 5.20363 13.6194 5.20363 12.9274 4.51163C12.2353 3.81963 12.2353 2.6976 12.9274 2.0056L13.7771 1.15585C13.8746 1.05836 13.9094 0.914412 13.8669 0.783227C13.8245 0.651983 13.7121 0.555885 13.576 0.533789C12.3406 0.333241 11.0298 0.708935 10.0772 1.66157C8.92824 2.81057 8.61901 4.48037 9.14747 5.91083L7.90625 7.15205L9.38467 8.63052Z" fill="#3685FD"/>
<path d="M7.12221 10.8794L5.65 9.40723L0.502037 14.5551C-0.167346 15.2245 -0.167346 16.3098 0.502037 16.9792C1.17142 17.6485 2.25669 17.6485 2.92607 16.9792L7.36393 12.5414C6.91633 12.0914 6.83565 11.412 7.12221 10.8794Z" fill="#3685FD"/>
<path d="M10.4062 9.50532C10.3009 9.40006 10.1629 9.3474 10.0249 9.3474C9.88696 9.3474 9.74893 9.40006 9.64367 9.50532L9.33636 9.81264L3.86206 4.33834L4.11793 4.08246C4.35107 3.84938 4.32213 3.46272 4.0564 3.26705L1.82288 1.62212C1.60824 1.46409 1.31038 1.48653 1.12189 1.67501L0.17355 2.62341C-0.014935 2.8119 -0.0373792 3.10982 0.120658 3.3244L1.76552 5.55792C1.9612 5.8236 2.34762 5.85283 2.58094 5.61945L2.83681 5.36352L8.31111 10.8378L7.98216 11.1668C7.77158 11.3774 7.77158 11.7187 7.98216 11.9293L13.0323 16.9795C13.7017 17.6489 14.787 17.6489 15.4564 16.9795C16.1258 16.3101 16.1258 15.2248 15.4564 14.5554L10.4062 9.50532Z" fill="#3685FD"/>
</svg>
