<svg width="76" height="59" viewBox="0 0 76 59" fill="none" xmlns="http://www.w3.org/2000/svg">
<path d="M3.31735 0.9729H72.6828C74.4269 0.9729 75.8459 2.39184 75.8459 4.13595V44.6644C75.8459 46.4085 74.4269 47.8275 72.6828 47.8275H3.31735C1.57324 47.8275 0.154297 46.4085 0.154297 44.6644V4.13595C0.154297 2.39184 1.57324 0.9729 3.31735 0.9729Z" fill="url(#paint0_linear_733_10030)"/>
<path d="M0.420348 2.87964C0.242981 3.26393 0.154297 3.69257 0.154297 4.13599V44.6645C0.154297 46.4086 1.57324 47.8275 3.31735 47.8275H32.9673V2.87964H0.420348Z" fill="url(#paint1_linear_733_10030)"/>
<path d="M34.8145 28.2281L54.4136 47.8272H72.6824C74.4265 47.8272 75.8455 46.4083 75.8455 44.6642V4.13573C75.8455 3.70709 75.7568 3.27845 75.5942 2.90894L34.8145 28.2281Z" fill="url(#paint2_linear_733_10030)"/>
<path d="M72.6686 47.8275H3.3179C2.01721 47.8275 0.908659 47.0442 0.420898 45.9208L34.8154 20.5721C36.7073 19.1827 39.2939 19.1827 41.1859 20.5721L75.5804 45.9208C75.0926 47.0442 73.9693 47.8275 72.6686 47.8275Z" fill="url(#paint3_linear_733_10030)"/>
<path d="M0.154297 21.3553V44.6792C0.154297 46.4233 1.57324 47.8422 3.31735 47.8422H72.6828C74.4269 47.8422 75.8459 46.4233 75.8459 44.6792V21.3553H0.154297Z" fill="url(#paint4_linear_733_10030)"/>
<path d="M72.668 0.9729H42.6338V47.8127H72.6828C74.4269 47.8127 75.8459 46.3938 75.8459 44.6496V4.13595C75.8311 2.39184 74.4121 0.9729 72.668 0.9729Z" fill="url(#paint5_linear_733_10030)"/>
<path d="M34.8145 28.2281L54.4136 47.8272H72.6824C74.4265 47.8272 75.8455 46.4083 75.8455 44.6642V4.13573C75.8455 3.70709 75.7568 3.27845 75.5942 2.90894L34.8145 28.2281Z" fill="url(#paint6_linear_733_10030)"/>
<path d="M72.6686 0.9729H3.3179C2.01721 0.9729 0.908659 1.75627 0.420898 2.8796L34.8154 28.2284C36.7073 29.6178 39.2939 29.6178 41.1859 28.2284L75.5656 2.8796C75.0926 1.75627 73.9693 0.9729 72.6686 0.9729Z" fill="url(#paint7_linear_733_10030)"/>
<path d="M72.6686 0.9729H3.3179C2.01721 0.9729 0.908659 1.75627 0.420898 2.8796L34.8154 28.2284C36.7073 29.6178 39.2939 29.6178 41.1859 28.2284L75.5656 2.8796C75.0926 1.75627 73.9693 0.9729 72.6686 0.9729Z" fill="url(#paint8_linear_733_10030)"/>
<path d="M31.2383 43.1422L35.9237 47.8277H43.9792L31.2383 43.1422Z" fill="url(#paint9_linear_733_10030)"/>
<path d="M72.6684 47.8276C74.4126 47.8276 75.8315 46.4086 75.8315 44.6645V18.5767L70.747 13.4922L67.1553 17.0839V47.8128H72.6684V47.8276Z" fill="url(#paint10_linear_733_10030)"/>
<path d="M47.5264 49.483V57.6272C47.5264 58.6914 48.8123 59.2235 49.5661 58.4696L56.7938 51.2419L47.5264 49.483Z" fill="url(#paint11_linear_733_10030)"/>
<path d="M47.5264 49.483V57.6272C47.5264 58.6914 48.8123 59.2235 49.5661 58.4696L56.7938 51.2419L47.5264 49.483Z" fill="url(#paint12_linear_733_10030)"/>
<path d="M47.5264 49.483V57.6272C47.5264 58.6914 48.8123 59.2235 49.5661 58.4696L56.7938 51.2419L47.5264 49.483Z" fill="url(#paint13_linear_733_10030)"/>
<path d="M31.6228 43.3639L67.5102 57.169C68.4118 57.5089 69.3873 56.8734 69.4169 55.9126L71.028 14.4086C71.0723 13.2262 69.7273 12.5167 68.7813 13.2262L31.2829 40.9103C30.3961 41.5754 30.5734 42.9648 31.6228 43.3639Z" fill="url(#paint14_linear_733_10030)"/>
<path d="M48.6798 28.0658L31.2978 40.9102C30.4109 41.5753 30.5883 42.9647 31.6229 43.3637L67.5103 57.1688C68.4119 57.5088 69.3874 56.8732 69.417 55.9125L70.1708 36.6829L48.6798 28.0658Z" fill="url(#paint15_linear_733_10030)"/>
<path d="M70.1701 13.0486L47.5262 49.4829L31.6223 43.3637C30.5876 42.9646 30.3955 41.5752 31.2971 40.9249L68.7955 13.226C69.2242 12.886 69.7415 12.8713 70.1701 13.0486Z" fill="url(#paint16_linear_733_10030)"/>
<path d="M70.1703 13.049L47.5264 49.4832L67.5098 57.1691C68.4114 57.5238 69.3869 56.8735 69.4165 55.9128L71.0276 14.4088C71.0571 13.7584 70.6728 13.2559 70.1703 13.049Z" fill="url(#paint17_linear_733_10030)"/>
<defs>
<linearGradient id="paint0_linear_733_10030" x1="32.6823" y1="9.44486" x2="47.3265" y2="50.6878" gradientUnits="userSpaceOnUse">
<stop stop-color="#FEF0AE"/>
<stop offset="1" stop-color="#FAC600"/>
</linearGradient>
<linearGradient id="paint1_linear_733_10030" x1="17.3252" y1="24.7087" x2="25.4031" y2="16.4892" gradientUnits="userSpaceOnUse">
<stop stop-color="#FE9738" stop-opacity="0"/>
<stop offset="0.1025" stop-color="#FE9738" stop-opacity="0.02"/>
<stop offset="0.2265" stop-color="#FE9738" stop-opacity="0.078"/>
<stop offset="0.3615" stop-color="#FE9738" stop-opacity="0.175"/>
<stop offset="0.5046" stop-color="#FE9738" stop-opacity="0.31"/>
<stop offset="0.6539" stop-color="#FE9738" stop-opacity="0.483"/>
<stop offset="0.8085" stop-color="#FE9738" stop-opacity="0.695"/>
<stop offset="0.9645" stop-color="#FE9738" stop-opacity="0.94"/>
<stop offset="1" stop-color="#FE9738"/>
</linearGradient>
<linearGradient id="paint2_linear_733_10030" x1="61.5879" y1="26.7281" x2="56.3444" y2="35.2312" gradientUnits="userSpaceOnUse">
<stop stop-color="#FE9738" stop-opacity="0"/>
<stop offset="0.1025" stop-color="#FE9738" stop-opacity="0.02"/>
<stop offset="0.2265" stop-color="#FE9738" stop-opacity="0.078"/>
<stop offset="0.3615" stop-color="#FE9738" stop-opacity="0.175"/>
<stop offset="0.5046" stop-color="#FE9738" stop-opacity="0.31"/>
<stop offset="0.6539" stop-color="#FE9738" stop-opacity="0.483"/>
<stop offset="0.8085" stop-color="#FE9738" stop-opacity="0.695"/>
<stop offset="0.9645" stop-color="#FE9738" stop-opacity="0.94"/>
<stop offset="1" stop-color="#FE9738"/>
</linearGradient>
<linearGradient id="paint3_linear_733_10030" x1="31.551" y1="27.8206" x2="40.4791" y2="52.9045" gradientUnits="userSpaceOnUse">
<stop stop-color="#FEF0AE"/>
<stop offset="1" stop-color="#FAC600"/>
</linearGradient>
<linearGradient id="paint4_linear_733_10030" x1="37.9927" y1="42.013" x2="37.9927" y2="47.3042" gradientUnits="userSpaceOnUse">
<stop stop-color="#FE9738" stop-opacity="0"/>
<stop offset="0.1025" stop-color="#FE9738" stop-opacity="0.02"/>
<stop offset="0.2265" stop-color="#FE9738" stop-opacity="0.078"/>
<stop offset="0.3615" stop-color="#FE9738" stop-opacity="0.175"/>
<stop offset="0.5046" stop-color="#FE9738" stop-opacity="0.31"/>
<stop offset="0.6539" stop-color="#FE9738" stop-opacity="0.483"/>
<stop offset="0.8085" stop-color="#FE9738" stop-opacity="0.695"/>
<stop offset="0.9645" stop-color="#FE9738" stop-opacity="0.94"/>
<stop offset="1" stop-color="#FE9738"/>
</linearGradient>
<linearGradient id="paint5_linear_733_10030" x1="70.9714" y1="24.4006" x2="76.0732" y2="24.4006" gradientUnits="userSpaceOnUse">
<stop stop-color="#FE9738" stop-opacity="0"/>
<stop offset="0.1025" stop-color="#FE9738" stop-opacity="0.02"/>
<stop offset="0.2265" stop-color="#FE9738" stop-opacity="0.078"/>
<stop offset="0.3615" stop-color="#FE9738" stop-opacity="0.175"/>
<stop offset="0.5046" stop-color="#FE9738" stop-opacity="0.31"/>
<stop offset="0.6539" stop-color="#FE9738" stop-opacity="0.483"/>
<stop offset="0.8085" stop-color="#FE9738" stop-opacity="0.695"/>
<stop offset="0.9645" stop-color="#FE9738" stop-opacity="0.94"/>
<stop offset="1" stop-color="#FE9738"/>
</linearGradient>
<linearGradient id="paint6_linear_733_10030" x1="61.1654" y1="24.3113" x2="55.0716" y2="15.3832" gradientUnits="userSpaceOnUse">
<stop stop-color="#FE9738" stop-opacity="0"/>
<stop offset="0.1025" stop-color="#FE9738" stop-opacity="0.02"/>
<stop offset="0.2265" stop-color="#FE9738" stop-opacity="0.078"/>
<stop offset="0.3615" stop-color="#FE9738" stop-opacity="0.175"/>
<stop offset="0.5046" stop-color="#FE9738" stop-opacity="0.31"/>
<stop offset="0.6539" stop-color="#FE9738" stop-opacity="0.483"/>
<stop offset="0.8085" stop-color="#FE9738" stop-opacity="0.695"/>
<stop offset="0.9645" stop-color="#FE9738" stop-opacity="0.94"/>
<stop offset="1" stop-color="#FE9738"/>
</linearGradient>
<linearGradient id="paint7_linear_733_10030" x1="38.481" y1="4.23853" x2="46.3464" y2="26.134" gradientUnits="userSpaceOnUse">
<stop stop-color="#FEF0AE"/>
<stop offset="1" stop-color="#FAC600"/>
</linearGradient>
<linearGradient id="paint8_linear_733_10030" x1="47.1305" y1="18.4448" x2="50.0506" y2="23.4261" gradientUnits="userSpaceOnUse">
<stop stop-color="#FEF0AE" stop-opacity="0"/>
<stop offset="0.099908" stop-color="#FEF0AE" stop-opacity="0.021"/>
<stop offset="0.224" stop-color="#FEF0AE" stop-opacity="0.081"/>
<stop offset="0.3608" stop-color="#FEF0AE" stop-opacity="0.181"/>
<stop offset="0.507" stop-color="#FEF0AE" stop-opacity="0.32"/>
<stop offset="0.6605" stop-color="#FEF0AE" stop-opacity="0.498"/>
<stop offset="0.8202" stop-color="#FEF0AE" stop-opacity="0.717"/>
<stop offset="0.9822" stop-color="#FEF0AE" stop-opacity="0.97"/>
<stop offset="1" stop-color="#FEF0AE"/>
</linearGradient>
<linearGradient id="paint9_linear_733_10030" x1="36.6613" y1="49.2617" x2="37.6919" y2="45.1714" gradientUnits="userSpaceOnUse">
<stop stop-color="#FE9738" stop-opacity="0"/>
<stop offset="0.1025" stop-color="#FE9738" stop-opacity="0.02"/>
<stop offset="0.2265" stop-color="#FE9738" stop-opacity="0.078"/>
<stop offset="0.3615" stop-color="#FE9738" stop-opacity="0.175"/>
<stop offset="0.5046" stop-color="#FE9738" stop-opacity="0.31"/>
<stop offset="0.6539" stop-color="#FE9738" stop-opacity="0.483"/>
<stop offset="0.8085" stop-color="#FE9738" stop-opacity="0.695"/>
<stop offset="0.9645" stop-color="#FE9738" stop-opacity="0.94"/>
<stop offset="1" stop-color="#FE9738"/>
</linearGradient>
<linearGradient id="paint10_linear_733_10030" x1="76.3484" y1="31.4527" x2="69.134" y2="30.6797" gradientUnits="userSpaceOnUse">
<stop stop-color="#FE9738" stop-opacity="0"/>
<stop offset="0.1025" stop-color="#FE9738" stop-opacity="0.02"/>
<stop offset="0.2265" stop-color="#FE9738" stop-opacity="0.078"/>
<stop offset="0.3615" stop-color="#FE9738" stop-opacity="0.175"/>
<stop offset="0.5046" stop-color="#FE9738" stop-opacity="0.31"/>
<stop offset="0.6539" stop-color="#FE9738" stop-opacity="0.483"/>
<stop offset="0.8085" stop-color="#FE9738" stop-opacity="0.695"/>
<stop offset="0.9645" stop-color="#FE9738" stop-opacity="0.94"/>
<stop offset="1" stop-color="#FE9738"/>
</linearGradient>
<linearGradient id="paint11_linear_733_10030" x1="47.4743" y1="50.2485" x2="53.3755" y2="55.8545" gradientUnits="userSpaceOnUse">
<stop stop-color="#C8EFFE"/>
<stop offset="0.1027" stop-color="#C0EDFD"/>
<stop offset="0.258" stop-color="#ABEAFD"/>
<stop offset="0.4465" stop-color="#89E5FD"/>
<stop offset="0.6612" stop-color="#5ADDFC"/>
<stop offset="0.8947" stop-color="#1ED4FB"/>
<stop offset="1" stop-color="#01D0FB"/>
</linearGradient>
<linearGradient id="paint12_linear_733_10030" x1="49.8564" y1="55.5826" x2="51.9954" y2="50.7141" gradientUnits="userSpaceOnUse">
<stop stop-color="#0290CF" stop-opacity="0"/>
<stop offset="0.2191" stop-color="#0290CF" stop-opacity="0.013"/>
<stop offset="0.3639" stop-color="#0290CF" stop-opacity="0.056"/>
<stop offset="0.4873" stop-color="#0290CF" stop-opacity="0.128"/>
<stop offset="0.5987" stop-color="#0290CF" stop-opacity="0.231"/>
<stop offset="0.7019" stop-color="#0290CF" stop-opacity="0.364"/>
<stop offset="0.7993" stop-color="#0290CF" stop-opacity="0.528"/>
<stop offset="0.892" stop-color="#0290CF" stop-opacity="0.722"/>
<stop offset="0.9788" stop-color="#0290CF" stop-opacity="0.941"/>
<stop offset="1" stop-color="#0290CF"/>
</linearGradient>
<linearGradient id="paint13_linear_733_10030" x1="47.6963" y1="52.3735" x2="53.8188" y2="55.693" gradientUnits="userSpaceOnUse">
<stop stop-color="#0290CF" stop-opacity="0"/>
<stop offset="0.2191" stop-color="#0290CF" stop-opacity="0.013"/>
<stop offset="0.3639" stop-color="#0290CF" stop-opacity="0.056"/>
<stop offset="0.4873" stop-color="#0290CF" stop-opacity="0.128"/>
<stop offset="0.5987" stop-color="#0290CF" stop-opacity="0.231"/>
<stop offset="0.7019" stop-color="#0290CF" stop-opacity="0.364"/>
<stop offset="0.7993" stop-color="#0290CF" stop-opacity="0.528"/>
<stop offset="0.892" stop-color="#0290CF" stop-opacity="0.722"/>
<stop offset="0.9788" stop-color="#0290CF" stop-opacity="0.941"/>
<stop offset="1" stop-color="#0290CF"/>
</linearGradient>
<linearGradient id="paint14_linear_733_10030" x1="48.4339" y1="25.7556" x2="67.3886" y2="44.7102" gradientUnits="userSpaceOnUse">
<stop stop-color="#C8EFFE"/>
<stop offset="0.1027" stop-color="#C0EDFD"/>
<stop offset="0.258" stop-color="#ABEAFD"/>
<stop offset="0.4465" stop-color="#89E5FD"/>
<stop offset="0.6612" stop-color="#5ADDFC"/>
<stop offset="0.8947" stop-color="#1ED4FB"/>
<stop offset="1" stop-color="#01D0FB"/>
</linearGradient>
<linearGradient id="paint15_linear_733_10030" x1="50.8766" y1="46.5685" x2="49.4751" y2="50.6994" gradientUnits="userSpaceOnUse">
<stop stop-color="#0290CF" stop-opacity="0"/>
<stop offset="0.2191" stop-color="#0290CF" stop-opacity="0.013"/>
<stop offset="0.3639" stop-color="#0290CF" stop-opacity="0.056"/>
<stop offset="0.4873" stop-color="#0290CF" stop-opacity="0.128"/>
<stop offset="0.5987" stop-color="#0290CF" stop-opacity="0.231"/>
<stop offset="0.7019" stop-color="#0290CF" stop-opacity="0.364"/>
<stop offset="0.7993" stop-color="#0290CF" stop-opacity="0.528"/>
<stop offset="0.892" stop-color="#0290CF" stop-opacity="0.722"/>
<stop offset="0.9788" stop-color="#0290CF" stop-opacity="0.941"/>
<stop offset="1" stop-color="#0290CF"/>
</linearGradient>
<linearGradient id="paint16_linear_733_10030" x1="54.2393" y1="30.5149" x2="58.6651" y2="33.5393" gradientUnits="userSpaceOnUse">
<stop stop-color="#0290CF" stop-opacity="0"/>
<stop offset="0.2191" stop-color="#0290CF" stop-opacity="0.013"/>
<stop offset="0.3639" stop-color="#0290CF" stop-opacity="0.056"/>
<stop offset="0.4873" stop-color="#0290CF" stop-opacity="0.128"/>
<stop offset="0.5987" stop-color="#0290CF" stop-opacity="0.231"/>
<stop offset="0.7019" stop-color="#0290CF" stop-opacity="0.364"/>
<stop offset="0.7993" stop-color="#0290CF" stop-opacity="0.528"/>
<stop offset="0.892" stop-color="#0290CF" stop-opacity="0.722"/>
<stop offset="0.9788" stop-color="#0290CF" stop-opacity="0.941"/>
<stop offset="1" stop-color="#0290CF"/>
</linearGradient>
<linearGradient id="paint17_linear_733_10030" x1="66.6611" y1="34.9339" x2="70.6444" y2="35.3027" gradientUnits="userSpaceOnUse">
<stop stop-color="#0290CF" stop-opacity="0"/>
<stop offset="0.2191" stop-color="#0290CF" stop-opacity="0.013"/>
<stop offset="0.3639" stop-color="#0290CF" stop-opacity="0.056"/>
<stop offset="0.4873" stop-color="#0290CF" stop-opacity="0.128"/>
<stop offset="0.5987" stop-color="#0290CF" stop-opacity="0.231"/>
<stop offset="0.7019" stop-color="#0290CF" stop-opacity="0.364"/>
<stop offset="0.7993" stop-color="#0290CF" stop-opacity="0.528"/>
<stop offset="0.892" stop-color="#0290CF" stop-opacity="0.722"/>
<stop offset="0.9788" stop-color="#0290CF" stop-opacity="0.941"/>
<stop offset="1" stop-color="#0290CF"/>
</linearGradient>
</defs>
</svg>
