<svg width="20" height="19" viewBox="0 0 20 19" fill="none" xmlns="http://www.w3.org/2000/svg">
<path d="M18.7526 12.5404C18.5389 12.3265 18.2789 12.2195 17.9733 12.2195H12.6546L11.0957 13.7783C10.6524 14.2062 10.1328 14.4202 9.5368 14.4202C8.94088 14.4202 8.42112 14.2065 7.97792 13.7783L6.43048 12.2195H1.10039C0.794777 12.2195 0.534977 12.3266 0.320946 12.5404C0.106955 12.7543 0 13.0142 0 13.32V16.9879C0 17.2936 0.106955 17.5534 0.320946 17.7673C0.534937 17.9812 0.794737 18.0881 1.10039 18.0881H17.9734C18.2789 18.0881 18.5389 17.9812 18.7527 17.7673C18.9667 17.5534 19.0736 17.2936 19.0736 16.9879V13.32C19.0736 13.0142 18.9667 12.7543 18.7526 12.5404ZM14.4544 16.4033C14.309 16.5485 14.137 16.621 13.9383 16.621C13.7397 16.621 13.5679 16.5485 13.4226 16.4033C13.2775 16.258 13.2049 16.0862 13.2049 15.8876C13.2049 15.6889 13.2775 15.5168 13.4226 15.3718C13.5679 15.2265 13.7397 15.1538 13.9383 15.1538C14.137 15.1538 14.309 15.2265 14.4544 15.3718C14.5995 15.5167 14.6721 15.6889 14.6721 15.8876C14.6721 16.0861 14.5995 16.258 14.4544 16.4033ZM17.3886 16.4033C17.2435 16.5485 17.0715 16.621 16.8728 16.621C16.6741 16.621 16.5023 16.5485 16.357 16.4033C16.2119 16.258 16.1394 16.0862 16.1394 15.8876C16.1394 15.6889 16.2119 15.5168 16.357 15.3718C16.5022 15.2265 16.6741 15.1538 16.8728 15.1538C17.0715 15.1538 17.2435 15.2265 17.3886 15.3718C17.5338 15.5167 17.6065 15.6889 17.6065 15.8876C17.6065 16.0861 17.534 16.258 17.3886 16.4033Z" fill="#3685FD"/>
<path d="M9.02132 12.7351C9.15895 12.8801 9.33086 12.9527 9.53711 12.9527C9.74351 12.9527 9.91522 12.8801 10.0529 12.7351L15.1881 7.59979C15.425 7.37821 15.4786 7.1107 15.3486 6.79739C15.2189 6.49944 14.9934 6.35045 14.6724 6.35029H11.7379V1.21508C11.7379 1.01642 11.6652 0.844467 11.5202 0.69929C11.3749 0.554074 11.203 0.481445 11.0044 0.481445H8.06976C7.87119 0.481445 7.69923 0.554074 7.55398 0.69929C7.40884 0.844467 7.33621 1.01638 7.33621 1.21508V6.35033H4.40181C4.0807 6.35033 3.85539 6.49948 3.72547 6.79742C3.59563 7.11062 3.64907 7.37825 3.88602 7.59983L9.02132 12.7351Z" fill="#3685FD"/>
</svg>
