<svg width="180" height="43" viewBox="0 0 180 43" fill="none" xmlns="http://www.w3.org/2000/svg">
<path d="M0 21.1104V42.0263H21.2563V21.1104H0ZM10.6185 37.3567C9.47294 37.3567 8.35313 37.017 7.40066 36.3805C6.44818 35.7441 5.70584 34.8395 5.26746 33.7812C4.82909 32.7228 4.71439 31.5584 4.93787 30.4349C5.16136 29.3113 5.71294 28.2793 6.52295 27.4693C7.33296 26.6593 8.36502 26.1076 9.48854 25.8841C10.6121 25.6607 11.7766 25.7754 12.8349 26.2137C13.8932 26.6521 14.7978 27.3944 15.4343 28.3469C16.0707 29.2994 16.4104 30.4193 16.4104 31.5648C16.4104 33.0992 15.8015 34.5709 14.7174 35.6568C13.6332 36.7427 12.1626 37.3541 10.6281 37.3567H10.6185Z" fill="white"/>
<path d="M10.6258 16.4408C9.48023 16.4408 8.36041 16.101 7.40794 15.4646C6.45546 14.8282 5.71312 13.9236 5.27474 12.8653C4.83637 11.8069 4.72167 10.6424 4.94516 9.51883C5.16864 8.39532 5.72022 7.36337 6.53023 6.55336C7.34024 5.74335 8.3723 5.19171 9.49582 4.96823C10.6193 4.74475 11.7839 4.85944 12.8422 5.29782C13.9005 5.73619 14.8051 6.47854 15.4416 7.43101C16.078 8.38348 16.4176 9.50336 16.4176 10.6489C16.4176 12.185 15.8074 13.6581 14.7212 14.7443C13.635 15.8305 12.1619 16.4408 10.6258 16.4408Z" fill="white"/>
<path d="M21.2562 0.197266V21.1108H42.5124V0.197266H21.2562ZM31.8747 16.4411C30.7292 16.4411 29.6094 16.1014 28.6569 15.465C27.7044 14.8286 26.962 13.924 26.5236 12.8656C26.0853 11.8073 25.9706 10.6427 26.194 9.51919C26.4175 8.39567 26.9692 7.36373 27.7792 6.55371C28.5892 5.7437 29.6212 5.19206 30.7447 4.96858C31.8682 4.7451 33.0328 4.85979 34.0911 5.29817C35.1495 5.73654 36.054 6.47889 36.6904 7.43136C37.3269 8.38383 37.6666 9.50371 37.6666 10.6492C37.6666 12.1837 37.0577 13.6553 35.9736 14.7412C34.8895 15.8271 33.4187 16.4386 31.8843 16.4411H31.8747Z" fill="white"/>
<path d="M42.5126 21.0576V33.4619L33.8055 42.1691L33.5955 41.9615L36.2719 39.2852V30.2161H33.3711L42.5126 21.0576Z" fill="white"/>
<path d="M88.5073 19.3633H83.9655V32.0717H88.5073V19.3633Z" fill="white"/>
<path d="M88.5073 12.8066H83.9655V17.3871H88.5073V12.8066Z" fill="white"/>
<path d="M75.6517 10.2969L69.8574 17.8167L69.6692 18.0363L69.4568 17.7732L63.7108 10.2969H58.6043L58.585 32.0696H63.7108V18.0628L64.0318 18.4948L68.4722 24.1612H70.8855L75.3187 18.5141L75.6517 18.0435V32.0696H80.7462V10.2969H75.6517Z" fill="white"/>
<path d="M99.6521 18.3764C100.585 18.3765 101.498 18.6472 102.281 19.1556C103.063 19.664 103.682 20.3884 104.061 21.241H108.299C107.815 19.1164 106.566 17.2445 104.789 15.9829C103.013 14.7212 100.834 14.1583 98.6688 14.4016C96.5035 14.645 94.5037 15.6775 93.0516 17.3019C91.5995 18.9264 90.7968 21.0289 90.7968 23.2078C90.7968 25.3867 91.5995 27.4893 93.0516 29.1138C94.5037 30.7382 96.5035 31.7707 98.6688 32.0141C100.834 32.2574 103.013 31.6945 104.789 30.4328C106.566 29.1712 107.815 27.2993 108.299 25.1747H104.061C103.707 25.9671 103.145 26.6492 102.435 27.1491C101.725 27.649 100.894 27.9481 100.028 28.0152C99.1628 28.0822 98.2951 27.9146 97.5169 27.5299C96.7387 27.1452 96.0786 26.5577 95.6062 25.8293C95.1338 25.1009 94.8666 24.2587 94.8328 23.3913C94.7989 22.5238 94.9996 21.6633 95.4138 20.9003C95.828 20.1374 96.4403 19.5002 97.1862 19.0561C97.9321 18.6119 98.784 18.377 99.6521 18.3764Z" fill="white"/>
<path d="M139.452 14.3467C137.699 14.3467 135.986 14.8664 134.529 15.8401C133.071 16.8139 131.936 18.1979 131.265 19.8171C130.594 21.4364 130.419 23.2181 130.761 24.9371C131.103 26.6561 131.947 28.2351 133.186 29.4744C134.425 30.7137 136.004 31.5577 137.723 31.8996C139.442 32.2415 141.224 32.0661 142.843 31.3954C144.462 30.7247 145.846 29.5888 146.82 28.1315C147.794 26.6743 148.314 24.9609 148.314 23.2082C148.313 20.8582 147.379 18.6046 145.717 16.9429C144.056 15.2811 141.802 14.3473 139.452 14.3467ZM144.279 23.3024C144.254 24.5741 143.728 25.7846 142.816 26.6707C141.903 27.5569 140.678 28.047 139.406 28.0346C138.134 28.0222 136.918 27.5083 136.023 26.6045C135.128 25.7007 134.626 24.4801 134.626 23.2082C134.626 21.9363 135.128 20.7158 136.023 19.812C136.918 18.9083 138.134 18.3943 139.406 18.3819C140.678 18.3695 141.903 18.8597 142.816 19.7458C143.728 20.632 144.254 21.8425 144.279 23.1142V23.3024Z" fill="white"/>
<path d="M124.161 16.1826C122.848 15.1695 121.278 14.5445 119.628 14.3785C117.978 14.2126 116.314 14.5124 114.826 15.2438C113.338 15.9752 112.084 17.1089 111.208 18.5166C110.331 19.9242 109.866 21.5493 109.866 23.2076C109.866 24.866 110.331 26.4911 111.208 27.8987C112.084 29.3064 113.338 30.4402 114.826 31.1716C116.314 31.903 117.978 32.2027 119.628 32.0368C121.278 31.8708 122.848 31.2459 124.161 30.2328L124.697 31.6011H128.368V14.8239H124.697L124.161 16.1826ZM123.599 23.3018C123.574 24.5735 123.048 25.784 122.136 26.6702C121.223 27.5563 119.998 28.0464 118.726 28.034C117.454 28.0216 116.239 27.5077 115.344 26.6039C114.449 25.7002 113.947 24.4796 113.947 23.2076C113.947 21.9357 114.449 20.7153 115.344 19.8115C116.239 18.9077 117.454 18.3937 118.726 18.3813C119.998 18.3689 121.223 18.8591 122.136 19.7453C123.048 20.6314 123.574 21.8419 123.599 23.1136V23.3018Z" fill="white"/>
<path d="M155.071 17.4619L154.533 15.4468H150.519V32.0695H155.061V25.0154C155.061 24.9165 155.078 23.7339 155.09 23.6398C155.168 23.0386 155.405 22.4692 155.778 21.9906C156.15 21.512 156.643 21.1415 157.207 20.9177C158.305 20.4926 159.5 20.3765 160.66 20.5822V15.5578C156.881 15.3551 155.071 17.4619 155.071 17.4619Z" fill="white"/>
<path d="M179.853 21.6221C179.446 19.4552 178.247 17.5176 176.489 16.1874C174.731 14.8572 172.54 14.2299 170.344 14.428C168.148 14.626 166.105 15.6352 164.614 17.2586C163.122 18.882 162.289 21.003 162.277 23.2076C162.277 23.3934 162.294 23.5745 162.303 23.7579C162.323 24.0499 162.354 24.337 162.4 24.6194C162.515 25.3548 162.723 26.0726 163.02 26.7552C163.71 28.3343 164.845 29.678 166.287 30.6216C167.729 31.5652 169.415 32.0678 171.138 32.0678C172.862 32.0678 174.547 31.5652 175.989 30.6216C177.431 29.678 178.567 28.3343 179.257 26.7552H174.411C173.811 27.3095 173.08 27.7026 172.286 27.8974C171.493 28.0922 170.663 28.0824 169.875 27.869C169.086 27.6555 168.365 27.2454 167.778 26.6771C167.191 26.1087 166.758 25.4007 166.519 24.6194H179.879C179.923 24.337 179.957 24.0499 179.973 23.7579C179.973 23.5745 180 23.3934 180 23.2076C179.998 22.6758 179.949 22.1452 179.853 21.6221ZM166.58 21.6221C166.909 20.6754 167.525 19.8548 168.342 19.274C169.159 18.6932 170.136 18.3811 171.138 18.3811C172.141 18.3811 173.118 18.6932 173.935 19.274C174.752 19.8548 175.368 20.6754 175.697 21.6221H166.58Z" fill="white"/>
</svg>
