<svg width="14" height="12" viewBox="0 0 14 12" fill="none" xmlns="http://www.w3.org/2000/svg">
<path d="M4.70449 5.58956C4.39725 5.5011 4.09 5.45621 3.79113 5.45621C3.32961 5.45621 2.94451 5.56168 2.6459 5.69084C2.93378 4.63693 3.62534 2.81843 5.00297 2.61364C5.13055 2.59467 5.23511 2.50242 5.26991 2.37823L5.57101 1.3013C5.59639 1.21022 5.58135 1.11273 5.5294 1.0337C5.47745 0.954659 5.39396 0.901925 5.3004 0.889101C5.19873 0.87523 5.09509 0.868164 4.99237 0.868164C3.33877 0.868164 1.70113 2.59415 1.01009 5.06548C0.604446 6.51536 0.4855 8.69514 1.4847 10.0672C2.04384 10.8349 2.85958 11.2449 3.90929 11.2858C3.91361 11.2859 3.9178 11.2861 3.92212 11.2861C5.21731 11.2861 6.36581 10.4138 6.71519 9.16505C6.92391 8.41852 6.82956 7.63561 6.4493 6.96C6.07309 6.29199 5.4535 5.80507 4.70449 5.58956Z" fill="black"/>
<path d="M12.812 6.96013C12.4358 6.29199 11.8162 5.80507 11.0672 5.58956C10.7599 5.5011 10.4527 5.45621 10.1539 5.45621C9.69242 5.45621 9.30718 5.56168 9.00857 5.69084C9.29645 4.63693 9.98802 2.81843 11.3658 2.61364C11.4934 2.59467 11.5978 2.50242 11.6327 2.37823L11.9338 1.3013C11.9592 1.21022 11.9442 1.11273 11.8922 1.0337C11.8404 0.954659 11.7569 0.901925 11.6632 0.889101C11.5617 0.87523 11.458 0.868164 11.3552 0.868164C9.70158 0.868164 8.06394 2.59415 7.37277 5.06548C6.96725 6.51536 6.84831 8.69514 7.84764 10.0674C8.40665 10.835 9.22252 11.2451 10.2721 11.2859C10.2764 11.2861 10.2806 11.2862 10.2851 11.2862C11.5801 11.2862 12.7288 10.4139 13.0781 9.16518C13.2866 8.41865 13.1921 7.63561 12.812 6.96013Z" fill="black"/>
</svg>
