<svg width="42" height="42" viewBox="0 0 42 42" fill="none" xmlns="http://www.w3.org/2000/svg">
<mask id="path-1-outside-1_733_9923" maskUnits="userSpaceOnUse" x="0.0146484" y="0" width="42" height="42" fill="black">
<rect fill="white" x="0.0146484" width="42" height="42"/>
<path fill-rule="evenodd" clip-rule="evenodd" d="M40.9864 20.9859C40.9864 32.0236 32.0383 40.9717 21.0005 40.9717C9.96404 40.9717 1.01465 32.0236 1.01465 20.9859C1.01465 9.94812 9.96404 1 21.0005 1C32.0383 1 40.9864 9.94812 40.9864 20.9859Z"/>
</mask>
<path d="M40.4867 20.9859C40.4867 31.7477 31.7623 40.4721 21.0005 40.4721V41.4714C32.3142 41.4714 41.486 32.2996 41.486 20.9859H40.4867ZM21.0005 40.4721C10.24 40.4721 1.5143 31.7476 1.5143 20.9859H0.515002C0.515002 32.2996 9.68811 41.4714 21.0005 41.4714V40.4721ZM1.5143 20.9859C1.5143 10.2241 10.24 1.49965 21.0005 1.49965V0.500353C9.68811 0.500353 0.515002 9.67216 0.515002 20.9859H1.5143ZM21.0005 1.49965C31.7623 1.49965 40.4867 10.2241 40.4867 20.9859H41.486C41.486 9.67218 32.3142 0.500353 21.0005 0.500353V1.49965Z" fill="#0A192F" mask="url(#path-1-outside-1_733_9923)"/>
<path d="M26.5494 14.27H15.4521C13.2748 14.27 11.5098 16.035 11.5098 18.2123V23.7598C11.5098 25.9371 13.2748 27.7021 15.4521 27.7021H26.5494C28.7267 27.7021 30.4917 25.9371 30.4917 23.7598V18.2123C30.4917 16.035 28.7267 14.27 26.5494 14.27ZM23.8832 21.256L18.6927 23.7316C18.5544 23.7975 18.3946 23.6967 18.3946 23.5435V18.4376C18.3946 18.2822 18.5586 18.1814 18.6971 18.2517L23.8877 20.882C24.0421 20.9602 24.0394 21.1815 23.8832 21.256Z" fill="#0A192F"/>
</svg>
