<svg width="17" height="29" viewBox="0 0 17 29" fill="none" xmlns="http://www.w3.org/2000/svg">
<path d="M4.81908 16.2326C4.71111 16.2326 2.33561 16.2326 1.25584 16.2326C0.679962 16.2326 0.5 16.0166 0.5 15.4767C0.5 14.037 0.5 12.5613 0.5 11.1216C0.5 10.5458 0.715954 10.3658 1.25584 10.3658H4.81908C4.81908 10.2578 4.81908 8.17027 4.81908 7.19847C4.81908 5.75878 5.07103 4.39107 5.79088 3.13134C6.54672 1.83561 7.62649 0.971794 8.9942 0.4679C9.89401 0.143969 10.7938 0 11.7656 0H15.2929C15.7968 0 16.0127 0.215954 16.0127 0.719847V4.82298C16.0127 5.32687 15.7968 5.54282 15.2929 5.54282C14.3211 5.54282 13.3493 5.54282 12.3775 5.57882C11.4057 5.57882 10.9018 6.04672 10.9018 7.0545C10.8658 8.13427 10.9018 9.17805 10.9018 10.2938H15.0769C15.6528 10.2938 15.8687 10.5098 15.8687 11.0856V15.4407C15.8687 16.0166 15.6888 16.1966 15.0769 16.1966C13.7812 16.1966 11.0098 16.1966 10.9018 16.1966V27.9301C10.9018 28.5419 10.7218 28.7579 10.074 28.7579C8.56229 28.7579 7.0866 28.7579 5.57492 28.7579C5.03504 28.7579 4.81908 28.5419 4.81908 28.0021C4.81908 24.2229 4.81908 16.3405 4.81908 16.2326Z" fill="#999AB6"/>
</svg>
