<svg width="17" height="16" viewBox="0 0 17 16" fill="none" xmlns="http://www.w3.org/2000/svg">
<path d="M5.61807 4.99365H1.48557C1.18665 4.99365 0.899987 5.11239 0.688625 5.32376C0.477263 5.53512 0.358521 5.82179 0.358521 6.1207V8.75047C0.358521 9.04938 0.477263 9.33605 0.688625 9.54741C0.899987 9.75877 1.18665 9.87752 1.48557 9.87752H5.61807V4.99365Z" fill="#0F1A46"/>
<path d="M14.8937 1.05645C14.737 0.950373 14.556 0.885475 14.3676 0.867748C14.1792 0.85002 13.9893 0.880034 13.8155 0.95502L6.36951 4.75692V10.1179L13.8118 13.9423C14.1716 14.0529 14.5607 14.0164 14.8937 13.8409C15.0455 13.7375 15.1696 13.5985 15.2554 13.4361C15.3412 13.2737 15.386 13.0929 15.3859 12.9092V1.98815C15.386 1.8045 15.3412 1.62362 15.2554 1.46125C15.1696 1.29887 15.0455 1.15991 14.8937 1.05645Z" fill="#0F1A46"/>
<path d="M5.82457 10.6289H2.78906L3.84097 14.3181C3.90807 14.5542 4.05042 14.762 4.24638 14.9098C4.44235 15.0576 4.68122 15.1374 4.92669 15.1371H5.61795C5.78956 15.1296 5.95739 15.0843 6.10943 15.0044C6.26147 14.9244 6.39393 14.8118 6.49734 14.6747C6.60075 14.5375 6.67254 14.3792 6.70756 14.211C6.74258 14.0429 6.73997 13.869 6.69991 13.702L5.82457 10.6289Z" fill="#0F1A46"/>
<path d="M16.1371 6.18799V8.68252C16.3563 8.60501 16.5462 8.46159 16.6807 8.27192C16.8152 8.08225 16.8878 7.85562 16.8884 7.62309V7.24741C16.8878 7.01488 16.8152 6.78825 16.6807 6.59858C16.5462 6.40892 16.3563 6.2655 16.1371 6.18799Z" fill="#0F1A46"/>
</svg>
