<svg width="233" height="229" viewBox="0 0 233 229" fill="none" xmlns="http://www.w3.org/2000/svg">
<path d="M88.1845 57.3106C88.0572 56.8562 87.9785 57.0865 87.8815 57.2621C87.8815 57.3046 87.827 57.3167 87.7967 57.2985C87.6029 57.1652 87.4877 56.6078 87.3363 56.2746C87.2267 55.9365 87.1775 55.5817 87.1909 55.2265C87.1829 54.8508 87.1341 54.477 87.0455 54.1118C86.8092 53.1061 86.6941 52.0822 86.379 51.0826C86.2579 50.6343 86.1004 50.192 85.955 49.774C85.8096 49.3559 85.7066 49.0712 85.6278 48.7198C85.5135 48.1898 85.3086 47.6836 85.022 47.2234C84.9259 47.0837 84.8388 46.938 84.7615 46.7872C84.6766 46.6418 84.5858 46.4964 84.501 46.3449C84.3256 46.0184 84.1679 45.6826 84.0284 45.3392C83.8648 44.9575 83.7012 44.5698 83.5134 44.1942C83.3256 43.8186 83.0712 43.4672 82.8531 43.1037C82.4593 42.4554 82.0837 41.7769 81.7565 41.1953C81.4276 40.5409 81.0361 39.9201 80.5872 39.3414C80.0904 38.7901 79.5573 38.257 79.0242 37.7299C78.758 37.4782 78.4746 37.2454 78.176 37.0332C77.8052 36.7515 77.455 36.4437 77.1279 36.1123C76.9564 35.9185 76.7722 35.7364 76.5766 35.567L75.9707 35.1005C75.5588 34.7916 75.1407 34.4947 74.7591 34.1797C74.2206 33.8008 73.6534 33.4646 73.0627 33.174C72.7355 32.9983 72.4084 32.8286 72.0934 32.6348C71.7518 32.4816 71.42 32.3076 71.0998 32.1137C70.5356 31.7925 69.9358 31.5384 69.3125 31.3564C68.5079 31.125 67.7204 30.8375 66.9558 30.4962C66.5701 30.3768 66.2015 30.2077 65.8593 29.9933C65.566 29.8124 65.2336 29.7043 64.8899 29.6783C64.67 29.6629 64.4514 29.6325 64.2356 29.5874C64.0078 29.5608 63.7828 29.5141 63.5631 29.448C62.5206 29.0831 61.4352 28.855 60.334 28.7695C59.7766 28.7332 59.2132 28.7089 58.6437 28.6968C58.0733 28.7176 57.5047 28.7743 56.9413 28.8664C56.3779 28.9513 55.8326 28.9937 55.2813 29.0482C54.7261 29.1415 54.1656 29.2002 53.6031 29.2239C53.2306 29.2387 52.8599 29.2833 52.4945 29.3572C52.1496 29.4672 51.8134 29.6029 51.4888 29.7631C51.0005 30 50.4799 30.1633 49.9439 30.2478C49.2714 30.4053 48.611 30.6294 47.9385 30.8172C47.6053 30.9202 47.26 31.0051 46.9328 31.1202L45.9574 31.52C45.5273 31.6957 45.085 31.8714 44.6549 32.0713C43.2186 32.8451 41.8452 33.7303 40.5473 34.7189L39.7355 35.3247L39.0266 36.0153C38.5703 36.4601 38.1451 36.9358 37.7544 37.4391C37.6025 37.6686 37.4323 37.8854 37.2455 38.0873C36.5775 38.7515 35.9693 39.4733 35.4279 40.2441C34.8766 41.0135 34.2769 41.7405 33.7498 42.516C33.4044 42.9825 33.1924 43.4975 32.9016 43.9821L32.1382 45.4967C31.8606 45.8445 31.6267 46.225 31.4415 46.6297C31.2779 47.0598 31.1386 47.5081 30.9932 47.9625C30.8728 48.3211 30.7332 48.673 30.5752 49.0167C30.3485 49.5248 30.2092 50.0676 30.1632 50.6221C30.133 50.7921 30.0801 50.9571 30.0057 51.1129C29.8003 51.5263 29.6632 51.9703 29.5998 52.4275L29.2968 54.4208C29.2968 54.6086 29.2363 54.8024 29.2241 54.9902C29.1817 55.8081 29.3938 56.3776 29.3514 57.1289C29.2734 57.8812 29.2897 58.6403 29.3998 59.3886C29.4786 59.8309 29.5513 60.2671 29.6301 60.7033C29.8205 61.4166 29.9542 62.1439 30.0299 62.8783C30.0495 63.3444 30.1352 63.8054 30.2844 64.2475C30.5164 64.912 30.7007 65.5923 30.8357 66.2831C30.9993 66.9495 31.1931 67.5857 31.3264 68.246C31.3677 68.5047 31.4284 68.7599 31.5082 69.0094C32.2049 70.3846 32.6532 71.8205 33.4832 73.1109L33.6286 73.3593C34.1557 74.2923 34.7494 75.1162 35.2522 75.9947C35.3976 76.231 35.5249 76.4733 35.6824 76.7035C36.2033 77.3833 36.7876 78.0122 37.4272 78.5816C37.6938 78.824 38.033 78.9997 38.2996 79.242C38.5662 79.4843 38.96 79.7267 39.2811 79.9387L40.2928 80.6294L41.3894 81.4109C41.7343 81.6826 42.0966 81.9316 42.4739 82.1561C43.2615 82.5923 44.0127 83.077 44.8185 83.4768L45.0729 83.598C45.8026 83.9568 46.5088 84.3615 47.1873 84.8097C47.9991 85.052 48.7261 85.1247 49.5501 85.4155C49.9014 85.5549 50.2771 85.6215 50.6224 85.7427C50.8805 85.8219 51.1334 85.917 51.3797 86.0274C51.7129 86.1728 52.0522 86.3122 52.4036 86.4333C52.759 86.5246 53.119 86.5974 53.482 86.6514C53.8515 86.712 54.2211 86.7544 54.5907 86.7908C54.964 86.8413 55.3414 86.8555 55.7175 86.8332C56.2688 86.7968 56.8141 86.7726 57.3715 86.7726H58.2196C58.4983 86.7726 58.7891 86.7726 59.0799 86.7726C59.1727 86.7789 59.2658 86.7789 59.3586 86.7726C60.3037 86.5908 61.2367 86.6151 62.1515 86.4576L63.5389 86.3182C63.7752 86.3182 64.0054 86.2819 64.2356 86.2516L64.9202 86.1122C64.9626 86.1122 65.0474 86.1122 65.0353 86.1122C64.986 86.1572 64.9284 86.1922 64.8657 86.2152L64.3629 86.4091C64.3144 86.4091 64.3204 86.4636 64.3023 86.4939L66.7923 85.9608C67.0286 85.9123 67.1073 85.8033 66.9983 85.6942C66.8892 85.5852 66.9437 85.5246 67.2224 85.4155C68.0645 85.0944 68.9067 84.8097 69.7427 84.4522C70.5788 84.0948 71.3603 83.6768 72.1661 83.3375C72.7356 83.0285 73.305 82.6529 73.8806 82.3257C74.1593 82.1622 74.4864 82.0228 74.7409 81.8289C74.9953 81.6351 75.2861 81.4715 75.5527 81.314C76.1283 81.0027 76.6566 80.611 77.1218 80.1508C77.7473 79.4721 78.444 78.8627 79.1999 78.3333C79.8057 77.8365 80.4115 77.2609 81.0174 76.6854C81.5728 76.096 82.009 75.4048 82.3018 74.6497C82.3808 74.4156 82.4952 74.195 82.641 73.9954C83.3842 73.033 83.9955 71.9755 84.4585 70.8511L85.0644 69.2881C85.1701 68.929 85.308 68.5803 85.4763 68.246C85.8205 67.6445 86.1066 67.0116 86.3306 66.3558C86.5184 65.6773 86.6759 64.9745 86.8274 64.2717C86.9209 63.8548 86.9837 63.4316 87.0152 63.0055L87.1606 61.7332C87.1957 61.4049 87.2606 61.0805 87.3545 60.7639C87.3874 60.5562 87.48 60.3625 87.621 60.2065C87.7967 60.049 87.9967 60.0975 88.1421 59.6492C88.3541 59.0433 88.5783 58.8434 88.8206 58.801C88.9115 58.801 89.0145 58.698 89.0872 58.5102C89.4264 57.559 89.693 57.6681 89.9354 58.5768C90.093 59.0846 90.2957 59.5773 90.5412 60.049C90.7475 60.4997 90.8191 61.0005 90.7472 61.4909C90.6847 62.0663 90.6725 62.6461 90.7108 63.2236C90.7202 63.5157 90.6999 63.808 90.6502 64.096C90.6216 64.2293 90.5852 64.3608 90.5412 64.4898C90.4806 64.6231 90.414 64.7624 90.3352 64.9078C90.2564 65.0532 90.0989 65.2713 89.9838 65.5137C89.9062 65.6936 89.8532 65.8831 89.8263 66.0771C89.7837 66.5393 89.6944 66.996 89.5597 67.4403C89.4143 67.8765 89.1962 68.2884 89.0266 68.7186C89.0266 68.7852 88.9297 68.8761 88.9054 68.8761C88.651 68.8761 88.4026 69.173 88.1542 69.6395C88.033 69.8697 87.9239 70.1423 87.7907 70.4149L87.3545 71.2207C87.1606 71.5781 86.9788 71.9538 86.7971 72.3354C86.6292 72.7217 86.439 73.098 86.2276 73.4623C85.9784 73.8946 85.6862 74.3006 85.3552 74.674C85.0667 74.9694 84.8126 75.2966 84.5979 75.6494C84.379 75.9582 84.215 76.3026 84.1132 76.6672C83.9978 77.0407 83.8218 77.3928 83.5922 77.7092C83.34 78.0936 83.0173 78.4266 82.641 78.6907C82.5652 78.7495 82.4924 78.8122 82.4229 78.8785H82.4714C82.0716 79.1277 81.7503 79.4847 81.5445 79.9084V79.8539C80.8747 80.6509 80.15 81.3999 79.3756 82.0955C79.0484 82.3924 78.8364 82.7014 78.5819 82.9437C78.233 83.3063 77.854 83.6387 77.449 83.9373C77.1693 84.2017 76.8717 84.4467 76.5584 84.6703C76.3259 84.817 76.0492 84.877 75.7769 84.84C75.6628 84.8182 75.5456 84.8182 75.4315 84.84C75.0729 84.9247 74.7337 85.0769 74.4319 85.2883C73.5927 85.881 72.6856 86.3712 71.7299 86.7484C71.4492 86.8644 71.176 86.998 70.912 87.1482C70.6393 87.2936 70.3425 87.4087 70.0699 87.536L68.7007 88.1418L68.01 88.4568C67.7798 88.5598 67.5374 88.6265 67.2951 88.7113C66.8165 88.8749 66.3379 89.0384 65.8471 89.1899C65.3478 89.3627 64.8288 89.4726 64.3023 89.5171C63.8176 89.5655 63.2723 89.6867 62.7574 89.7836C61.855 90.0296 60.9032 90.0296 60.0008 89.7836C59.8213 89.747 59.6388 89.7267 59.4555 89.723C59.0383 89.7001 58.6219 89.7813 58.2439 89.9593C58.2075 90.0138 58.2802 90.0805 58.2439 90.135C57.9081 90.3389 57.5069 90.4061 57.1231 90.3228L55.2692 90.129C54.8572 90.0865 54.4392 89.9896 54.0151 89.9351L52.137 89.6382C51.5212 89.5038 50.9143 89.3318 50.3195 89.1233C49.8025 89.0475 49.2921 88.932 48.7928 88.7779C48.3141 88.5841 47.8537 88.366 47.3872 88.1721L47.4539 88.2145C47.1085 88.0388 46.7874 87.8449 46.4179 87.6995L45.812 87.4633L45.2486 87.1846L44.1157 86.6272C43.6349 86.4233 43.1727 86.178 42.7344 85.8941C42.2194 85.5246 41.7105 85.1914 41.1834 84.8763L40.3898 84.4159C40.1353 84.2463 39.8688 84.0827 39.6022 83.9191C39.1284 83.6344 38.6713 83.3229 38.233 82.9861C38.0096 82.8068 37.8065 82.6036 37.6271 82.3803C37.4333 82.1743 37.2576 81.9622 37.0879 81.7744C36.7426 81.3453 36.3681 80.9404 35.9671 80.5627C35.5734 80.1629 35.2038 79.7206 34.8403 79.2965C34.7797 79.2238 34.6949 79.1572 34.6222 79.0845C33.4105 77.9637 33.4408 77.9031 32.4109 76.3703C32.2518 76.1396 32.0576 75.9352 31.8353 75.7645C31.7263 75.6615 31.6112 75.5585 31.496 75.4313C31.2506 75.1994 31.1014 74.8836 31.078 74.5468C31.0664 74.1409 30.9193 73.7506 30.66 73.4381C30.3397 72.9669 30.0619 72.4681 29.83 71.9477C29.5836 71.4388 29.3534 70.9178 29.1393 70.3846C28.897 69.6273 28.6123 68.8216 28.3336 68.04C28.0549 67.2585 27.9519 67.0646 27.5823 66.8708C27.368 66.6211 27.2498 66.3032 27.2491 65.9741C27.2491 65.8166 27.2491 65.6894 27.2794 65.55C27.325 65.353 27.3242 65.148 27.2768 64.9514C27.2295 64.7547 27.1371 64.5718 27.0068 64.4171C26.7199 63.8334 26.5374 63.2039 26.4676 62.5572C26.1889 61.0971 26.1889 59.6189 26.0132 58.1588C25.9707 57.7418 25.9707 57.3217 26.0132 56.9047C26.0859 56.2989 26.1222 55.6446 26.1525 55.0084C26.1638 54.6916 26.1962 54.3758 26.2495 54.0633L26.4009 53.1243C26.5384 52.2773 26.5952 51.4192 26.5706 50.5616C26.5586 50.4002 26.5586 50.2382 26.5706 50.0769C26.5828 49.7749 26.6549 49.4784 26.7826 49.2045C27.362 48.0543 27.8777 46.8731 28.3275 45.6664C28.4002 45.4967 28.4123 45.2968 28.479 45.1211C28.3773 45.2301 28.2879 45.35 28.2124 45.4786C28.1033 45.6603 28.0185 45.7694 27.9822 45.6785C27.9943 45.5848 28.0187 45.4931 28.0549 45.4059C28.5536 44.3894 29.1203 43.4077 29.7512 42.4675C29.9819 42.1794 30.1417 41.8412 30.2177 41.48C30.2287 41.4057 30.247 41.3327 30.2722 41.2619C30.4025 40.8821 30.5972 40.5275 30.8478 40.2138C31.0212 40.0027 31.2052 39.8005 31.3991 39.608L32.005 39.0324C32.5146 38.6076 32.8928 38.0466 33.0955 37.4148C33.2671 36.972 33.5692 36.5917 33.9618 36.3243C34.1864 36.1463 34.3896 35.943 34.5677 35.7185C34.7878 35.37 35.0459 35.047 35.3371 34.7552C35.646 34.4765 35.9732 34.2099 36.2761 33.9252C36.7487 33.4951 37.2091 33.0407 37.6877 32.6226L39.1963 31.4413C39.5164 31.1724 39.866 30.9407 40.2383 30.7506C41.6439 30.1448 42.9464 29.2784 44.3944 28.5878C44.7276 28.4121 44.7942 28.2909 44.6912 28.2303C44.5882 28.1697 44.6912 28.1394 44.77 28.1091C45.0426 27.9577 45.3213 27.788 45.6061 27.6608L48.0294 26.7763L48.6353 26.5643L49.2411 26.4128L50.4891 26.122C51.0223 26.019 51.5372 25.8554 52.0704 25.7948L53.6516 25.5525C54.1787 25.4798 54.7058 25.3586 55.2328 25.3102L56.8201 25.1769C57.4075 25.092 58.0056 25.1188 58.5831 25.2556C59.0557 25.395 59.5585 25.5283 60.0735 25.6555C60.275 25.6745 60.4778 25.6745 60.6793 25.6555C60.853 25.6443 61.0253 25.618 61.1943 25.5767L61.6608 25.4798H62.1455C62.4847 25.4798 62.8361 25.4798 63.1996 25.4798C63.5631 25.4798 63.9509 25.5283 64.3447 25.5767L64.9505 25.6555C65.1504 25.6979 65.3504 25.7585 65.5564 25.813L67.9191 26.4552C68.6825 26.7097 69.4095 27.061 70.1365 27.3518C71.1301 27.7335 72.0449 28.2606 73.0082 28.715C73.4629 28.967 73.9635 29.1256 74.4804 29.1815C74.6595 29.181 74.8382 29.1992 75.0135 29.236C75.2782 29.3209 75.5163 29.4733 75.7042 29.6783L76.1343 30.3992C76.1849 30.4596 76.2417 30.5144 76.3039 30.5628C76.3697 30.5809 76.4365 30.5951 76.5039 30.6052C76.6526 30.584 76.8035 30.584 76.9522 30.6052C77.6544 30.8221 78.3114 31.1649 78.8909 31.617C79.682 32.1804 80.4021 32.8375 81.0356 33.5738C81.2415 33.798 81.4415 34.0464 81.6414 34.2524C82.2013 34.7455 82.7125 35.2912 83.1681 35.8821C83.4342 36.3119 83.6749 36.757 83.8891 37.2149C84.0401 37.4776 84.2188 37.7234 84.4222 37.948C85.028 38.5538 85.4703 38.8991 85.5915 38.5538C85.652 38.3963 85.9489 38.5902 86.1973 38.8567C86.3729 39.0761 86.4953 39.3333 86.5548 39.608C86.5839 39.831 86.6429 40.049 86.7304 40.2562C87.2221 40.9947 87.5771 41.8156 87.7786 42.6796C87.8564 42.9667 87.964 43.2448 88.0996 43.5096C88.3299 43.9943 88.5904 44.4608 88.8388 44.9394C89.0932 45.5452 89.3719 46.151 89.5597 46.7569C89.7051 47.1991 89.8505 47.6354 90.002 48.0716C90.1535 48.5078 90.2443 48.9561 90.3594 49.3983C90.6407 50.2663 90.8693 51.1504 91.044 52.0459C91.1046 52.367 91.0925 52.7062 90.9956 52.7244C90.7108 52.785 90.5472 53.1485 90.5715 54.1784C90.5941 54.4553 90.5505 54.7336 90.4442 54.9902C90.3891 55.1411 90.2925 55.2734 90.1655 55.3719C89.9784 55.5393 89.828 55.7435 89.7237 55.9719C89.6194 56.2002 89.5636 56.4477 89.5597 56.6987C89.5233 56.9108 89.4264 57.038 89.3477 57.0562C89.1296 57.1046 88.966 57.4378 88.7903 57.7105C88.6146 57.9831 88.3602 57.9467 88.1845 57.3106ZM77.2006 83.8827C77.3277 83.785 77.4454 83.6754 77.552 83.5556C77.5783 83.515 77.5968 83.4697 77.6065 83.4223C77.5111 83.4162 77.4156 83.4328 77.3278 83.4708C77.1961 83.5585 77.0795 83.6669 76.9825 83.7919C76.8613 83.9736 77.0067 84.0221 77.2006 83.8827ZM52.9185 89.6564L54.1302 89.8503C54.9287 90.0005 55.7431 90.0473 56.5536 89.9896C56.7717 89.9896 56.8807 89.9351 56.8383 89.8624C56.8062 89.8234 56.761 89.7975 56.7111 89.7897C56.3668 89.6958 56.0167 89.6249 55.663 89.5776C55.4812 89.5776 55.2874 89.5352 55.0874 89.5171C54.8875 89.4989 54.6876 89.4625 54.4816 89.4504C53.9969 89.4504 53.4759 89.3474 53.0034 89.3292C52.7982 89.325 52.5936 89.3536 52.3975 89.4141C52.24 89.4504 52.5732 89.5958 52.9185 89.6564ZM51.9734 26.3946C51.9734 26.3946 51.8886 26.3522 51.8159 26.3522C51.2833 26.3121 50.7478 26.3675 50.2347 26.5158C49.7915 26.6559 49.3404 26.7692 48.8836 26.8551C48.4656 26.9338 48.0779 27.0368 47.672 27.0913C47.5727 27.1108 47.4753 27.1392 47.3812 27.1761C47.2929 27.2112 47.2077 27.2538 47.1267 27.3034C46.9631 27.4003 46.9207 27.4791 47.0782 27.4791C47.4054 27.4791 47.7507 27.4791 48.1203 27.4488C48.3249 27.4292 48.5275 27.3928 48.7261 27.3397C48.9778 27.2885 49.2266 27.2238 49.4713 27.1459L50.2589 26.8732L51.5615 26.5764C51.7917 26.5097 51.9552 26.4552 51.9734 26.3946ZM71.6329 28.818C71.6329 28.818 71.5542 28.715 71.4875 28.6786C70.7931 28.2562 70.0425 27.9339 69.258 27.7214C69.1814 27.6986 69.1016 27.6884 69.0218 27.6911C68.8885 27.6911 68.943 27.788 69.1793 27.891L70.1607 28.3091C70.4273 28.3939 70.6575 28.4545 70.8635 28.5393L71.4391 28.7816C71.5014 28.8026 71.5678 28.8089 71.6329 28.7998V28.818ZM85.7732 40.2623C85.9186 40.2623 85.8096 39.8564 85.5612 39.5292C85.4191 39.3888 85.265 39.2611 85.1007 39.1475C85.0038 39.2202 85.1007 39.4929 85.3067 39.7534C85.5127 40.0139 85.6702 40.2502 85.7732 40.2623Z" fill="#080B35"/>
<path d="M202.512 58.8802C202.391 58.4319 202.306 58.6621 202.215 58.8378C202.215 58.8802 202.161 58.8863 202.131 58.8378C201.937 58.7045 201.822 58.1471 201.664 57.8139C201.56 57.4768 201.513 57.1246 201.525 56.7719C201.517 56.3941 201.468 56.0184 201.379 55.6511C201.137 54.6514 201.028 53.6215 200.707 52.6219C200.592 52.1736 200.434 51.7313 200.289 51.3072C200.143 50.8831 200.04 50.6105 199.956 50.2591C199.848 49.7253 199.642 49.2159 199.35 48.7566C199.259 48.6173 199.174 48.4719 199.095 48.3265C199.017 48.1811 198.92 48.0357 198.835 47.8782C198.659 47.5516 198.502 47.2159 198.362 46.8725C198.199 46.4968 198.035 46.1031 197.841 45.7274L197.205 44.6854C196.811 44.0371 196.436 43.3586 196.109 42.777C195.78 42.1209 195.387 41.4998 194.933 40.9231C194.442 40.3718 193.909 39.8387 193.376 39.3055C193.11 39.0558 192.827 38.825 192.528 38.6149C192.156 38.3296 191.804 38.0199 191.474 37.6879C191.304 37.4962 191.122 37.3161 190.929 37.1487L190.323 36.6762C189.911 36.3733 189.493 36.0703 189.111 35.7553C188.577 35.3749 188.014 35.0367 187.427 34.7436C187.1 34.5739 186.773 34.3982 186.451 34.2104C186.112 34.0539 185.783 33.8779 185.464 33.6833C184.89 33.3618 184.28 33.1096 183.646 32.9321C182.843 32.6979 182.055 32.4105 181.29 32.0718C180.904 31.9524 180.535 31.7834 180.193 31.569C179.901 31.3853 179.568 31.2771 179.224 31.2539C179.004 31.2369 178.785 31.2045 178.569 31.157C178.342 31.131 178.116 31.0843 177.897 31.0176C176.854 30.6553 175.769 30.4293 174.668 30.3452C174.111 30.3007 173.547 30.2765 172.978 30.2725C172.405 30.2882 171.834 30.3428 171.269 30.436C170.712 30.5209 170.166 30.5633 169.615 30.6238C169.06 30.7181 168.5 30.7748 167.937 30.7935C167.565 30.8134 167.194 30.86 166.828 30.9328C166.482 31.0375 166.145 31.1734 165.823 31.3387C165.334 31.5756 164.814 31.7389 164.278 31.8234C163.605 31.9809 162.945 32.199 162.272 32.3868C161.933 32.4898 161.594 32.5746 161.267 32.6958L160.291 33.0896C159.861 33.2653 159.419 33.4471 158.989 33.647C157.553 34.4194 156.18 35.3026 154.881 36.2884L154.069 36.8943L153.342 37.5789C152.887 38.0245 152.46 38.4979 152.064 38.9966C151.918 39.2284 151.749 39.4455 151.561 39.6448C150.891 40.3093 150.283 41.0333 149.744 41.8076C149.192 42.5771 148.586 43.3041 148.065 44.0795C147.755 44.5517 147.472 45.0412 147.217 45.5457L146.454 47.0603C146.175 47.4072 145.941 47.7878 145.757 48.1932C145.594 48.6173 145.454 49.0717 145.309 49.52C145.187 49.8802 145.048 50.234 144.891 50.5802C144.665 51.0865 144.526 51.6272 144.479 52.1796C144.449 52.3515 144.396 52.5186 144.321 52.6764C144.112 53.0884 143.975 53.533 143.915 53.9911L143.613 55.9782C143.613 56.1721 143.552 56.3599 143.54 56.5841C143.491 57.3959 143.709 57.9654 143.667 58.7227C143.589 59.473 143.605 60.2301 143.716 60.9764C143.794 61.4247 143.867 61.8609 143.94 62.2911C144.135 63.0037 144.27 63.7311 144.346 64.466C144.365 64.9323 144.45 65.3933 144.6 65.8353C144.831 66.5021 145.016 67.1843 145.151 67.8769C145.315 68.5373 145.509 69.1734 145.636 69.8338C145.679 70.0947 145.741 70.352 145.824 70.6032C146.521 71.9785 146.969 73.4082 147.793 74.6987L147.944 74.9471C148.471 75.8861 149.065 76.704 149.568 77.5885C149.707 77.8188 149.841 78.0672 149.998 78.2974C150.522 78.9745 151.106 79.603 151.743 80.1755C152.009 80.4118 152.349 80.5874 152.615 80.8298C152.93 81.081 153.258 81.3156 153.597 81.5326L154.609 82.2172L155.705 83.0047C156.061 83.28 156.436 83.531 156.826 83.756C157.607 84.1922 158.365 84.6769 159.17 85.0767L159.425 85.2039C160.156 85.5604 160.862 85.9652 161.539 86.4156C162.345 86.664 163.078 86.7367 163.902 87.0518C164.247 87.1911 164.629 87.2577 164.974 87.3789C165.32 87.5001 165.495 87.5667 165.726 87.6637C166.065 87.8151 166.404 87.9484 166.756 88.0696C167.111 88.1609 167.471 88.2337 167.834 88.2877C168.206 88.3483 168.575 88.3967 168.943 88.4331C169.316 88.4816 169.694 88.4938 170.07 88.4694C170.615 88.4331 171.166 88.4149 171.724 88.4149C172.002 88.4149 172.287 88.4149 172.566 88.4149C172.844 88.4149 173.141 88.4149 173.432 88.4149C173.525 88.4243 173.618 88.4243 173.711 88.4149C174.65 88.2392 175.589 88.2574 176.504 88.1059L177.891 87.9666C178.121 87.9666 178.357 87.9302 178.588 87.8939L179.272 87.7545C179.315 87.7545 179.399 87.7545 179.381 87.7545C179.336 87.8012 179.28 87.8364 179.218 87.8575L178.715 88.0514C178.666 88.0514 178.672 88.1059 178.648 88.1362L181.144 87.597C181.381 87.5485 181.459 87.4395 181.35 87.3304C181.241 87.2214 181.296 87.1608 181.574 87.0518C182.41 86.7367 183.259 86.4459 184.089 86.0945C184.919 85.7431 185.712 85.3191 186.548 84.9737C187.118 84.6708 187.687 84.2891 188.263 83.968C188.542 83.7984 188.869 83.659 189.123 83.4712C189.378 83.2834 189.668 83.1077 189.935 82.9502C190.515 82.6452 191.046 82.2552 191.51 81.7931C192.139 81.1159 192.838 80.5067 193.594 79.9755C194.2 79.4848 194.806 78.9093 195.412 78.3277C195.967 77.7404 196.403 77.0512 196.696 76.2981C196.774 76.0634 196.888 75.8425 197.035 75.6438C197.782 74.6811 198.393 73.6212 198.853 72.4934L199.459 70.9304C199.566 70.5737 199.703 70.227 199.871 69.8944C200.214 69.2902 200.5 68.6554 200.725 67.9981C200.913 67.3196 201.07 66.6228 201.216 65.9201C201.313 65.5037 201.378 65.0803 201.41 64.6539L201.549 63.3816C201.589 63.0535 201.656 62.7293 201.749 62.4123C201.78 62.2041 201.873 62.0101 202.015 61.8549C202.191 61.6974 202.391 61.7398 202.536 61.2975C202.742 60.6917 202.967 60.4917 203.215 60.4493C203.279 60.4267 203.337 60.3881 203.383 60.3373C203.428 60.2865 203.46 60.225 203.476 60.1585C203.821 59.2074 204.081 59.3164 204.33 60.2191C204.485 60.7278 204.688 61.2207 204.936 61.6913C205.142 62.144 205.214 62.6468 205.142 63.1393C205.079 63.7147 205.067 64.2944 205.105 64.872C205.116 65.1623 205.093 65.4529 205.039 65.7383C205.013 65.8737 204.978 66.0072 204.936 66.1382C204.875 66.2715 204.808 66.4047 204.73 66.5562C204.651 66.7077 204.493 66.9197 204.378 67.162C204.309 67.3375 204.26 67.5205 204.233 67.7073C204.196 68.1698 204.108 68.6269 203.972 69.0704C203.827 69.5066 203.609 69.9247 203.439 70.3488C203.409 70.4215 203.342 70.5123 203.318 70.5063C203.064 70.5063 202.815 70.8031 202.567 71.2696C202.446 71.5059 202.331 71.7785 202.197 72.0512C202.064 72.3238 201.906 72.5904 201.767 72.8509C201.573 73.2083 201.391 73.5839 201.21 73.9656C201.044 74.3531 200.854 74.7295 200.64 75.0925C200.391 75.5245 200.098 75.9305 199.768 76.3042C199.48 76.5991 199.224 76.9241 199.004 77.2735C198.786 77.5842 198.624 77.9307 198.526 78.2974C198.408 78.6699 198.232 79.0215 198.005 79.3394C197.752 79.7216 197.429 80.0525 197.054 80.3148C196.981 80.3693 196.908 80.442 196.829 80.5026H196.884C196.484 80.7556 196.161 81.1141 195.951 81.5386V81.4841C195.278 82.2762 194.553 83.023 193.782 83.7196C193.455 84.0226 193.243 84.3255 192.988 84.5739C192.637 84.9334 192.258 85.2655 191.856 85.5674C191.553 85.8139 191.236 86.0406 190.904 86.246C190.672 86.3926 190.395 86.4527 190.123 86.4156C190.007 86.4069 189.89 86.4172 189.778 86.4459C189.417 86.5293 189.077 86.6838 188.778 86.9003C187.937 87.4924 187.028 87.9806 186.07 88.3543C185.803 88.4694 185.531 88.6088 185.258 88.7542C184.985 88.8996 184.688 89.0147 184.416 89.1419L183.041 89.7477L182.356 90.0688C182.126 90.1718 181.877 90.2385 181.641 90.3233C181.162 90.4808 180.684 90.6504 180.193 90.7958C179.693 90.9678 179.175 91.0797 178.648 91.1291C178.158 91.1715 177.618 91.2987 177.103 91.3956C176.199 91.6418 175.245 91.6418 174.341 91.3956C174.163 91.361 173.983 91.3428 173.802 91.3411C173.385 91.3197 172.969 91.3987 172.59 91.5713C172.547 91.6258 172.59 91.6925 172.59 91.747C172.475 91.9106 171.984 91.9893 171.469 91.9409L169.615 91.741C169.203 91.6985 168.785 91.6016 168.361 91.5471L166.483 91.2502C165.867 91.1186 165.26 90.9487 164.665 90.7413C164.149 90.6606 163.639 90.5432 163.139 90.3899C162.66 90.2021 162.2 89.978 161.733 89.7841L161.8 89.8326C161.455 89.6569 161.133 89.463 160.764 89.3115L160.158 89.0753L159.595 88.7966L158.462 88.2392C157.979 88.041 157.517 87.7976 157.08 87.5122C156.565 87.1426 156.056 86.8034 155.529 86.4883L154.736 86.0339C154.475 85.8643 154.215 85.6947 153.948 85.5311C153.466 85.2393 153.003 84.9175 152.561 84.5678C152.339 84.3999 152.136 84.209 151.955 83.9983C151.767 83.7923 151.591 83.5803 151.422 83.3622C151.076 82.933 150.702 82.5282 150.301 82.1505C149.907 81.7507 149.538 81.3023 149.174 80.8843C149.106 80.8091 149.033 80.7383 148.956 80.6723C147.714 79.5515 147.744 79.4606 146.745 77.952C146.577 77.7185 146.372 77.5138 146.139 77.3462C146.03 77.2372 145.915 77.1402 145.8 77.013C145.553 76.7813 145.402 76.4659 145.376 76.1285C145.37 75.7224 145.225 75.3306 144.964 75.0198C144.651 74.5451 144.379 74.0444 144.152 73.5234C143.903 73.0144 143.673 72.4934 143.461 71.9663C143.213 71.203 142.934 70.3972 142.655 69.6157C142.377 68.8342 142.274 68.6403 141.904 68.4464C141.691 68.1983 141.573 67.8828 141.571 67.5558C141.571 67.3983 141.571 67.265 141.571 67.1317C141.616 66.9337 141.614 66.728 141.567 66.5305C141.52 66.3331 141.428 66.1491 141.298 65.9928C141.012 65.4109 140.83 64.7835 140.759 64.1389C140.48 62.6788 140.48 61.2006 140.305 59.7405C140.262 59.3236 140.262 58.9034 140.305 58.4864C140.377 57.8806 140.414 57.2202 140.444 56.5901C140.455 56.2713 140.487 55.9535 140.541 55.639L140.692 54.6999C140.83 53.855 140.887 52.9989 140.862 52.1433C140.85 51.9799 140.85 51.8159 140.862 51.6525C140.874 51.3525 140.946 51.058 141.074 50.7862C141.653 49.636 142.169 48.4548 142.619 47.2481C142.692 47.0724 142.704 46.8785 142.77 46.7028C142.665 46.8084 142.574 46.9264 142.498 47.0542C142.395 47.242 142.31 47.345 142.274 47.2602C142.285 47.1671 142.308 47.0756 142.34 46.9876C142.835 45.9713 143.397 44.9896 144.024 44.0493C144.255 43.759 144.415 43.4188 144.491 43.0557C144.503 42.9815 144.521 42.9085 144.546 42.8376C144.676 42.4577 144.87 42.1032 145.121 41.7895C145.309 41.5714 145.479 41.3593 145.672 41.1836L146.278 40.6141C146.782 40.1874 147.157 39.6296 147.363 39.0026C147.532 38.5602 147.832 38.1798 148.223 37.9121C148.446 37.732 148.649 37.5289 148.829 37.3063C149.081 36.9482 149.376 36.6227 149.707 36.3369C150.016 36.0582 150.313 35.7917 150.646 35.5069C151.119 35.0768 151.573 34.6284 152.058 34.2104L153.566 32.9987C153.869 32.7306 154.2 32.497 154.554 32.302C155.96 31.6962 157.262 30.8298 158.71 30.1452C159.043 29.9695 159.11 29.8484 159.007 29.7817C158.904 29.7151 159.007 29.6969 159.086 29.6606C159.358 29.5091 159.637 29.3455 159.922 29.2122L162.345 28.3338L162.951 28.1217L163.557 27.9703L164.853 27.6795C165.386 27.5765 165.895 27.4129 166.428 27.3463L168.01 27.116C168.537 27.0433 169.058 26.9222 169.591 26.8737L171.178 26.7344C171.766 26.6525 172.363 26.6792 172.941 26.8131C173.414 26.9585 173.917 27.0918 174.432 27.219C174.633 27.2409 174.836 27.2409 175.037 27.219C175.211 27.2067 175.383 27.1824 175.552 27.1463L176.019 27.0494C176.176 27.0494 176.34 27.0494 176.504 27.0494C176.837 27.0494 177.194 27.0494 177.558 27.0494C177.921 27.0494 178.309 27.1039 178.703 27.1463L179.309 27.2251L179.914 27.3826L182.235 28.049C182.992 28.3035 183.725 28.6549 184.452 28.9396C185.446 29.3213 186.361 29.8484 187.324 30.3088C187.776 30.5518 188.273 30.7021 188.784 30.7511C188.963 30.7559 189.141 30.7762 189.317 30.8117C189.583 30.8942 189.822 31.047 190.008 31.2539L190.438 31.9749C190.49 32.0338 190.547 32.0884 190.608 32.1384C190.673 32.1548 190.74 32.167 190.807 32.1748C190.956 32.1537 191.107 32.1537 191.256 32.1748C191.959 32.3886 192.617 32.7317 193.194 33.1865C193.984 33.7495 194.704 34.4044 195.339 35.1374C195.545 35.3676 195.745 35.6099 195.945 35.822C196.51 36.3119 197.023 36.858 197.478 37.4517C197.744 37.8794 197.984 38.3225 198.199 38.7784C198.345 39.0444 198.524 39.2907 198.732 39.5115C199.338 40.1174 199.78 40.4687 199.901 40.1476C199.962 39.9841 200.259 40.184 200.507 40.4445C200.683 40.6639 200.805 40.9211 200.864 41.1957C200.893 41.4189 200.952 41.6371 201.04 41.844C201.53 42.5836 201.884 43.4041 202.088 44.2674C202.166 44.5554 202.272 44.8354 202.403 45.1034C202.639 45.582 202.9 46.0546 203.148 46.5271C203.403 47.133 203.682 47.7388 203.869 48.3447C204.009 48.7869 204.16 49.2231 204.312 49.6533C204.463 50.0834 204.554 50.5439 204.669 50.9801C204.948 51.8506 205.177 52.7366 205.354 53.6336C205.414 53.9487 205.402 54.2879 205.305 54.3122C205.014 54.3667 204.857 54.7302 204.881 55.7601C204.901 56.0389 204.857 56.3184 204.754 56.578C204.699 56.7274 204.602 56.8577 204.475 56.9536C204.289 57.123 204.139 57.3286 204.035 57.5577C203.931 57.7869 203.875 58.0348 203.869 58.2865C203.869 58.4925 203.736 58.6258 203.657 58.6439C203.445 58.6924 203.282 59.0196 203.106 59.2982C202.93 59.5769 202.694 59.5224 202.512 58.8802ZM191.51 85.4584C191.639 85.36 191.757 85.2483 191.862 85.1252C191.91 85.0767 191.904 85.0404 191.922 84.998C191.831 84.998 191.753 84.998 191.643 85.0404C191.51 85.1301 191.391 85.2406 191.292 85.3675C191.195 85.5432 191.335 85.5917 191.51 85.4584ZM167.277 91.226L168.488 91.4259C169.287 91.5731 170.101 91.6199 170.912 91.5653C171.124 91.5653 171.239 91.5047 171.19 91.438C171.142 91.3714 171.136 91.3774 171.063 91.3593C170.72 91.2682 170.372 91.1974 170.021 91.1472C169.839 91.1472 169.645 91.1048 169.415 91.0927C169.185 91.0806 169.015 91.0382 168.809 91.0261C168.325 91.0261 167.804 90.9231 167.331 90.8988C167.126 90.8971 166.922 90.9256 166.725 90.9837C166.574 91.0261 166.907 91.1654 167.277 91.226ZM166.307 27.9703C166.307 27.9703 166.216 27.9279 166.15 27.9279C165.616 27.8853 165.078 27.9387 164.562 28.0854C164.122 28.2261 163.672 28.3394 163.217 28.4246C162.793 28.5095 162.412 28.6125 162.006 28.6609C161.908 28.6827 161.813 28.7132 161.721 28.7518C161.633 28.7849 161.548 28.8255 161.467 28.873C161.303 28.9699 161.261 29.0547 161.412 29.0547C161.745 29.0547 162.085 29.0547 162.46 29.0184C162.665 29.0016 162.868 28.9651 163.066 28.9093C163.317 28.8638 163.564 28.799 163.805 28.7155L164.599 28.4489L165.853 28.146C166.119 28.0914 166.289 28.0248 166.307 27.9703ZM185.967 30.3936C185.967 30.3936 185.888 30.2967 185.815 30.2543C185.124 29.8305 184.375 29.5082 183.592 29.2971C183.514 29.2816 183.434 29.2816 183.356 29.2971C183.222 29.2971 183.277 29.394 183.513 29.497L184.495 29.909C184.755 29.9938 184.991 30.0604 185.197 30.1392L185.773 30.3815C185.846 30.3633 185.967 30.3876 185.967 30.3694V30.3936ZM200.107 41.8561C200.246 41.8561 200.143 41.4563 199.895 41.1291C199.755 40.987 199.6 40.8592 199.435 40.7474C199.338 40.8201 199.435 41.0867 199.634 41.3533C199.834 41.6198 199.992 41.8198 200.107 41.8319V41.8561Z" fill="#080B35"/>
<path d="M228.23 112.539C228.127 111.449 228.036 111.988 227.933 112.418C227.933 112.515 227.873 112.539 227.848 112.491C227.646 111.652 227.508 110.8 227.437 109.94C227.348 109.077 227.317 108.208 227.346 107.341C227.346 106.408 227.346 105.439 227.346 104.548C227.279 102.004 227.255 99.4409 227.249 96.8419C227.249 95.6908 227.206 94.5275 227.164 93.4128C227.128 92.4616 227.128 91.5589 227.164 90.6684C227.247 89.3282 227.234 87.984 227.128 86.6456C226.981 84.8745 226.939 83.0963 227 81.3202C227.043 79.2543 227.037 77.0794 227.043 74.9953C227.043 73.0929 227.043 71.1543 227.164 69.5003C227.424 65.9501 227.37 62.2302 227.291 58.5104C227.255 57.5895 227.224 56.6929 227.194 55.7962C227.194 54.6451 227.134 53.3729 227.194 52.3126C227.285 49.7499 227.231 47.1994 227.249 44.6427C227.249 42.9767 227.249 41.3772 227.206 39.7536C227.164 37.9058 227.121 36.0761 227.206 34.1859C227.273 32.5259 227.206 30.9204 227.134 29.3392C227.073 27.2127 227.079 25.165 227.134 23.0567C227.148 22.0619 227.218 21.0687 227.346 20.082C227.454 19.2443 227.476 18.3978 227.412 17.5556C227.322 16.4472 227.308 15.3339 227.37 14.2235C227.485 12.3333 227.57 10.4249 227.612 8.49227C227.612 7.52898 227.642 6.55358 227.655 5.57818V4.91175V4.54825C227.449 4.54825 227.243 4.54825 227.049 4.59066L224.65 4.69971C221.881 4.8027 219.197 4.83905 216.374 4.69971C214.576 4.62564 212.775 4.66206 210.982 4.80876C209.646 4.91738 208.305 4.94772 206.965 4.89964L196.666 4.62095C195.515 4.59066 194.352 4.56037 193.188 4.56037H181.199C177.867 4.56037 174.644 4.56037 171.614 4.77847C171.009 4.81482 170.239 4.84511 169.591 4.83299C164.932 4.76635 160.2 4.93599 155.584 4.75423C154.172 4.70577 152.803 4.79059 151.41 4.79664H147.217C144.987 4.64 142.751 4.60359 140.517 4.68759C139.602 4.68759 138.62 4.68759 137.718 4.68759C136.362 4.61483 135.003 4.61483 133.646 4.68759C133.368 4.68759 132.726 4.68759 132.38 4.68759C131.332 4.60277 130.205 4.57854 129.012 4.57854H122.638C121.645 4.57854 120.821 4.63307 119.979 4.69365L118.767 4.77241L117.949 4.80876H117.574C117.574 4.92387 117.574 5.03898 117.574 5.16015C117.574 5.57212 117.604 5.99015 117.616 6.40212C117.671 7.5108 117.725 8.60132 117.78 9.68577C117.87 11.4548 117.913 13.236 117.864 15.1807C117.864 16.3015 117.822 17.5677 117.864 18.6522C117.986 22.2872 117.864 25.6315 117.695 28.9515C117.658 29.5573 117.598 30.2722 117.61 30.878C117.664 34.7009 117.501 38.348 117.483 42.0982C117.483 42.3345 117.483 42.5707 117.483 42.807C117.483 45.4424 117.416 47.9324 117.307 50.3861C117.307 51.0525 117.252 51.7129 117.222 52.3975C117.156 54.4937 117.143 56.5778 117.222 58.6376C117.265 59.51 117.325 60.3764 117.343 61.2851C117.386 63.4056 117.592 65.011 117.61 67.2163C117.646 71.6591 117.685 76.102 117.725 80.5448V81.2536C117.725 83.3862 117.658 85.4157 117.519 87.2757C117.561 89.3355 117.743 91.0985 117.731 93.2916C117.731 94.2246 117.731 95.1637 117.731 96.0785C117.731 96.7631 117.683 97.4477 117.64 98.0657C117.417 101.697 117.396 105.337 117.58 108.971C117.616 109.807 117.646 110.649 117.683 111.503C117.683 111.703 117.725 111.77 117.737 111.903C117.812 111.897 117.887 111.897 117.961 111.903H118.076H118.731C118.961 111.903 119.228 111.903 119.427 111.903C124.123 111.679 128.703 111.903 133.307 111.964C133.422 111.964 133.604 112.006 133.562 112.018C133.412 112.053 133.26 112.073 133.107 112.079L131.793 112.139C131.723 112.143 131.656 112.166 131.599 112.206L137.839 112.309C138.445 112.309 138.681 112.23 138.517 112.097C138.354 111.964 138.517 111.915 139.244 111.915C143.697 111.915 148.15 111.842 152.573 111.945C154.172 111.988 155.857 111.945 157.486 111.982C159.116 112.018 160.788 112.024 162.333 112.091C163.963 112.17 165.514 112.2 167.131 112.127C169.401 112.03 171.674 112.054 173.941 112.2C175.837 112.309 177.897 112.388 179.939 112.448C181.888 112.535 183.84 112.471 185.779 112.254C186.371 112.168 186.969 112.136 187.566 112.157C191.631 112.248 193.509 112.254 196.496 112.157L200.598 111.933C201.537 111.933 202.5 111.903 203.354 111.933C206.662 112.151 210.14 112.133 213.654 112.067L219.93 111.958C221.218 111.868 222.512 111.968 223.771 112.254C224.19 112.553 224.687 112.724 225.201 112.745C226.746 112.921 227.164 113.139 227.279 113.351C227.321 113.436 227.54 113.539 227.982 113.599C230.205 113.89 229.908 114.151 227.873 114.454C226.784 114.621 225.706 114.85 224.644 115.138C223.613 115.364 222.56 115.468 221.505 115.447C220.027 115.447 218.924 115.568 217.743 115.671C216.486 115.789 215.221 115.766 213.969 115.605C213.454 115.544 213.084 115.459 212.533 115.411C212.107 115.384 211.68 115.384 211.255 115.411C209.236 115.517 207.214 115.517 205.196 115.411C205.052 115.416 204.909 115.395 204.772 115.35C204.53 114.853 201.282 114.86 198.653 114.799C196.836 114.757 194.903 114.799 193.025 114.799C191.813 114.799 190.601 114.799 189.65 114.696C187.898 114.475 186.124 114.504 184.379 114.781C182.524 115.033 180.644 115.062 178.782 114.866L178.139 114.829H178.261C177.226 114.702 176.181 114.702 175.146 114.829H175.262L168.307 114.944C167.313 114.944 166.525 114.999 165.738 115.059C164.72 115.144 163.587 115.169 162.394 115.175C160.364 115.175 158.625 115.175 158.013 114.86C157.79 114.789 157.561 114.738 157.329 114.708C156.516 114.591 155.695 114.547 154.875 114.575C152.567 114.635 150.319 114.666 147.938 114.611C146.636 114.611 145.163 114.611 143.812 114.678L137.045 114.963C134.791 115.035 132.574 115.126 130.145 115.059C129.054 115.023 127.818 115.059 126.655 115.059C124.605 115.154 122.551 115.062 120.518 114.787C120.294 114.744 119.73 114.726 119.306 114.702C119.07 114.702 118.791 114.702 118.507 114.702L117.525 114.738C117.004 114.745 116.485 114.798 115.974 114.896C115.823 114.956 116.01 115.017 115.853 115.072C115.291 115.202 114.716 115.271 114.138 115.278C114.102 114.672 114.09 113.914 114.102 113.115L114.157 110.449C114.157 109.764 114.157 109.08 114.205 108.389C114.205 107.468 114.205 106.523 114.205 105.584C114.205 102.767 114.205 99.9559 114.284 97.1932C114.163 94.8365 114.284 92.5889 114.344 90.3291V90.5108C114.387 89.6566 114.46 88.8266 114.472 87.9421C114.472 86.0761 114.472 84.1919 114.508 82.3138C114.508 81.1446 114.508 79.8905 114.508 78.8181C114.611 76.001 114.599 73.3656 114.478 70.5302C114.367 68.0404 114.4 65.5463 114.575 63.0602C114.75 60.7702 114.69 58.0863 114.744 55.5842C114.744 55.3661 114.744 55.1237 114.744 54.8996C114.605 51.1676 114.605 51.1676 114.744 47.0237C114.764 46.3924 114.735 45.7605 114.659 45.1334C114.617 44.7942 114.575 44.4731 114.544 44.0914C114.45 43.3663 114.483 42.6303 114.641 41.9164C114.854 41.0573 114.928 40.1696 114.859 39.2871C114.805 36.7123 114.799 34.192 114.859 31.605C114.914 29.7875 114.908 27.8731 114.92 25.995C114.932 24.1169 114.872 23.6261 114.563 22.9658C114.415 22.269 114.38 21.5531 114.46 20.8453C114.502 20.5 114.55 20.2395 114.593 19.9366C114.778 19.074 114.778 18.1819 114.593 17.3193C114.407 15.8974 114.326 14.4638 114.35 13.03V8.09847C114.35 6.14767 114.302 4.19686 114.272 2.25818V1.39788C115.344 1.39788 116.507 1.39788 117.543 1.39788L119.815 1.43423H126.152C128.035 1.47179 129.918 1.37257 131.787 1.13737C132.096 1.0889 132.441 1.0465 132.829 1.0162C133.48 0.961864 134.134 0.961864 134.785 1.0162C137.605 1.2811 140.436 1.39637 143.267 1.36153C143.679 1.36153 144.097 1.32518 144.479 1.30095C144.164 1.2646 143.873 1.21613 143.528 1.18584C143.061 1.14343 142.776 1.10708 142.922 1.04044C143.123 1.01998 143.325 1.00987 143.528 1.01015C146.157 1.01015 148.544 1.15555 150.955 1.27671C151.765 1.3306 152.577 1.29402 153.379 1.16766C153.506 1.16766 153.688 1.12526 153.863 1.10708C154.733 1.01527 155.608 0.997027 156.481 1.05255L160.116 1.32518C161.542 1.47681 162.981 1.44423 164.399 1.22825C165.415 1.08616 166.443 1.06176 167.464 1.15555C168.089 1.21178 168.716 1.23605 169.343 1.22825C171.118 1.07679 172.978 1.16766 174.795 1.16161L183.234 1.08891C184.174 1.08891 185.119 1.0465 185.979 1.08891C189.263 1.31912 192.77 1.29489 196.278 1.24037C197.114 1.24037 197.351 1.14343 197.211 1.04044C197.211 1.04044 197.338 0.973796 197.478 0.967737C198.156 0.967737 198.859 0.91927 199.544 0.925329C203.3 0.925329 207.086 0.925328 210.8 0.973795C215.526 1.0465 220.185 1.03438 224.837 0.937446C225.607 0.937446 226.291 0.937446 226.922 0.937446L228.382 0.985912C228.854 0.985912 229.309 1.03438 229.739 1.06467L230.95 1.14949C230.878 2.36117 230.799 3.69401 230.714 5.06321C230.714 5.40854 230.714 6.00226 230.714 6.42635C230.714 6.85044 230.775 7.23818 230.817 7.55321C231.186 10.7117 231.338 13.8917 231.271 17.071C231.271 20.5848 231.193 24.1048 231.108 27.552C231.047 29.8784 231.023 32.1927 231.017 34.5373C230.965 35.6508 231.054 36.7664 231.284 37.8573C231.362 38.1178 231.435 38.5359 231.508 38.9296C231.584 39.5169 231.584 40.1115 231.508 40.6987C231.368 41.2621 231.247 41.765 231.114 42.3223C231.088 42.4909 231.072 42.6608 231.065 42.8313C231.065 42.9767 231.108 43.1584 231.132 43.2493C231.231 43.5163 231.312 43.7895 231.374 44.0672C231.625 45.6133 231.742 47.1781 231.726 48.7442C231.726 50.8647 231.726 52.9851 231.635 54.9965C231.635 55.6569 231.562 56.3294 231.556 57.0018C231.556 58.6255 231.677 60.3097 231.556 61.8486C231.471 63.0602 231.32 63.9145 231.223 65.0656C231.186 65.7254 231.186 66.3868 231.223 67.0467C231.332 68.8642 231.49 70.0759 231.78 69.6518C231.926 69.4518 232.047 70.1546 232.059 70.8635C232.077 71.451 232.043 72.039 231.956 72.6204C231.86 73.0737 231.798 73.5333 231.768 73.9956C231.776 75.8961 231.674 77.7955 231.465 79.6845C231.411 80.1631 231.387 80.9628 231.387 81.611C231.387 82.7743 231.423 83.9375 231.441 85.1007C231.441 86.4941 231.52 87.9421 231.496 89.281C231.417 93.3159 231.496 97.2356 231.562 101.186C231.619 101.668 231.567 102.156 231.411 102.616C231.12 102.616 230.902 103.373 230.805 105.645C230.714 107.232 230.508 107.917 230.302 108.207C230.096 108.498 229.793 109.298 229.618 111.152C229.575 111.624 229.466 111.921 229.387 111.958C229.175 112.054 228.987 112.818 228.781 113.466C228.557 114.296 228.376 114.078 228.23 112.539ZM161.824 114.963C162.169 114.963 162.569 114.932 162.896 114.908C162.992 114.897 163.086 114.873 163.175 114.835C162.997 114.766 162.809 114.723 162.618 114.708C162.262 114.698 161.905 114.715 161.551 114.757C161.115 114.805 161.309 114.963 161.824 114.963ZM114.369 103.167C114.369 104.306 114.369 105.445 114.369 105.893C114.369 108.159 114.369 109.795 114.447 111.297C114.447 111.443 114.447 111.564 114.447 111.673C114.447 111.782 114.447 111.891 114.484 111.964C114.52 112.036 114.532 112.151 114.563 112.073C114.609 111.944 114.634 111.809 114.635 111.673L114.726 110.461C114.756 110.067 114.781 109.661 114.793 109.249C114.823 108.413 114.829 107.523 114.793 106.535C114.75 105.451 114.744 104.269 114.69 103.215C114.666 102.773 114.607 102.334 114.514 101.901C114.478 101.573 114.387 102.361 114.381 103.143L114.369 103.167ZM213.805 1.67051C213.835 1.67051 213.635 1.62204 213.484 1.59781C212.323 1.42515 211.15 1.34614 209.976 1.36153C208.056 1.41858 206.134 1.35788 204.221 1.17978C204.063 1.17978 203.778 1.17978 203.56 1.17978C203.342 1.17978 203.112 1.17978 202.955 1.17978C202.549 1.21613 202.397 1.27671 202.712 1.33124C203.397 1.44635 204.118 1.56146 204.924 1.65839C205.963 1.78252 207.01 1.82304 208.056 1.77956L209.922 1.71292H212.805C213.139 1.75701 213.477 1.74266 213.805 1.67051ZM230.387 31.9625C230.43 31.8233 230.451 31.6781 230.448 31.5323C230.496 29.7148 230.599 27.9942 230.514 26.1161C230.511 25.9412 230.493 25.7669 230.46 25.5951C230.393 25.3225 230.338 25.4982 230.326 26.0737C230.326 26.9643 230.29 27.8912 230.272 28.4971C230.272 29.7391 230.32 30.6539 230.339 31.5566C230.338 31.6934 230.354 31.8297 230.387 31.9625ZM230.993 72.9415C231.108 73.1354 231.229 72.2448 231.193 71.3421C231.193 70.8029 231.09 70.4091 231.053 70.0819C230.932 70.0819 230.86 70.7241 230.853 71.4451C230.825 71.9504 230.874 72.4571 230.999 72.9475L230.993 72.9415Z" fill="#080B35"/>
<path d="M88.3721 170.197C88.2449 169.749 88.1662 169.973 88.0692 170.155C88.0692 170.191 88.0147 170.203 87.9905 170.185C87.7966 170.052 87.6815 169.494 87.5239 169.161C87.4201 168.824 87.3731 168.472 87.3846 168.119C87.3746 167.741 87.3238 167.365 87.2332 166.998C86.9969 165.999 86.8818 164.969 86.5667 163.969C86.4456 163.527 86.2941 163.078 86.1427 162.66C85.9912 162.242 85.9003 161.958 85.8155 161.612C85.7022 161.08 85.4972 160.572 85.2096 160.11C85.1167 159.968 85.0319 159.823 84.9552 159.674C84.8704 159.528 84.7734 159.383 84.6947 159.231C84.5173 158.905 84.3575 158.569 84.2161 158.226C84.0586 157.844 83.8889 157.456 83.7011 157.081L83.065 155.996C82.6712 155.342 82.2956 154.663 81.9623 154.082C81.6331 153.439 81.2415 152.83 80.7931 152.264C80.2963 151.707 79.7692 151.174 79.2361 150.647C78.9665 150.398 78.6812 150.167 78.3818 149.956C78.0137 149.669 77.6636 149.359 77.3337 149.029C77.1638 148.834 76.9795 148.651 76.7824 148.484L76.1766 148.017C75.7646 147.708 75.3466 147.411 74.9649 147.096C74.4306 146.716 73.8675 146.378 73.2807 146.085C72.9475 145.909 72.6264 145.739 72.3053 145.551C71.9842 145.364 71.6388 145.224 71.3117 145.024C70.7489 144.706 70.1512 144.454 69.5305 144.273C68.7261 144.041 67.9386 143.754 67.1738 143.413C66.7844 143.295 66.4133 143.124 66.0712 142.904C65.7779 142.723 65.4455 142.615 65.1018 142.589C64.8819 142.574 64.6633 142.543 64.4475 142.498C64.2198 142.471 63.9948 142.424 63.775 142.359C62.7352 141.993 61.6514 141.767 60.552 141.686C59.9946 141.644 59.4251 141.62 58.8617 141.607C58.2892 141.628 57.7186 141.685 57.1532 141.777C56.5958 141.862 56.0445 141.904 55.4993 141.959C54.944 142.052 54.3836 142.111 53.8211 142.135C53.4486 142.149 53.0778 142.194 52.7124 142.268C52.3659 142.379 52.0278 142.515 51.7007 142.674C51.2117 142.91 50.6915 143.075 50.1558 143.164C49.4833 143.316 48.8229 143.54 48.1504 143.728C47.8172 143.831 47.4719 143.916 47.1447 144.037L46.1754 144.431C45.7392 144.606 45.2969 144.782 44.8668 144.988C43.4317 145.758 42.0602 146.642 40.7652 147.629L39.9534 148.235C39.7111 148.459 39.4688 148.69 39.2385 148.926C38.7808 149.367 38.3556 149.841 37.9663 150.344C37.8183 150.576 37.6479 150.793 37.4574 150.992C36.789 151.656 36.1808 152.377 35.6398 153.149C35.0825 153.918 34.4827 154.651 33.9556 155.427C33.6494 155.898 33.3683 156.386 33.1135 156.887L32.3501 158.401C32.0739 158.75 31.8401 159.13 31.6534 159.534C31.4899 159.964 31.3505 160.419 31.1991 160.867C31.0813 161.227 30.9417 161.579 30.781 161.921C30.5613 162.432 30.4223 162.973 30.369 163.527C30.3426 163.698 30.2895 163.863 30.2115 164.017C30.0082 164.431 29.8731 164.875 29.8117 165.332L29.5088 167.325C29.5088 167.513 29.4482 167.707 29.4361 167.895C29.3876 168.713 29.5996 169.282 29.5572 170.033C29.4813 170.786 29.4996 171.545 29.6117 172.293L29.8359 173.608C30.0308 174.32 30.1666 175.048 30.2418 175.783C30.2585 176.249 30.3442 176.711 30.4963 177.152C30.722 177.819 30.9061 178.498 31.0476 179.188C31.2112 179.854 31.399 180.49 31.5323 181.151C31.5719 181.41 31.6348 181.666 31.7201 181.914C32.4168 183.295 32.859 184.725 33.689 186.015L33.8344 186.264C34.3615 187.197 34.9552 188.021 35.4642 188.899C35.6035 189.136 35.7307 189.378 35.8943 189.608C36.4134 190.291 36.9977 190.922 37.6391 191.492C37.9057 191.729 38.245 191.904 38.5115 192.147C38.8088 192.387 39.1204 192.61 39.4445 192.813L40.4502 193.504L41.5529 194.291C41.9081 194.565 42.2804 194.816 42.6676 195.042C43.4552 195.479 44.2125 195.963 45.0122 196.363L45.2666 196.49C46.0002 196.846 46.7087 197.25 47.3871 197.702C48.1928 197.944 48.9199 198.017 49.7438 198.338C50.0952 198.478 50.4708 198.544 50.8222 198.665C51.0774 198.747 51.3281 198.842 51.5734 198.95C51.9066 199.102 52.252 199.235 52.5973 199.356C52.9426 199.477 53.3183 199.514 53.6818 199.574C54.0453 199.635 54.4148 199.683 54.7904 199.72C55.1642 199.765 55.5414 199.777 55.9173 199.756C56.4626 199.72 57.0139 199.695 57.5713 199.701H58.4134C58.6981 199.701 58.9829 199.701 59.2737 199.701C59.3685 199.708 59.4636 199.708 59.5584 199.701C60.4975 199.52 61.4304 199.544 62.3513 199.386L63.7387 199.247C63.9689 199.247 64.2052 199.211 64.4354 199.18L65.1139 199.041C65.1624 199.041 65.2412 199.041 65.2291 199.041C65.1821 199.085 65.1263 199.118 65.0655 199.138L64.5566 199.338C64.5142 199.338 64.5142 199.392 64.496 199.417L66.9921 198.883C67.2223 198.835 67.301 198.726 67.198 198.617C67.095 198.508 67.1435 198.447 67.4161 198.338C68.2583 198.023 69.1064 197.732 69.9364 197.381C70.7664 197.03 71.554 196.606 72.3598 196.26C72.9293 195.951 73.4988 195.576 74.0743 195.255C74.3591 195.085 74.6801 194.946 74.9346 194.752C75.1891 194.558 75.4799 194.394 75.7464 194.237C76.3238 193.928 76.8525 193.536 77.3156 193.073C77.9417 192.393 78.6406 191.784 79.3997 191.256C80.0055 190.759 80.6113 190.19 81.2172 189.608C81.7706 189.017 82.2065 188.326 82.5015 187.572C82.577 187.339 82.6917 187.119 82.8408 186.924C83.5835 185.959 84.1947 184.9 84.6583 183.774L85.2642 182.211C85.3729 181.852 85.5128 181.503 85.6822 181.169C86.0239 180.566 86.3098 179.933 86.5364 179.279C86.7182 178.6 86.8757 177.897 87.0272 177.194C87.1222 176.78 87.187 176.358 87.221 175.934L87.3604 174.662C87.3967 174.331 87.4636 174.005 87.5603 173.687C87.593 173.481 87.6857 173.289 87.8269 173.135C88.0026 172.978 88.2025 173.02 88.3479 172.578C88.5539 171.972 88.7781 171.766 89.0265 171.724C89.1113 171.724 89.2203 171.621 89.287 171.433C89.6323 170.482 89.8928 170.591 90.1412 171.5C90.294 172.009 90.4969 172.502 90.747 172.972C90.9593 173.421 91.0311 173.923 90.953 174.414C90.8936 174.989 90.8815 175.569 90.9167 176.146C90.9321 176.439 90.9118 176.731 90.8561 177.019C90.8303 177.155 90.7938 177.288 90.747 177.419C90.6905 177.544 90.6238 177.683 90.5471 177.837C90.4259 178.049 90.3048 178.194 90.1957 178.442C90.1128 178.619 90.0576 178.807 90.0321 179C89.9925 179.462 89.9031 179.919 89.7656 180.363C89.6262 180.799 89.4081 181.211 89.2385 181.641C89.2082 181.708 89.1355 181.805 89.1112 181.799C88.8629 181.769 88.6084 182.096 88.3661 182.562C88.2388 182.792 88.1298 183.071 87.9965 183.344L87.5664 184.143C87.3725 184.501 87.1847 184.876 87.009 185.258C86.8415 185.646 86.6492 186.022 86.4334 186.385C86.1879 186.818 85.8975 187.224 85.5671 187.597C85.277 187.89 85.0209 188.215 84.8037 188.566C84.5848 188.875 84.4209 189.219 84.3191 189.584C84.0582 190.399 83.5421 191.108 82.8469 191.607C82.771 191.666 82.6982 191.729 82.6288 191.795H82.6833C82.2817 192.044 81.9584 192.401 81.7503 192.825V192.777C81.0794 193.569 80.3569 194.316 79.5875 195.012C79.2603 195.309 79.0483 195.618 78.7938 195.86C78.4413 196.223 78.0605 196.558 77.6548 196.86C77.3358 197.115 76.9998 197.348 76.6491 197.557C76.4165 197.703 76.1399 197.763 75.8676 197.726C75.7516 197.717 75.6349 197.728 75.5223 197.757C75.1633 197.84 74.8238 197.992 74.5226 198.205C73.6819 198.799 72.7727 199.289 71.8145 199.665C71.5349 199.783 71.2619 199.917 70.9966 200.065C70.724 200.216 70.4332 200.325 70.1606 200.453L68.7853 201.058L68.0947 201.374C67.8645 201.476 67.6221 201.549 67.3798 201.634C66.9012 201.792 66.4286 201.955 65.9379 202.107C65.4378 202.278 64.9193 202.39 64.393 202.44C63.9023 202.482 63.3631 202.603 62.8481 202.7C61.9437 202.946 60.9899 202.946 60.0855 202.7C59.908 202.663 59.7275 202.643 59.5463 202.64C59.1291 202.617 58.7127 202.698 58.3346 202.876C58.2982 202.931 58.3709 202.997 58.3346 203.052C58.0007 203.255 57.6018 203.322 57.2199 203.239L55.366 203.046C54.948 203.003 54.5299 202.906 54.1119 202.852L52.2338 202.555C51.6179 202.421 51.0109 202.249 50.4163 202.04C49.8994 201.963 49.389 201.848 48.8896 201.695C48.4109 201.507 47.9505 201.283 47.4901 201.089L47.5567 201.131C47.2114 200.962 46.8842 200.762 46.5207 200.616L45.9149 200.38L45.3454 200.101L44.2125 199.544C43.7325 199.341 43.2704 199.097 42.8312 198.817C42.3162 198.441 41.8073 198.108 41.2863 197.793L40.4866 197.333C40.2321 197.163 39.9716 196.999 39.699 196.836C39.2192 196.54 38.756 196.219 38.3116 195.872C38.0898 195.703 37.8867 195.51 37.7058 195.297C37.518 195.091 37.3362 194.885 37.1666 194.691C36.8234 194.262 36.4509 193.857 36.0518 193.479C35.652 193.074 35.2824 192.631 34.925 192.207C34.8561 192.132 34.7812 192.063 34.7008 192.001C33.4891 190.874 33.5194 190.789 32.4895 189.281C32.3308 189.052 32.1389 188.848 31.92 188.675C31.8009 188.57 31.6877 188.459 31.5807 188.342C31.3319 188.114 31.1801 187.8 31.1566 187.463C31.1504 187.057 31.0026 186.664 30.7386 186.355C30.4304 185.877 30.159 185.377 29.9268 184.858C29.6845 184.349 29.4542 183.828 29.2422 183.295C28.9938 182.538 28.709 181.732 28.4304 180.951C28.1517 180.169 28.0547 179.975 27.6852 179.781C27.4722 179.533 27.3541 179.218 27.352 178.891C27.352 178.727 27.352 178.6 27.352 178.461C27.3991 178.264 27.3989 178.058 27.3515 177.861C27.3041 177.665 27.2109 177.482 27.0793 177.328C26.7952 176.743 26.6128 176.114 26.5401 175.468C26.2615 174.008 26.2675 172.529 26.0858 171.069C26.0534 170.651 26.0635 170.231 26.116 169.815C26.1888 169.209 26.2251 168.555 26.2554 167.919C26.2607 167.602 26.2931 167.286 26.3523 166.974L26.5038 166.035C26.6416 165.188 26.6984 164.33 26.6734 163.472C26.6613 163.311 26.6613 163.149 26.6734 162.988C26.6907 162.688 26.7626 162.395 26.8855 162.121C27.5003 160.973 28.0524 159.791 28.5394 158.583C28.6061 158.413 28.6182 158.213 28.6909 158.044C28.5859 158.149 28.4944 158.267 28.4182 158.395C28.3092 158.577 28.2244 158.686 28.1941 158.595C28.1998 158.503 28.2224 158.413 28.2607 158.329C28.7532 157.312 29.3139 156.331 29.9389 155.39C30.1698 155.1 30.3296 154.76 30.4054 154.397C30.4054 154.336 30.4417 154.257 30.466 154.179C30.5913 153.797 30.7865 153.441 31.0415 153.13C31.2131 152.918 31.3972 152.715 31.5928 152.525L32.1987 151.955C32.7006 151.525 33.0755 150.965 33.2831 150.338C33.4573 149.898 33.7564 149.519 34.1434 149.247C34.3661 149.067 34.5692 148.864 34.7493 148.641C34.9656 148.29 35.224 147.967 35.5187 147.678C35.8277 147.399 36.1245 147.133 36.4577 146.848C36.9303 146.418 37.3847 145.969 37.8693 145.545L39.3779 144.364C39.6876 144.084 40.0292 143.842 40.3957 143.643C41.8012 143.037 43.1038 142.171 44.5578 141.48C44.891 141.311 44.9516 141.183 44.8547 141.123C44.7577 141.062 44.8547 141.032 44.9334 141.002C45.2042 140.838 45.4832 140.688 45.7695 140.553L48.1929 139.675C48.3988 139.602 48.5988 139.523 48.7987 139.463L49.4045 139.305L50.6526 139.014C51.1796 138.911 51.6946 138.748 52.2277 138.687L53.815 138.445C54.3421 138.372 54.8631 138.251 55.3902 138.209L56.9836 138.069C57.5711 137.987 58.1687 138.014 58.7466 138.148C59.2191 138.289 59.7159 138.423 60.2369 138.548C60.4383 138.571 60.6415 138.571 60.8428 138.548C61.0165 138.537 61.1888 138.511 61.3578 138.469C61.5092 138.469 61.6667 138.403 61.8242 138.378C61.9818 138.354 62.1453 138.378 62.315 138.342C62.6482 138.342 62.9996 138.342 63.3691 138.342C63.7387 138.342 64.1143 138.39 64.5081 138.439L65.1139 138.518C65.3139 138.56 65.5138 138.621 65.7198 138.675L68.0402 139.336C68.7975 139.59 69.5245 139.941 70.2515 140.232C71.245 140.614 72.1659 141.141 73.1292 141.601C73.5849 141.85 74.0852 142.007 74.6014 142.062C74.7805 142.062 74.9592 142.08 75.1345 142.116C75.3976 142.201 75.6337 142.354 75.8191 142.559L76.2493 143.28C76.3014 143.338 76.3581 143.393 76.4189 143.443C76.4841 143.464 76.551 143.478 76.6188 143.486C76.7696 143.464 76.9225 143.464 77.0732 143.486C77.7753 143.698 78.431 144.042 79.0058 144.497C79.7987 145.059 80.5209 145.714 81.1566 146.448C81.3444 146.686 81.5467 146.913 81.7624 147.127C82.7558 147.903 83.5304 148.923 84.0101 150.089C84.1598 150.354 84.3408 150.6 84.5493 150.822C85.1248 151.428 85.5913 151.773 85.7186 151.428C85.7791 151.271 86.0699 151.464 86.288 151.731C86.4922 151.955 86.6342 152.229 86.7 152.525C86.7301 152.748 86.7913 152.966 86.8818 153.173C87.3708 153.912 87.7237 154.733 87.9238 155.596C88.0034 155.883 88.1109 156.161 88.2449 156.426C88.4812 156.911 88.7417 157.377 88.984 157.856C89.2385 158.462 89.5232 159.068 89.711 159.643C89.8504 160.092 90.0019 160.528 90.1533 160.958C90.3048 161.388 90.3896 161.842 90.5107 162.285C90.7864 163.154 91.0149 164.038 91.1953 164.932C91.2559 165.253 91.2438 165.593 91.1408 165.611C90.8561 165.671 90.6925 166.035 90.7167 167.065C90.7388 167.341 90.6973 167.619 90.5956 167.877C90.5398 168.027 90.4433 168.159 90.3169 168.258C90.1307 168.428 89.981 168.633 89.8768 168.862C89.7727 169.092 89.7162 169.339 89.711 169.591C89.6747 169.797 89.5778 169.93 89.499 169.949C89.2869 169.997 89.1173 170.324 88.9416 170.597C88.7659 170.869 88.5478 170.833 88.3721 170.197ZM77.3883 196.751C77.5154 196.651 77.633 196.539 77.7396 196.418C77.7881 196.369 77.776 196.327 77.7942 196.284C77.7007 196.278 77.6071 196.295 77.5215 196.333C77.3882 196.421 77.2696 196.529 77.1702 196.654C77.055 196.86 77.1944 196.908 77.3883 196.751ZM53.1123 202.519L54.3239 202.712C55.1226 202.861 55.9366 202.91 56.7473 202.858C56.9593 202.858 57.0684 202.797 57.026 202.731C56.9946 202.69 56.9493 202.662 56.8988 202.652C56.5538 202.561 56.2039 202.49 55.8507 202.44C55.6689 202.41 55.4811 202.397 55.2812 202.379C55.0813 202.361 54.8753 202.331 54.6753 202.313C54.1967 202.282 53.6757 202.21 53.2031 202.191C52.998 202.188 52.7936 202.216 52.5973 202.276C52.4277 202.337 52.773 202.482 53.1123 202.543V202.519ZM52.1672 139.287C52.1672 139.287 52.0823 139.239 52.0096 139.239C51.477 139.199 50.9416 139.254 50.4284 139.402C49.9853 139.542 49.5341 139.656 49.0774 139.741C48.6593 139.82 48.2716 139.929 47.8657 139.978C47.7683 140 47.673 140.03 47.5809 140.069C47.4917 140.099 47.4063 140.14 47.3265 140.19C47.1629 140.287 47.1205 140.365 47.272 140.365C47.6216 140.373 47.9714 140.363 48.3201 140.335C48.5251 140.318 48.7279 140.282 48.9259 140.226C49.1756 140.175 49.4223 140.11 49.665 140.032L50.4526 139.76L51.7067 139.463C51.9793 139.402 52.1672 139.342 52.1672 139.287ZM71.8327 141.71C71.7976 141.65 71.7447 141.601 71.6812 141.571C70.989 141.149 70.2404 140.826 69.4578 140.614C69.3812 140.591 69.3014 140.581 69.2215 140.584C69.0822 140.584 69.1428 140.687 69.373 140.783L70.3605 141.202C70.621 141.286 70.8573 141.347 71.0572 141.432L71.6328 141.674C71.6994 141.68 71.8267 141.704 71.8267 141.686L71.8327 141.71ZM85.9669 153.13C86.1063 153.13 86.0033 152.731 85.7488 152.403C85.6101 152.26 85.458 152.13 85.2945 152.016C85.1975 152.088 85.2945 152.361 85.4944 152.622C85.6943 152.882 85.8579 153.13 85.9669 153.13Z" fill="#080B35"/>
<path d="M114.09 223.856C113.987 222.766 113.896 223.305 113.793 223.729C113.793 223.826 113.733 223.856 113.708 223.808C113.506 222.969 113.369 222.117 113.296 221.257C113.205 220.394 113.174 219.526 113.206 218.658C113.206 217.725 113.206 216.756 113.206 215.859C113.133 213.315 113.109 210.752 113.103 208.159C113.103 207.008 113.06 205.845 113.018 204.724C113.018 203.773 112.981 202.87 113.018 201.98C113.101 200.639 113.088 199.295 112.981 197.957C112.835 196.188 112.792 194.412 112.854 192.637C112.897 190.566 112.891 188.397 112.891 186.313C112.891 184.41 112.891 182.465 113.018 180.812C113.272 177.261 113.218 173.541 113.139 169.828C113.139 168.907 113.078 168.01 113.048 167.113C113.048 165.962 112.981 164.69 113.048 163.63C113.139 161.067 113.084 158.517 113.097 155.96C113.097 154.288 113.097 152.688 113.06 151.071C113.012 149.253 112.975 147.387 113.06 145.497C113.127 143.843 113.03 142.238 112.987 140.65C112.927 138.53 112.933 136.482 112.987 134.374C112.998 133.377 113.069 132.382 113.2 131.393C113.302 130.557 113.323 129.713 113.26 128.873C113.175 127.762 113.163 126.647 113.224 125.535C113.337 123.653 113.418 121.744 113.466 119.81C113.466 118.84 113.466 117.871 113.508 116.895V115.872L112.903 115.914L110.546 115.993C107.777 116.09 105.093 116.132 102.27 115.993C100.47 115.913 98.6672 115.949 96.8721 116.102C95.538 116.207 94.199 116.238 92.8615 116.193L82.5258 115.914C81.3808 115.884 80.2176 115.853 79.0544 115.847H67.0648C63.7266 115.847 60.5036 115.847 57.4744 116.059C56.8685 116.102 56.1052 116.132 55.4509 116.12C50.798 116.053 46.0664 116.217 41.4499 116.041C40.0383 115.987 38.6691 116.071 37.2757 116.084H33.0772C30.8473 115.927 28.6105 115.89 26.3766 115.975C25.4618 115.975 24.4864 115.975 23.5837 115.944C22.2276 115.871 20.8686 115.871 19.5125 115.944C19.0882 115.961 18.6632 115.95 18.2402 115.914C17.1982 115.835 16.0652 115.811 14.8717 115.811H8.49831C7.49867 115.811 6.68078 115.866 5.83866 115.926L4.62698 116.011L3.80305 116.047H3.42741C3.42124 116.164 3.42124 116.282 3.42741 116.399C3.42741 116.811 3.42742 117.223 3.46983 117.61C3.52435 118.725 3.57282 119.81 3.62735 120.894C3.72428 122.669 3.76062 124.45 3.71216 126.395C3.71216 127.516 3.66975 128.776 3.71216 129.866C3.82727 133.501 3.71216 136.846 3.54252 140.135C3.50617 140.741 3.44559 141.456 3.45165 142.062C3.50618 145.885 3.34261 149.532 3.32443 153.282V153.985C3.32443 156.626 3.25172 159.116 3.14267 161.57C3.14267 162.236 3.08815 162.897 3.05786 163.581C2.99727 165.672 2.98515 167.762 3.08814 169.822C3.13055 170.694 3.18508 171.554 3.20325 172.469C3.24566 174.59 3.45771 176.189 3.46983 178.4C3.51021 182.843 3.55061 187.286 3.591 191.729V192.432C3.591 194.57 3.52436 196.6 3.38502 198.454C3.43348 200.519 3.61523 202.282 3.60311 204.47L3.57283 207.262C3.57283 207.947 3.52436 208.626 3.48195 209.244C3.2556 212.875 3.23537 216.515 3.42137 220.149C3.45166 220.985 3.48801 221.827 3.5183 222.675C3.54859 222.881 3.56676 222.948 3.57887 223.075H3.9121H4.57246H5.26917C9.96443 222.845 14.5385 223.075 19.149 223.135C19.258 223.135 19.4398 223.178 19.4034 223.19C19.2541 223.224 19.102 223.244 18.949 223.251L17.6283 223.311C17.5132 223.311 17.5011 223.354 17.4405 223.372L23.6746 223.481C24.2804 223.481 24.5228 223.402 24.3531 223.269C24.1835 223.135 24.3531 223.081 25.0801 223.081C29.5331 223.081 33.992 223.014 38.4389 223.117C40.0383 223.154 41.7286 223.117 43.3583 223.154C44.988 223.19 46.6601 223.196 48.1747 223.263C49.8105 223.335 51.3554 223.366 52.979 223.299C55.2485 223.203 57.5215 223.225 59.7887 223.366C61.685 223.481 63.7388 223.56 65.7865 223.62C67.7354 223.707 69.688 223.642 71.6268 223.426C72.2181 223.337 72.8166 223.305 73.414 223.329C77.4731 223.42 79.3573 223.42 82.3441 223.329L86.482 223.22C87.4271 223.22 88.3843 223.19 89.2386 223.22C92.5464 223.438 96.03 223.414 99.5378 223.354L105.82 223.245C107.717 223.245 109.116 223.317 109.655 223.541C110.078 223.832 110.573 224.002 111.085 224.032C112.63 224.208 113.048 224.42 113.169 224.668C113.212 224.753 113.424 224.856 113.866 224.911C116.095 225.207 115.799 225.468 113.757 225.765C112.669 225.936 111.591 226.164 110.528 226.449C109.5 226.682 108.449 226.788 107.396 226.764C105.911 226.764 104.815 226.886 103.627 226.989C102.372 227.104 101.108 227.079 99.8589 226.916C99.3439 226.861 98.9744 226.777 98.4231 226.722C97.9973 226.698 97.5705 226.698 97.1448 226.722C95.1267 226.828 93.1044 226.828 91.0864 226.722C90.9445 226.726 90.803 226.706 90.6683 226.661C90.426 226.165 87.1726 226.171 84.5494 226.11C82.7318 226.068 80.7992 226.11 78.915 226.11C77.7034 226.11 76.4917 226.11 75.5466 226.007C73.7925 225.788 72.0164 225.814 70.2697 226.086C68.4142 226.341 66.5346 226.371 64.6718 226.177L64.0356 226.14H64.1507C63.1191 226.007 62.0744 226.007 61.0428 226.14H61.1579L54.2028 226.249C53.2093 226.249 52.4217 226.31 51.628 226.371C50.6163 226.455 49.4773 226.48 48.2838 226.486C46.2542 226.486 44.5215 226.486 43.9036 226.171C43.6814 226.096 43.4519 226.045 43.219 226.019C42.4069 225.9 41.5857 225.853 40.7653 225.88C38.4571 225.94 36.2155 225.971 33.8345 225.916C32.532 225.886 31.0598 225.947 29.7087 225.989L22.9476 226.225C20.6938 226.298 18.4765 226.389 16.0471 226.316C14.9566 226.316 13.7206 226.316 12.5574 226.346C10.5077 226.438 8.45385 226.347 6.42026 226.074C6.19004 226.031 5.63267 226.013 5.20858 225.989C4.97231 225.989 4.69363 225.989 4.40282 225.989L3.42137 226.025C2.90248 226.032 2.38534 226.087 1.87646 226.189C1.71895 226.243 1.91283 226.31 1.75531 226.365C1.19296 226.495 0.618058 226.564 0.0407709 226.571C0.00442048 225.965 -0.00769483 225.201 0.00442196 224.402L0.0528995 221.742C0.0528995 221.057 0.0892417 220.373 0.101359 219.682C0.101359 218.761 0.101359 217.81 0.101359 216.877C0.101359 214.06 0.101367 211.243 0.186185 208.486C0.065017 206.123 0.186183 203.882 0.240708 201.622V201.804C0.289175 200.944 0.361877 200.114 0.373994 199.229C0.373994 197.369 0.373986 195.479 0.404278 193.601C0.404278 192.432 0.404278 191.177 0.404278 190.111C0.507271 187.288 0.495162 184.659 0.373994 181.823C0.260386 179.333 0.292755 176.839 0.47093 174.353C0.640565 172.057 0.586033 169.379 0.6345 166.871C0.6345 166.659 0.6345 166.417 0.6345 166.193C0.495157 162.455 0.495157 162.461 0.6345 158.317C0.650635 157.687 0.622283 157.058 0.549674 156.433C0.507265 156.093 0.464868 155.766 0.428517 155.39C0.337044 154.665 0.369827 153.93 0.525454 153.216C0.740744 152.357 0.816429 151.469 0.749611 150.586C0.695086 148.011 0.689027 145.491 0.749611 142.904C0.804137 141.087 0.798082 139.172 0.810199 137.294C0.822316 135.416 0.755676 134.925 0.452756 134.265C0.302682 133.568 0.267881 132.852 0.349755 132.144C0.386105 131.799 0.434573 131.539 0.48304 131.236C0.668049 130.373 0.668049 129.481 0.48304 128.618C0.291735 127.197 0.208696 125.763 0.234644 124.329C0.234644 122.681 0.234644 121.037 0.234644 119.398C0.234644 117.447 0.180115 115.496 0.155882 113.557V112.691C1.22822 112.691 2.38537 112.691 3.42741 112.691L5.69931 112.727H12.0303C13.9152 112.768 15.8005 112.669 17.6707 112.43C17.9797 112.388 18.325 112.346 18.7128 112.315C19.3639 112.261 20.0185 112.261 20.6696 112.315C23.4888 112.58 26.32 112.696 29.1514 112.661C29.5633 112.661 29.9753 112.618 30.3933 112.6C30.0783 112.558 29.7875 112.509 29.4361 112.479C28.9757 112.443 28.6909 112.4 28.8303 112.34C29.032 112.326 29.2344 112.326 29.4361 112.34C32.0594 112.34 34.4525 112.485 36.8577 112.606C37.667 112.66 38.4798 112.623 39.281 112.497C39.4082 112.497 39.5839 112.449 39.7596 112.43C40.6293 112.344 41.5046 112.328 42.3769 112.382L46.0119 112.655C47.4381 112.8 48.877 112.767 50.2952 112.558C51.3085 112.412 52.3355 112.388 53.3547 112.485C53.9673 112.534 54.582 112.552 55.1964 112.539C56.9655 112.382 58.8315 112.479 60.649 112.473L69.0883 112.4C70.0334 112.4 70.9725 112.358 71.8388 112.4C75.1225 112.624 78.6303 112.6 82.1381 112.552C82.9681 112.552 83.2104 112.455 83.065 112.352C83.0348 112.352 83.1983 112.285 83.3316 112.279C84.0102 112.279 84.7129 112.23 85.4036 112.23C89.1598 112.23 92.9402 112.23 96.6601 112.285C101.386 112.358 106.038 112.34 110.697 112.249C111.467 112.249 112.145 112.249 112.781 112.249L114.242 112.297L115.599 112.382L116.81 112.467C116.738 113.678 116.653 115.011 116.568 116.374C116.544 116.828 116.544 117.283 116.568 117.738C116.568 118.162 116.629 118.549 116.671 118.864C117.04 122.025 117.192 125.207 117.125 128.388C117.089 131.896 117.041 135.416 116.956 138.863C116.901 141.196 116.871 143.51 116.865 145.855C116.817 146.966 116.909 148.08 117.137 149.169C117.216 149.429 117.289 149.853 117.362 150.241C117.434 150.828 117.434 151.422 117.362 152.01C117.228 152.579 117.107 153.082 116.974 153.64C116.974 153.737 116.938 153.979 116.919 154.149C116.901 154.318 116.968 154.47 116.992 154.567C117.088 154.834 117.169 155.107 117.234 155.384C117.485 156.931 117.603 158.495 117.586 160.062C117.586 162.176 117.586 164.302 117.495 166.314C117.465 166.968 117.416 167.647 117.416 168.319C117.416 169.937 117.537 171.627 117.416 173.166C117.331 174.377 117.18 175.226 117.083 176.377C117.043 177.037 117.043 177.698 117.083 178.358C117.192 180.175 117.35 181.387 117.64 180.969C117.78 180.763 117.901 181.472 117.919 182.181C117.938 182.768 117.902 183.357 117.81 183.938C117.719 184.392 117.659 184.851 117.628 185.313C117.634 187.214 117.531 189.113 117.319 191.002C117.271 191.48 117.247 192.28 117.247 192.928C117.247 194.092 117.247 195.255 117.295 196.412C117.295 197.811 117.38 199.259 117.356 200.598C117.271 204.627 117.356 208.553 117.422 212.503C117.476 212.985 117.424 213.473 117.271 213.933C116.98 213.933 116.762 214.69 116.635 216.962C116.538 218.555 116.338 219.24 116.126 219.531C115.914 219.822 115.617 220.621 115.447 222.469C115.399 222.942 115.296 223.238 115.217 223.275C114.999 223.378 114.817 224.135 114.611 224.783C114.417 225.607 114.229 225.395 114.09 223.856ZM47.6961 226.28C48.0354 226.28 48.4413 226.249 48.7685 226.219C48.8622 226.211 48.9541 226.188 49.0411 226.153C48.8625 226.082 48.6749 226.037 48.4837 226.019C48.1295 226.012 47.7751 226.03 47.4235 226.074C46.9691 226.122 47.169 226.243 47.6961 226.256V226.28ZM0.240708 214.484C0.240708 215.623 0.240708 216.756 0.240708 217.21C0.240708 219.476 0.240711 221.106 0.31947 222.614V222.99C0.323986 223.087 0.334092 223.185 0.349755 223.281C0.349755 223.426 0.404271 223.463 0.434563 223.384C0.476941 223.255 0.501417 223.12 0.507279 222.984L0.598152 221.772C0.628443 221.379 0.64661 220.973 0.664785 220.561C0.695077 219.725 0.701135 218.834 0.664785 217.846C0.622376 216.762 0.616316 215.575 0.567848 214.52C0.540775 214.081 0.482072 213.643 0.392168 213.212C0.337643 212.891 0.246767 213.672 0.240708 214.46V214.484ZM99.6651 112.964C99.6651 112.964 99.4954 112.909 99.3379 112.891C98.1792 112.715 97.0079 112.636 95.8362 112.655C93.9158 112.712 91.9936 112.651 90.0807 112.473C89.9171 112.473 89.6384 112.473 89.4203 112.473C89.2022 112.473 88.972 112.473 88.8145 112.473C88.4025 112.509 88.251 112.57 88.5661 112.624C89.2567 112.739 89.9716 112.848 90.7834 112.951C91.8228 113.072 92.87 113.113 93.9156 113.073L95.7816 113.006H98.6654C98.9988 113.043 99.336 113.029 99.6651 112.964ZM116.247 143.286C116.287 143.146 116.308 143.001 116.307 142.856C116.35 141.068 116.459 139.318 116.374 137.439C116.368 137.265 116.35 137.091 116.32 136.918C116.253 136.646 116.198 136.821 116.18 137.397C116.18 138.288 116.144 139.215 116.132 139.82C116.132 141.032 116.174 141.971 116.192 142.85C116.194 142.997 116.212 143.143 116.247 143.286ZM116.853 184.259C116.962 184.459 117.089 183.562 117.053 182.665C117.053 182.126 116.95 181.726 116.913 181.405C116.792 181.405 116.713 182.041 116.713 182.762C116.684 183.266 116.733 183.77 116.859 184.259H116.853Z" fill="#080B35"/>
<path d="M181.417 162.364C182.108 162.261 181.763 162.17 181.496 162.067C181.429 162.067 181.417 162.006 181.442 161.982C181.962 161.778 182.505 161.636 183.059 161.558C183.605 161.465 184.16 161.43 184.713 161.455C185.319 161.455 185.925 161.455 186.482 161.455C188.1 161.37 189.723 161.334 191.377 161.316L192.474 161.279L193.08 161.243L194.116 161.206C195.291 161.164 196.424 161.152 197.472 161.206H197.793C197.744 162.732 197.781 164.259 197.902 165.781V165.968C197.899 166.019 197.899 166.069 197.902 166.12V166.32L197.951 166.72C197.951 166.986 197.993 167.253 198.005 167.531C198.005 168.089 198.005 168.677 198.005 169.301C197.975 170.615 198.005 171.978 198.005 173.317C198.038 174.483 198.012 175.65 197.926 176.813C197.745 179.133 197.731 181.464 197.884 183.786C197.926 184.392 197.963 184.925 198.005 185.507C198.005 186.24 198.084 187.046 198.054 187.718C197.981 189.348 198.054 190.965 198.054 192.565C198.054 193.625 198.054 194.637 198.126 195.667C198.208 196.844 198.227 198.025 198.181 199.205C198.162 200.228 198.198 201.251 198.29 202.27C198.369 203.615 198.375 204.918 198.344 206.257C198.344 206.644 198.344 206.984 198.284 207.299C198.284 207.45 198.248 207.602 198.229 207.741L198.193 207.947C198.193 208.002 198.193 207.947 198.151 207.995C198.108 208.044 198.023 208.201 198.09 208.25C198.157 208.298 198.205 208.304 198.138 208.517C197.533 209.389 196.212 210.685 196.503 210.28C196.624 210.092 196.727 209.971 195.788 210.988C195.182 211.637 195.182 211.594 195.988 210.722L196.515 210.116C196.588 210.055 196.612 210.116 196.515 210.334V210.382C196.244 210.692 196.021 211.042 195.854 211.418C195.854 211.473 195.854 211.515 195.957 211.418L197.302 210.122C197.767 209.701 198.162 209.208 198.472 208.662C198.507 208.576 198.558 208.498 198.623 208.432L198.756 208.323L199.265 207.82L200.834 206.239C201.889 205.19 202.943 204.148 204.051 203.179C204.724 202.573 205.263 201.919 205.905 201.289C206.548 200.659 207.178 200.077 207.82 199.435C208.934 198.555 209.972 197.582 210.922 196.527C211.328 196.109 211.776 195.679 212.206 195.315C212.86 194.76 213.468 194.152 214.024 193.498C214.21 193.299 214.412 193.117 214.629 192.952C215.192 192.51 215.727 192.033 216.229 191.523L218.452 189.324L219.058 188.718C219.967 187.833 220.415 187.052 221.257 186.222C222.099 185.392 222.99 184.598 223.765 183.719L225.135 182.144C225.504 181.714 225.88 181.296 226.28 180.878L226.886 180.272L227.031 180.127H227.067H227.104C227.108 180.101 227.108 180.074 227.104 180.048V179.703V179.254C227.009 177.08 227.066 174.902 227.273 172.736C227.324 172.334 227.354 171.929 227.364 171.524C227.31 169.101 227.473 166.786 227.491 164.399V163.951C227.491 162.279 227.564 160.698 227.673 159.141C227.673 158.716 227.728 158.298 227.758 157.862C227.84 156.543 227.84 155.22 227.758 153.9C227.716 153.349 227.661 152.797 227.643 152.222C227.6 150.877 227.388 149.859 227.376 148.46C227.334 145.63 227.298 142.813 227.255 139.978V139.53C227.252 138.252 227.321 136.976 227.461 135.707C227.413 134.392 227.231 133.283 227.243 131.884C227.243 131.278 227.243 130.672 227.243 130.115C227.243 129.679 227.291 129.248 227.334 128.855C227.561 126.553 227.581 124.235 227.394 121.93V121.609V121.451V121.373L227.352 121.263C227.33 121.206 227.312 121.147 227.298 121.088C227.27 120.958 227.27 120.824 227.298 120.694V120.627H227.237C227.061 120.888 227.007 120.924 226.892 120.985L226.68 121.1H226.637L226.455 121.27L226.098 121.597L225.383 122.263C225.329 122.312 225.219 122.366 225.226 122.336C225.271 122.249 225.326 122.168 225.389 122.093L225.94 121.488C225.989 121.427 225.971 121.397 225.983 121.354L223.099 124.069C222.826 124.323 222.766 124.499 222.935 124.517C223.105 124.535 223.069 124.65 222.742 124.977C220.73 126.964 218.773 129.006 216.683 130.921C215.938 131.605 215.193 132.381 214.442 133.089C213.69 133.798 212.927 134.537 212.188 135.168C211.409 135.819 210.678 136.526 210.001 137.282C209.046 138.365 208.002 139.366 206.881 140.275C205.948 141.044 204.966 141.911 203.997 142.777C203.056 143.586 202.217 144.508 201.501 145.521C201.297 145.845 201.048 146.139 200.762 146.394C198.865 148.139 198.017 148.981 196.721 150.368C196.115 151.016 195.509 151.658 194.903 152.301C194.512 152.734 194.091 153.139 193.643 153.512C191.965 154.914 190.38 156.423 188.899 158.032L186.143 160.91C185.618 161.552 184.955 162.067 184.204 162.418C183.895 162.479 183.786 162.309 183.211 162.703C182.387 163.266 182.047 163.309 181.823 163.182C181.744 163.139 181.575 163.182 181.332 163.321C180.121 164.102 180.072 163.787 180.781 162.667C181.158 162.05 181.484 161.403 181.757 160.734C182.056 160.124 182.467 159.575 182.968 159.116C183.517 158.542 184.031 157.935 184.507 157.299C184.988 156.653 185.581 156.099 186.258 155.663C186.531 155.475 186.755 155.366 187.039 155.154C187.26 154.99 187.463 154.803 187.645 154.597C188.479 153.618 189.393 152.71 190.378 151.883C190.456 151.81 190.59 151.725 190.608 151.737C191.068 151.98 192.528 150.526 193.758 149.393C194.606 148.611 195.455 147.727 196.303 146.884C196.8 146.37 197.333 145.89 197.896 145.449C198.841 144.824 199.634 143.996 200.216 143.025C200.87 142.023 201.706 141.154 202.682 140.463L202.997 140.202L202.925 140.238C203.479 139.872 203.955 139.398 204.324 138.845L204.288 138.912L207.317 135.725C207.698 135.342 208.056 134.938 208.389 134.513C208.836 133.962 209.314 133.436 209.819 132.938C210.722 132.023 211.534 131.272 212.018 131.211C212.166 131.165 212.307 131.097 212.436 131.011C212.883 130.734 213.29 130.398 213.648 130.012C214.648 128.939 215.635 127.916 216.75 126.892C217.356 126.328 217.962 125.632 218.567 124.995L221.451 121.809L222.905 120.221C223.154 119.961 223.408 119.7 223.675 119.44L224.081 119.046L224.571 118.586C225.292 117.919 226.062 117.095 226.825 116.314C228.267 114.836 229.691 113.454 230.369 113.109L230.309 113.563C230.266 113.854 230.248 114.357 230.224 114.775C230.175 115.641 230.284 116.798 230.412 116.823C230.539 116.847 230.533 116.592 230.587 116.599C230.751 116.599 230.86 117.562 230.83 118.701C230.799 119.84 230.763 121.076 230.733 122.275C230.733 122.881 230.733 123.487 230.733 124.056C230.733 125.874 230.733 127.631 230.648 129.382C230.727 130.833 230.709 132.289 230.593 133.738V133.629C230.545 134.168 230.472 134.695 230.46 135.258C230.46 136.44 230.46 137.639 230.46 138.833C230.46 139.572 230.46 140.36 230.46 141.05C230.348 142.801 230.348 144.558 230.46 146.309C230.574 147.89 230.541 149.478 230.363 151.053C230.193 152.507 230.248 154.209 230.199 155.796C230.199 155.936 230.199 156.087 230.199 156.233C230.328 157.9 230.328 159.575 230.199 161.243C230.183 161.649 230.211 162.055 230.284 162.455C230.327 162.673 230.369 162.879 230.405 163.115C230.495 163.576 230.46 164.053 230.302 164.496C230.096 165.028 230.021 165.602 230.084 166.168C230.139 167.804 230.145 169.397 230.084 171.045C230.03 172.19 230.036 173.414 230.024 174.602C230.012 175.789 230.078 176.11 230.381 176.522C230.53 176.954 230.566 177.417 230.484 177.867C230.448 178.085 230.399 178.255 230.351 178.443C230.166 178.98 230.166 179.565 230.351 180.103C230.43 180.545 230.484 181.054 230.527 181.623C230.315 181.872 230.072 182.138 229.8 182.417L229.097 183.138C227.6 184.604 226.134 186.082 224.723 187.591C224.329 188.009 223.887 188.463 223.469 188.839C222.148 190.051 220.912 191.335 219.628 192.571C218.743 193.384 217.958 194.299 217.289 195.297C217.18 195.467 217.053 195.648 216.901 195.848C216.647 196.178 216.352 196.473 216.023 196.727C214.57 197.791 213.208 198.975 211.952 200.265C211.764 200.447 211.606 200.659 211.431 200.871C211.6 200.762 211.758 200.677 211.946 200.532C212.133 200.386 212.339 200.253 212.315 200.368C212.242 200.474 212.156 200.572 212.061 200.659C210.849 201.816 209.692 202.791 208.523 203.779C208.119 204.102 207.777 204.493 207.511 204.936C207.468 205.009 207.408 205.1 207.341 205.19C207.013 205.643 206.626 206.051 206.19 206.402C205.584 206.905 204.978 207.329 204.373 207.82C203.623 208.347 202.988 209.021 202.507 209.801C202.352 210.052 202.172 210.285 201.967 210.498C201.858 210.619 201.731 210.734 201.604 210.855L201.077 211.309C200.602 211.7 200.147 212.115 199.714 212.551C199.108 213.254 198.453 213.927 197.805 214.569L195.848 216.465L189.693 222.645C188.99 223.354 188.215 224.159 187.748 224.541L187.415 224.814L187.239 224.959C187.197 224.995 187.203 224.959 187.179 224.959C187.1 224.958 187.022 224.972 186.949 225.001C186.735 225.094 186.532 225.21 186.343 225.347C185.852 225.668 185.264 226.116 184.689 226.558C184.446 226.743 184.241 226.971 184.083 227.231C184.026 227.31 183.961 227.384 183.889 227.449C183.694 227.604 183.492 227.75 183.283 227.885L181.357 229.006L180.569 227.916L181.211 227.479C182.613 226.449 184.071 225.498 185.579 224.632C186.161 224.286 186.68 223.844 187.112 223.323L189.027 220.985C189.14 220.845 189.288 220.738 189.457 220.676C189.548 220.676 189.572 220.724 189.566 220.833C189.529 221.275 189.626 221.554 189.887 221.621C189.963 221.636 190.041 221.636 190.117 221.621C190.163 221.626 190.21 221.626 190.256 221.621H190.196L189.766 221.784L188.887 222.099C187.718 222.53 186.524 222.954 185.325 223.366C184.955 223.62 184.895 223.208 184.719 223.002C184.643 222.884 184.576 222.761 184.519 222.633L184.58 221.966C184.628 221.518 184.671 221.076 184.719 220.621L184.755 220.288L187.548 217.689L193.274 212.388L193.958 211.782L194.261 211.497V211.443L194.303 211.334L194.376 211.116L194.534 210.673L194.685 210.237L194.764 210.019L194.722 209.861L194.382 208.65C194.334 208.45 194.261 208.226 194.231 208.044V206.79C194.231 205.681 194.273 204.572 194.297 203.482C194.334 201.998 194.346 200.532 194.334 199.041C194.373 198.328 194.272 197.614 194.037 196.939C193.945 196.718 193.868 196.492 193.807 196.26C193.731 195.891 193.731 195.509 193.807 195.14L194.182 194.098C194.208 193.992 194.224 193.885 194.231 193.776C194.211 193.688 194.187 193.601 194.158 193.516C194.06 193.35 193.977 193.176 193.91 192.995C193.651 192.029 193.521 191.033 193.522 190.032C193.492 188.687 193.486 187.348 193.564 186.064C193.564 185.646 193.631 185.216 193.625 184.786C193.625 183.762 193.486 182.69 193.576 181.714C193.655 180.957 193.801 180.406 193.892 179.672C193.928 179.253 193.928 178.832 193.892 178.412C193.77 177.273 193.601 176.504 193.316 176.764C193.171 176.898 193.049 176.449 193.025 175.989C193.002 175.613 193.032 175.235 193.116 174.868C193.207 174.585 193.266 174.292 193.292 173.996C193.272 172.779 193.359 171.562 193.552 170.361C193.602 169.959 193.622 169.554 193.613 169.149C193.613 168.41 193.564 167.677 193.534 166.938L193.504 166.271C193.51 166.215 193.51 166.158 193.504 166.102V166.029C193.489 165.933 193.489 165.835 193.504 165.738V165.569H193.11L192.001 165.599L188.572 165.708C188.124 165.708 187.663 165.665 187.657 165.562C187.657 165.272 187.173 165.06 185.731 164.957C184.719 164.872 184.283 164.678 184.095 164.466C183.907 164.254 183.398 163.963 182.223 163.799C181.926 163.757 181.738 163.654 181.714 163.575C181.648 163.357 181.163 163.175 180.751 162.969C180.339 162.764 180.442 162.515 181.417 162.364ZM210.37 132.738C210.21 132.9 210.06 133.072 209.922 133.253C209.888 133.307 209.864 133.367 209.849 133.429C209.973 133.398 210.091 133.345 210.195 133.271C210.362 133.118 210.511 132.945 210.637 132.756C210.788 132.532 210.613 132.532 210.37 132.738ZM230.63 125.432C230.63 124.711 230.63 123.99 230.63 123.705C230.63 122.221 230.63 121.397 230.551 119.876C230.521 119.464 230.478 119.27 230.412 119.41C230.373 119.5 230.348 119.596 230.339 119.694C230.309 120.022 230.278 120.349 230.248 120.688C230.218 121.027 230.206 121.294 230.181 121.585C230.145 122.158 230.145 122.732 230.181 123.305C230.224 123.996 230.23 124.747 230.278 125.413C230.305 125.698 230.364 125.978 230.454 126.25C230.533 126.431 230.624 125.935 230.63 125.432ZM182.853 225.692L182.653 225.892C182.199 226.344 181.713 226.763 181.199 227.146L180.914 227.352L180.848 227.407H180.811C180.811 227.407 180.811 227.443 180.811 227.455L180.969 227.673C181.175 227.952 181.363 228.231 181.538 228.503C181.728 228.365 181.931 228.245 182.144 228.146C182.207 228.116 182.266 228.079 182.32 228.037C182.391 227.99 182.46 227.94 182.526 227.885C182.683 227.752 182.805 227.625 182.762 227.613C182.618 227.606 182.476 227.651 182.362 227.74C182.164 227.864 181.976 228.004 181.799 228.158C181.66 227.946 181.496 227.728 181.32 227.504L181.126 227.249L181.023 227.128C181.023 227.092 181.072 227.079 181.09 227.055L181.399 226.801L182.496 225.874C182.768 225.716 182.889 225.625 182.853 225.692ZM195.073 200.647C195.039 200.734 195.021 200.826 195.018 200.919C194.955 202.065 194.955 203.214 195.018 204.36C195.026 204.471 195.047 204.581 195.079 204.688C195.146 204.863 195.2 204.748 195.212 204.385C195.212 203.815 195.212 203.24 195.212 202.858C195.176 202.076 195.152 201.495 195.127 200.919C195.146 200.81 195.091 200.635 195.073 200.647ZM194.152 174.644C194.037 174.523 193.916 175.086 193.964 175.656C193.994 175.925 194.042 176.193 194.11 176.455C194.231 176.455 194.303 176.05 194.303 175.595C194.325 175.271 194.274 174.946 194.152 174.644Z" fill="#080B35"/>
</svg>
