<svg width="233" height="229" viewBox="0 0 233 229" fill="none" xmlns="http://www.w3.org/2000/svg">
<path d="M88.3465 56.3861C88.2192 55.9317 88.1405 56.1619 88.0435 56.3376C88.0435 56.38 87.989 56.3921 87.9587 56.3739C87.7648 56.2407 87.6497 55.6833 87.4983 55.3501C87.3887 55.0119 87.3395 54.6572 87.3529 54.302C87.3448 53.9262 87.2961 53.5525 87.2075 53.1872C86.9712 52.1815 86.8561 51.1577 86.541 50.158C86.4199 49.7097 86.2624 49.2674 86.117 48.8494C85.9716 48.4314 85.8686 48.1466 85.7898 47.7952C85.6755 47.2653 85.4706 46.759 85.184 46.2988C85.0878 46.1592 85.0008 46.0135 84.9235 45.8626C84.8386 45.7172 84.7478 45.5718 84.6629 45.4204C84.4876 45.0938 84.3298 44.7581 84.1904 44.4147C84.0268 44.033 83.8632 43.6452 83.6754 43.2696C83.4876 42.894 83.2332 42.5426 83.0151 42.1791C82.6213 41.5309 82.2456 40.8523 81.9185 40.2707C81.5896 39.6164 81.198 38.9955 80.7492 38.4168C80.2524 37.8655 79.7193 37.3324 79.1861 36.8053C78.92 36.5536 78.6366 36.3208 78.338 36.1086C77.9672 35.8269 77.617 35.5192 77.2899 35.1877C77.1184 34.994 76.9342 34.8118 76.7386 34.6425L76.1327 34.176C75.7208 33.867 75.3027 33.5701 74.921 33.2551C74.3826 32.8763 73.8154 32.54 73.2247 32.2494C72.8975 32.0737 72.5704 31.9041 72.2554 31.7102C71.9138 31.5571 71.582 31.3831 71.2618 31.1892C70.6976 30.868 70.0978 30.6138 69.4745 30.4319C68.6699 30.2004 67.8824 29.9129 67.1178 29.5716C66.7321 29.4522 66.3634 29.2832 66.0213 29.0687C65.728 28.8878 65.3956 28.7798 65.0519 28.7537C64.832 28.7383 64.6134 28.708 64.3976 28.6628C64.1698 28.6362 63.9448 28.5896 63.7251 28.5235C62.6826 28.1586 61.5972 27.9305 60.496 27.8449C59.9386 27.8086 59.3752 27.7844 58.8057 27.7722C58.2352 27.793 57.6667 27.8497 57.1033 27.9419C56.5399 28.0267 55.9946 28.0691 55.4433 28.1236C54.8881 28.217 54.3276 28.2757 53.7651 28.2993C53.3926 28.3142 53.0219 28.3587 52.6564 28.4326C52.3116 28.5427 51.9754 28.6784 51.6507 28.8385C51.1625 29.0754 50.6419 29.2387 50.1058 29.3232C49.4334 29.4807 48.773 29.7049 48.1005 29.8927C47.7673 29.9957 47.422 30.0805 47.0948 30.1956L46.1194 30.5955C45.6893 30.7712 45.247 30.9468 44.8169 31.1468C43.3806 31.9205 42.0072 32.8058 40.7093 33.7943L39.8975 34.4001L39.1886 35.0908C38.7322 35.5355 38.3071 36.0112 37.9164 36.5145C37.7645 36.744 37.5943 36.9608 37.4074 37.1628C36.7395 37.827 36.1313 38.5487 35.5899 39.3195C35.0386 40.089 34.4388 40.816 33.9118 41.5914C33.5664 42.0579 33.3544 42.5729 33.0636 43.0576L32.3002 44.5722C32.0226 44.92 31.7886 45.3004 31.6035 45.7051C31.4399 46.1352 31.3006 46.5836 31.1552 47.0379C31.0348 47.3965 30.8952 47.7484 30.7371 48.0921C30.5104 48.6003 30.3712 49.1431 30.3252 49.6976C30.295 49.8675 30.2421 50.0326 30.1677 50.1883C29.9623 50.6018 29.8252 51.0457 29.7618 51.503L29.4588 53.4962C29.4588 53.684 29.3983 53.8779 29.3861 54.0657C29.3437 54.8836 29.5558 55.4531 29.5134 56.2043C29.4354 56.9566 29.4517 57.7158 29.5618 58.4641C29.6406 58.9063 29.7133 59.3425 29.792 59.7788C29.9825 60.4921 30.1162 61.2193 30.1919 61.9537C30.2115 62.4199 30.2972 62.8809 30.4464 63.3229C30.6784 63.9874 30.8627 64.6677 30.9977 65.3585C31.1612 66.025 31.3551 66.6611 31.4884 67.3215C31.5296 67.5801 31.5904 67.8353 31.6701 68.0848C32.3669 69.4601 32.8152 70.8959 33.6452 72.1864L33.7906 72.4347C34.3177 73.3677 34.9114 74.1917 35.4142 75.0702C35.5596 75.3064 35.6869 75.5488 35.8444 75.779C36.3653 76.4588 36.9495 77.0876 37.5892 77.6571C37.8558 77.8994 38.195 78.0751 38.4616 78.3175C38.7282 78.5598 39.122 78.8021 39.4431 79.0142L40.4548 79.7048L41.5514 80.4864C41.8963 80.7581 42.2585 81.007 42.6358 81.2315C43.4234 81.6677 44.1747 82.1524 44.9804 82.5523L45.2349 82.6734C45.9646 83.0323 46.6708 83.437 47.3493 83.8851C48.1611 84.1275 48.8881 84.2002 49.712 84.491C50.0634 84.6303 50.4391 84.6969 50.7844 84.8181C51.0425 84.8973 51.2954 84.9924 51.5417 85.1029C51.8749 85.2483 52.2142 85.3876 52.5656 85.5088C52.921 85.6001 53.281 85.6729 53.644 85.7269C54.0135 85.7875 54.3831 85.8299 54.7526 85.8662C55.126 85.9167 55.5034 85.9309 55.8795 85.9086C56.4308 85.8723 56.9761 85.848 57.5334 85.848H58.3816C58.6603 85.848 58.9511 85.848 59.2419 85.848C59.3347 85.8543 59.4278 85.8543 59.5206 85.848C60.4657 85.6663 61.3987 85.6905 62.3135 85.533L63.7009 85.3937C63.9372 85.3937 64.1674 85.3573 64.3976 85.327L65.0822 85.1877C65.1246 85.1877 65.2094 85.1877 65.1973 85.1877C65.148 85.2327 65.0904 85.2677 65.0277 85.2907L64.5248 85.4845C64.4764 85.4845 64.4824 85.5391 64.4642 85.5694L66.9543 85.0362C67.1905 84.9877 67.2693 84.8787 67.1602 84.7696C67.0512 84.6606 67.1057 84.6 67.3844 84.491C68.2265 84.1699 69.0686 83.8851 69.9047 83.5277C70.7408 83.1702 71.5223 82.7522 72.3281 82.4129C72.8975 82.104 73.467 81.7283 74.0426 81.4012C74.3213 81.2376 74.6484 81.0983 74.9029 80.9044C75.1573 80.7105 75.4481 80.5469 75.7147 80.3894C76.2903 80.0781 76.8186 79.6865 77.2838 79.2262C77.9092 78.5475 78.6059 77.9382 79.3618 77.4087C79.9677 76.9119 80.5735 76.3364 81.1794 75.7608C81.7348 75.1715 82.1709 74.4802 82.4637 73.7252C82.5428 73.4911 82.6572 73.2704 82.803 73.0709C83.5462 72.1084 84.1575 71.051 84.6205 69.9266L85.2264 68.3635C85.3321 68.0045 85.47 67.6557 85.6383 67.3215C85.9825 66.72 86.2686 66.087 86.4926 65.4312C86.6804 64.7527 86.8379 64.0499 86.9894 63.3472C87.0829 62.9302 87.1456 62.507 87.1772 62.0809L87.3226 60.8087C87.3577 60.4804 87.4226 60.1559 87.5165 59.8393C87.5494 59.6316 87.642 59.438 87.783 59.282C87.9587 59.1244 88.1586 59.1729 88.304 58.7246C88.5161 58.1188 88.7402 57.9188 88.9826 57.8764C89.0735 57.8764 89.1765 57.7734 89.2492 57.5856C89.5884 56.6344 89.855 56.7435 90.0973 57.6523C90.255 58.1601 90.4577 58.6528 90.7032 59.1244C90.9095 59.5751 90.981 60.0759 90.9091 60.5663C90.8466 61.1418 90.8345 61.7215 90.8728 62.299C90.8822 62.5912 90.8619 62.8835 90.8122 63.1715C90.7836 63.3047 90.7472 63.4362 90.7032 63.5653C90.6426 63.6985 90.5759 63.8379 90.4972 63.9833C90.4184 64.1287 90.2609 64.3468 90.1458 64.5891C90.0682 64.769 90.0152 64.9585 89.9883 65.1526C89.9457 65.6148 89.8564 66.0715 89.7217 66.5157C89.5763 66.9519 89.3582 67.3639 89.1886 67.794C89.1886 67.8607 89.0916 67.9515 89.0674 67.9515C88.813 67.9515 88.5646 68.2484 88.3162 68.7149C88.195 68.9451 88.0859 69.2177 87.9526 69.4904L87.5165 70.2961C87.3226 70.6536 87.1408 71.0292 86.9591 71.4109C86.7912 71.7972 86.601 72.1734 86.3896 72.5377C86.1404 72.97 85.8482 73.376 85.5172 73.7494C85.2286 74.0448 84.9746 74.3721 84.7599 74.7248C84.541 75.0337 84.377 75.378 84.2752 75.7426C84.1598 76.1162 83.9838 76.4682 83.7542 76.7847C83.502 77.169 83.1793 77.5021 82.803 77.7661C82.7271 77.825 82.6544 77.8877 82.5849 77.9539H82.6334C82.2336 78.2032 81.9123 78.5602 81.7064 78.9839V78.9294C81.0367 79.7263 80.312 80.4753 79.5375 81.171C79.2104 81.4678 78.9983 81.7768 78.7439 82.0191C78.395 82.3817 78.016 82.7141 77.611 83.0127C77.3313 83.2772 77.0337 83.5221 76.7204 83.7458C76.4879 83.8924 76.2112 83.9525 75.9389 83.9154C75.8248 83.8936 75.7076 83.8936 75.5935 83.9154C75.2349 84.0002 74.8957 84.1523 74.5939 84.3637C73.7547 84.9564 72.8475 85.4466 71.8918 85.8238C71.6111 85.9399 71.338 86.0734 71.074 86.2237C70.8013 86.3691 70.5045 86.4842 70.2318 86.6114L68.8627 87.2172L68.172 87.5323C67.9418 87.6353 67.6994 87.7019 67.4571 87.7867C66.9785 87.9503 66.4999 88.1139 66.0091 88.2653C65.5098 88.4381 64.9908 88.548 64.4642 88.5925C63.9796 88.641 63.4343 88.7621 62.9194 88.8591C62.017 89.1051 61.0652 89.1051 60.1628 88.8591C59.9832 88.8224 59.8007 88.8021 59.6175 88.7985C59.2003 88.7756 58.7839 88.8568 58.4059 89.0348C58.3695 89.0893 58.4422 89.1559 58.4059 89.2104C58.0701 89.4144 57.6689 89.4816 57.285 89.3983L55.4312 89.2044C55.0192 89.162 54.6012 89.065 54.1771 89.0105L52.299 88.7137C51.6832 88.5792 51.0762 88.4072 50.4815 88.1987C49.9645 88.1229 49.454 88.0075 48.9547 87.8534C48.4761 87.6595 48.0157 87.4414 47.5492 87.2475L47.6158 87.2899C47.2705 87.1142 46.9494 86.9204 46.5799 86.775L45.974 86.5387L45.4106 86.26L44.2777 85.7026C43.7969 85.4987 43.3347 85.2534 42.8964 84.9696C42.3814 84.6 41.8725 84.2668 41.3454 83.9518L40.5518 83.4913C40.2973 83.3217 40.0307 83.1581 39.7642 82.9945C39.2904 82.7098 38.8333 82.3983 38.395 82.0615C38.1716 81.8822 37.9684 81.6791 37.7891 81.4557C37.5953 81.2497 37.4196 81.0377 37.2499 80.8499C36.9046 80.4207 36.5301 80.0159 36.1291 79.6382C35.7353 79.2383 35.3658 78.7961 35.0023 78.372C34.9417 78.2993 34.8569 78.2326 34.7842 78.1599C33.5725 77.0391 33.6028 76.9785 32.5729 75.4458C32.4138 75.215 32.2196 75.0106 31.9973 74.8399C31.8883 74.7369 31.7731 74.6339 31.658 74.5067C31.4126 74.2748 31.2634 73.9591 31.24 73.6222C31.2284 73.2163 31.0812 72.826 30.822 72.5135C30.5017 72.0423 30.2239 71.5436 29.992 71.0231C29.7456 70.5142 29.5154 69.9932 29.3013 69.4601C29.059 68.7028 28.7742 67.897 28.4956 67.1155C28.2169 66.3339 28.1139 66.1401 27.7443 65.9462C27.53 65.6966 27.4118 65.3786 27.4111 65.0496C27.4111 64.892 27.4111 64.7648 27.4414 64.6255C27.487 64.4284 27.4861 64.2235 27.4388 64.0268C27.3915 63.8302 27.299 63.6473 27.1688 63.4926C26.8819 62.9088 26.6994 62.2793 26.6296 61.6326C26.3509 60.1726 26.3509 58.6943 26.1752 57.2342C26.1327 56.8173 26.1327 56.3971 26.1752 55.9801C26.2479 55.3743 26.2842 54.72 26.3145 54.0839C26.3258 53.767 26.3582 53.4513 26.4115 53.1388L26.5629 52.1997C26.7004 51.3528 26.7572 50.4947 26.7326 49.637C26.7206 49.4757 26.7206 49.3137 26.7326 49.1523C26.7448 48.8504 26.8169 48.5538 26.9446 48.2799C27.524 47.1297 28.0397 45.9486 28.4895 44.7418C28.5622 44.5722 28.5743 44.3723 28.6409 44.1966C28.5393 44.3056 28.4499 44.4255 28.3744 44.554C28.2653 44.7358 28.1805 44.8448 28.1442 44.7539C28.1563 44.6602 28.1807 44.5686 28.2169 44.4813C28.7156 43.4648 29.2823 42.4831 29.9132 41.543C30.1439 41.2549 30.3037 40.9166 30.3797 40.5555C30.3907 40.4811 30.4089 40.4081 30.4342 40.3374C30.5645 39.9575 30.7592 39.603 31.0098 39.2893C31.1832 39.0781 31.3672 38.8759 31.5611 38.6834L32.1669 38.1079C32.6766 37.6831 33.0548 37.122 33.2574 36.4903C33.4291 36.0474 33.7312 35.6671 34.1238 35.3998C34.3483 35.2217 34.5516 35.0185 34.7296 34.7939C34.9498 34.4455 35.2079 34.1224 35.4991 33.8306C35.808 33.552 36.1352 33.2854 36.4381 33.0006C36.9107 32.5705 37.3711 32.1161 37.8497 31.6981L39.3583 30.5167C39.6784 30.2479 40.028 30.0162 40.4003 29.826C41.8058 29.2202 43.1084 28.3539 44.5564 27.6632C44.8896 27.4875 44.9562 27.3663 44.8532 27.3057C44.7502 27.2452 44.8532 27.2149 44.932 27.1846C45.2046 27.0331 45.4833 26.8635 45.768 26.7363L48.1914 25.8517L48.7972 25.6397L49.4031 25.4882L50.6511 25.1974C51.1842 25.0944 51.6992 24.9309 52.2323 24.8703L53.8136 24.6279C54.3407 24.5552 54.8677 24.4341 55.3948 24.3856L56.9821 24.2523C57.5695 24.1675 58.1676 24.1942 58.7451 24.3311C59.2177 24.4704 59.7205 24.6037 60.2355 24.7309C60.437 24.75 60.6398 24.75 60.8413 24.7309C61.0149 24.7198 61.1873 24.6934 61.3563 24.6522L61.8228 24.5552H62.3075C62.6467 24.5552 62.9981 24.5552 63.3616 24.5552C63.7251 24.5552 64.1129 24.6037 64.5067 24.6522L65.1125 24.7309C65.3124 24.7733 65.5124 24.8339 65.7183 24.8884L68.0811 25.5306C68.8445 25.7851 69.5715 26.1365 70.2985 26.4273C71.2921 26.809 72.2069 27.336 73.1702 27.7904C73.6249 28.0425 74.1254 28.2011 74.6423 28.2569C74.8215 28.2564 75.0002 28.2747 75.1755 28.3114C75.4402 28.3963 75.6783 28.5488 75.8662 28.7537L76.2963 29.4747C76.3469 29.5351 76.4037 29.5899 76.4659 29.6382C76.5317 29.6563 76.5984 29.6705 76.6659 29.6806C76.8146 29.6594 76.9655 29.6594 77.1142 29.6806C77.8164 29.8975 78.4734 30.2403 79.0529 30.6924C79.844 31.2559 80.5641 31.9129 81.1975 32.6493C81.4035 32.8734 81.6035 33.1218 81.8034 33.3278C82.3632 33.8209 82.8745 34.3667 83.3301 34.9575C83.5962 35.3874 83.8369 35.8324 84.051 36.2904C84.2021 36.5531 84.3808 36.7988 84.5842 37.0234C85.19 37.6293 85.6323 37.9746 85.7534 37.6293C85.814 37.4717 86.1109 37.6656 86.3593 37.9322C86.5349 38.1516 86.6573 38.4087 86.7167 38.6834C86.7458 38.9064 86.8049 39.1245 86.8924 39.3317C87.3841 40.0702 87.7391 40.891 87.9406 41.755C88.0184 42.0421 88.126 42.3203 88.2616 42.585C88.4919 43.0697 88.7524 43.5362 89.0008 44.0148C89.2552 44.6206 89.5339 45.2265 89.7217 45.8323C89.8671 46.2746 90.0125 46.7108 90.164 47.147C90.3154 47.5832 90.4063 48.0315 90.5214 48.4738C90.8027 49.3417 91.0313 50.2258 91.206 51.1213C91.2666 51.4424 91.2545 51.7817 91.1576 51.7998C90.8728 51.8604 90.7092 52.2239 90.7335 53.2539C90.7561 53.5307 90.7124 53.809 90.6062 54.0657C90.5511 54.2166 90.4545 54.3489 90.3275 54.4474C90.1404 54.6147 89.99 54.819 89.8857 55.0473C89.7814 55.2757 89.7256 55.5232 89.7217 55.7742C89.6853 55.9862 89.5884 56.1134 89.5097 56.1316C89.2916 56.1801 89.128 56.5133 88.9523 56.7859C88.7766 57.0585 88.5222 57.0222 88.3465 56.3861ZM77.3626 82.9582C77.4897 82.8604 77.6074 82.7509 77.714 82.631C77.7403 82.5904 77.7588 82.5452 77.7685 82.4977C77.6731 82.4917 77.5776 82.5083 77.4898 82.5462C77.3581 82.6339 77.2415 82.7423 77.1445 82.8673C77.0233 83.0491 77.1687 83.0975 77.3626 82.9582ZM53.0805 88.7318L54.2922 88.9257C55.0907 89.0759 55.9051 89.1228 56.7156 89.065C56.9337 89.065 57.0427 89.0105 57.0003 88.9378C56.9682 88.8988 56.923 88.8729 56.8731 88.8651C56.5288 88.7712 56.1787 88.7004 55.825 88.6531C55.6432 88.6531 55.4494 88.6107 55.2494 88.5925C55.0495 88.5743 54.8496 88.538 54.6436 88.5258C54.1589 88.5258 53.6379 88.4229 53.1653 88.4047C52.9602 88.4004 52.7556 88.429 52.5595 88.4895C52.402 88.5258 52.7352 88.6713 53.0805 88.7318ZM52.1354 25.4701C52.1354 25.4701 52.0506 25.4276 51.9779 25.4276C51.4453 25.3875 50.9098 25.4429 50.3967 25.5912C49.9535 25.7313 49.5024 25.8446 49.0456 25.9305C48.6276 26.0093 48.2399 26.1122 47.8339 26.1668C47.7346 26.1862 47.6373 26.2146 47.5431 26.2516C47.4548 26.2866 47.3697 26.3292 47.2887 26.3788C47.1251 26.4757 47.0827 26.5545 47.2402 26.5545C47.5674 26.5545 47.9127 26.5545 48.2823 26.5242C48.4869 26.5047 48.6895 26.4682 48.8881 26.4152C49.1398 26.3639 49.3885 26.2992 49.6333 26.2213L50.4209 25.9487L51.7234 25.6518C51.9537 25.5852 52.1172 25.5306 52.1354 25.4701ZM71.7949 27.8934C71.7949 27.8934 71.7162 27.7904 71.6495 27.7541C70.9551 27.3316 70.2045 27.0094 69.42 26.7968C69.3434 26.774 69.2636 26.7638 69.1837 26.7666C69.0505 26.7666 69.105 26.8635 69.3413 26.9665L70.3227 27.3845C70.5893 27.4693 70.8195 27.5299 71.0255 27.6147L71.601 27.8571C71.6634 27.8781 71.7298 27.8843 71.7949 27.8752V27.8934ZM85.9352 39.3377C86.0806 39.3377 85.9716 38.9318 85.7232 38.6047C85.5811 38.4643 85.427 38.3366 85.2627 38.223C85.1658 38.2957 85.2627 38.5683 85.4687 38.8288C85.6747 39.0893 85.8322 39.3256 85.9352 39.3377Z" fill="#D4DCFF"/>
<path d="M202.674 57.9552C202.553 57.5068 202.468 57.7371 202.377 57.9128C202.377 57.9552 202.323 57.9612 202.292 57.9128C202.099 57.7795 201.983 57.2221 201.826 56.8889C201.722 56.5517 201.675 56.1995 201.687 55.8468C201.679 55.4691 201.63 55.0933 201.541 54.726C201.299 53.7264 201.19 52.6965 200.869 51.6968C200.754 51.2485 200.596 50.8062 200.451 50.3822C200.305 49.9581 200.202 49.6854 200.117 49.3341C200.01 48.8002 199.804 48.2909 199.512 47.8316C199.421 47.6922 199.336 47.5468 199.257 47.4014C199.178 47.256 199.082 47.1106 198.997 46.9531C198.821 46.6266 198.664 46.2908 198.524 45.9474C198.361 45.5718 198.197 45.178 198.003 44.8024L197.367 43.7603C196.973 43.1121 196.598 42.4335 196.27 41.8519C195.942 41.1959 195.548 40.5748 195.095 39.9981C194.604 39.4468 194.071 38.9136 193.538 38.3805C193.272 38.1307 192.988 37.8999 192.69 37.6898C192.318 37.4046 191.966 37.0949 191.636 36.7629C191.466 36.5712 191.284 36.391 191.09 36.2237L190.485 35.7511C190.073 35.4482 189.655 35.1453 189.273 34.8303C188.739 34.4499 188.175 34.1116 187.589 33.8185C187.262 33.6489 186.934 33.4732 186.613 33.2854C186.274 33.1288 185.945 32.9529 185.626 32.7583C185.052 32.4368 184.442 32.1846 183.808 32.007C183.005 31.7729 182.217 31.4855 181.452 31.1468C181.066 31.0274 180.697 30.8583 180.355 30.6439C180.063 30.4603 179.73 30.352 179.386 30.3289C179.166 30.3119 178.947 30.2795 178.731 30.2319C178.503 30.2059 178.278 30.1593 178.059 30.0926C177.016 29.7303 175.931 29.5042 174.83 29.4201C174.272 29.3757 173.709 29.3514 173.139 29.3474C172.567 29.3631 171.996 29.4178 171.431 29.511C170.874 29.5958 170.328 29.6382 169.777 29.6988C169.222 29.7931 168.661 29.8498 168.099 29.8684C167.726 29.8883 167.356 29.9349 166.99 30.0078C166.643 30.1125 166.307 30.2484 165.984 30.4137C165.496 30.6506 164.976 30.8139 164.44 30.8984C163.767 31.0559 163.107 31.274 162.434 31.4618C162.095 31.5648 161.756 31.6496 161.429 31.7708L160.453 32.1646C160.023 32.3403 159.581 32.522 159.151 32.7219C157.715 33.4944 156.342 34.3776 155.043 35.3634L154.231 35.9692L153.504 36.6538C153.049 37.0994 152.622 37.5729 152.226 38.0715C152.08 38.3033 151.911 38.5204 151.723 38.7198C151.053 39.3843 150.445 40.1082 149.905 40.8826C149.354 41.652 148.748 42.379 148.227 43.1545C147.917 43.6266 147.634 44.1161 147.379 44.6206L146.616 46.1352C146.337 46.4822 146.103 46.8628 145.919 47.2681C145.755 47.6922 145.616 48.1466 145.471 48.5949C145.349 48.9551 145.21 49.309 145.053 49.6552C144.827 50.1615 144.688 50.7021 144.641 51.2546C144.611 51.4265 144.558 51.5936 144.483 51.7514C144.274 52.1634 144.137 52.608 144.077 53.066L143.774 55.0532C143.774 55.2471 143.714 55.4349 143.702 55.659C143.653 56.4708 143.871 57.0403 143.829 57.7976C143.751 58.548 143.767 59.3051 143.877 60.0514C143.956 60.4997 144.029 60.9359 144.102 61.366C144.296 62.0786 144.432 62.8061 144.507 63.541C144.527 64.0072 144.612 64.4683 144.762 64.9102C144.993 65.577 145.177 66.2593 145.313 66.9519C145.477 67.6122 145.671 68.2484 145.798 68.9087C145.84 69.1697 145.903 69.4269 145.986 69.6782C146.682 71.0534 147.131 72.4832 147.955 73.7736L148.106 74.022C148.633 74.9611 149.227 75.779 149.73 76.6635C149.869 76.8937 150.002 77.1421 150.16 77.3723C150.684 78.0494 151.268 78.678 151.905 79.2504C152.171 79.4867 152.511 79.6624 152.777 79.9047C153.092 80.156 153.419 80.3906 153.759 80.6075L154.77 81.2921L155.867 82.0797C156.223 82.3549 156.598 82.6059 156.988 82.8309C157.769 83.2671 158.527 83.7518 159.332 84.1517L159.587 84.2789C160.318 84.6354 161.024 85.0402 161.701 85.4906C162.507 85.739 163.24 85.8117 164.064 86.1267C164.409 86.266 164.791 86.3327 165.136 86.4539C165.482 86.575 165.657 86.6417 165.888 86.7386C166.227 86.8901 166.566 87.0233 166.917 87.1445C167.273 87.2358 167.633 87.3086 167.996 87.3626C168.367 87.4232 168.737 87.4717 169.105 87.508C169.478 87.5566 169.855 87.5688 170.231 87.5444C170.777 87.508 171.328 87.4898 171.885 87.4898C172.164 87.4898 172.449 87.4898 172.727 87.4898C173.006 87.4898 173.303 87.4898 173.594 87.4898C173.686 87.4993 173.78 87.4993 173.873 87.4898C174.812 87.3142 175.751 87.3323 176.665 87.1809L178.053 87.0415C178.283 87.0415 178.519 87.0052 178.75 86.9688L179.434 86.8295C179.477 86.8295 179.561 86.8295 179.543 86.8295C179.497 86.8761 179.441 86.9114 179.38 86.9325L178.877 87.1263C178.828 87.1263 178.834 87.1809 178.81 87.2112L181.306 86.672C181.542 86.6235 181.621 86.5144 181.512 86.4054C181.403 86.2963 181.458 86.2358 181.736 86.1267C182.572 85.8117 183.421 85.5209 184.251 85.1695C185.081 84.8181 185.874 84.394 186.71 84.0487C187.28 83.7458 187.849 83.3641 188.425 83.043C188.703 82.8733 189.031 82.734 189.285 82.5462C189.54 82.3584 189.83 82.1827 190.097 82.0252C190.677 81.7202 191.208 81.3301 191.672 80.868C192.301 80.1909 193 79.5817 193.756 79.0505C194.362 78.5598 194.968 77.9842 195.574 77.4026C196.129 76.8154 196.565 76.1262 196.858 75.3731C196.936 75.1383 197.05 74.9175 197.197 74.7187C197.943 73.7561 198.555 72.6962 199.015 71.5684L199.621 70.0053C199.727 69.6486 199.865 69.3019 200.033 68.9693C200.376 68.3652 200.662 67.7303 200.887 67.073C201.075 66.3945 201.232 65.6978 201.378 64.995C201.475 64.5787 201.54 64.1553 201.572 63.7288L201.711 62.4565C201.751 62.1285 201.818 61.8043 201.911 61.4872C201.942 61.2791 202.035 61.085 202.177 60.9298C202.353 60.7723 202.553 60.8147 202.698 60.3725C202.904 59.7666 203.129 59.5667 203.377 59.5243C203.441 59.5016 203.499 59.4631 203.544 59.4123C203.59 59.3614 203.622 59.2999 203.637 59.2335C203.983 58.2823 204.243 58.3914 204.492 59.2941C204.647 59.8027 204.85 60.2956 205.097 60.7663C205.304 61.2189 205.376 61.7218 205.303 62.2142C205.241 62.7896 205.229 63.3694 205.267 63.9469C205.277 64.2373 205.255 64.5279 205.2 64.8133C205.175 64.9486 205.14 65.0822 205.097 65.2131C205.037 65.3464 204.97 65.4797 204.891 65.6311C204.813 65.7826 204.655 65.9947 204.54 66.237C204.471 66.4125 204.422 66.5955 204.395 66.7822C204.358 67.2447 204.27 67.7018 204.134 68.1454C203.989 68.5816 203.771 68.9996 203.601 69.4237C203.571 69.4964 203.504 69.5873 203.48 69.5812C203.225 69.5812 202.977 69.8781 202.729 70.3446C202.607 70.5809 202.492 70.8535 202.359 71.1261C202.226 71.3987 202.068 71.6653 201.929 71.9258C201.735 72.2833 201.553 72.6589 201.372 73.0406C201.206 73.428 201.016 73.8044 200.802 74.1674C200.553 74.5995 200.26 75.0054 199.93 75.3791C199.641 75.6741 199.385 75.9991 199.166 76.3485C198.948 76.6591 198.786 77.0057 198.688 77.3723C198.57 77.7448 198.394 78.0965 198.167 78.4144C197.914 78.7965 197.591 79.1275 197.216 79.3898C197.143 79.4443 197.07 79.517 196.991 79.5776H197.046C196.646 79.8305 196.323 80.189 196.113 80.6136V80.559C195.44 81.3511 194.715 82.0979 193.944 82.7946C193.617 83.0975 193.405 83.4004 193.15 83.6488C192.798 84.0083 192.42 84.3405 192.017 84.6424C191.715 84.8889 191.398 85.1155 191.066 85.3209C190.834 85.4676 190.557 85.5276 190.285 85.4906C190.169 85.4819 190.052 85.4921 189.939 85.5209C189.579 85.6042 189.239 85.7587 188.94 85.9752C188.099 86.5673 187.19 87.0555 186.232 87.4293C185.965 87.5444 185.692 87.6837 185.42 87.8291C185.147 87.9745 184.85 88.0896 184.578 88.2169L183.202 88.8227L182.518 89.1438C182.288 89.2468 182.039 89.3134 181.803 89.3982C181.324 89.5558 180.846 89.7254 180.355 89.8708C179.855 90.0427 179.336 90.1546 178.81 90.204C178.319 90.2464 177.78 90.3736 177.265 90.4706C176.361 90.7168 175.407 90.7168 174.503 90.4706C174.325 90.436 174.144 90.4177 173.963 90.4161C173.547 90.3947 173.131 90.4736 172.752 90.6463C172.709 90.7008 172.752 90.7674 172.752 90.822C172.637 90.9855 172.146 91.0643 171.631 91.0158L169.777 90.8159C169.365 90.7735 168.947 90.6766 168.523 90.622L166.645 90.3252C166.029 90.1936 165.422 90.0236 164.827 89.8163C164.311 89.7356 163.801 89.6181 163.301 89.4649C162.822 89.2771 162.362 89.0529 161.895 88.859L161.962 88.9075C161.616 88.7318 161.295 88.5379 160.926 88.3865L160.32 88.1502L159.756 87.8715L158.624 87.3142C158.141 87.1159 157.679 86.8725 157.242 86.5871C156.727 86.2176 156.218 85.8783 155.691 85.5633L154.898 85.1089C154.637 84.9393 154.377 84.7696 154.11 84.606C153.628 84.3142 153.165 83.9925 152.723 83.6428C152.501 83.4748 152.298 83.284 152.117 83.0733C151.929 82.8673 151.753 82.6552 151.584 82.4371C151.238 82.008 150.864 81.6031 150.463 81.2255C150.069 80.8256 149.7 80.3773 149.336 79.9593C149.268 79.8841 149.195 79.8133 149.118 79.7472C147.876 78.6264 147.906 78.5355 146.907 77.027C146.739 76.7934 146.534 76.5888 146.301 76.4212C146.192 76.3121 146.077 76.2152 145.961 76.0879C145.715 75.8563 145.564 75.5408 145.537 75.2034C145.532 74.7973 145.387 74.4056 145.125 74.0947C144.813 73.62 144.541 73.1194 144.314 72.5983C144.065 72.0894 143.835 71.5684 143.623 71.0413C143.375 70.2779 143.096 69.4722 142.817 68.6906C142.538 67.9091 142.435 67.7152 142.066 67.5214C141.853 67.2733 141.735 66.9577 141.733 66.6308C141.733 66.4733 141.733 66.34 141.733 66.2067C141.777 66.0086 141.776 65.803 141.729 65.6055C141.682 65.408 141.59 65.224 141.46 65.0677C141.174 64.4858 140.991 63.8585 140.921 63.2138C140.642 61.7538 140.642 60.2755 140.466 58.8154C140.424 58.3985 140.424 57.9783 140.466 57.5614C140.539 56.9555 140.576 56.2952 140.606 55.6651C140.617 55.3462 140.649 55.0284 140.703 54.7139L140.854 53.7749C140.992 52.93 141.049 52.0739 141.024 51.2182C141.012 51.0549 141.012 50.8909 141.024 50.7275C141.036 50.4275 141.108 50.1329 141.236 49.8611C141.815 48.7109 142.331 47.5298 142.781 46.323C142.854 46.1473 142.866 45.9535 142.932 45.7778C142.827 45.8833 142.736 46.0013 142.66 46.1292C142.557 46.317 142.472 46.42 142.435 46.3352C142.447 46.242 142.469 46.1505 142.502 46.0625C142.997 45.0462 143.559 44.0645 144.186 43.1242C144.417 42.834 144.577 42.4937 144.653 42.1306C144.665 42.0565 144.683 41.9835 144.707 41.9125C144.838 41.5327 145.032 41.1781 145.283 40.8644C145.471 40.6463 145.64 40.4343 145.834 40.2586L146.44 39.6891C146.943 39.2623 147.319 38.7045 147.525 38.0776C147.694 37.6351 147.994 37.2548 148.385 36.987C148.607 36.8069 148.811 36.6039 148.991 36.3812C149.242 36.0232 149.538 35.6976 149.869 35.4119C150.178 35.1332 150.475 34.8666 150.808 34.5819C151.281 34.1517 151.735 33.7034 152.22 33.2854L153.728 32.0737C154.031 31.8056 154.362 31.5719 154.716 31.377C156.121 30.7711 157.424 29.9048 158.872 29.2202C159.205 29.0445 159.272 28.9233 159.169 28.8567C159.066 28.79 159.169 28.7719 159.248 28.7355C159.52 28.5841 159.799 28.4205 160.084 28.2872L162.507 27.4087L163.113 27.1967L163.719 27.0452L165.015 26.7544C165.548 26.6514 166.057 26.4878 166.59 26.4212L168.172 26.191C168.699 26.1183 169.22 25.9971 169.753 25.9486L171.34 25.8093C171.928 25.7274 172.525 25.7541 173.103 25.8881C173.576 26.0335 174.078 26.1668 174.593 26.294C174.795 26.3158 174.998 26.3158 175.199 26.294C175.372 26.2817 175.544 26.2574 175.714 26.2213L176.181 26.1243C176.338 26.1243 176.502 26.1243 176.665 26.1243C176.999 26.1243 177.356 26.1243 177.72 26.1243C178.083 26.1243 178.471 26.1789 178.865 26.2213L179.47 26.3L180.076 26.4576L182.397 27.124C183.154 27.3784 183.887 27.7298 184.614 28.0146C185.608 28.3962 186.522 28.9233 187.486 29.3838C187.938 29.6267 188.435 29.7771 188.946 29.826C189.125 29.8309 189.303 29.8511 189.479 29.8866C189.745 29.9691 189.983 30.1219 190.17 30.3289L190.6 31.0498C190.652 31.1087 190.709 31.1634 190.769 31.2134C190.835 31.2298 190.902 31.2419 190.969 31.2497C191.118 31.2287 191.269 31.2287 191.418 31.2497C192.121 31.4635 192.779 31.8066 193.356 32.2615C194.146 32.8244 194.866 33.4793 195.501 34.2123C195.707 34.4425 195.907 34.6849 196.107 34.8969C196.672 35.3869 197.185 35.9329 197.64 36.5266C197.906 36.9544 198.146 37.3974 198.361 37.8534C198.507 38.1193 198.686 38.3656 198.894 38.5865C199.5 39.1923 199.942 39.5437 200.063 39.2226C200.124 39.059 200.42 39.2589 200.669 39.5195C200.844 39.7389 200.967 39.996 201.026 40.2707C201.054 40.4939 201.114 40.7121 201.202 40.9189C201.691 41.6586 202.046 42.479 202.25 43.3423C202.328 43.6304 202.434 43.9103 202.565 44.1784C202.801 44.657 203.062 45.1295 203.31 45.6021C203.565 46.2079 203.843 46.8138 204.031 47.4196C204.171 47.8619 204.322 48.2981 204.473 48.7282C204.625 49.1584 204.716 49.6188 204.831 50.055C205.11 50.9256 205.339 51.8116 205.515 52.7086C205.576 53.0236 205.564 53.3629 205.467 53.3871C205.176 53.4417 205.019 53.8052 205.043 54.8351C205.063 55.1138 205.019 55.3934 204.916 55.653C204.861 55.8023 204.764 55.9327 204.637 56.0286C204.451 56.198 204.301 56.4035 204.197 56.6327C204.093 56.8618 204.036 57.1098 204.031 57.3614C204.031 57.5674 203.898 57.7007 203.819 57.7189C203.607 57.7673 203.444 58.0945 203.268 58.3732C203.092 58.6519 202.856 58.5973 202.674 57.9552ZM191.672 84.5333C191.801 84.4349 191.918 84.3232 192.023 84.2001C192.072 84.1517 192.066 84.1153 192.084 84.0729C191.993 84.0729 191.914 84.0729 191.805 84.1153C191.672 84.2051 191.553 84.3155 191.454 84.4425C191.357 84.6182 191.496 84.6666 191.672 84.5333ZM167.438 90.3009L168.65 90.5009C169.449 90.648 170.263 90.6948 171.074 90.6402C171.286 90.6402 171.401 90.5796 171.352 90.513C171.304 90.4463 171.298 90.4524 171.225 90.4342C170.882 90.3432 170.534 90.2724 170.183 90.2222C170.001 90.2222 169.807 90.1798 169.577 90.1677C169.347 90.1555 169.177 90.1131 168.971 90.101C168.487 90.101 167.966 89.998 167.493 89.9738C167.288 89.972 167.084 90.0006 166.887 90.0586C166.736 90.101 167.069 90.2404 167.438 90.3009ZM166.469 27.0452C166.469 27.0452 166.378 27.0028 166.312 27.0028C165.777 26.9603 165.24 27.0136 164.724 27.1603C164.283 27.3011 163.834 27.4144 163.379 27.4996C162.955 27.5844 162.574 27.6874 162.168 27.7359C162.07 27.7577 161.975 27.7881 161.883 27.8268C161.795 27.8599 161.71 27.9004 161.628 27.9479C161.465 28.0449 161.423 28.1297 161.574 28.1297C161.907 28.1297 162.246 28.1297 162.622 28.0933C162.827 28.0765 163.03 28.04 163.228 27.9843C163.479 27.9387 163.726 27.8739 163.967 27.7904L164.761 27.5238L166.015 27.2209C166.281 27.1664 166.451 27.0997 166.469 27.0452ZM186.129 29.4686C186.129 29.4686 186.05 29.3716 185.977 29.3292C185.286 28.9055 184.537 28.5831 183.754 28.372C183.676 28.3565 183.595 28.3565 183.517 28.372C183.384 28.372 183.439 28.4689 183.675 28.5719L184.656 28.9839C184.917 29.0687 185.153 29.1354 185.359 29.2141L185.935 29.4565C186.007 29.4383 186.129 29.4625 186.129 29.4443V29.4686ZM200.269 40.9311C200.408 40.9311 200.305 40.5312 200.057 40.2041C199.916 40.062 199.762 39.9341 199.596 39.8224C199.5 39.8951 199.596 40.1616 199.796 40.4282C199.996 40.6948 200.154 40.8947 200.269 40.9068V40.9311Z" fill="#D4DCFF"/>
<path d="M228.392 111.614C228.289 110.524 228.198 111.063 228.095 111.493C228.095 111.59 228.035 111.614 228.01 111.566C227.808 110.728 227.67 109.875 227.598 109.015C227.51 108.152 227.479 107.284 227.508 106.416C227.508 105.483 227.508 104.514 227.508 103.623C227.441 101.079 227.417 98.5161 227.411 95.917C227.411 94.766 227.368 93.6027 227.326 92.488C227.29 91.5368 227.29 90.6341 227.326 89.7435C227.409 88.4034 227.396 87.0592 227.29 85.7208C227.143 83.9497 227.101 82.1715 227.162 80.3954C227.205 78.3295 227.199 76.1546 227.205 74.0705C227.205 72.1681 227.205 70.2295 227.326 68.5755C227.586 65.0253 227.532 61.3054 227.453 57.5856C227.417 56.6647 227.386 55.7681 227.356 54.8714C227.356 53.7203 227.296 52.4481 227.356 51.3878C227.447 48.8251 227.393 46.2746 227.411 43.7179C227.411 42.0519 227.411 40.4524 227.368 38.8288C227.326 36.981 227.283 35.1513 227.368 33.2611C227.435 31.6011 227.368 29.9956 227.296 28.4144C227.235 26.2879 227.241 24.2402 227.296 22.1318C227.31 21.1371 227.38 20.1439 227.508 19.1572C227.616 18.3195 227.638 17.473 227.574 16.6308C227.484 15.5224 227.47 14.4091 227.532 13.2987C227.647 11.4085 227.732 9.50009 227.774 7.56746C227.774 6.60418 227.804 5.62877 227.817 4.65337V3.98695V3.62344C227.611 3.62344 227.405 3.62344 227.211 3.66585L224.812 3.7749C222.043 3.8779 219.359 3.91425 216.536 3.7749C214.738 3.70084 212.937 3.73726 211.144 3.88396C209.808 3.99258 208.467 4.02292 207.127 3.97483L196.828 3.69614C195.677 3.66585 194.514 3.63556 193.35 3.63556H181.361C178.029 3.63556 174.806 3.63556 171.776 3.85366C171.171 3.89001 170.401 3.92031 169.753 3.90819C165.094 3.84155 160.362 4.01118 155.746 3.82943C154.334 3.78096 152.965 3.86578 151.572 3.87184H147.379C145.149 3.71519 142.913 3.67879 140.679 3.76279C139.764 3.76279 138.782 3.76279 137.88 3.76279C136.524 3.69002 135.165 3.69002 133.808 3.76279C133.53 3.76279 132.888 3.76279 132.542 3.76279C131.494 3.67797 130.367 3.65374 129.174 3.65374H122.8C121.807 3.65374 120.983 3.70826 120.141 3.76885L118.929 3.8476L118.111 3.88396H117.736C117.736 3.99907 117.736 4.11417 117.736 4.23534C117.736 4.64731 117.766 5.06534 117.778 5.47731C117.832 6.586 117.887 7.67651 117.942 8.76096C118.032 10.53 118.075 12.3112 118.026 14.2559C118.026 15.3767 117.984 16.6429 118.026 17.7274C118.148 21.3624 118.026 24.7067 117.857 28.0267C117.82 28.6325 117.76 29.3474 117.772 29.9532C117.826 33.7761 117.663 37.4232 117.645 41.1734C117.645 41.4097 117.645 41.6459 117.645 41.8822C117.645 44.5176 117.578 47.0076 117.469 49.4613C117.469 50.1277 117.414 50.7881 117.384 51.4727C117.318 53.5689 117.305 55.653 117.384 57.7128C117.427 58.5852 117.487 59.4516 117.505 60.3603C117.548 62.4808 117.754 64.0862 117.772 66.2915C117.808 70.7343 117.847 75.1771 117.887 79.62V80.3288C117.887 82.4614 117.82 84.4909 117.681 86.3508C117.723 88.4107 117.905 90.1737 117.893 92.3668C117.893 93.2998 117.893 94.2389 117.893 95.1537C117.893 95.8383 117.845 96.5229 117.802 97.1408C117.579 100.772 117.558 104.413 117.742 108.046C117.778 108.882 117.808 109.724 117.845 110.578C117.845 110.778 117.887 110.845 117.899 110.978C117.974 110.972 118.049 110.972 118.123 110.978H118.238H118.893C119.123 110.978 119.389 110.978 119.589 110.978C124.285 110.754 128.865 110.978 133.469 111.039C133.584 111.039 133.766 111.081 133.724 111.093C133.574 111.128 133.422 111.148 133.269 111.154L131.955 111.215C131.885 111.218 131.818 111.241 131.761 111.281L138.001 111.384C138.607 111.384 138.843 111.305 138.679 111.172C138.516 111.039 138.679 110.99 139.406 110.99C143.859 110.99 148.312 110.918 152.735 111.021C154.334 111.063 156.019 111.021 157.648 111.057C159.278 111.093 160.95 111.099 162.495 111.166C164.125 111.245 165.676 111.275 167.293 111.202C169.563 111.105 171.836 111.129 174.103 111.275C175.999 111.384 178.059 111.463 180.101 111.523C182.05 111.611 184.002 111.546 185.941 111.33C186.533 111.244 187.131 111.211 187.728 111.233C191.793 111.324 193.671 111.33 196.658 111.233L200.76 111.009C201.699 111.009 202.662 110.978 203.516 111.009C206.824 111.227 210.302 111.208 213.816 111.142L220.092 111.033C221.38 110.943 222.674 111.043 223.933 111.33C224.352 111.629 224.849 111.799 225.363 111.82C226.908 111.996 227.326 112.214 227.441 112.426C227.483 112.511 227.701 112.614 228.144 112.675C230.367 112.965 230.07 113.226 228.035 113.529C226.946 113.696 225.868 113.925 224.806 114.213C223.775 114.439 222.722 114.543 221.667 114.522C220.189 114.522 219.086 114.644 217.905 114.747C216.648 114.864 215.382 114.841 214.131 114.68C213.616 114.619 213.246 114.535 212.695 114.486C212.269 114.459 211.842 114.459 211.417 114.486C209.398 114.592 207.376 114.592 205.358 114.486C205.214 114.491 205.071 114.471 204.934 114.425C204.692 113.929 201.444 113.935 198.815 113.874C196.998 113.832 195.065 113.874 193.187 113.874C191.975 113.874 190.763 113.874 189.812 113.771C188.06 113.55 186.286 113.579 184.541 113.856C182.686 114.109 180.806 114.137 178.944 113.941L178.301 113.904H178.422C177.388 113.777 176.343 113.777 175.308 113.904H175.424L168.469 114.02C167.475 114.02 166.687 114.074 165.9 114.135C164.882 114.219 163.749 114.244 162.556 114.25C160.526 114.25 158.787 114.25 158.175 113.935C157.952 113.864 157.723 113.814 157.491 113.783C156.678 113.667 155.857 113.622 155.037 113.65C152.729 113.711 150.481 113.741 148.1 113.686C146.798 113.686 145.325 113.686 143.974 113.753L137.207 114.038C134.953 114.11 132.736 114.201 130.307 114.135C129.216 114.098 127.98 114.135 126.817 114.135C124.767 114.229 122.713 114.138 120.68 113.862C120.456 113.82 119.892 113.801 119.468 113.777C119.232 113.777 118.953 113.777 118.669 113.777L117.687 113.814C117.166 113.82 116.647 113.873 116.136 113.971C115.985 114.032 116.172 114.092 116.015 114.147C115.453 114.277 114.878 114.346 114.3 114.353C114.264 113.747 114.252 112.99 114.264 112.19L114.319 109.524C114.319 108.84 114.319 108.155 114.367 107.464C114.367 106.543 114.367 105.598 114.367 104.659C114.367 101.842 114.367 99.0311 114.446 96.2684C114.325 93.9117 114.446 91.6641 114.506 89.4043V89.586C114.549 88.7318 114.622 87.9018 114.634 87.0173C114.634 85.1513 114.634 83.2671 114.67 81.389C114.67 80.2197 114.67 78.9657 114.67 77.8933C114.773 75.0762 114.761 72.4408 114.64 69.6054C114.529 67.1156 114.562 64.6215 114.737 62.1354C114.912 59.8454 114.852 57.1615 114.906 54.6594C114.906 54.4413 114.906 54.1989 114.906 53.9748C114.767 50.2428 114.767 50.2428 114.906 46.0989C114.926 45.4676 114.897 44.8357 114.821 44.2086C114.779 43.8694 114.737 43.5483 114.706 43.1666C114.612 42.4415 114.645 41.7055 114.803 40.9916C115.016 40.1325 115.09 39.2448 115.021 38.3623C114.967 35.7875 114.961 33.2672 115.021 30.6802C115.076 28.8627 115.07 26.9483 115.082 25.0702C115.094 23.1921 115.033 22.7013 114.725 22.041C114.577 21.3442 114.542 20.6283 114.622 19.9205C114.664 19.5752 114.712 19.3147 114.755 19.0118C114.94 18.1492 114.94 17.2571 114.755 16.3945C114.569 14.9726 114.488 13.539 114.512 12.1052V7.17367C114.512 5.22286 114.464 3.27206 114.434 1.33337V0.473078C115.506 0.473078 116.669 0.473078 117.705 0.473078L119.977 0.509429H126.314C128.197 0.546984 130.08 0.447768 131.949 0.212567C132.258 0.1641 132.603 0.121691 132.991 0.0913986C133.642 0.0370592 134.296 0.0370592 134.947 0.0913986C137.767 0.356292 140.598 0.471565 143.429 0.436729C143.841 0.436729 144.259 0.400378 144.641 0.376144C144.326 0.339794 144.035 0.291327 143.69 0.261035C143.223 0.218627 142.938 0.182275 143.084 0.115633C143.285 0.0951767 143.487 0.0850666 143.69 0.0853413C146.319 0.0853413 148.706 0.230742 151.117 0.35191C151.927 0.405797 152.739 0.36922 153.541 0.242859C153.668 0.242859 153.85 0.200451 154.025 0.182276C154.895 0.0904623 155.77 0.0722222 156.643 0.12775L160.278 0.400378C161.704 0.552006 163.143 0.519427 164.561 0.303444C165.577 0.161354 166.605 0.136959 167.626 0.230744C168.251 0.286978 168.878 0.311243 169.505 0.303444C171.28 0.151984 173.14 0.24286 174.957 0.236801L183.396 0.164101C184.336 0.164101 185.281 0.121692 186.141 0.164101C189.425 0.39432 192.932 0.370087 196.44 0.315561C197.276 0.315561 197.512 0.218626 197.373 0.115633C197.373 0.115633 197.5 0.0489911 197.64 0.0429327C198.318 0.0429327 199.021 -0.00553431 199.706 0.000524085C203.462 0.000524085 207.248 0.000522885 210.962 0.0489901C215.688 0.121691 220.347 0.109575 224.999 0.0126412C225.769 0.0126412 226.453 0.0126412 227.084 0.0126412L228.544 0.0611071C229.016 0.0611071 229.471 0.109575 229.901 0.139867L231.112 0.224684C231.04 1.43636 230.961 2.76921 230.876 4.13841C230.876 4.48374 230.876 5.07746 230.876 5.50155C230.876 5.92564 230.937 6.31337 230.979 6.62841C231.348 9.78686 231.5 12.9669 231.433 16.1462C231.433 19.66 231.355 23.1799 231.27 26.6272C231.209 28.9536 231.185 31.2679 231.179 33.6125C231.127 34.726 231.216 35.8416 231.446 36.9325C231.524 37.193 231.597 37.611 231.67 38.0048C231.746 38.5921 231.746 39.1866 231.67 39.7739C231.53 40.3373 231.409 40.8402 231.276 41.3975C231.25 41.5661 231.234 41.736 231.227 41.9065C231.227 42.0519 231.27 42.2336 231.294 42.3245C231.393 42.5915 231.474 42.8647 231.536 43.1424C231.787 44.6885 231.904 46.2533 231.888 47.8194C231.888 49.9399 231.888 52.0603 231.797 54.0717C231.797 54.7321 231.724 55.4046 231.718 56.077C231.718 57.7007 231.839 59.3849 231.718 60.9238C231.633 62.1354 231.482 62.9897 231.385 64.1408C231.348 64.8006 231.348 65.462 231.385 66.1219C231.494 67.9394 231.652 69.1511 231.942 68.727C232.088 68.527 232.209 69.2298 232.221 69.9387C232.239 70.5262 232.204 71.1142 232.118 71.6956C232.022 72.1489 231.96 72.6085 231.93 73.0708C231.938 74.9713 231.836 76.8707 231.627 78.7597C231.573 79.2383 231.549 80.038 231.549 80.6862C231.549 81.8495 231.585 83.0127 231.603 84.1759C231.603 85.5693 231.682 87.0173 231.658 88.3562C231.579 92.3911 231.658 96.3108 231.724 100.261C231.781 100.743 231.729 101.231 231.573 101.691C231.282 101.691 231.064 102.448 230.967 104.72C230.876 106.307 230.67 106.992 230.464 107.283C230.258 107.573 229.955 108.373 229.78 110.227C229.737 110.7 229.628 110.996 229.549 111.033C229.337 111.13 229.149 111.893 228.943 112.541C228.719 113.371 228.538 113.153 228.392 111.614ZM161.986 114.038C162.331 114.038 162.731 114.007 163.058 113.983C163.154 113.972 163.248 113.948 163.337 113.91C163.159 113.841 162.971 113.798 162.78 113.783C162.424 113.774 162.067 113.79 161.713 113.832C161.277 113.88 161.471 114.038 161.986 114.038ZM114.531 102.242C114.531 103.381 114.531 104.52 114.531 104.968C114.531 107.234 114.531 108.87 114.609 110.372C114.609 110.518 114.609 110.639 114.609 110.748C114.609 110.857 114.609 110.966 114.646 111.039C114.682 111.112 114.694 111.227 114.725 111.148C114.771 111.02 114.796 110.884 114.797 110.748L114.888 109.536C114.918 109.143 114.943 108.737 114.955 108.325C114.985 107.489 114.991 106.598 114.955 105.61C114.912 104.526 114.906 103.345 114.852 102.29C114.828 101.848 114.769 101.409 114.676 100.976C114.64 100.649 114.549 101.436 114.543 102.218L114.531 102.242ZM213.967 0.745707C213.997 0.745707 213.797 0.69724 213.646 0.673006C212.485 0.500346 211.312 0.421333 210.138 0.436729C208.218 0.493774 206.296 0.433075 204.383 0.254976C204.225 0.254976 203.94 0.254976 203.722 0.254976C203.504 0.254976 203.274 0.254976 203.117 0.254976C202.711 0.291326 202.559 0.35191 202.874 0.406436C203.559 0.521545 204.28 0.636655 205.086 0.733589C206.125 0.85772 207.172 0.89824 208.218 0.854758L210.084 0.788115H212.967C213.301 0.832208 213.639 0.817857 213.967 0.745707ZM230.549 31.0377C230.592 30.8985 230.613 30.7533 230.61 30.6075C230.658 28.79 230.761 27.0694 230.676 25.1913C230.673 25.0164 230.655 24.8421 230.622 24.6703C230.555 24.3977 230.5 24.5734 230.488 25.1489C230.488 26.0395 230.452 26.9664 230.434 27.5723C230.434 28.8143 230.482 29.7291 230.5 30.6318C230.5 30.7686 230.516 30.9049 230.549 31.0377ZM231.155 72.0167C231.27 72.2105 231.391 71.32 231.355 70.4173C231.355 69.8781 231.252 69.4843 231.215 69.1571C231.094 69.1571 231.021 69.7993 231.015 70.5203C230.987 71.0256 231.036 71.5323 231.161 72.0227L231.155 72.0167Z" fill="#D4DCFF"/>
<path d="M88.5341 169.272C88.4069 168.824 88.3281 169.048 88.2312 169.23C88.2312 169.266 88.1767 169.278 88.1524 169.26C87.9586 169.127 87.8435 168.569 87.6859 168.236C87.5821 167.899 87.535 167.547 87.5466 167.194C87.5366 166.816 87.4858 166.44 87.3951 166.073C87.1589 165.074 87.0438 164.044 86.7287 163.044C86.6076 162.602 86.4561 162.154 86.3046 161.736C86.1532 161.318 86.0623 161.033 85.9775 160.687C85.8642 160.155 85.6592 159.647 85.3716 159.185C85.2787 159.044 85.1939 158.898 85.1172 158.749C85.0324 158.603 84.9354 158.458 84.8567 158.306C84.6792 157.98 84.5195 157.644 84.3781 157.301C84.2205 156.919 84.0509 156.531 83.8631 156.156L83.227 155.071C82.8332 154.417 82.4575 153.738 82.1243 153.157C81.7951 152.514 81.4035 151.905 80.9551 151.339C80.4583 150.782 79.9312 150.249 79.3981 149.722C79.1285 149.473 78.8432 149.243 78.5438 149.031C78.1756 148.744 77.8256 148.434 77.4957 148.104C77.3258 147.909 77.1415 147.727 76.9444 147.559L76.3386 147.092C75.9266 146.783 75.5086 146.487 75.1269 146.172C74.5925 145.791 74.0294 145.453 73.4427 145.16C73.1094 144.984 72.7883 144.814 72.4672 144.627C72.1462 144.439 71.8008 144.299 71.4737 144.1C70.9109 143.781 70.3132 143.529 69.6925 143.348C68.8881 143.116 68.1006 142.829 67.3358 142.488C66.9464 142.37 66.5753 142.199 66.2332 141.979C65.9399 141.798 65.6075 141.69 65.2638 141.664C65.0439 141.649 64.8253 141.618 64.6095 141.573C64.3818 141.546 64.1568 141.499 63.937 141.434C62.8972 141.068 61.8133 140.842 60.714 140.761C60.1566 140.719 59.5871 140.695 59.0237 140.683C58.4512 140.703 57.8806 140.76 57.3152 140.852C56.7578 140.937 56.2065 140.979 55.6613 141.034C55.106 141.127 54.5456 141.186 53.9831 141.21C53.6105 141.224 53.2398 141.269 52.8744 141.343C52.5279 141.454 52.1898 141.59 51.8627 141.749C51.3737 141.985 50.8534 142.15 50.3178 142.24C49.6453 142.391 48.9849 142.615 48.3124 142.803C47.9792 142.906 47.6339 142.991 47.3067 143.112L46.3374 143.506C45.9012 143.682 45.4589 143.857 45.0288 144.063C43.5937 144.834 42.2222 145.717 40.9272 146.705L40.1154 147.311C39.8731 147.535 39.6307 147.765 39.4005 148.001C38.9428 148.442 38.5176 148.916 38.1283 149.419C37.9803 149.651 37.8099 149.868 37.6194 150.067C36.951 150.731 36.3428 151.453 35.8018 152.224C35.2445 152.993 34.6447 153.726 34.1176 154.502C33.8114 154.973 33.5303 155.461 33.2755 155.962L32.5121 157.476C32.2359 157.825 32.0021 158.206 31.8154 158.609C31.6518 159.04 31.5125 159.494 31.361 159.942C31.2433 160.302 31.1037 160.654 30.943 160.996C30.7233 161.507 30.5843 162.049 30.531 162.602C30.5046 162.773 30.4514 162.938 30.3735 163.093C30.1702 163.506 30.0351 163.95 29.9737 164.407L29.6707 166.401C29.6707 166.588 29.6102 166.782 29.598 166.97C29.5496 167.788 29.7616 168.357 29.7192 169.109C29.6433 169.861 29.6616 170.62 29.7737 171.368L29.9979 172.683C30.1928 173.396 30.3285 174.123 30.4038 174.858C30.4204 175.325 30.5062 175.786 30.6583 176.227C30.884 176.894 31.0681 177.574 31.2096 178.263C31.3732 178.929 31.561 179.565 31.6942 180.226C31.7339 180.485 31.7968 180.741 31.8821 180.989C32.5788 182.37 33.021 183.8 33.851 185.091L33.9964 185.339C34.5235 186.272 35.1172 187.096 35.6261 187.974C35.7655 188.211 35.8927 188.453 36.0563 188.683C36.5753 189.367 37.1597 189.998 37.8011 190.567C38.0677 190.804 38.4069 190.979 38.6735 191.222C38.9708 191.462 39.2824 191.685 39.6065 191.888L40.6122 192.579L41.7148 193.366C42.0701 193.64 42.4424 193.891 42.8296 194.118C43.6172 194.554 44.3745 195.039 45.1742 195.438L45.4286 195.566C46.1622 195.921 46.8707 196.326 47.5491 196.777C48.3548 197.02 49.0818 197.092 49.9058 197.413C50.2572 197.553 50.6328 197.619 50.9842 197.741C51.2393 197.822 51.4901 197.918 51.7354 198.025C52.0686 198.177 52.414 198.31 52.7593 198.431C53.1046 198.552 53.4802 198.589 53.8437 198.649C54.2072 198.71 54.5768 198.758 54.9524 198.795C55.3262 198.84 55.7033 198.853 56.0793 198.831C56.6245 198.795 57.1759 198.771 57.7332 198.777H58.5753C58.8601 198.777 59.1448 198.777 59.4356 198.777C59.5305 198.783 59.6256 198.783 59.7204 198.777C60.6594 198.595 61.5924 198.619 62.5133 198.462L63.9007 198.322C64.1309 198.322 64.3672 198.286 64.5974 198.256L65.2759 198.116C65.3244 198.116 65.4032 198.116 65.391 198.116C65.3441 198.16 65.2883 198.193 65.2275 198.213L64.7186 198.413C64.6762 198.413 64.6762 198.468 64.658 198.492L67.154 197.959C67.3843 197.91 67.463 197.801 67.36 197.692C67.257 197.583 67.3055 197.522 67.5781 197.413C68.4202 197.098 69.2684 196.808 70.0984 196.456C70.9284 196.105 71.716 195.681 72.5218 195.335C73.0913 195.026 73.6608 194.651 74.2363 194.33C74.521 194.16 74.8421 194.021 75.0966 193.827C75.351 193.633 75.6419 193.469 75.9084 193.312C76.4858 193.003 77.0145 192.611 77.4776 192.149C78.1037 191.468 78.8026 190.859 79.5616 190.331C80.1675 189.834 80.7733 189.265 81.3792 188.683C81.9326 188.092 82.3685 187.402 82.6635 186.648C82.739 186.414 82.8537 186.195 83.0028 185.999C83.7455 185.034 84.3567 183.975 84.8203 182.849L85.4262 181.286C85.5349 180.927 85.6748 180.578 85.8442 180.244C86.1859 179.641 86.4718 179.008 86.6984 178.354C86.8802 177.675 87.0377 176.972 87.1891 176.27C87.2842 175.855 87.349 175.434 87.383 175.009L87.5224 173.737C87.5587 173.407 87.6256 173.08 87.7223 172.762C87.755 172.556 87.8477 172.364 87.9889 172.211C88.1645 172.053 88.3645 172.095 88.5099 171.653C88.7159 171.047 88.94 170.841 89.1884 170.799C89.2733 170.799 89.3823 170.696 89.4489 170.508C89.7943 169.557 90.0548 169.666 90.3032 170.575C90.456 171.084 90.6589 171.577 90.909 172.047C91.1213 172.496 91.1931 172.998 91.115 173.489C91.0556 174.064 91.0434 174.644 91.0787 175.222C91.0941 175.514 91.0738 175.807 91.0181 176.094C90.9923 176.23 90.9558 176.364 90.909 176.494C90.8525 176.619 90.7858 176.758 90.7091 176.912C90.5879 177.124 90.4668 177.269 90.3577 177.518C90.2748 177.694 90.2196 177.882 90.1941 178.075C90.1545 178.538 90.0651 178.995 89.9276 179.438C89.7882 179.874 89.5701 180.286 89.4005 180.716C89.3702 180.783 89.2975 180.88 89.2732 180.874C89.0248 180.844 88.7704 181.171 88.5281 181.637C88.4008 181.868 88.2918 182.146 88.1585 182.419L87.7283 183.219C87.5345 183.576 87.3467 183.952 87.171 184.333C87.0035 184.721 86.8112 185.097 86.5954 185.46C86.3499 185.893 86.0595 186.299 85.7291 186.672C85.439 186.965 85.1829 187.29 84.9657 187.641C84.7468 187.95 84.5828 188.294 84.4811 188.659C84.2202 189.474 83.7041 190.184 83.0089 190.683C82.933 190.741 82.8602 190.804 82.7908 190.87H82.8453C82.4437 191.119 82.1203 191.476 81.9123 191.9V191.852C81.2414 192.644 80.5189 193.391 79.7495 194.087C79.4223 194.384 79.2103 194.693 78.9558 194.936C78.6033 195.299 78.2225 195.633 77.8168 195.935C77.4978 196.19 77.1617 196.423 76.8111 196.632C76.5785 196.778 76.3019 196.838 76.0296 196.802C75.9136 196.793 75.7969 196.803 75.6843 196.832C75.3253 196.915 74.9858 197.068 74.6846 197.28C73.8439 197.874 72.9347 198.364 71.9765 198.74C71.6969 198.859 71.4239 198.992 71.1586 199.14C70.886 199.292 70.5952 199.401 70.3226 199.528L68.9473 200.134L68.2567 200.449C68.0265 200.552 67.7841 200.624 67.5418 200.709C67.0632 200.867 66.5906 201.03 66.0999 201.182C65.5998 201.353 65.0812 201.465 64.555 201.515C64.0643 201.557 63.5251 201.679 63.0101 201.775C62.1056 202.021 61.1519 202.021 60.2475 201.775C60.07 201.738 59.8895 201.718 59.7083 201.715C59.291 201.692 58.8747 201.773 58.4966 201.951C58.4602 202.006 58.5329 202.072 58.4966 202.127C58.1627 202.33 57.7638 202.397 57.3818 202.315L55.528 202.121C55.1099 202.078 54.6919 201.981 54.2739 201.927L52.3958 201.63C51.7799 201.496 51.1729 201.324 50.5783 201.115C50.0614 201.039 49.551 200.923 49.0515 200.77C48.5729 200.582 48.1125 200.358 47.6521 200.164L47.7187 200.206C47.3734 200.037 47.0462 199.837 46.6827 199.691L46.0769 199.455L45.5074 199.176L44.3745 198.619C43.8945 198.416 43.4324 198.173 42.9932 197.892C42.4782 197.516 41.9693 197.183 41.4483 196.868L40.6486 196.408C40.3941 196.238 40.1336 196.075 39.861 195.911C39.3812 195.616 38.918 195.294 38.4736 194.948C38.2518 194.778 38.0487 194.585 37.8678 194.372C37.6799 194.166 37.4982 193.96 37.3285 193.766C36.9854 193.337 36.6129 192.932 36.2138 192.555C35.8139 192.149 35.4444 191.706 35.087 191.282C35.0181 191.208 34.9431 191.139 34.8628 191.076C33.6511 189.949 33.6814 189.865 32.6515 188.356C32.4928 188.127 32.3008 187.923 32.082 187.75C31.9629 187.645 31.8497 187.534 31.7427 187.417C31.4939 187.189 31.3421 186.875 31.3186 186.539C31.3124 186.132 31.1646 185.74 30.9006 185.43C30.5923 184.952 30.3209 184.452 30.0888 183.934C29.8464 183.425 29.6162 182.904 29.4042 182.37C29.1558 181.613 28.871 180.807 28.5923 180.026C28.3137 179.244 28.2167 179.05 27.8472 178.857C27.6342 178.609 27.5161 178.293 27.514 177.966C27.514 177.802 27.514 177.675 27.514 177.536C27.561 177.339 27.5609 177.134 27.5135 176.937C27.4661 176.74 27.3729 176.557 27.2413 176.403C26.9572 175.818 26.7748 175.189 26.7021 174.543C26.4234 173.083 26.4295 171.605 26.2478 170.145C26.2154 169.727 26.2255 169.306 26.278 168.891C26.3507 168.285 26.3871 167.63 26.4174 166.994C26.4227 166.677 26.4551 166.361 26.5143 166.049L26.6658 165.11C26.8035 164.263 26.8603 163.405 26.8354 162.547C26.8233 162.386 26.8233 162.224 26.8354 162.063C26.8527 161.763 26.9246 161.47 27.0474 161.196C27.6623 160.048 28.2144 158.867 28.7014 157.658C28.768 157.489 28.7802 157.289 28.8529 157.119C28.7479 157.225 28.6564 157.343 28.5802 157.47C28.4712 157.652 28.3864 157.761 28.3561 157.67C28.3618 157.578 28.3844 157.488 28.4227 157.404C28.9152 156.388 29.4759 155.406 30.1009 154.465C30.3318 154.175 30.4916 153.835 30.5674 153.472C30.5674 153.411 30.6037 153.333 30.628 153.254C30.7533 152.872 30.9484 152.516 31.2035 152.206C31.3751 151.993 31.5592 151.791 31.7548 151.6L32.3607 151.03C32.8626 150.6 33.2375 150.041 33.4451 149.413C33.6193 148.973 33.9184 148.594 34.3054 148.322C34.5281 148.142 34.7312 147.939 34.9113 147.716C35.1276 147.365 35.386 147.042 35.6807 146.753C35.9896 146.474 36.2865 146.208 36.6197 145.923C37.0923 145.493 37.5467 145.045 38.0313 144.621L39.5399 143.439C39.8496 143.16 40.1912 142.918 40.5577 142.718C41.9632 142.112 43.2658 141.246 44.7198 140.555C45.053 140.386 45.1136 140.259 45.0167 140.198C44.9197 140.137 45.0167 140.107 45.0954 140.077C45.3662 139.913 45.6452 139.763 45.9315 139.628L48.3548 138.75C48.5608 138.677 48.7607 138.599 48.9607 138.538L49.5665 138.38L50.8145 138.09C51.3416 137.987 51.8566 137.823 52.3897 137.762L53.977 137.52C54.5041 137.447 55.0251 137.326 55.5522 137.284L57.1456 137.145C57.7331 137.063 58.3307 137.089 58.9086 137.223C59.3811 137.365 59.8779 137.498 60.3989 137.623C60.6002 137.646 60.8035 137.646 61.0048 137.623C61.1785 137.612 61.3508 137.586 61.5197 137.544C61.6712 137.544 61.8287 137.478 61.9862 137.453C62.1437 137.429 62.3073 137.453 62.477 137.417C62.8102 137.417 63.1616 137.417 63.5311 137.417C63.9007 137.417 64.2763 137.466 64.6701 137.514L65.2759 137.593C65.4759 137.635 65.6758 137.696 65.8818 137.75L68.2021 138.411C68.9594 138.665 69.6865 139.017 70.4135 139.307C71.407 139.689 72.3279 140.216 73.2912 140.677C73.7469 140.925 74.2472 141.082 74.7634 141.137C74.9425 141.137 75.1212 141.155 75.2965 141.192C75.5596 141.276 75.7957 141.429 75.9811 141.634L76.4113 142.355C76.4634 142.414 76.5201 142.468 76.5809 142.518C76.6461 142.539 76.713 142.553 76.7808 142.561C76.9315 142.54 77.0845 142.54 77.2352 142.561C77.9373 142.773 78.593 143.117 79.1678 143.572C79.9607 144.134 80.6829 144.789 81.3186 145.523C81.5064 145.762 81.7087 145.988 81.9244 146.202C82.9178 146.978 83.6924 147.999 84.1721 149.164C84.3218 149.429 84.5028 149.676 84.7113 149.897C85.2868 150.503 85.7533 150.849 85.8805 150.503C85.9411 150.346 86.2319 150.54 86.45 150.806C86.6542 151.03 86.7962 151.304 86.862 151.6C86.8921 151.823 86.9533 152.042 87.0437 152.248C87.5328 152.987 87.8857 153.808 88.0858 154.671C88.1654 154.958 88.2729 155.236 88.4069 155.501C88.6432 155.986 88.9037 156.453 89.146 156.931C89.4005 157.537 89.6852 158.143 89.873 158.718C90.0124 159.167 90.1638 159.603 90.3153 160.033C90.4668 160.463 90.5516 160.918 90.6727 161.36C90.9484 162.229 91.1769 163.113 91.3573 164.007C91.4179 164.329 91.4058 164.668 91.3028 164.686C91.0181 164.747 90.8545 165.11 90.8787 166.14C90.9008 166.416 90.8593 166.694 90.7575 166.952C90.7018 167.102 90.6053 167.235 90.4788 167.334C90.2927 167.503 90.143 167.708 90.0388 167.938C89.9347 168.167 89.8782 168.415 89.873 168.666C89.8367 168.872 89.7397 169.006 89.661 169.024C89.4489 169.072 89.2793 169.399 89.1036 169.672C88.9279 169.945 88.7098 169.908 88.5341 169.272ZM77.5503 195.826C77.6774 195.726 77.795 195.615 77.9016 195.493C77.9501 195.444 77.938 195.402 77.9562 195.36C77.8627 195.353 77.769 195.37 77.6835 195.408C77.5502 195.496 77.4315 195.604 77.3321 195.729C77.217 195.935 77.3564 195.984 77.5503 195.826ZM53.2743 201.594L54.4859 201.788C55.2846 201.936 56.0986 201.985 56.9093 201.933C57.1213 201.933 57.2304 201.872 57.188 201.806C57.1565 201.765 57.1113 201.737 57.0607 201.727C56.7158 201.636 56.3658 201.565 56.0126 201.515C55.8309 201.485 55.6431 201.473 55.4432 201.454C55.2432 201.436 55.0373 201.406 54.8373 201.388C54.3587 201.357 53.8377 201.285 53.3651 201.267C53.16 201.263 52.9556 201.292 52.7593 201.351C52.5896 201.412 52.935 201.557 53.2743 201.618V201.594ZM52.3291 138.362C52.3291 138.362 52.2443 138.314 52.1716 138.314C51.639 138.274 51.1036 138.329 50.5904 138.477C50.1473 138.617 49.6961 138.731 49.2394 138.817C48.8213 138.895 48.4336 139.004 48.0277 139.053C47.9303 139.075 47.835 139.105 47.7429 139.144C47.6537 139.174 47.5683 139.215 47.4885 139.265C47.3249 139.362 47.2825 139.441 47.434 139.441C47.7836 139.448 48.1334 139.438 48.4821 139.41C48.687 139.394 48.8899 139.357 49.0879 139.301C49.3376 139.25 49.5843 139.185 49.827 139.107L50.6146 138.835L51.8687 138.538C52.1413 138.477 52.3291 138.417 52.3291 138.362ZM71.9947 140.786C71.9595 140.725 71.9067 140.676 71.8432 140.646C71.1509 140.224 70.4024 139.902 69.6198 139.689C69.5431 139.667 69.4634 139.656 69.3835 139.659C69.2442 139.659 69.3048 139.762 69.535 139.859L70.5225 140.277C70.783 140.362 71.0193 140.422 71.2192 140.507L71.7948 140.749C71.8614 140.755 71.9886 140.78 71.9886 140.761L71.9947 140.786ZM86.1289 152.206C86.2683 152.206 86.1653 151.806 85.9108 151.479C85.7721 151.335 85.62 151.205 85.4565 151.091C85.3595 151.164 85.4565 151.436 85.6564 151.697C85.8563 151.957 86.0199 152.206 86.1289 152.206Z" fill="#D4DCFF"/>
<path d="M114.252 222.931C114.149 221.841 114.058 222.38 113.955 222.804C113.955 222.901 113.895 222.931 113.87 222.883C113.668 222.044 113.531 221.192 113.458 220.332C113.367 219.469 113.336 218.601 113.368 217.733C113.368 216.8 113.368 215.831 113.368 214.934C113.295 212.39 113.271 209.827 113.265 207.234C113.265 206.083 113.222 204.92 113.18 203.799C113.18 202.848 113.143 201.945 113.18 201.054C113.262 199.714 113.25 198.37 113.143 197.032C112.997 195.263 112.954 193.486 113.016 191.712C113.059 189.64 113.053 187.472 113.053 185.387C113.053 183.485 113.053 181.54 113.18 179.886C113.434 176.336 113.38 172.616 113.301 168.903C113.301 167.982 113.24 167.085 113.21 166.188C113.21 165.037 113.143 163.765 113.21 162.705C113.301 160.142 113.246 157.592 113.259 155.035C113.259 153.363 113.259 151.763 113.222 150.146C113.174 148.328 113.137 146.462 113.222 144.572C113.289 142.918 113.192 141.313 113.149 139.725C113.089 137.605 113.095 135.557 113.149 133.449C113.16 132.452 113.231 131.457 113.361 130.468C113.464 129.632 113.485 128.788 113.422 127.948C113.337 126.837 113.325 125.722 113.386 124.61C113.499 122.728 113.58 120.819 113.628 118.884C113.628 117.915 113.628 116.946 113.67 115.97V114.947L113.065 114.989L110.708 115.068C107.939 115.165 105.255 115.207 102.432 115.068C100.632 114.988 98.8292 115.024 97.0341 115.177C95.7 115.282 94.361 115.313 93.0235 115.268L82.6878 114.989C81.5428 114.959 80.3796 114.928 79.2164 114.922H67.2268C63.8886 114.922 60.6656 114.922 57.6364 115.134C57.0305 115.177 56.2672 115.207 55.6129 115.195C50.96 115.128 46.2284 115.292 41.6119 115.116C40.2003 115.062 38.8311 115.146 37.4377 115.159H33.2392C31.0092 115.002 28.7725 114.965 26.5386 115.05C25.6238 115.05 24.6484 115.05 23.7457 115.019C22.3896 114.946 21.0306 114.946 19.6745 115.019C19.2501 115.036 18.8252 115.025 18.4022 114.989C17.3601 114.91 16.2272 114.886 15.0337 114.886H8.66029C7.66066 114.886 6.84277 114.94 6.00065 115.001L4.78897 115.086L3.96504 115.122H3.5894C3.58323 115.239 3.58323 115.357 3.5894 115.474C3.5894 115.886 3.5894 116.298 3.63181 116.685C3.68634 117.8 3.73481 118.884 3.78934 119.969C3.88627 121.744 3.92261 123.525 3.87415 125.47C3.87415 126.591 3.83174 127.851 3.87415 128.941C3.98925 132.576 3.87415 135.921 3.70451 139.21C3.66816 139.816 3.60758 140.531 3.61364 141.137C3.66816 144.96 3.50459 148.607 3.48642 152.357V153.06C3.48642 155.701 3.41371 158.191 3.30465 160.645C3.30465 161.311 3.25014 161.972 3.21985 162.656C3.15926 164.747 3.14714 166.837 3.25013 168.897C3.29254 169.769 3.34707 170.629 3.36524 171.544C3.40765 173.664 3.6197 175.264 3.63181 177.475C3.6722 181.918 3.7126 186.361 3.75299 190.804V191.506C3.75299 193.645 3.68635 195.675 3.547 197.529C3.59547 199.594 3.77722 201.357 3.7651 203.544L3.73481 206.337C3.73481 207.022 3.68635 207.701 3.64394 208.319C3.41759 211.949 3.39736 215.59 3.58335 219.224C3.61365 220.06 3.65 220.902 3.68029 221.75C3.71058 221.956 3.72874 222.023 3.74086 222.15H4.07408H4.73445H5.43116C10.1264 221.92 14.7005 222.15 19.3109 222.21C19.42 222.21 19.6018 222.253 19.5654 222.265C19.4161 222.299 19.264 222.319 19.111 222.326L17.7903 222.386C17.6752 222.386 17.6631 222.429 17.6025 222.447L23.8366 222.556C24.4424 222.556 24.6847 222.477 24.5151 222.344C24.3455 222.21 24.5151 222.156 25.2421 222.156C29.695 222.156 34.154 222.089 38.6009 222.192C40.2003 222.229 41.8906 222.192 43.5203 222.229C45.15 222.265 46.8221 222.271 48.3367 222.338C49.9725 222.41 51.5174 222.441 53.141 222.374C55.4105 222.278 57.6835 222.3 59.9507 222.441C61.8469 222.556 63.9008 222.635 65.9485 222.695C67.8973 222.782 69.85 222.717 71.7888 222.501C72.3801 222.412 72.9785 222.38 73.576 222.404C77.6351 222.495 79.5193 222.495 82.5061 222.404L86.644 222.295C87.5891 222.295 88.5463 222.265 89.4005 222.295C92.7084 222.513 96.192 222.489 99.6998 222.429L105.982 222.319C107.879 222.319 109.278 222.392 109.817 222.616C110.24 222.907 110.735 223.077 111.247 223.107C112.792 223.283 113.21 223.495 113.331 223.743C113.374 223.828 113.586 223.931 114.028 223.986C116.257 224.282 115.961 224.543 113.919 224.84C112.831 225.011 111.753 225.239 110.69 225.524C109.662 225.757 108.611 225.863 107.558 225.839C106.073 225.839 104.977 225.961 103.789 226.064C102.534 226.179 101.27 226.154 100.021 225.991C99.5059 225.936 99.1364 225.852 98.5851 225.797C98.1593 225.773 97.7325 225.773 97.3067 225.797C95.2887 225.903 93.2664 225.903 91.2483 225.797C91.1065 225.801 90.965 225.781 90.8303 225.736C90.588 225.24 87.3346 225.246 84.7113 225.185C82.8938 225.143 80.9612 225.185 79.077 225.185C77.8653 225.185 76.6537 225.185 75.7086 225.082C73.9545 224.863 72.1784 224.889 70.4317 225.161C68.5761 225.416 66.6966 225.446 64.8337 225.252L64.1976 225.215H64.3127C63.2811 225.081 62.2364 225.081 61.2048 225.215H61.3199L54.3648 225.324C53.3712 225.324 52.5837 225.385 51.79 225.446C50.7782 225.53 49.6393 225.555 48.4458 225.561C46.4162 225.561 44.6835 225.561 44.0655 225.246C43.8434 225.171 43.6139 225.12 43.381 225.094C42.5689 224.975 41.7477 224.928 40.9273 224.955C38.6191 225.015 36.3774 225.046 33.9965 224.991C32.6939 224.961 31.2218 225.022 29.8707 225.064L23.1096 225.3C20.8558 225.373 18.6385 225.464 16.209 225.391C15.1185 225.391 13.8826 225.391 12.7194 225.421C10.6697 225.513 8.61583 225.421 6.58225 225.149C6.35203 225.106 5.79466 225.088 5.37057 225.064C5.13429 225.064 4.85561 225.064 4.56481 225.064L3.58335 225.1C3.06447 225.107 2.54733 225.162 2.03845 225.264C1.88093 225.318 2.07481 225.385 1.91729 225.44C1.35495 225.57 0.780045 225.639 0.202758 225.646C0.166408 225.04 0.154292 224.276 0.166409 223.477L0.214887 220.817C0.214887 220.132 0.251229 219.448 0.263346 218.757C0.263346 217.836 0.263346 216.885 0.263346 215.952C0.263346 213.135 0.263355 210.318 0.348172 207.561C0.227004 205.198 0.34817 202.957 0.402696 200.697V200.879C0.451163 200.019 0.523864 199.189 0.535981 198.304C0.535981 196.444 0.535974 194.554 0.566266 192.676C0.566266 191.506 0.566266 190.252 0.566266 189.186C0.669258 186.363 0.657149 183.734 0.535981 180.898C0.422373 178.408 0.454742 175.914 0.632918 173.428C0.802553 171.132 0.748021 168.454 0.796488 165.946C0.796488 165.734 0.796488 165.492 0.796488 165.268C0.657145 161.53 0.657145 161.536 0.796488 157.392C0.812622 156.762 0.78427 156.133 0.711661 155.507C0.669253 155.168 0.626855 154.841 0.590504 154.465C0.499031 153.74 0.531814 153.005 0.687441 152.29C0.902731 151.432 0.978416 150.544 0.911599 149.661C0.857073 147.086 0.851015 144.566 0.911599 141.979C0.966124 140.162 0.96007 138.247 0.972186 136.369C0.984303 134.491 0.917663 134 0.614743 133.34C0.46467 132.643 0.429869 131.927 0.511742 131.219C0.548093 130.874 0.596561 130.614 0.645028 130.311C0.830037 129.448 0.830037 128.556 0.645028 127.693C0.453722 126.272 0.370683 124.838 0.396631 123.404C0.396631 121.756 0.396631 120.112 0.396631 118.473C0.396631 116.522 0.342103 114.571 0.317869 112.632V111.766C1.39021 111.766 2.54736 111.766 3.5894 111.766L5.8613 111.802H12.1923C14.0772 111.843 15.9625 111.743 17.8327 111.505C18.1417 111.463 18.487 111.421 18.8747 111.39C19.5259 111.336 20.1805 111.336 20.8316 111.39C23.6508 111.655 26.482 111.771 29.3134 111.736C29.7253 111.736 30.1373 111.693 30.5553 111.675C30.2403 111.633 29.9495 111.584 29.5981 111.554C29.1377 111.517 28.8529 111.475 28.9923 111.414C29.194 111.401 29.3964 111.401 29.5981 111.414C32.2214 111.414 34.6145 111.56 37.0196 111.681C37.829 111.735 38.6418 111.698 39.443 111.572C39.5702 111.572 39.7459 111.524 39.9216 111.505C40.7913 111.419 41.6665 111.403 42.5388 111.457L46.1739 111.73C47.6001 111.875 49.0389 111.842 50.4572 111.633C51.4705 111.487 52.4975 111.463 53.5166 111.56C54.1293 111.609 54.744 111.627 55.3584 111.614C57.1275 111.457 58.9934 111.554 60.811 111.548L69.2503 111.475C70.1954 111.475 71.1345 111.433 72.0008 111.475C75.2845 111.699 78.7923 111.675 82.3001 111.627C83.1301 111.627 83.3724 111.53 83.227 111.427C83.1967 111.427 83.3603 111.36 83.4936 111.354C84.1721 111.354 84.8749 111.305 85.5656 111.305C89.3218 111.305 93.1022 111.305 96.8221 111.36C101.548 111.433 106.2 111.414 110.859 111.324C111.629 111.324 112.307 111.324 112.943 111.324L114.404 111.372L115.761 111.457L116.972 111.542C116.9 112.753 116.815 114.086 116.73 115.449C116.706 115.903 116.706 116.358 116.73 116.812C116.73 117.237 116.791 117.624 116.833 117.939C117.202 121.1 117.354 124.282 117.287 127.463C117.251 130.971 117.203 134.491 117.118 137.938C117.063 140.271 117.033 142.585 117.027 144.93C116.979 146.041 117.071 147.155 117.299 148.243C117.378 148.504 117.451 148.928 117.524 149.316C117.596 149.903 117.596 150.497 117.524 151.085C117.39 151.654 117.269 152.157 117.136 152.715C117.136 152.811 117.1 153.054 117.081 153.223C117.063 153.393 117.13 153.545 117.154 153.641C117.25 153.909 117.331 154.182 117.396 154.459C117.647 156.005 117.765 157.57 117.748 159.136C117.748 161.251 117.748 163.377 117.657 165.389C117.627 166.043 117.578 166.722 117.578 167.394C117.578 169.012 117.699 170.702 117.578 172.241C117.493 173.452 117.342 174.301 117.245 175.452C117.205 176.111 117.205 176.773 117.245 177.433C117.354 179.25 117.512 180.462 117.802 180.044C117.942 179.838 118.063 180.547 118.081 181.256C118.1 181.843 118.064 182.432 117.972 183.013C117.881 183.467 117.821 183.926 117.79 184.388C117.796 186.288 117.693 188.188 117.481 190.077C117.433 190.555 117.409 191.355 117.409 192.003C117.409 193.166 117.409 194.33 117.457 195.487C117.457 196.886 117.542 198.334 117.518 199.673C117.433 203.702 117.518 207.628 117.584 211.578C117.638 212.06 117.586 212.548 117.433 213.008C117.142 213.008 116.924 213.765 116.797 216.037C116.7 217.63 116.5 218.315 116.288 218.606C116.076 218.896 115.779 219.696 115.609 221.544C115.561 222.017 115.458 222.313 115.379 222.35C115.161 222.453 114.979 223.21 114.773 223.858C114.579 224.682 114.391 224.47 114.252 222.931ZM47.8581 225.355C48.1974 225.355 48.6033 225.324 48.9305 225.294C49.0242 225.286 49.1161 225.263 49.2031 225.227C49.0245 225.157 48.8369 225.112 48.6457 225.094C48.2914 225.087 47.9371 225.105 47.5855 225.149C47.1311 225.197 47.331 225.318 47.8581 225.33V225.355ZM0.402696 213.559C0.402696 214.698 0.402696 215.831 0.402696 216.285C0.402696 218.551 0.402699 220.181 0.481458 221.689V222.065C0.485973 222.162 0.49608 222.26 0.511742 222.356C0.511742 222.501 0.566258 222.538 0.59655 222.459C0.638928 222.329 0.663405 222.195 0.669267 222.059L0.760139 220.847C0.790431 220.453 0.808597 220.048 0.826772 219.636C0.857064 218.8 0.863123 217.909 0.826772 216.921C0.784364 215.837 0.778303 214.65 0.729836 213.595C0.702763 213.156 0.64406 212.718 0.554156 212.287C0.49963 211.966 0.408754 212.747 0.402696 213.535V213.559ZM99.8271 112.038C99.8271 112.038 99.6574 111.984 99.4999 111.966C98.3412 111.79 97.1699 111.711 95.9981 111.73C94.0777 111.787 92.1556 111.726 90.2427 111.548C90.0791 111.548 89.8004 111.548 89.5823 111.548C89.3642 111.548 89.134 111.548 88.9764 111.548C88.5645 111.584 88.413 111.645 88.7281 111.699C89.4187 111.814 90.1336 111.923 90.9454 112.026C91.9848 112.147 93.032 112.188 94.0776 112.148L95.9436 112.081H98.8274C99.1608 112.118 99.498 112.104 99.8271 112.038ZM116.409 142.361C116.449 142.221 116.47 142.076 116.469 141.931C116.512 140.143 116.621 138.393 116.536 136.514C116.53 136.34 116.512 136.166 116.482 135.993C116.415 135.721 116.36 135.896 116.342 136.472C116.342 137.363 116.306 138.29 116.294 138.895C116.294 140.107 116.336 141.046 116.354 141.925C116.356 142.072 116.374 142.218 116.409 142.361ZM117.015 183.334C117.124 183.534 117.251 182.637 117.215 181.74C117.215 181.201 117.112 180.801 117.075 180.48C116.954 180.48 116.875 181.116 116.875 181.837C116.846 182.341 116.895 182.845 117.021 183.334H117.015Z" fill="#D4DCFF"/>
<path d="M181.579 161.439C182.27 161.336 181.924 161.245 181.658 161.142C181.591 161.142 181.579 161.081 181.603 161.057C182.124 160.853 182.667 160.711 183.221 160.633C183.767 160.54 184.322 160.505 184.875 160.53C185.481 160.53 186.087 160.53 186.644 160.53C188.262 160.445 189.885 160.409 191.539 160.39L192.636 160.354L193.242 160.318L194.278 160.281C195.453 160.239 196.586 160.227 197.634 160.281H197.955C197.906 161.807 197.943 163.334 198.064 164.856V165.043C198.061 165.094 198.061 165.144 198.064 165.195V165.395L198.113 165.795C198.113 166.061 198.155 166.328 198.167 166.606C198.167 167.164 198.167 167.751 198.167 168.375C198.137 169.69 198.167 171.053 198.167 172.392C198.2 173.558 198.174 174.725 198.088 175.888C197.907 178.208 197.893 180.539 198.046 182.861C198.088 183.467 198.125 184 198.167 184.582C198.167 185.315 198.246 186.121 198.215 186.793C198.143 188.423 198.215 190.04 198.215 191.64C198.215 192.7 198.215 193.712 198.288 194.742C198.37 195.919 198.388 197.1 198.343 198.28C198.324 199.303 198.36 200.326 198.452 201.345C198.531 202.69 198.537 203.993 198.506 205.332C198.506 205.719 198.506 206.059 198.446 206.374C198.446 206.525 198.409 206.677 198.391 206.816L198.355 207.022C198.355 207.077 198.355 207.022 198.312 207.07C198.27 207.119 198.185 207.276 198.252 207.325C198.318 207.373 198.367 207.379 198.3 207.591C197.694 208.464 196.374 209.76 196.665 209.354C196.786 209.167 196.889 209.045 195.95 210.063C195.344 210.712 195.344 210.669 196.15 209.797L196.677 209.191C196.749 209.13 196.774 209.191 196.677 209.409V209.457C196.405 209.767 196.183 210.117 196.016 210.493C196.016 210.548 196.016 210.59 196.119 210.493L197.464 209.197C197.929 208.776 198.324 208.283 198.634 207.737C198.668 207.651 198.72 207.573 198.785 207.507L198.918 207.398L199.427 206.895L200.996 205.314C202.05 204.265 203.105 203.223 204.213 202.254C204.886 201.648 205.425 200.994 206.067 200.364C206.709 199.734 207.339 199.152 207.982 198.51C209.096 197.63 210.134 196.657 211.084 195.602C211.489 195.184 211.938 194.754 212.368 194.39C213.022 193.835 213.63 193.227 214.185 192.573C214.372 192.374 214.574 192.192 214.791 192.027C215.354 191.585 215.888 191.108 216.391 190.598L218.614 188.398L219.22 187.793C220.129 186.908 220.577 186.127 221.419 185.297C222.261 184.467 223.152 183.673 223.927 182.794L225.297 181.219C225.666 180.789 226.042 180.371 226.442 179.953L227.047 179.347L227.193 179.202H227.229H227.266C227.269 179.176 227.269 179.149 227.266 179.123V178.778V178.329C227.171 176.155 227.227 173.977 227.435 171.811C227.486 171.408 227.516 171.004 227.526 170.599C227.471 168.176 227.635 165.861 227.653 163.474V163.026C227.653 161.354 227.726 159.773 227.835 158.216C227.835 157.791 227.89 157.373 227.92 156.937C228.002 155.618 228.002 154.294 227.92 152.975C227.877 152.424 227.823 151.872 227.805 151.297C227.762 149.952 227.55 148.934 227.538 147.535C227.496 144.705 227.459 141.888 227.417 139.053V138.605C227.414 137.327 227.483 136.051 227.623 134.782C227.575 133.467 227.393 132.358 227.405 130.959C227.405 130.353 227.405 129.747 227.405 129.19C227.405 128.754 227.453 128.323 227.496 127.93C227.722 125.628 227.743 123.31 227.556 121.005V120.684V120.526V120.447L227.514 120.338C227.492 120.281 227.474 120.222 227.459 120.163C227.432 120.033 227.432 119.899 227.459 119.769V119.702H227.399C227.223 119.963 227.169 119.999 227.053 120.06L226.841 120.175H226.799L226.617 120.344L226.26 120.672L225.545 121.338C225.49 121.387 225.381 121.441 225.387 121.411C225.433 121.324 225.487 121.243 225.551 121.168L226.102 120.563C226.151 120.502 226.133 120.472 226.145 120.429L223.261 123.143C222.988 123.398 222.928 123.574 223.097 123.592C223.267 123.61 223.231 123.725 222.903 124.052C220.892 126.039 218.935 128.081 216.845 129.996C216.1 130.68 215.355 131.456 214.603 132.164C213.852 132.873 213.089 133.612 212.35 134.242C211.571 134.894 210.84 135.601 210.163 136.357C209.208 137.44 208.164 138.441 207.043 139.35C206.11 140.119 205.128 140.985 204.159 141.852C203.217 142.661 202.379 143.583 201.663 144.596C201.459 144.92 201.21 145.214 200.924 145.469C199.027 147.213 198.179 148.056 196.883 149.443C196.277 150.091 195.671 150.733 195.065 151.376C194.674 151.809 194.253 152.214 193.805 152.587C192.127 153.989 190.542 155.498 189.061 157.107L186.305 159.985C185.78 160.627 185.117 161.142 184.366 161.493C184.057 161.554 183.948 161.384 183.372 161.778C182.548 162.341 182.209 162.384 181.985 162.256C181.906 162.214 181.737 162.256 181.494 162.396C180.283 163.177 180.234 162.862 180.943 161.742C181.32 161.125 181.646 160.478 181.918 159.809C182.218 159.199 182.629 158.65 183.13 158.191C183.679 157.617 184.193 157.01 184.669 156.374C185.15 155.728 185.743 155.174 186.42 154.738C186.692 154.55 186.917 154.441 187.201 154.229C187.422 154.065 187.625 153.878 187.807 153.672C188.641 152.693 189.555 151.785 190.54 150.958C190.618 150.885 190.752 150.8 190.77 150.812C191.23 151.055 192.69 149.6 193.92 148.468C194.768 147.686 195.616 146.802 196.465 145.959C196.962 145.445 197.495 144.965 198.058 144.524C199.003 143.899 199.795 143.071 200.378 142.1C201.032 141.098 201.868 140.229 202.844 139.537L203.159 139.277L203.086 139.313C203.641 138.947 204.117 138.473 204.486 137.92L204.45 137.987L207.479 134.8C207.86 134.417 208.218 134.013 208.551 133.588C208.998 133.037 209.476 132.511 209.981 132.013C210.884 131.098 211.695 130.347 212.18 130.286C212.328 130.24 212.469 130.172 212.598 130.086C213.045 129.809 213.452 129.472 213.81 129.087C214.809 128.014 215.797 126.991 216.912 125.967C217.518 125.403 218.123 124.707 218.729 124.07L221.613 120.884L223.067 119.296C223.315 119.036 223.57 118.775 223.836 118.515L224.242 118.121L224.733 117.661C225.454 116.994 226.223 116.17 226.987 115.389C228.429 113.91 229.852 112.529 230.531 112.184L230.47 112.638C230.428 112.929 230.41 113.432 230.386 113.85C230.337 114.716 230.446 115.873 230.573 115.898C230.701 115.922 230.695 115.667 230.749 115.673C230.913 115.673 231.022 116.637 230.991 117.776C230.961 118.915 230.925 120.151 230.894 121.35C230.894 121.956 230.894 122.562 230.894 123.131C230.894 124.949 230.894 126.706 230.81 128.457C230.889 129.908 230.871 131.364 230.755 132.813V132.704C230.707 133.243 230.634 133.77 230.622 134.333C230.622 135.515 230.622 136.714 230.622 137.908C230.622 138.647 230.622 139.435 230.622 140.125C230.51 141.876 230.51 143.633 230.622 145.384C230.735 146.965 230.703 148.553 230.525 150.128C230.355 151.582 230.41 153.284 230.361 154.871C230.361 155.011 230.361 155.162 230.361 155.308C230.489 156.975 230.489 158.65 230.361 160.318C230.344 160.724 230.373 161.13 230.446 161.529C230.489 161.748 230.531 161.954 230.567 162.19C230.657 162.651 230.622 163.128 230.464 163.571C230.258 164.103 230.183 164.676 230.246 165.243C230.301 166.879 230.307 168.472 230.246 170.12C230.192 171.265 230.198 172.489 230.186 173.677C230.174 174.864 230.24 175.185 230.543 175.597C230.692 176.029 230.728 176.492 230.646 176.942C230.61 177.16 230.561 177.33 230.513 177.518C230.328 178.055 230.328 178.64 230.513 179.178C230.592 179.62 230.646 180.129 230.689 180.698C230.476 180.947 230.234 181.213 229.962 181.492L229.259 182.213C227.762 183.679 226.296 185.157 224.885 186.666C224.491 187.084 224.049 187.538 223.63 187.914C222.31 189.125 221.074 190.41 219.789 191.646C218.905 192.459 218.12 193.374 217.451 194.372C217.342 194.542 217.215 194.723 217.063 194.923C216.809 195.253 216.514 195.548 216.185 195.802C214.732 196.866 213.37 198.049 212.113 199.34C211.926 199.522 211.768 199.734 211.592 199.946C211.762 199.837 211.92 199.752 212.107 199.606C212.295 199.461 212.501 199.328 212.477 199.443C212.404 199.549 212.318 199.647 212.223 199.734C211.011 200.891 209.854 201.866 208.684 202.854C208.281 203.176 207.939 203.568 207.673 204.011C207.63 204.084 207.57 204.175 207.503 204.265C207.175 204.718 206.787 205.126 206.352 205.477C205.746 205.98 205.14 206.404 204.534 206.895C203.785 207.422 203.15 208.096 202.668 208.876C202.514 209.127 202.334 209.36 202.129 209.573C202.02 209.694 201.893 209.809 201.766 209.93L201.239 210.384C200.764 210.775 200.309 211.19 199.875 211.626C199.27 212.329 198.615 213.002 197.967 213.644L196.01 215.54L189.855 221.72C189.152 222.428 188.377 223.234 187.91 223.616L187.577 223.889L187.401 224.034C187.359 224.07 187.365 224.034 187.341 224.034C187.262 224.033 187.184 224.047 187.11 224.076C186.897 224.169 186.694 224.285 186.505 224.422C186.014 224.743 185.426 225.191 184.851 225.633C184.608 225.818 184.403 226.046 184.245 226.306C184.188 226.385 184.123 226.459 184.051 226.524C183.856 226.679 183.654 226.825 183.445 226.96L181.519 228.081L180.731 226.99L181.373 226.554C182.775 225.524 184.233 224.573 185.741 223.707C186.323 223.361 186.842 222.919 187.274 222.398L189.189 220.06C189.302 219.92 189.45 219.813 189.619 219.751C189.71 219.751 189.734 219.799 189.728 219.908C189.691 220.35 189.788 220.629 190.049 220.696C190.125 220.71 190.203 220.71 190.279 220.696C190.325 220.701 190.372 220.701 190.418 220.696H190.358L189.928 220.859L189.049 221.174C187.88 221.605 186.686 222.029 185.487 222.441C185.117 222.695 185.057 222.283 184.881 222.077C184.805 221.959 184.738 221.836 184.681 221.708L184.742 221.041C184.79 220.593 184.832 220.151 184.881 219.696L184.917 219.363L187.71 216.764L193.435 211.463L194.12 210.857L194.423 210.572V210.518L194.465 210.409L194.538 210.191L194.696 209.748L194.847 209.312L194.926 209.094L194.883 208.936L194.544 207.725C194.496 207.525 194.423 207.301 194.393 207.119V205.865C194.393 204.756 194.435 203.647 194.459 202.557C194.496 201.073 194.508 199.606 194.496 198.116C194.535 197.403 194.434 196.689 194.199 196.014C194.106 195.793 194.029 195.567 193.969 195.335C193.893 194.966 193.893 194.584 193.969 194.215L194.344 193.172C194.37 193.067 194.386 192.96 194.393 192.851C194.373 192.763 194.349 192.676 194.32 192.591C194.222 192.425 194.139 192.251 194.072 192.07C193.813 191.104 193.683 190.108 193.684 189.107C193.654 187.762 193.647 186.423 193.726 185.139C193.726 184.721 193.793 184.291 193.787 183.861C193.787 182.837 193.647 181.765 193.738 180.789C193.817 180.032 193.963 179.481 194.053 178.747C194.09 178.328 194.09 177.907 194.053 177.487C193.932 176.348 193.763 175.579 193.478 175.839C193.332 175.973 193.211 175.524 193.187 175.064C193.163 174.688 193.194 174.31 193.278 173.943C193.369 173.66 193.428 173.367 193.454 173.071C193.434 171.854 193.521 170.637 193.714 169.436C193.764 169.034 193.784 168.629 193.775 168.224C193.775 167.485 193.726 166.752 193.696 166.013L193.666 165.346C193.672 165.29 193.672 165.233 193.666 165.177V165.104C193.651 165.008 193.651 164.909 193.666 164.813V164.643H193.272L192.163 164.674L188.734 164.783C188.286 164.783 187.825 164.74 187.819 164.637C187.819 164.347 187.335 164.135 185.893 164.032C184.881 163.947 184.445 163.753 184.257 163.541C184.069 163.329 183.56 163.038 182.385 162.874C182.088 162.832 181.9 162.729 181.876 162.65C181.809 162.432 181.325 162.25 180.913 162.044C180.501 161.838 180.604 161.59 181.579 161.439ZM210.532 131.813C210.372 131.975 210.222 132.147 210.084 132.328C210.05 132.382 210.025 132.441 210.011 132.504C210.135 132.473 210.252 132.42 210.357 132.346C210.524 132.193 210.673 132.02 210.799 131.831C210.95 131.607 210.775 131.607 210.532 131.813ZM230.792 124.507C230.792 123.786 230.792 123.065 230.792 122.78C230.792 121.296 230.792 120.472 230.713 118.951C230.682 118.539 230.64 118.345 230.573 118.485C230.535 118.575 230.51 118.671 230.501 118.769C230.47 119.096 230.44 119.424 230.41 119.763C230.38 120.102 230.367 120.369 230.343 120.66C230.307 121.232 230.307 121.807 230.343 122.38C230.386 123.071 230.392 123.822 230.44 124.488C230.467 124.773 230.526 125.053 230.616 125.325C230.695 125.506 230.785 125.009 230.792 124.507ZM183.015 224.767L182.815 224.967C182.361 225.419 181.875 225.838 181.361 226.221L181.076 226.427L181.01 226.482H180.973C180.973 226.482 180.973 226.518 180.973 226.53L181.131 226.748C181.337 227.027 181.525 227.305 181.7 227.578C181.89 227.44 182.093 227.32 182.306 227.221C182.369 227.191 182.428 227.154 182.482 227.112C182.553 227.065 182.622 227.015 182.688 226.96C182.845 226.827 182.967 226.7 182.924 226.688C182.78 226.681 182.638 226.726 182.524 226.815C182.326 226.939 182.138 227.079 181.961 227.233C181.821 227.021 181.658 226.803 181.482 226.578L181.288 226.324L181.185 226.203C181.185 226.167 181.234 226.154 181.252 226.13L181.561 225.876L182.658 224.949C182.93 224.791 183.051 224.7 183.015 224.767ZM195.235 199.722C195.201 199.809 195.183 199.901 195.18 199.994C195.116 201.14 195.116 202.289 195.18 203.435C195.188 203.546 195.209 203.656 195.241 203.763C195.307 203.938 195.362 203.823 195.374 203.46C195.374 202.89 195.374 202.315 195.374 201.933C195.338 201.151 195.314 200.57 195.289 199.994C195.307 199.885 195.253 199.709 195.235 199.722ZM194.314 173.719C194.199 173.598 194.078 174.161 194.126 174.731C194.155 175 194.204 175.268 194.271 175.53C194.393 175.53 194.465 175.125 194.465 174.67C194.487 174.346 194.435 174.021 194.314 173.719Z" fill="#D4DCFF"/>
</svg>
