<svg width="1505" height="355" viewBox="0 0 1505 355" fill="none" xmlns="http://www.w3.org/2000/svg">
<g opacity="0.15">
<path d="M1.47538 216.989C26.0318 201.766 52.0148 188.595 77.9027 175.831C144.82 142.824 214.176 114.694 284.931 91.0684C384.617 57.783 487.462 33.5255 591.747 20.2249C714.448 4.60115 839.261 4.27508 961.724 22.3171C1103.09 43.2192 1239.77 88.4566 1365.7 156.022C1382.16 164.853 1398.42 174.04 1414.49 183.581C1414.72 183.706 1414.99 183.735 1415.25 183.664C1415.5 183.592 1415.72 183.424 1415.85 183.196C1415.98 182.968 1416.02 182.698 1415.96 182.441C1415.9 182.185 1415.74 181.963 1415.51 181.822C1290.86 107.969 1154.24 55.521 1011.74 28.6549C887.872 5.29401 760.81 1.06882 635.412 13.2757C528.281 23.7097 422.386 45.8818 319.609 77.761C243.576 101.257 169.309 130.13 97.3712 164.16C75.1176 174.717 53.1017 185.789 31.4798 197.548C24.8906 201.134 18.3422 204.791 11.8346 208.518C8.60117 210.386 4.66805 212.071 1.76067 214.448C1.34914 214.735 0.920409 214.996 0.476842 215.23C-0.630406 215.909 0.388505 217.682 1.50934 216.989H1.47538Z" fill="#D9DEFF"/>
<path d="M48.0952 216.833C52.3544 212.913 56.892 209.279 61.4161 205.686C74.3567 195.408 87.8474 185.81 101.61 176.66C123.042 162.394 145.207 149.264 167.875 137.084C198.302 120.771 229.573 106.084 261.556 93.086C300.569 77.2231 340.464 63.626 381.044 52.3624C428.937 39.0686 477.606 28.7508 526.773 21.4681C583.898 13.0292 641.509 8.29821 699.245 7.30487C765.4 6.18193 831.557 9.35866 897.3 16.815C973.381 25.3265 1048.89 39.1569 1123.28 57.2941C1208.19 77.9921 1291.65 104.301 1373.44 134.985C1395.12 143.136 1416.68 151.569 1438.13 160.282C1439.34 160.771 1439.87 158.801 1438.67 158.312C1354.56 124.13 1268.66 94.2816 1181.1 70.1939C1104.7 49.1833 1027.06 32.5338 948.607 21.3187C881.147 11.5686 813.129 6.17289 744.975 5.1651C685.139 4.30485 625.309 7.33636 565.866 14.2405C514.556 20.2099 463.67 29.3893 413.507 41.7247C370.639 52.2806 328.432 65.3571 287.105 80.8859C253.252 93.6033 220.107 108.129 187.812 124.401C162.59 137.138 137.918 150.996 114.061 166.137C98.098 176.272 82.4674 186.964 67.4347 198.444C62.931 201.882 58.4748 205.387 54.1069 209.001C52.1166 210.645 48.9579 212.499 47.477 214.652C47.2275 214.925 46.9523 215.173 46.6551 215.393C45.6905 216.283 47.1306 217.716 48.0952 216.833Z" fill="#D9DEFF"/>
<path d="M30.6304 216.989C57.381 201.026 85.8094 187.521 114.082 174.526C187.839 140.609 264.402 112.711 342.406 90.294C452.451 58.6525 565.812 38.1447 680.089 30.5162C817.796 21.3254 956.745 31.1344 1091.41 61.6075C1166.88 78.7136 1240.78 102.097 1312.36 131.514C1329.78 138.673 1347.26 145.493 1363.15 155.724C1374.35 162.951 1384.88 171.13 1395.13 179.635C1415.07 196.142 1434.7 212.519 1457.79 224.529C1472.31 232.076 1487.56 238.034 1503.09 243.094C1504.34 243.502 1504.88 241.532 1503.64 241.131C1472.62 231.023 1444.18 216.643 1418.6 196.366C1398.71 180.606 1380.08 163.488 1358.29 150.289C1342.56 140.779 1324.75 134.346 1307.75 127.445C1289.08 119.864 1270.25 112.686 1251.27 105.911C1215.35 93.1086 1178.96 81.7983 1142.08 71.9803C1006.73 35.9777 866.216 21.0604 726.281 26.094C608.763 30.326 491.864 48.3748 378.198 78.3113C295.05 100.098 213.738 128.37 135.011 162.87C110.746 173.541 86.7333 184.838 63.1618 196.97C55.9613 200.67 48.8106 204.465 41.7097 208.355C38.3132 210.23 33.9182 211.928 30.9089 214.469C30.4761 214.767 30.022 215.032 29.5503 215.264C29.317 215.4 29.1477 215.625 29.0795 215.886C29.0114 216.148 29.05 216.426 29.1869 216.66C29.3239 216.893 29.5478 217.062 29.8096 217.13C30.0714 217.199 30.3496 217.16 30.5829 217.023L30.6304 216.989Z" fill="#D9DEFF"/>
<path d="M98.0098 200.285C121.901 187.569 146.878 176.673 171.774 166.11C236.293 138.849 302.441 115.616 369.836 96.5437C463.578 69.8746 559.583 50.902 656.593 41.419C769.926 30.333 884.795 32.2961 997.245 50.8952C1121.85 71.5049 1242.71 112.806 1353.01 174.527C1367.77 182.778 1382.32 191.382 1396.68 200.34L1397.71 198.58C1385.34 191.23 1372.37 184.777 1359.46 178.46C1324.5 161.475 1288.71 146.262 1252.22 132.879C1197.14 112.557 1140.81 95.7669 1083.58 82.6114C1012.37 66.1319 939.98 55.2279 867.072 49.9985C780.93 43.8667 694.402 45.8932 608.641 56.051C597.773 57.3417 586.931 58.7636 576.117 60.317C574.996 60.4732 575.247 62.4432 576.389 62.3141C592.882 60.4732 609.497 59.4746 626.058 58.5712C669.751 56.1936 713.552 55.6502 757.291 56.5944C819.838 57.8898 882.273 62.4905 944.335 70.3773C1017.27 79.7176 1089.7 93.8877 1160.35 114.205C1235.6 135.827 1309.02 164.473 1377.66 202.282C1386.31 207.042 1394.88 211.947 1403.36 216.996C1403.59 217.133 1403.87 217.172 1404.13 217.103C1404.4 217.035 1404.62 216.866 1404.76 216.633C1404.89 216.399 1404.93 216.121 1404.86 215.859C1404.8 215.598 1404.63 215.374 1404.39 215.237C1384.11 202.289 1362.33 191.393 1340.72 180.898C1284.06 153.387 1225.03 130.726 1164.85 112.161C965.961 50.9116 755.76 35.6076 550.093 67.402C411.436 88.7182 276.528 131.072 149.31 189.933C131.716 198.084 114.281 206.524 97.0045 215.25C95.8225 215.848 96.8618 217.539 98.037 217.01C123.47 205.55 149.752 195.782 175.966 186.292C242.461 162.294 310.198 141.886 378.884 125.156C473.781 101.964 570.445 85.5731 667.896 78.0261C777.419 69.5486 888.211 72.2725 996.586 91.0414C1112.15 111.067 1224.61 149.855 1325.5 210.156C1338.1 217.682 1350.51 225.528 1362.71 233.693L1363.74 231.934C1346.93 221.615 1328.81 213.138 1310.89 204.966C1262.09 182.712 1211.3 164.799 1159.75 150.14C1081.21 127.791 1000.53 113.139 919.282 105.239C811.995 94.8319 703.661 96.3059 596.536 108.071C462.716 122.764 330.933 153.428 203.382 196.393C185.553 202.398 167.8 208.643 150.125 215.128L150.913 216.989C175.504 206.345 200.841 197.256 226.118 188.418C290.796 165.88 356.583 146.661 423.221 130.834C515.252 108.873 608.879 93.154 703.185 85.5459C809.339 76.9732 916.721 78.6511 1022.04 95.253C1132.63 112.697 1240.84 147.042 1338.68 201.902C1351.04 208.84 1363.22 216.086 1375.22 223.639L1376.24 221.88C1359.23 212.66 1342.23 203.43 1325.23 194.192C1291.13 175.661 1257.06 157.082 1223.02 138.456C1196.3 123.81 1169.46 109.314 1143.06 94.0982C1140.87 92.8415 1137.95 90.233 1135.5 89.6149C1133.61 89.1326 1133.5 89.839 1135.1 91.1297C1137.82 93.317 1142.32 94.5941 1145.43 96.1565C1152.07 99.485 1158.67 102.875 1165.27 106.271C1232.76 141.017 1299.82 176.612 1366.93 212.064L1407.79 233.659C1408 233.782 1408.25 233.824 1408.5 233.776C1408.74 233.729 1408.95 233.595 1409.1 233.4C1409.25 233.206 1409.33 232.963 1409.32 232.717C1409.3 232.471 1409.2 232.239 1409.03 232.063C1405.11 228.055 1400.87 224.332 1396.69 220.644C1384.99 210.393 1372.73 200.788 1360.17 191.631C1340.44 177.289 1319.97 163.986 1298.85 151.777C1271.22 135.771 1242.67 121.408 1213.34 108.764C1177.69 93.3818 1141.08 80.3411 1103.74 69.7252C1059.71 57.232 1014.86 47.8728 969.509 41.7179C917.124 34.6372 864.289 31.411 811.431 32.0652C750.695 32.7444 690.055 38.1788 630.06 47.6345C559.624 58.7342 490.125 75.3497 421.951 96.2448C343.201 120.394 266.25 150.255 191.27 184.322C171.154 193.461 151.178 202.896 131.343 212.628C130.31 213.131 131.03 214.863 132.124 214.489C153.637 207.133 175.599 200.904 197.472 194.831C254.655 178.962 312.537 165.621 370.794 154.331C453.83 138.167 537.714 126.709 622.044 120.013C719.067 112.453 816.763 111.631 913.766 119.966C1016.74 128.797 1119.15 148.102 1217.03 181.652C1229.19 185.823 1241.27 190.211 1253.26 194.817L1253.8 192.854C1236.47 187.352 1218.76 182.916 1201.11 178.589C1153.18 166.871 1104.65 157.531 1055.91 149.943C984.12 138.802 911.784 131.527 839.214 128.151C748.577 123.835 657.75 125.783 567.381 133.98C464.692 143.401 362.724 161.226 263.153 188.16C249.744 191.783 236.384 195.576 223.075 199.538C221.818 199.905 222.354 201.875 223.611 201.501C324.873 171.497 428.819 150.935 533.79 139.414C625.018 129.49 716.833 126.01 808.551 129C884.185 131.379 959.628 137.987 1034.52 148.795C1085.99 156.267 1137.22 165.628 1187.85 177.522C1202.79 181.021 1217.62 184.743 1232.4 188.785C1236.86 190.008 1241.31 191.267 1245.76 192.562C1247.71 193.132 1250.38 194.518 1252.43 194.559C1252.71 194.614 1252.99 194.7 1253.26 194.817C1254.53 195.225 1255 193.316 1253.79 192.854C1157.29 155.866 1055.74 133.382 953.165 121.834C854.668 110.748 755.226 109.559 656.382 115.591C570.343 120.842 484.65 131.561 399.827 146.839C337.227 158.115 275.154 171.941 213.605 188.316C194.952 193.298 176.384 198.585 157.903 204.178C152.356 205.862 146.822 207.583 141.301 209.34C139.114 210.02 134.42 210.611 132.667 212.159C132.334 212.332 131.977 212.453 131.608 212.519L132.389 214.381C209.692 176.53 289.088 142.851 370.576 115.034C439.559 91.4965 510.028 72.1435 581.592 58.2315C644.039 46.0926 707.322 38.1244 770.877 35.2442C825.175 32.6892 879.587 34.1173 933.676 39.517C981.004 44.262 1027.93 52.4166 1074.08 63.9172C1113.21 73.6752 1151.64 86.0318 1189.12 100.905C1220.27 113.273 1250.65 127.515 1280.09 143.551C1302.99 156.006 1325.21 169.67 1346.66 184.485C1361.21 194.572 1375.39 205.224 1388.93 216.622C1393.01 220.069 1397.03 223.592 1401.01 227.192C1402.52 228.551 1405.02 232.11 1406.95 232.817C1407.19 232.898 1407.48 233.34 1407.67 233.537L1408.91 231.934C1331.53 191.047 1254.26 150.052 1176.59 109.844C1163.95 103.303 1151.36 96.598 1138.51 90.498C1137.63 90.0768 1134.64 88.0593 1133.55 88.6163C1131.34 89.7507 1134.43 91.3335 1135.35 91.9381C1157.22 106.02 1180.98 117.71 1203.76 130.23C1239.21 149.703 1274.71 169.092 1310.26 188.398C1324.34 196.047 1338.42 203.693 1352.49 211.337L1366.76 219.075C1369.1 220.338 1371.71 222.335 1374.23 223.15C1374.58 223.298 1374.92 223.478 1375.23 223.687C1375.46 223.812 1375.74 223.841 1375.99 223.769C1376.24 223.697 1376.46 223.53 1376.59 223.302C1376.72 223.074 1376.76 222.803 1376.7 222.547C1376.64 222.291 1376.48 222.069 1376.26 221.928C1280.44 161.695 1173.15 121.976 1062.27 100.3C956.902 79.704 848.833 74.8335 741.783 80.8724C645.445 86.2931 549.665 100.497 455.454 121.324C383.829 137.129 313.113 156.8 243.616 180.253C222.291 187.458 201.113 195.075 180.082 203.104C173.706 205.559 167.35 208.061 161.014 210.611C157.917 211.867 153.977 212.852 151.158 214.686C150.747 214.9 150.32 215.082 149.881 215.23C148.835 215.685 149.582 217.492 150.669 217.091C280.76 169.473 415.512 134.17 552.871 115.476C662.387 100.572 773.452 96.238 883.728 104.26C968.579 110.428 1052.98 123.885 1135.28 145.555C1190.61 160.119 1245.15 178.31 1297.63 201.257C1312.76 207.873 1327.72 214.89 1342.38 222.485C1346.76 224.76 1351.12 227.077 1355.42 229.481C1357.41 230.589 1359.74 232.559 1361.92 233.211C1362.21 233.344 1362.49 233.508 1362.74 233.7C1363.87 234.379 1364.85 232.667 1363.77 231.94C1265.48 166.375 1154.61 121.895 1039.24 97.2298C930.545 73.964 818.665 67.6601 707.832 73.4069C608.309 78.5288 509.342 93.2831 412.169 115.211C338.358 131.854 265.555 152.692 194.116 177.624C172.008 185.377 150.064 193.556 128.286 202.16C121.67 204.791 115.08 207.484 108.518 210.237C105.638 211.453 100.679 212.533 98.3291 214.625C97.9028 214.877 97.4463 215.073 96.9705 215.209L98.003 216.969C226.525 152.157 363.321 103.724 504.92 77.1702C715.229 37.4353 931.912 47.3818 1137.7 106.217C1201.94 124.605 1264.98 147.613 1325.53 175.919C1343.58 184.356 1361.41 193.261 1378.88 202.833C1384.09 205.686 1389.26 208.604 1394.39 211.589C1396.52 212.839 1399.96 215.984 1402.41 216.405C1402.76 216.554 1403.08 216.756 1403.36 217.003L1404.39 215.243C1337.14 175.301 1264.78 144.522 1190.24 121.073C1119.1 98.697 1045.96 82.8831 972.186 72.1638C908.586 62.9953 844.528 57.3395 780.306 55.2223C733.373 53.6259 686.366 53.755 639.461 55.9016C625.196 56.5809 610.931 57.3892 596.713 58.4897C592.456 58.8248 588.197 59.1848 583.936 59.5697C582.407 59.7056 578.501 59.3524 577.231 60.249C576.957 60.3245 576.672 60.3544 576.389 60.3373L576.66 62.3413C663.48 49.9842 751.284 45.9806 838.868 50.3857C973.79 57.2906 1107.01 83.6335 1234.41 128.6C1273.59 142.375 1312.04 158.181 1349.58 175.953C1360.39 181.109 1371.11 186.448 1381.68 192.059C1384.89 193.764 1388.09 195.49 1391.26 197.262C1392.62 198.016 1394.51 199.647 1396.02 199.98C1396.24 200.074 1396.45 200.198 1396.64 200.346C1396.87 200.471 1397.15 200.501 1397.4 200.429C1397.65 200.357 1397.87 200.189 1398 199.961C1398.14 199.733 1398.18 199.463 1398.11 199.207C1398.05 198.95 1397.89 198.728 1397.67 198.587C1288.21 130.508 1167.14 82.6997 1040.84 56.8865C927.787 33.7906 811.587 27.9419 696.583 36.0186C596.93 43.0222 498.039 60.2626 401.511 85.7429C329.39 104.713 258.581 128.357 189.531 156.525C168.432 165.152 147.503 174.187 126.859 183.874C120.46 186.867 114.091 189.926 107.751 193.051C104.714 194.559 100.958 195.856 98.2 197.887C97.807 198.127 97.3985 198.34 96.9773 198.526C95.8225 199.144 96.8482 200.904 98.0098 200.285Z" fill="#D9DEFF"/>
<path d="M261.76 201.222C278.525 196.556 295.535 192.684 312.517 188.9C357.887 178.799 403.651 170.45 449.598 163.474C516.246 153.357 583.27 146.277 650.669 142.233C730.778 137.478 811.213 137.247 891.309 142.525C979.372 148.333 1067.12 160.866 1152.84 182.141C1163.33 184.75 1173.8 187.489 1184.23 190.361L1184.78 188.397C1170.02 184.96 1155.09 182.243 1140.18 179.567C1099.61 172.346 1058.76 166.66 1017.81 162.136C956.781 155.343 895.532 151.111 834.065 149.44C757.618 147.241 681.108 149.098 604.858 155.003C519.267 161.701 433.981 173.745 350.028 191.923C339.249 194.26 328.496 196.696 317.768 199.232C316.491 199.531 317.027 201.494 318.305 201.195C403.522 181.088 490.166 167.387 577.346 159.378C654.366 152.384 731.708 149.568 809.033 150.941C872.085 152.001 935.017 155.714 997.829 162.082C1041.68 166.538 1085.41 172.271 1128.86 179.689C1141.46 181.842 1154.03 184.131 1166.57 186.638C1172 187.725 1177.97 189.878 1183.51 190.211C1183.74 190.247 1183.96 190.299 1184.19 190.367C1184.44 190.43 1184.72 190.391 1184.94 190.257C1185.17 190.123 1185.34 189.905 1185.41 189.65C1185.48 189.394 1185.45 189.121 1185.32 188.889C1185.2 188.656 1184.98 188.482 1184.73 188.404C1099.93 165.091 1012.87 150.629 925.307 143.082C843.602 136.044 761.421 134.978 679.512 138.693C610.093 141.864 540.934 148.349 472.035 158.148C422.787 165.098 373.728 173.63 325.07 184.077C310.547 187.197 296.055 190.51 281.595 194.015C275.298 195.557 268.01 196.495 262.011 199.028C261.74 199.123 261.464 199.2 261.183 199.259C260.93 199.337 260.717 199.511 260.59 199.744C260.462 199.976 260.431 200.249 260.502 200.505C260.572 200.76 260.74 200.978 260.968 201.112C261.197 201.246 261.469 201.286 261.726 201.222H261.76Z" fill="#D9DEFF"/>
<path d="M1165.78 199.259C1149.77 196.203 1133.64 193.71 1117.55 191.285C1075.19 184.899 1032.68 179.639 990.01 175.505C928.602 169.432 867.026 165.49 805.283 163.678C733.074 161.64 660.743 162.714 588.684 167.91C513.425 173.344 438.329 183.228 364.68 199.837C355.691 201.839 346.726 203.972 337.787 206.236C336.516 206.555 337.053 208.518 338.323 208.206C412.366 189.749 488.006 178.439 563.957 171.918C636.234 165.716 708.864 163.841 781.386 165.179C844.216 166.343 906.937 169.823 969.55 175.62C1015.08 179.773 1060.48 185.101 1105.76 191.604C1119.23 193.569 1132.67 195.662 1146.1 197.881C1152.1 198.886 1158.39 200.686 1164.44 201.1C1164.7 201.132 1164.95 201.179 1165.21 201.243C1166.48 201.488 1167.03 199.524 1165.74 199.28L1165.78 199.259Z" fill="#D9DEFF"/>
<path d="M355.034 217.104C368.267 214.014 381.628 211.412 394.976 208.858C430.415 202.065 466.064 196.379 501.822 191.522C553.123 184.553 604.636 179.449 656.362 176.211C716.819 172.489 777.541 171.456 838.093 174.058C902.388 176.775 966.636 183.568 1029.75 196.291C1037.45 197.844 1045.13 199.493 1052.78 201.236C1054.06 201.528 1054.61 199.558 1053.33 199.273C990.669 185.069 926.707 177.053 862.609 173.263C801.201 169.629 739.582 169.866 678.16 172.957C624.722 175.647 571.441 180.432 518.316 187.311C480.352 192.17 442.538 198.057 404.874 204.972C393.434 207.083 382.018 209.318 370.624 211.677C365.604 212.723 360.006 213.314 355.156 215.026C354.944 215.089 354.729 215.139 354.511 215.175C353.234 215.474 353.777 217.437 355.054 217.138L355.034 217.104Z" fill="#D9DEFF"/>
<path d="M521.182 200.129C513.859 201.243 506.537 202.371 499.255 203.729V203.743C497.971 203.981 497.427 202.018 498.718 201.78C500.477 201.447 502.237 201.148 504.003 200.849C517.799 198.492 531.657 196.488 545.535 194.647C570.714 191.341 595.945 188.597 621.229 186.414C655.121 183.48 689.049 181.539 723.014 180.593C763.031 179.479 803.089 179.757 843.072 181.686C885.881 183.745 928.622 187.691 971.024 193.995C976.558 194.819 982.085 195.684 987.605 196.59C992.816 197.432 998.27 197.983 1003.38 199.307C1004.9 199.725 1006.39 200.247 1007.84 200.87C1009.05 201.338 1011.92 202.459 1010.84 204.266C1009.93 205.774 1006.73 205.625 1005.28 205.706C1001.26 205.954 997.212 205.832 993.196 205.712L993.013 205.706C978.598 205.251 964.19 204.252 949.803 203.308C929.016 201.943 908.244 200.523 887.457 199.165C862.914 197.589 838.365 196.142 813.795 194.98C787.859 193.764 761.91 192.813 735.948 192.406C710.963 192.012 685.958 192.093 660.988 193.126C639.474 194.009 617.948 195.517 596.679 198.825C588.275 200.02 579.946 201.698 571.735 203.852C571.654 203.875 571.573 203.897 571.492 203.921C573.98 204.335 576.814 204.308 579.377 204.395C585.328 204.592 591.285 204.592 597.229 204.592C615.652 204.538 634.067 204.198 652.483 203.913L652.496 203.913C672.798 203.599 693.1 203.285 713.405 203.064C720.286 202.528 727.176 202.098 734.073 201.773C779.986 199.423 826.083 200.673 871.895 204.361C880.272 205.036 888.659 205.758 897.037 206.589C908.916 207.549 920.771 208.864 932.494 210.923C933.776 211.151 933.235 213.036 931.998 212.893L931.992 212.913C931.693 212.861 931.395 212.809 931.096 212.758C921.473 211.322 911.8 210.148 902.11 209.134C881.886 207.276 861.567 206.407 841.272 205.781C815.676 205.013 789.985 204.803 764.458 204.816C746.855 204.826 729.253 204.958 711.651 205.155C694.649 206.499 677.7 208.475 660.838 211.079C640.704 214.326 620.923 219.048 601.223 224.21L600.997 224.27C596.746 225.384 592.508 226.495 588.317 227.77C588.05 227.849 587.784 227.93 587.517 228.011C590.196 227.808 592.868 227.495 595.531 227.192C622.506 224.108 649.379 220.406 676.367 217.567C712.92 213.715 749.683 210.685 786.46 210.645C802.858 210.624 819.29 211.174 835.593 213.267C849.682 215.08 863.723 217.899 877.662 220.617C878.287 220.739 884.149 221.636 881.547 223.395C880.99 223.769 879.937 223.558 879.319 223.558C877.818 223.504 876.324 223.395 874.822 223.3C860.306 222.356 845.789 221.459 831.246 220.943C777.473 219.054 723.326 220.848 670.145 229.244C652.422 232.042 634.76 235.629 617.289 239.705L617.116 239.745C613.79 240.527 610.446 241.312 607.188 242.347C606.871 242.449 606.54 242.56 606.219 242.673C606.64 242.696 607.077 242.714 607.391 242.714C610.36 242.775 613.342 242.639 616.311 242.497C626.418 242.021 636.513 241.226 646.607 240.459C677.087 238.136 707.553 235.656 738.067 233.815C769.552 231.92 801.187 230.324 832.727 231.363C844.193 231.743 855.741 232.43 867.038 234.522C871.16 235.203 875.242 236.11 879.265 237.239C880.61 237.647 883.11 238.176 883.789 239.63C885.413 243.23 874.707 243.468 873.185 243.604C862.751 244.555 852.229 244.732 841.754 244.963C809.345 245.683 776.923 245.818 744.514 246.702C713.742 247.523 682.521 248.203 652.048 252.958C646.772 253.778 641.539 254.835 636.35 256.13C633.833 256.672 631.35 257.357 628.914 258.184C631.439 258.23 633.966 258.159 636.486 257.971C664.839 256.551 693.118 253.977 721.499 252.849C739.5 252.129 757.529 251.776 775.544 252.258C791.263 252.679 807.09 253.63 822.585 256.449C828.923 257.58 835.162 259.206 841.245 261.313C846 262.971 851.163 264.506 855.51 267.101C857.032 268.025 858.988 270.028 856.352 271.122C853.717 272.216 849.919 271.652 847.202 271.536C832.862 270.912 818.597 269.295 804.332 268.14C784.517 266.544 764.655 265.246 744.765 265.117C725.921 265.022 707.39 266.299 688.879 269.872C685.748 270.484 682.61 271.102 679.526 271.91C679.288 271.974 678.381 272.266 677.536 272.555C677.601 272.575 677.667 272.595 677.732 272.617C679.861 272.92 682.003 273.115 684.152 273.201C701.467 274.254 718.829 274.457 736.151 275.531C758.609 276.923 781.229 279.022 803.204 284.036C809.848 285.55 816.668 286.875 823.135 289.062C823.957 289.341 825.458 289.674 825.906 290.543C826.518 291.678 825.492 292.262 824.548 292.479C820.778 293.342 816.131 292.506 812.321 292.316C804.352 291.922 796.391 291.46 788.423 291.107C768.099 290.217 747.645 289.776 727.341 291.399C716.922 292.276 706.574 293.864 696.372 296.154C693.377 296.81 690.549 297.783 687.638 298.625C688.063 298.784 688.526 298.992 688.716 299.034C696.521 300.807 704.931 300.814 712.879 301.378C725.833 302.288 738.74 303.212 751.646 304.523C774.335 306.826 797.356 309.998 819.467 315.711C822.249 316.385 824.989 317.222 827.673 318.218C829.004 318.741 830.675 319.311 831.674 320.391C834.228 323.17 829.364 324.419 827.469 324.746C819.786 326.063 811.743 325.819 803.992 325.737C790.828 325.608 777.69 324.827 764.532 324.515C755.199 324.297 745.845 324.223 736.518 324.623C731.471 324.841 726.01 324.868 721.119 326.301C720.75 326.416 720.332 326.669 719.956 326.788C720.058 326.85 720.162 326.908 720.27 326.96C720.86 327.251 721.473 327.492 722.104 327.68C727.939 329.596 734.263 330.295 740.309 331.077C766.509 334.466 792.954 335.247 819.249 337.632C828.759 338.501 838.338 339.459 847.78 341.028C852.005 341.762 857.032 342.285 860.836 344.425C862.833 345.552 863.288 347.488 861.141 348.772C857.969 350.667 853.547 350.993 849.987 351.489C838.654 353.077 827.208 353.667 815.75 354.114H776.75L785.162 353.561C805.46 352.291 825.913 352.345 846.136 350.015C850.463 349.485 855.381 349.187 859.457 347.448C859.844 347.285 860.428 346.897 860.618 346.816C860.648 346.804 860.673 346.793 860.694 346.783C860.52 346.641 860.338 346.509 860.15 346.388C859.609 346.081 859.04 345.826 858.451 345.627C853.207 343.711 847.393 343.046 841.904 342.278C831.028 340.716 820.071 339.744 809.128 338.882C783.994 336.891 758.684 336.11 733.726 332.252C729.182 331.552 723.795 331.077 719.624 328.944C717.423 327.816 717.24 325.839 719.624 324.82C723.476 323.176 728.394 323.176 732.47 322.911C740.968 322.368 749.5 322.348 758.004 322.456C770.857 322.619 783.688 323.36 796.534 323.672C805.854 323.89 815.323 324.189 824.609 323.21C826.501 322.93 828.375 322.535 830.22 322.028C830.278 322.016 830.326 322.004 830.366 321.993C830.157 321.815 829.864 321.533 829.575 321.349C827.876 320.283 825.777 319.705 823.882 319.121C820.54 318.088 817.123 317.253 813.693 316.472C789.299 310.942 764.349 307.641 739.439 305.508C727.524 304.489 715.589 303.755 703.661 302.832C699.864 302.533 696.066 302.234 692.289 301.745C690.367 301.514 687.827 301.425 686.115 300.386C681.837 297.799 690.78 295.552 692.057 295.231L692.059 295.23C701.881 292.765 711.871 291.021 721.947 290.013C742.326 287.921 762.936 288.213 783.39 289.008C791.276 289.316 799.157 289.733 807.043 290.151L808.428 290.224C812.784 290.451 817.213 290.867 821.582 290.779C820.966 290.594 820.348 290.419 819.732 290.245L819.609 290.21C811.315 287.921 802.865 285.978 794.421 284.355C772.052 280.055 749.221 278.295 726.492 277.141C711.031 276.346 695.394 276.55 679.974 275.028C678.772 274.913 672.93 274.709 674.431 272.087C674.974 271.129 676.571 270.782 677.515 270.49C680.074 269.743 682.67 269.126 685.293 268.643C703.116 265.048 721.251 263.228 739.432 263.208C759.458 263.113 779.477 264.288 799.434 265.83C814.589 267.006 829.751 268.649 844.947 269.485C848.227 269.662 851.818 270.075 855.081 269.486C854.282 269.036 853.254 268.226 852.569 267.909C841.129 262.556 828.651 259.384 816.199 257.529C799.978 255.118 783.498 254.432 767.12 254.235C749.078 254.004 731.036 254.52 713.022 255.363C697.072 256.103 681.095 257.135 665.145 258.236C654.432 258.99 643.706 259.914 632.974 260.274C630.847 260.349 628.171 260.722 626.092 260.111C624.285 259.574 624.564 258.053 626.018 257.285C628.592 255.92 631.798 255.369 634.59 254.656C639.603 253.379 644.651 252.279 649.759 251.443C679.784 246.505 710.61 245.784 740.961 244.908C773.662 243.964 806.377 243.808 839.085 243.128C849.974 242.904 860.904 242.721 871.772 241.872C874.657 241.735 877.528 241.378 880.359 240.805C880.733 240.703 881.123 240.516 881.47 240.364C881.045 240.152 880.505 239.88 880.196 239.773C878.837 239.284 877.479 238.944 876.12 238.604L876.12 238.604C871.535 237.49 866.861 236.566 862.188 235.887C850.144 234.046 837.862 233.591 825.689 233.367C793.626 232.769 761.516 234.495 729.528 236.532C699.816 238.428 670.145 240.9 640.459 243.108C631.187 243.801 621.901 244.535 612.608 244.833C611.345 244.881 601.842 245.907 602.602 242.843C602.922 241.546 605.211 241.043 606.25 240.697C609.243 239.695 612.336 238.958 615.415 238.225L615.76 238.142C632.512 234.155 649.494 230.731 666.476 227.953C719.848 219.238 774.253 217.2 828.25 218.959C841.366 219.385 854.46 220.104 867.553 220.937C854.539 218.487 841.507 215.945 828.332 214.625C811.37 212.913 794.265 212.649 777.228 212.913C740.546 213.491 703.98 216.711 667.577 220.719C642.287 223.497 617.092 227.165 591.781 229.808C589.354 230.148 586.909 230.346 584.458 230.398C583.283 230.385 580.94 229.909 582.298 228.232C583.222 227.084 585.742 226.683 587.053 226.268C590.889 225.044 594.781 224.016 598.669 222.989L599.111 222.872C618.355 217.791 637.668 213.083 657.313 209.802C667.746 208.103 678.216 206.65 688.714 205.443C688.434 205.447 688.154 205.451 687.874 205.455C666.116 205.747 644.338 206.148 622.601 206.426C608.336 206.582 594.07 206.868 579.805 206.426C576.585 206.338 573.114 206.399 569.956 205.659C568.155 205.237 567.062 203.675 569.1 202.588C570.506 201.868 572.292 201.603 573.8 201.23C578.032 200.217 582.305 199.314 586.585 198.512C596.054 196.746 605.564 195.442 615.074 194.403C637.749 191.923 660.505 190.884 683.262 190.429C708.749 189.919 734.229 190.225 759.696 190.904C785.495 191.604 811.275 192.786 837.047 194.145C860.7 195.422 884.339 196.916 907.972 198.485C926.972 199.749 945.951 201.087 964.971 202.255C977.029 203.003 989.147 203.886 1001.24 203.818C1003.62 203.901 1006 203.744 1008.35 203.351C1008.13 203.231 1007.9 203.117 1007.67 203.009C1006.37 202.448 1005.03 201.96 1003.67 201.549C1000.1 200.408 996.137 200.082 992.442 199.457C986.922 198.524 981.392 197.632 975.854 196.78C954.012 193.456 932.1 190.721 910.118 188.574C868.349 184.505 826.402 182.454 784.449 182.06C747.002 181.729 709.598 182.635 672.237 184.777C641.995 186.493 611.827 189 581.734 192.297C561.505 194.511 541.303 197.072 521.182 200.129Z" fill="#D9DEFF"/>
</g>
<g opacity="0.43">
<path d="M1.85583 212.451C26.4191 197.228 52.4021 184.057 78.2831 171.286C145.2 138.286 214.556 110.15 285.318 86.5308C385.004 53.2386 487.849 28.9811 592.135 15.6873C714.835 0.0635343 839.649 -0.262515 962.105 17.7795C1103.48 38.6784 1240.16 83.916 1366.09 151.485C1382.55 160.316 1398.81 169.5 1414.87 179.037C1415.11 179.162 1415.38 179.191 1415.63 179.119C1415.89 179.047 1416.1 178.88 1416.24 178.652C1416.37 178.424 1416.41 178.153 1416.35 177.897C1416.28 177.641 1416.12 177.419 1415.9 177.278C1291.23 103.432 1154.57 50.9766 1012.11 24.1173C888.239 0.756416 761.183 -3.46878 635.786 8.73812C528.655 19.1721 422.76 41.3442 319.982 73.2234C243.94 96.7188 169.665 125.591 97.7177 159.623C75.4641 170.179 53.4549 181.251 31.8262 193.01C25.2371 196.588 18.6887 200.244 12.1811 203.981C8.94087 205.842 5.00775 207.533 2.10716 209.904C1.69739 210.195 1.26845 210.458 0.82329 210.692C-0.290751 211.371 0.734988 213.144 1.84903 212.451H1.85583Z" fill="#B6B6FF"/>
<path d="M48.469 212.288C52.7214 208.376 57.2659 204.741 61.79 201.148C74.6965 190.863 88.2213 181.272 101.977 172.115C123.409 157.85 145.581 144.726 168.249 132.539C198.675 116.231 229.943 101.547 261.923 88.5483C300.938 72.6864 340.836 59.0892 381.418 47.8246C429.311 34.5357 477.98 24.2202 527.147 16.9372C584.269 8.50075 641.879 3.77204 699.612 2.78069C765.769 1.65774 831.929 4.83447 897.674 12.2908C973.755 20.8023 1049.26 34.6328 1123.65 52.7699C1208.57 73.468 1292.02 99.777 1373.82 130.454C1395.5 138.605 1417.06 147.04 1438.5 155.758C1439.72 156.247 1440.25 154.277 1439.04 153.788C1354.93 119.606 1269.02 89.7574 1181.46 65.6697C1105.07 44.6523 1027.43 28.0096 948.981 16.7945C881.534 7.15534 813.489 1.51042 745.349 0.620542C685.513 -0.240109 625.683 2.79142 566.24 9.69591C514.927 15.6681 464.039 24.8498 413.875 37.1869C371.001 47.7393 328.789 60.8159 287.458 76.3482C253.608 89.0687 220.463 103.592 188.166 119.857C162.95 132.6 138.278 146.458 114.422 161.599C98.4514 171.735 82.8277 182.427 67.7949 193.9C63.2912 197.344 58.8282 200.849 54.4604 204.463C52.47 206.107 49.3113 207.961 47.8305 210.115C47.585 210.387 47.3118 210.633 47.0153 210.848C46.0507 211.738 47.4908 213.178 48.4554 212.288H48.469Z" fill="#B6B6FF"/>
<path d="M30.9976 212.451C57.7549 196.481 86.1834 182.983 114.449 169.988C188.206 136.071 264.776 108.173 342.78 85.7561C452.825 54.1214 566.179 33.6068 680.463 25.9783C818.163 16.7875 957.112 26.5965 1091.78 57.0696C1167.25 74.1714 1241.16 97.5526 1312.73 126.969C1330.15 134.122 1347.64 140.949 1363.51 151.179C1374.73 158.407 1385.25 166.585 1395.51 175.09C1415.44 191.597 1435.07 207.975 1458.17 219.984C1472.68 227.531 1487.93 233.482 1503.47 238.55C1504.72 238.957 1505.25 236.987 1504.01 236.58C1472.99 226.479 1444.55 212.125 1418.96 191.821C1399.08 176.061 1380.45 158.943 1358.66 145.738C1342.93 136.228 1325.13 129.801 1308.12 122.9C1289.45 115.319 1270.62 108.141 1251.63 101.366C1215.73 88.5593 1179.33 77.2491 1142.44 67.4356C1007.11 31.433 866.569 16.4886 726.669 21.5629C609.151 25.7949 492.251 43.8437 378.585 73.7802C295.449 95.5656 214.149 123.836 135.432 158.332C111.161 169.003 87.1548 180.3 63.5765 192.432C56.3805 196.137 49.2321 199.932 42.1312 203.817C38.7347 205.692 34.3397 207.384 31.3236 209.897C30.8919 210.196 30.4376 210.462 29.965 210.692C29.7421 210.833 29.5825 211.055 29.5199 211.311C29.4573 211.568 29.4966 211.838 29.6295 212.066C29.7624 212.294 29.9785 212.462 30.2324 212.533C30.4863 212.605 30.7582 212.576 30.9908 212.451H30.9976Z" fill="#B6B6FF"/>
<path d="M98.3767 195.747C122.274 183.031 147.286 172.135 172.141 161.572C236.66 134.31 302.807 111.077 370.203 92.0056C463.945 65.3366 559.957 46.3639 656.96 36.881C770.3 25.7949 885.202 27.7581 997.619 46.3571C1122.23 66.9669 1243.08 108.268 1353.38 169.989C1368.14 178.235 1382.7 186.84 1397.05 195.802L1398.1 194.008C1385.73 186.652 1372.77 180.205 1359.84 173.888C1324.89 156.904 1289.1 141.691 1252.62 128.307C1197.53 107.986 1141.2 91.1957 1083.98 78.0394C1012.75 61.5693 940.355 50.6789 867.439 45.4672C781.299 39.3322 694.773 41.3587 609.015 51.5197C598.146 52.8104 587.305 54.2324 576.491 55.7857C575.363 55.9419 575.621 57.9119 576.762 57.7828C593.255 55.9419 609.871 54.9434 626.432 54.0399C670.124 51.6624 713.925 51.119 757.665 52.0632C820.203 53.3553 882.628 57.9514 944.681 65.8325C1017.62 75.1727 1090.05 89.3428 1160.7 109.66C1235.93 131.282 1309.37 159.928 1378.01 197.738C1386.66 202.493 1395.22 207.397 1403.71 212.451C1403.94 212.576 1404.21 212.605 1404.47 212.533C1404.72 212.462 1404.94 212.294 1405.07 212.066C1405.2 211.838 1405.24 211.567 1405.18 211.311C1405.11 211.055 1404.96 210.833 1404.73 210.692C1384.46 197.744 1362.67 186.849 1341.06 176.353C1284.4 148.842 1225.37 126.181 1165.2 107.616C966.307 46.3687 756.107 31.0624 550.44 62.8504C411.803 84.1666 276.895 126.534 149.657 185.368C132.067 193.519 114.632 201.961 97.351 210.692C96.1622 211.29 97.2015 212.981 98.3767 212.451C123.816 200.991 150.098 191.216 176.305 181.733C242.803 157.747 310.543 137.355 379.231 120.645C474.128 97.4536 570.791 81.0554 668.243 73.5153C777.765 65.0309 888.558 67.7616 996.926 86.5305C1112.53 106.556 1224.98 145.337 1325.87 205.638C1338.47 213.169 1350.88 221.017 1363.08 229.182L1364.11 227.423C1347.3 217.104 1329.17 208.62 1311.26 200.455C1262.46 178.201 1211.68 160.302 1160.12 145.629C1081.59 123.28 1000.91 108.621 919.649 100.728C812.355 90.3006 704.021 91.795 596.897 103.56C463.076 118.254 331.252 148.917 203.742 191.869C185.904 197.878 168.151 204.125 150.485 210.61L151.267 212.471C175.857 201.827 201.201 192.772 226.478 183.9C291.157 161.348 356.946 142.117 423.588 126.283C515.619 104.342 609.253 88.616 703.586 81.0011C809.74 72.4148 917.122 74.1063 1022.45 90.715C1133.05 108.152 1241.25 142.504 1339.1 197.398C1351.46 204.336 1363.63 211.582 1375.62 219.135L1376.66 217.376C1359.64 208.16 1342.63 198.931 1325.64 189.688C1291.54 171.157 1257.47 152.59 1223.44 133.986C1196.71 119.34 1169.87 104.844 1143.46 89.6281C1141.28 88.3714 1138.35 85.7629 1135.91 85.138C1134.01 84.6625 1133.91 85.3689 1135.51 86.6528C1138.23 88.8401 1142.74 90.124 1145.85 91.6864C1152.48 95.0149 1159.09 98.4046 1165.68 101.801C1233.17 136.547 1300.22 172.142 1367.34 207.594C1380.96 214.786 1394.59 221.984 1408.2 229.189C1408.42 229.3 1408.66 229.333 1408.9 229.282C1409.13 229.23 1409.34 229.098 1409.49 228.908C1409.64 228.717 1409.71 228.482 1409.7 228.241C1409.69 228.001 1409.6 227.771 1409.44 227.593C1405.53 223.585 1401.29 219.855 1397.1 216.174C1385.41 205.923 1373.15 196.318 1360.58 187.154C1340.84 172.817 1320.38 159.514 1299.27 147.3C1271.63 131.299 1243.07 116.937 1213.75 104.287C1178.1 88.906 1141.49 75.8676 1104.15 65.2551C1060.13 52.7625 1015.27 43.4033 969.924 37.2478C917.526 30.1437 864.678 26.8925 811.805 27.5203C751.069 28.1996 690.422 33.6339 630.433 43.0965C559.997 54.1962 490.499 70.8117 422.325 91.7067C343.574 115.89 266.624 145.717 191.678 179.777C171.562 188.92 151.588 198.358 131.757 208.09C130.725 208.593 131.445 210.325 132.538 209.951C154.052 202.595 176.013 196.365 197.886 190.293C255.063 174.424 312.952 161.083 371.208 149.793C454.243 133.622 538.128 122.164 622.458 115.475C719.475 107.908 817.171 107.093 914.167 115.428C1017.13 124.258 1119.55 143.564 1217.43 177.114C1229.58 181.285 1241.66 185.673 1253.66 190.279L1254.2 188.316C1236.87 182.807 1219.16 178.378 1201.5 174.051C1153.57 162.333 1105.04 152.993 1056.3 145.412C984.514 134.266 912.178 126.992 839.608 123.62C748.966 119.313 658.134 121.269 567.762 129.475C465.059 138.89 363.091 156.715 263.527 183.649C250.117 187.272 236.758 191.062 223.448 195.02C222.198 195.394 222.728 197.364 223.992 196.99C325.247 166.952 429.186 146.397 534.157 134.91C625.388 124.986 717.204 121.506 808.924 124.496C884.559 126.874 960.002 133.483 1034.9 144.291C1086.36 151.763 1137.59 161.124 1188.22 173.018C1203.17 176.516 1217.99 180.239 1232.76 184.281C1237.23 185.504 1241.69 186.763 1246.13 188.058C1248.08 188.628 1250.75 190.014 1252.8 190.055C1253.09 190.106 1253.36 190.192 1253.62 190.313C1254.89 190.714 1255.37 188.812 1254.17 188.35C1157.66 151.362 1056.1 128.878 953.512 117.33C855.055 106.21 755.6 105.021 656.756 111.053C570.723 116.304 485.024 127.023 400.221 142.3C337.608 153.586 275.525 167.425 213.972 183.819C195.319 188.8 176.751 194.088 158.27 199.68C152.727 201.365 147.193 203.086 141.668 204.843C139.481 205.522 134.794 206.113 133.034 207.662C132.702 207.834 132.344 207.953 131.975 208.015L132.763 209.883C210.059 171.992 289.455 138.306 370.95 110.496C439.932 86.9517 510.395 67.5986 581.966 53.6935C644.406 41.5545 707.689 33.5864 771.251 30.6994C825.549 28.1501 879.961 29.5805 934.05 34.979C981.366 39.7262 1028.28 47.8807 1074.42 59.3792C1113.55 69.1372 1151.98 81.4938 1189.46 96.3667C1220.61 108.723 1250.99 122.956 1280.43 138.986C1303.33 151.435 1325.55 165.1 1347 179.92C1361.54 190.007 1375.72 200.659 1389.27 212.057C1393.35 215.501 1397.42 219.013 1401.35 222.627C1402.86 223.986 1405.35 227.545 1407.29 228.245C1407.52 228.333 1407.82 228.775 1408.01 228.972L1409.24 227.368C1331.9 186.536 1254.64 145.507 1176.96 105.306C1164.32 98.7646 1151.74 92.06 1138.88 85.9599C1138 85.5388 1135.01 83.5213 1133.92 84.0783C1131.71 85.2127 1134.8 86.7954 1135.72 87.4C1157.59 101.482 1181.35 113.172 1204.13 125.692C1239.58 145.165 1275.08 164.552 1310.63 183.853C1324.7 191.511 1338.78 199.16 1352.87 206.799C1357.61 209.381 1362.37 211.958 1367.13 214.53C1369.47 215.8 1372.08 217.797 1374.61 218.606C1374.95 218.754 1375.29 218.936 1375.6 219.149C1375.83 219.286 1376.11 219.324 1376.37 219.256C1376.63 219.188 1376.86 219.019 1376.99 218.786C1377.13 218.552 1377.17 218.274 1377.1 218.012C1377.03 217.75 1376.86 217.526 1376.63 217.39C1280.81 157.15 1173.52 117.438 1062.63 95.7961C957.289 75.132 849.234 70.2818 742.17 76.3207C645.819 81.7551 550.018 95.9591 455.828 116.786C384.2 132.586 313.481 152.258 243.983 175.715C222.662 182.92 201.484 190.537 180.449 198.566C174.068 201.012 167.712 203.503 161.381 206.039C158.277 207.295 154.344 208.28 151.518 210.114C151.109 210.328 150.685 210.51 150.248 210.658C149.195 211.113 149.949 212.913 151.029 212.519C281.127 164.901 415.878 129.598 553.232 110.904C662.761 96.0338 773.832 91.7 884.102 99.7224C968.952 105.89 1053.35 119.347 1135.65 141.01C1190.99 155.581 1245.52 173.765 1297.97 196.712C1313.1 203.328 1328.06 210.339 1342.73 217.94C1347.11 220.204 1351.46 222.536 1355.77 224.937C1357.75 226.044 1360.09 228.014 1362.26 228.666C1362.55 228.797 1362.83 228.961 1363.08 229.155C1364.21 229.834 1365.2 228.122 1364.11 227.396C1265.82 161.823 1154.96 117.35 1039.59 92.6849C930.898 69.4259 819.039 63.1424 708.206 68.8689C608.675 74.0043 509.709 88.7178 412.536 110.693C338.725 127.337 265.922 148.175 194.483 173.106C172.374 180.837 150.426 189.013 128.639 197.636C122.027 200.271 115.441 202.966 108.879 205.719C105.998 206.928 101.04 208.015 98.6552 210.108C98.242 210.356 97.7993 210.553 97.3374 210.692L98.3631 212.451C226.885 147.619 363.682 99.179 505.26 72.6186C715.571 32.8833 932.256 42.8298 1138.04 101.665C1202.28 120.047 1265.33 143.061 1325.87 171.367C1343.92 179.804 1361.75 188.71 1379.22 198.281C1384.43 201.127 1389.61 204.041 1394.73 207.037C1396.86 208.28 1400.31 211.432 1402.76 211.853C1403.1 212.002 1403.42 212.204 1403.71 212.451L1404.73 210.692C1337.48 170.749 1265.12 139.964 1190.58 116.521C1119.44 94.1454 1046.3 78.3314 972.525 67.6122C908.937 58.4441 844.891 52.7906 780.679 50.6774C733.747 49.0743 686.74 49.2101 639.828 51.3567C625.563 52.002 611.298 52.8376 597.087 53.9448C592.821 54.2799 588.559 54.64 584.302 55.0249C582.781 55.1608 578.902 54.8075 577.598 55.7042C577.326 55.78 577.044 55.8099 576.762 55.7925L577.034 57.8304C663.853 45.4697 751.658 41.4662 839.241 45.8748C974.17 52.7536 1107.4 79.0807 1234.8 124.041C1273.99 137.813 1312.43 153.619 1349.97 171.395C1360.78 176.544 1371.5 181.883 1382.07 187.501C1385.28 189.206 1388.48 190.897 1391.66 192.704C1393.01 193.458 1394.9 195.088 1396.41 195.421C1396.63 195.513 1396.84 195.637 1397.03 195.788C1397.15 195.859 1397.28 195.905 1397.41 195.926C1397.55 195.946 1397.68 195.94 1397.82 195.907C1397.95 195.874 1398.07 195.816 1398.18 195.735C1398.29 195.654 1398.39 195.552 1398.46 195.435C1398.53 195.318 1398.57 195.188 1398.59 195.053C1398.61 194.919 1398.61 194.781 1398.57 194.648C1398.54 194.516 1398.48 194.391 1398.4 194.281C1398.32 194.172 1398.22 194.079 1398.1 194.008C1288.6 125.984 1167.5 78.182 1041.23 52.3621C928.174 29.2661 811.974 23.4242 696.97 31.501C597.318 38.4977 498.46 55.745 401.905 81.2252C329.778 100.185 258.961 123.82 189.905 151.98C168.806 160.614 147.877 169.642 127.226 179.336C120.832 182.324 114.465 185.384 108.125 188.513C105.081 190.021 101.332 191.318 98.5737 193.343C98.1825 193.597 97.774 193.824 97.351 194.022C96.1962 194.633 97.2219 196.393 98.3767 195.781V195.747Z" fill="#B6B6FF"/>
<path d="M262.127 196.685C278.892 192.018 295.908 188.146 312.89 184.362C358.254 174.261 404.018 165.913 449.972 158.937C516.615 148.806 583.632 141.725 651.022 137.695C731.138 132.94 811.566 132.709 891.662 137.987C979.725 143.795 1067.48 156.328 1153.19 177.603C1163.69 180.212 1174.16 182.952 1184.59 185.823L1185.13 183.86C1170.38 180.423 1155.45 177.705 1140.54 175.029C1099.97 167.808 1059.12 162.122 1018.17 157.592C957.132 150.799 895.883 146.567 834.425 144.896C757.978 142.702 681.468 144.562 605.218 150.466C519.627 157.164 434.341 169.207 350.387 187.385C339.609 189.722 328.854 192.156 318.121 194.688C316.844 194.993 317.387 196.957 318.664 196.658C403.875 176.551 490.526 162.849 577.706 154.84C654.735 147.837 732.086 145.011 809.42 146.376C872.463 147.436 935.395 151.147 998.216 157.51C1042.06 161.966 1085.8 167.699 1129.24 175.117C1141.84 177.271 1154.42 179.56 1166.95 182.066C1172.39 183.153 1178.35 185.307 1183.89 185.64C1184.12 185.676 1184.35 185.728 1184.57 185.796C1184.83 185.859 1185.1 185.819 1185.33 185.685C1185.56 185.551 1185.73 185.333 1185.8 185.078C1185.87 184.823 1185.84 184.55 1185.71 184.317C1185.58 184.085 1185.37 183.911 1185.12 183.833C1100.33 160.519 1013.26 146.057 925.694 138.51C843.996 131.513 761.808 130.433 679.906 134.149C610.491 137.296 541.332 143.781 472.429 153.604C423.16 160.56 374.095 169.099 325.444 179.539C310.921 182.651 296.429 185.963 281.969 189.478C275.679 191.02 268.383 191.957 262.392 194.491C262.12 194.582 261.844 194.657 261.563 194.715C261.302 194.786 261.08 194.958 260.945 195.193C260.811 195.428 260.775 195.707 260.846 195.968C260.918 196.229 261.09 196.452 261.325 196.586C261.56 196.72 261.839 196.756 262.1 196.685H262.127Z" fill="#B6B6FF"/>
<path d="M1166.19 194.688C1150.17 191.638 1134.04 189.145 1117.96 186.713C1075.57 180.35 1033.05 175.102 990.377 170.967C928.964 164.894 867.387 160.952 805.643 159.14C733.441 157.103 661.11 158.169 589.051 163.372C513.785 168.807 438.696 178.691 365.047 195.299C356.062 197.324 347.098 199.452 338.154 201.685C336.883 202.004 337.42 203.967 338.697 203.648C412.74 185.198 488.373 173.881 564.331 167.367C636.608 161.165 709.238 159.29 781.753 160.628C844.587 161.783 907.32 165.263 969.951 171.069C1015.48 175.217 1060.89 180.545 1106.16 187.053C1119.63 189.009 1133.08 191.101 1146.5 193.329C1152.51 194.335 1158.79 196.135 1164.88 196.549C1165.14 196.58 1165.39 196.628 1165.64 196.692C1166.93 196.936 1167.48 194.973 1166.19 194.722V194.688Z" fill="#B6B6FF"/>
<path d="M355.387 212.553C368.627 209.463 381.982 206.854 395.33 204.307C430.775 197.514 466.425 191.828 502.176 186.971C553.49 180.002 605.01 174.898 656.736 171.66C717.193 167.937 777.908 166.905 838.467 169.5C902.762 172.217 967.01 179.01 1030.12 191.74C1037.82 193.298 1045.5 194.946 1053.16 196.685C1054.43 196.97 1054.98 195.007 1053.7 194.715C991.043 180.511 927.081 172.502 862.976 168.712C801.568 165.078 739.956 165.315 678.527 168.399C625.09 171.116 571.81 175.903 518.69 182.76C480.726 187.614 442.912 193.49 405.248 200.387C393.795 202.502 382.383 204.735 371.011 207.085C365.991 208.131 360.394 208.729 355.537 210.441C355.327 210.502 355.114 210.552 354.898 210.59C353.621 210.889 354.158 212.852 355.435 212.553H355.387Z" fill="#B6B6FF"/>
<path d="M521.556 195.591C514.234 196.705 506.911 197.833 499.629 199.191C498.345 199.429 497.801 197.466 499.085 197.221C500.845 196.895 502.611 196.596 504.377 196.291C518.173 193.94 532.031 191.937 545.902 190.096C571.081 186.79 596.315 184.043 621.603 181.856C655.495 178.926 689.423 176.985 723.388 176.034C763.398 174.927 803.456 175.206 843.446 177.135C886.255 179.193 928.996 183.14 971.215 189.328C976.753 190.152 982.28 191.017 987.796 191.923C993.006 192.765 998.468 193.282 1003.58 194.64C1005.1 195.059 1006.59 195.581 1008.04 196.202L1008.05 196.208C1009.26 196.68 1012.12 197.792 1011.03 199.599C1010.12 201.107 1006.92 200.958 1005.47 201.032C1001.4 201.29 997.32 201.161 993.244 201.032C978.823 200.584 964.422 199.585 950.027 198.634C929.248 197.269 908.468 195.856 887.689 194.497C863.146 192.921 838.589 191.475 814.026 190.306C788.091 189.097 762.142 188.139 736.179 187.739C711.195 187.311 686.19 187.385 661.219 188.418C639.706 189.308 618.179 190.816 596.91 194.124C588.506 195.316 580.177 196.994 571.967 199.151C571.887 199.172 571.807 199.194 571.727 199.216C574.211 199.634 577.048 199.607 579.609 199.694C585.559 199.891 591.509 199.891 597.459 199.891H597.461C615.876 199.864 634.292 199.531 652.707 199.246C673.818 198.919 694.934 198.593 716.046 198.371C722.176 197.913 728.312 197.539 734.454 197.249C780.367 194.898 826.464 196.155 872.269 199.844C878.372 200.333 884.481 200.849 890.587 201.414C904.709 202.41 918.826 203.804 932.753 206.256C933.986 206.475 933.543 208.212 932.411 208.233L932.366 208.396C924.167 206.956 915.893 205.937 907.612 205.108C885.691 202.9 863.655 201.943 841.653 201.263C816.057 200.496 790.373 200.285 764.838 200.299C746.743 200.308 728.651 200.444 710.563 200.651C694.038 202.022 677.566 203.994 661.178 206.562C641.051 209.809 621.263 214.53 601.563 219.692C597.236 220.82 592.923 221.955 588.657 223.245C588.373 223.331 588.09 223.417 587.807 223.504C590.387 223.31 592.958 223.012 595.529 222.714L595.871 222.675C622.839 219.597 649.719 215.895 676.707 213.049C713.26 209.197 750.023 206.175 786.8 206.127C803.191 206.113 819.63 206.664 835.933 208.756C850.015 210.57 864.063 213.389 878.002 216.106C878.627 216.228 884.489 217.125 881.881 218.884C881.33 219.258 880.271 219.047 879.659 219.047C878.158 218.993 876.657 218.884 875.156 218.789C860.639 217.845 846.123 216.948 831.586 216.432C777.813 214.543 723.66 216.337 670.485 224.733C652.762 227.525 635.093 231.084 617.622 235.194L617.507 235.221C614.162 236.007 610.805 236.795 607.528 237.836C607.2 237.938 606.874 238.047 606.551 238.162C606.974 238.185 607.412 238.203 607.725 238.203C610.7 238.264 613.675 238.128 616.644 237.986C626.758 237.517 636.853 236.722 646.94 235.948C677.42 233.625 707.893 231.145 738.407 229.311C769.886 227.416 801.52 225.82 833.06 226.859C844.526 227.239 856.074 227.926 867.378 230.018C871.5 230.701 875.582 231.608 879.605 232.735C880.95 233.142 883.45 233.672 884.129 235.126C885.753 238.726 875.047 238.964 873.525 239.1C863.085 240.017 852.569 240.187 842.094 240.425C809.685 241.145 777.263 241.28 744.854 242.164C714.075 242.985 682.861 243.665 652.381 248.42C647.096 249.235 641.88 250.295 636.69 251.585C634.196 252.229 631.618 252.803 629.166 253.638C631.718 253.686 634.272 253.616 636.819 253.426C665.179 252.006 693.458 249.432 721.832 248.304C739.834 247.584 757.869 247.231 775.884 247.713C791.603 248.134 807.423 249.085 822.918 251.905C829.256 253.034 835.495 254.66 841.578 256.768C846.333 258.426 851.489 259.961 855.843 262.556C857.399 263.48 859.321 265.484 856.686 266.577C854.05 267.671 850.253 267.107 847.536 266.992C833.196 266.367 818.931 264.743 804.665 263.595C784.85 261.999 764.988 260.701 745.098 260.572C726.255 260.477 707.723 261.754 689.213 265.327C686.081 265.939 682.943 266.557 679.859 267.365C679.619 267.426 678.702 267.722 677.851 268.014C677.92 268.035 677.99 268.056 678.059 268.079C680.19 268.38 682.334 268.572 684.485 268.656C701.8 269.709 719.163 269.919 736.478 270.993C758.942 272.378 781.556 274.477 803.538 279.497C810.174 281.012 817.001 282.337 823.461 284.524C824.29 284.803 825.785 285.136 826.233 285.998C826.838 287.14 825.812 287.724 824.874 287.941C821.111 288.804 816.465 287.968 812.647 287.778C804.679 287.384 796.718 286.922 788.75 286.569C768.432 285.679 747.978 285.238 727.674 286.861C717.253 287.738 706.903 289.327 696.698 291.616C693.712 292.272 690.881 293.243 687.971 294.085C688.397 294.243 688.859 294.451 689.05 294.496C696.855 296.269 705.264 296.276 713.212 296.84C726.166 297.75 739.073 298.674 751.979 299.985C774.661 302.288 797.682 305.46 819.8 311.173C822.582 311.847 825.322 312.684 828.006 313.68C829.33 314.196 831.008 314.766 832.007 315.853C834.588 318.632 829.691 319.881 827.795 320.201C820.119 321.519 812.076 321.274 804.319 321.199C791.161 321.07 778.023 320.282 764.866 319.977C755.532 319.759 746.178 319.684 736.845 320.085C731.804 320.303 726.336 320.33 721.452 321.763C721.077 321.879 720.662 322.131 720.288 322.25C720.388 322.312 720.491 322.37 720.596 322.422C721.19 322.709 721.806 322.949 722.437 323.142C728.265 325.058 734.589 325.757 740.642 326.539C766.842 329.928 793.287 330.709 819.583 333.087C829.093 333.95 838.671 334.914 848.113 336.483C852.331 337.217 857.365 337.74 861.162 339.88C863.166 341.007 863.614 342.943 861.468 344.227C858.302 346.123 853.88 346.442 850.314 346.945C831.45 349.58 812.273 349.458 793.253 350.524C777.698 351.397 762.078 352.391 746.54 353.984H729.25C747.71 351.393 766.437 350.196 785.002 349.009L785.421 348.982C805.718 347.712 826.172 347.766 846.394 345.436C850.721 344.907 855.64 344.608 859.715 342.869C860.103 342.706 860.68 342.319 860.87 342.237C860.9 342.225 860.925 342.214 860.946 342.204C860.774 342.06 860.592 341.928 860.401 341.809C859.863 341.498 859.294 341.243 858.703 341.048C853.466 339.133 847.644 338.467 842.156 337.693C831.287 336.171 820.33 335.2 809.386 334.337C784.253 332.347 758.935 331.565 733.985 327.707C729.44 327 724.054 326.532 719.883 324.399C717.689 323.271 717.505 321.294 719.883 320.275C723.741 318.632 728.659 318.632 732.735 318.367C741.226 317.816 749.758 317.803 758.27 317.912C771.122 318.075 783.947 318.815 796.799 319.127C806.112 319.345 815.588 319.644 824.874 318.666C826.767 318.384 828.64 317.99 830.485 317.484C830.543 317.47 830.591 317.458 830.631 317.446C830.418 317.266 830.125 316.984 829.84 316.804C828.142 315.738 826.043 315.16 824.147 314.576C820.805 313.544 817.355 312.708 813.958 311.927C789.558 306.398 764.607 303.096 739.705 300.963C727.783 299.944 715.848 299.211 703.926 298.287L703.897 298.284C700.109 297.986 696.315 297.688 692.555 297.2C690.632 296.969 688.092 296.881 686.38 295.841C682.136 293.258 691.02 291.013 692.31 290.687L692.317 290.685C702.213 288.225 712.279 286.504 722.43 285.536C742.816 283.444 763.426 283.736 783.872 284.531C791.791 284.84 799.698 285.259 807.604 285.678L808.911 285.747C813.271 285.974 817.705 286.391 822.078 286.302C821.417 286.101 820.751 285.916 820.085 285.733C811.798 283.444 803.348 281.501 794.904 279.878C772.535 275.578 749.697 273.819 726.975 272.657C711.507 271.869 695.87 272.073 680.457 270.551C679.247 270.436 673.406 270.232 674.907 267.61C675.45 266.652 677.053 266.306 677.991 266.013C680.538 265.219 683.174 264.696 685.775 264.159C703.597 260.568 721.729 258.748 739.908 258.725C759.934 258.63 779.953 259.805 799.91 261.347C815.072 262.522 830.227 264.166 845.423 265.001C848.71 265.179 852.296 265.592 855.565 265.002C854.762 264.551 853.733 263.741 853.051 263.419C841.605 258.066 829.134 254.893 816.682 253.046C800.461 250.634 783.981 249.948 767.596 249.751C749.561 249.513 731.519 250.037 713.497 250.872C697.548 251.619 681.571 252.645 665.621 253.752C654.908 254.499 644.182 255.43 633.449 255.79C631.33 255.865 628.654 256.238 626.575 255.627C624.761 255.09 625.04 253.569 626.5 252.794C629.075 251.436 632.281 250.852 635.066 250.172C640.086 248.895 645.133 247.795 650.242 246.953C680.26 242.021 711.093 241.301 741.444 240.425C774.145 239.48 806.859 239.324 839.561 238.645C850.457 238.414 861.386 238.23 872.255 237.388C875.14 237.249 878.011 236.89 880.841 236.315C881.216 236.209 881.603 236.022 881.949 235.871C881.525 235.661 880.988 235.389 880.678 235.282C879.32 234.793 877.961 234.454 876.603 234.114C872.01 233 867.344 232.076 862.67 231.397C850.626 229.549 838.345 229.094 826.172 228.87C794.102 228.279 761.992 230.004 730.004 232.042C700.299 233.937 670.627 236.41 640.935 238.618C631.663 239.304 622.377 240.044 613.084 240.343C611.821 240.391 602.317 241.416 603.078 238.353C603.398 237.048 605.68 236.546 606.719 236.206C609.692 235.209 612.776 234.474 615.842 233.744L616.229 233.652C632.974 229.664 649.956 226.234 666.939 223.463C720.318 214.74 774.722 212.709 828.712 214.469C841.822 214.894 854.917 215.608 868.001 216.444C854.992 213.993 841.964 211.448 828.794 210.135C811.825 208.423 794.727 208.158 777.691 208.423C741.036 209 704.442 212.22 668.019 216.221C642.729 219.006 617.527 222.675 592.223 225.317C589.774 225.644 587.309 225.832 584.839 225.881C583.664 225.86 581.327 225.392 582.686 223.714C583.603 222.566 586.123 222.158 587.441 221.751C591.422 220.48 595.463 219.414 599.498 218.354C618.736 213.266 638.055 208.566 657.693 205.285C668.127 203.586 678.598 202.133 689.095 200.925C688.815 200.929 688.535 200.933 688.255 200.937C666.497 201.222 644.719 201.63 622.982 201.902C608.716 202.058 594.451 202.343 580.186 201.902C576.966 201.813 573.495 201.875 570.33 201.134C568.536 200.713 567.443 199.151 569.48 198.057C570.88 197.33 572.673 197.065 574.174 196.698C578.413 195.686 582.679 194.783 586.965 193.981C596.401 192.215 605.945 190.911 615.455 189.865C638.096 187.392 660.879 186.353 683.642 185.898C709.13 185.388 734.61 185.687 760.077 186.366C785.869 187.073 811.655 188.248 837.421 189.607C861.074 190.89 884.713 192.385 908.353 193.954C927.346 195.218 946.325 196.556 965.345 197.724C977.41 198.465 989.528 199.354 1001.61 199.287C1004 199.37 1006.38 199.213 1008.73 198.818C1008.51 198.698 1008.28 198.584 1008.05 198.478C1006.75 197.917 1005.41 197.429 1004.04 197.018C1000.47 195.876 996.511 195.55 992.816 194.925C987.3 193.993 981.773 193.1 976.234 192.249C954.388 188.925 932.474 186.19 910.492 184.043C868.716 179.974 826.77 177.923 784.823 177.522C747.371 177.196 709.967 178.102 672.611 180.239C642.369 181.96 612.201 184.467 582.109 187.759C561.872 189.973 541.677 192.534 521.556 195.591Z" fill="#B6B6FF"/>
</g>
</svg>
