<svg width="97" height="97" viewBox="0 0 97 97" fill="none" xmlns="http://www.w3.org/2000/svg">
<path fill-rule="evenodd" clip-rule="evenodd" d="M48.5 0.976318H97V48.9188H48.5V0.976318ZM85.7589 24.6224C85.7589 31.8833 79.8728 37.7694 72.6119 37.7694C65.351 37.7694 59.4648 31.8833 59.4648 24.6224C59.4648 17.3615 65.351 11.4753 72.6119 11.4753C79.8728 11.4753 85.7589 17.3615 85.7589 24.6224ZM24.1119 37.7694C31.3728 37.7694 37.2589 31.8833 37.2589 24.6224C37.2589 17.3615 31.3728 11.4753 24.1119 11.4753C16.851 11.4753 10.9648 17.3615 10.9648 24.6224C10.9648 31.8833 16.851 37.7694 24.1119 37.7694ZM97.0006 48.9187L76.2812 69.5916H82.367V90.4039L76.5135 96.2573L76.8387 96.5825L97.0006 76.7923V48.9187ZM48.5 48.9192H0V96.8617H48.5V48.9192ZM24.1119 85.9916C31.3728 85.9916 37.2589 80.1054 37.2589 72.8445C37.2589 65.5836 31.3728 59.6975 24.1119 59.6975C16.851 59.6975 10.9648 65.5836 10.9648 72.8445C10.9648 80.1054 16.851 85.9916 24.1119 85.9916Z" fill="#0E1946"/>
</svg>
