<svg width="1733" height="312" viewBox="0 0 1733 312" fill="none" xmlns="http://www.w3.org/2000/svg">
<path fill-rule="evenodd" clip-rule="evenodd" d="M243.498 0.21875L160.828 107.506L158.143 110.64L155.113 106.887L73.1319 0.21875H0.275459L0 310.857H73.1319V111.018L77.7112 117.182L141.065 198.026H175.496L238.746 117.457L243.498 110.743V310.857H316.182V0.21875H243.498ZM362.111 36.0273H426.911V101.378H362.111V36.0273ZM362.111 129.575H426.911V310.89H362.111V129.575ZM623.423 126.609C612.258 119.356 599.23 115.493 585.916 115.491C573.53 115.5 561.376 118.851 550.734 125.189C540.092 131.526 531.356 140.616 525.447 151.501C519.538 162.387 516.674 174.664 517.157 187.04C517.64 199.417 521.452 211.433 528.192 221.825C534.931 232.216 544.349 240.599 555.452 246.088C566.556 251.576 578.934 253.967 591.283 253.011C603.632 252.055 615.495 247.786 625.621 240.654C635.747 233.522 643.762 223.791 648.822 212.485H709.283C702.383 242.797 684.558 269.504 659.213 287.504C633.867 305.505 602.779 313.536 571.886 310.065C540.994 306.593 512.463 291.862 491.745 268.685C471.026 245.508 459.574 215.51 459.574 184.423C459.574 153.336 471.026 123.339 491.745 100.162C512.463 76.9853 540.994 62.2539 571.886 58.7823C602.779 55.3107 633.867 63.3423 659.213 81.3425C684.558 99.3428 702.383 126.05 709.283 156.362H648.822C643.41 144.197 634.588 133.863 623.423 126.609ZM1153.75 57.9932C1128.75 57.9932 1104.3 65.4084 1083.51 79.3008C1062.72 93.1933 1046.52 112.939 1036.95 136.042C1027.38 159.144 1024.87 184.565 1029.75 209.09C1034.63 233.616 1046.67 256.144 1064.35 273.825C1082.04 291.507 1104.56 303.548 1129.09 308.426C1153.61 313.305 1179.04 310.802 1202.14 301.233C1225.24 291.663 1244.99 275.458 1258.88 254.666C1272.77 233.875 1280.19 209.429 1280.19 184.424C1280.18 150.895 1266.85 118.742 1243.15 95.0336C1219.44 71.3251 1187.28 58.0023 1153.75 57.9932ZM1222.62 185.767C1222.26 203.911 1214.76 221.181 1201.74 233.824C1188.73 246.467 1171.24 253.46 1153.1 253.283C1134.95 253.106 1117.61 245.774 1104.84 232.88C1092.07 219.985 1084.91 202.571 1084.91 184.424C1084.91 166.276 1092.07 148.864 1104.84 135.969C1117.61 123.075 1134.95 115.742 1153.1 115.565C1171.24 115.388 1188.73 122.382 1201.74 135.025C1214.76 147.668 1222.26 164.938 1222.62 183.082V185.767ZM870.924 58.4572C894.464 60.8248 916.871 69.742 935.601 84.1965L943.245 64.8122H995.615V304.178H943.245L935.601 284.656C916.871 299.11 894.464 308.026 870.924 310.393C847.383 312.761 823.649 308.485 802.415 298.05C781.181 287.615 763.296 271.438 750.788 251.354C738.281 231.271 731.651 208.085 731.651 184.425C731.651 160.766 738.281 137.58 750.788 117.496C763.296 97.4131 781.181 81.2375 802.415 70.8024C823.649 60.3671 847.383 56.0897 870.924 58.4572ZM906.706 233.826C919.724 221.183 927.225 203.912 927.579 185.769V183.084C927.225 164.94 919.724 147.669 906.706 135.026C893.687 122.383 876.204 115.389 858.058 115.566C839.912 115.743 822.569 123.077 809.8 135.971C797.03 148.866 789.867 166.278 789.867 184.425C789.867 202.572 797.03 219.987 809.8 232.881C822.569 245.776 839.912 253.107 858.058 253.284C876.204 253.461 893.687 246.469 906.706 233.826ZM1376.6 102.445L1368.92 73.6948H1311.66V310.857H1376.46V210.214C1376.46 208.803 1376.7 191.931 1376.87 190.588C1377.99 182.01 1381.37 173.886 1386.68 167.058C1391.99 160.229 1399.03 154.944 1407.07 151.75C1422.75 145.685 1439.79 144.029 1456.34 146.964V75.2785C1402.42 72.3863 1376.6 102.445 1376.6 102.445ZM1682.18 84.2653C1707.26 103.244 1724.37 130.889 1730.17 161.804C1731.54 169.268 1732.24 176.837 1732.27 184.425C1732.27 185.755 1732.17 187.068 1732.08 188.376C1731.99 189.677 1731.89 190.972 1731.89 192.276C1731.65 196.443 1731.17 200.539 1730.55 204.568H1539.94C1543.34 215.715 1549.52 225.816 1557.89 233.925C1566.26 242.034 1576.56 247.886 1587.81 250.93C1599.06 253.975 1610.9 254.115 1622.22 251.336C1633.54 248.556 1643.97 242.949 1652.53 235.04H1721.67C1711.82 257.57 1695.62 276.741 1675.05 290.204C1654.48 303.666 1630.42 310.837 1605.84 310.837C1581.25 310.837 1557.2 303.666 1536.63 290.204C1516.05 276.741 1499.85 257.57 1490.01 235.04C1485.78 225.301 1482.8 215.06 1481.16 204.568C1480.51 200.539 1480.06 196.443 1479.79 192.276C1479.74 191.489 1479.69 190.705 1479.64 189.922C1479.52 188.1 1479.41 186.279 1479.41 184.425C1479.58 152.971 1491.47 122.711 1512.75 99.5491C1534.03 76.3878 1563.18 61.9891 1594.51 59.1631C1625.84 56.337 1657.09 65.2866 1682.18 84.2653ZM1565.94 128.303C1554.28 136.589 1545.5 148.298 1540.8 161.804H1670.88C1666.18 148.298 1657.4 136.589 1645.74 128.303C1634.09 120.017 1620.14 115.564 1605.84 115.564C1591.54 115.564 1577.59 120.017 1565.94 128.303Z" fill="url(#paint0_linear_672_5083)" fill-opacity="0.6"/>
<defs>
<linearGradient id="paint0_linear_672_5083" x1="3232.82" y1="58.6514" x2="3232.82" y2="320.331" gradientUnits="userSpaceOnUse">
<stop stop-color="#152A5D"/>
<stop offset="0.455" stop-color="#152A5D" stop-opacity="0.5"/>
<stop offset="1" stop-color="#080B35" stop-opacity="0.4"/>
</linearGradient>
</defs>
</svg>
