<svg width="14" height="15" viewBox="0 0 14 15" fill="none" xmlns="http://www.w3.org/2000/svg">
<path fill-rule="evenodd" clip-rule="evenodd" d="M3.1184 1.43429C3.11532 0.681403 2.55443 0.133395 1.78229 0.129417C0.967094 0.125439 0.403119 0.645599 0.397992 1.40644C0.392865 2.17027 0.939408 2.72027 1.71051 2.72624C2.52674 2.73221 3.12045 2.18718 3.1184 1.43429ZM7.71226 14.4919H4.93201V4.91161H7.69597V6.12365C7.74558 6.0574 7.79018 5.99657 7.83183 5.93976L7.83185 5.93972L7.83186 5.93971C7.91875 5.8212 7.9928 5.72019 8.07282 5.6239C8.95033 4.56581 10.082 4.36016 11.3114 4.61636C12.582 4.87944 13.3835 5.74108 13.7452 7.03124C13.8907 7.55167 13.9743 8.10887 13.983 8.65227C14.004 9.98859 14.0011 11.3261 13.9981 12.6635C13.9969 13.1922 13.9957 13.7209 13.996 14.2495V14.4804H11.1973V14.1357C11.1973 13.7007 11.1976 13.2656 11.198 12.8306C11.1988 11.6343 11.1997 10.4379 11.1941 9.24163C11.193 8.95902 11.1745 8.66836 11.1115 8.39493C10.8954 7.45402 10.2134 7.00827 9.1708 7.09788C8.44859 7.15992 7.76113 7.8745 7.74484 8.69248C7.71981 9.94496 7.71808 11.198 7.71636 12.4508V12.4509C7.71562 12.9919 7.71488 13.5328 7.71226 14.0737V14.4919ZM0.397949 14.515H3.1184V4.54001H0.397949V14.515Z" fill="white"/>
</svg>
