<svg width="39" height="39" viewBox="0 0 39 39" fill="none" xmlns="http://www.w3.org/2000/svg">
<path fill-rule="evenodd" clip-rule="evenodd" d="M19.5 0.197266H39V19.4731H19.5V38.7485H0V19.4727H19.5V0.197266ZM34.4781 9.70389C34.4781 12.6232 32.1115 14.9898 29.1922 14.9898C26.2728 14.9898 23.9062 12.6232 23.9062 9.70389C23.9062 6.78456 26.2728 4.41797 29.1922 4.41797C32.1115 4.41797 34.4781 6.78456 34.4781 9.70389ZM9.69217 14.9898C12.6115 14.9898 14.9781 12.6232 14.9781 9.70389C14.9781 6.78456 12.6115 4.41797 9.69217 4.41797C6.77284 4.41797 4.40625 6.78456 4.40625 9.70389C4.40625 12.6232 6.77284 14.9898 9.69217 14.9898ZM39.0023 19.4727L30.6719 27.7844H33.1187V36.1523L30.7653 38.5057L30.896 38.6364L39.0023 30.6796V19.4727ZM9.69217 34.3775C12.6115 34.3775 14.9781 32.0109 14.9781 29.0916C14.9781 26.1723 12.6115 23.8057 9.69217 23.8057C6.77284 23.8057 4.40625 26.1723 4.40625 29.0916C4.40625 32.0109 6.77284 34.3775 9.69217 34.3775Z" fill="white"/>
</svg>
