<svg width="16" height="17" viewBox="0 0 16 17" fill="none" xmlns="http://www.w3.org/2000/svg">
<path d="M6.60091 13.6774C2.96788 13.6774 0.012207 10.7217 0.012207 7.08871C0.012207 3.45567 2.96788 0.5 6.60091 0.5C10.2339 0.5 13.1896 3.45567 13.1896 7.08871C13.1896 10.7217 10.2339 13.6774 6.60091 13.6774ZM6.60091 1.74904C3.6566 1.74904 1.26125 4.1444 1.26125 7.08871C1.26125 10.033 3.6566 12.4284 6.60091 12.4284C9.54522 12.4284 11.9406 10.033 11.9406 7.08871C11.9406 4.1444 9.54522 1.74904 6.60091 1.74904ZM15.8171 16.3171C16.061 16.0732 16.061 15.6777 15.8171 15.4338L13.0223 12.6391C12.7784 12.3952 12.383 12.3952 12.1391 12.6391C11.8952 12.883 11.8952 13.2785 12.1391 13.5223L14.9338 16.3171C15.0558 16.439 15.2156 16.5 15.3755 16.5C15.5353 16.5 15.6951 16.439 15.8171 16.3171Z" fill="#080B35"/>
</svg>
