<svg width="34" height="34" viewBox="0 0 34 34" fill="none" xmlns="http://www.w3.org/2000/svg">
<path d="M13.3739 0.0355816C12.2364 0.970175 11.5021 2.00716 11.027 3.22028C10.1767 5.40391 10.7911 7.35608 12.0078 9.21265C13.4705 11.4448 15.5918 12.969 17.6922 14.514C19.8417 16.0954 22.0916 17.5517 23.8969 19.5553C25.3635 21.1828 26.2114 23.0418 25.91 25.2774C25.8202 25.9431 25.5669 26.5875 25.3761 27.2383C25.3067 27.4756 25.2029 27.7027 25.0539 28.0928C25.2786 27.9438 25.3936 27.905 25.4514 27.824C26.999 25.5501 28.0837 23.1272 27.7532 20.2856C27.5202 18.2834 26.5933 16.6025 25.2461 15.1371C23.3233 13.0452 20.9632 11.4778 18.7502 9.73332C17.2579 8.55659 15.7175 7.42304 14.7139 5.75038C14.2145 4.91818 13.8437 4.0554 13.8714 3.04511C13.9126 1.52918 15.2841 0.0292739 16.8046 0.0210247C21.7001 -0.00582587 26.5956 -0.00695848 31.491 0.0176276C32.9344 0.0234506 33.9894 1.15554 33.9938 2.64235C34.0049 6.31813 33.9977 9.99439 33.9977 13.6707C33.9977 19.4613 33.9977 25.2534 33.9977 31.047C33.9977 33.0055 33.0023 33.9959 31.0373 33.9964C27.7236 33.9964 24.4099 33.9964 21.0962 33.9964C20.9948 33.9964 20.8928 33.9837 20.722 33.9721C21.1345 33.5271 21.5359 33.1554 21.8654 32.7279C23.8887 30.1046 23.8717 27.3227 21.9071 24.5757C20.4997 22.6109 18.6216 21.1857 16.7294 19.7484C14.6425 18.1612 12.5212 16.5943 10.5659 14.8532C8.88772 13.3572 7.87245 11.4167 8.08453 9.05834C8.15054 8.32658 8.40775 7.60987 8.59751 6.89169C8.67128 6.61219 8.80085 6.34821 8.95858 5.93623C8.75814 6.03765 8.6737 6.05221 8.6407 6.10122C7.27747 8.13297 6.22871 10.2744 6.25395 12.805C6.28112 15.5093 7.4876 17.6905 9.4269 19.4233C11.4463 21.227 13.6253 22.8526 15.7316 24.5602C17.1419 25.7039 18.607 26.8088 19.4733 28.4601C19.7839 29.0517 20.0557 29.715 20.128 30.3696C20.3629 32.4562 18.9186 33.9925 16.8002 33.9954C12.1183 34.0015 7.43649 34.0015 2.75486 33.9954C1.05967 33.9954 0.00266921 32.9308 0.0021839 31.2261C-0.000727965 21.7362 -0.000727965 12.2464 0.0021839 2.75687C0.0021839 1.08809 1.0621 0.0142311 2.71313 0.0103491C6.06953 0.00290858 9.42593 0.00290858 12.7823 0.0103491C12.9265 0.00986385 13.0696 0.0215093 13.3739 0.0355816Z" fill="#FC7375"/>
</svg>
