<svg width="20" height="20" viewBox="0 0 20 20" fill="none" xmlns="http://www.w3.org/2000/svg">
<path d="M19.9478 7.29389C19.8169 6.89242 19.4577 6.60729 19.0327 6.56932L13.2602 6.04972L10.9776 0.753418C10.8093 0.365268 10.426 0.114014 10.0001 0.114014C9.5742 0.114014 9.19089 0.365268 9.02258 0.754325L6.73996 6.04972L0.966512 6.56932C0.542308 6.60819 0.184023 6.89242 0.0523364 7.29389C-0.0793501 7.69535 0.0422653 8.13568 0.363165 8.41326L4.72652 12.2067L3.43987 17.8252C3.34572 18.2383 3.50747 18.6654 3.85324 18.9131C4.03909 19.0462 4.25654 19.114 4.47581 19.114C4.66487 19.114 4.85241 19.0635 5.02072 18.9637L10.0001 16.0135L14.9776 18.9637C15.3419 19.1809 15.801 19.1611 16.146 18.9131C16.4919 18.6646 16.6535 18.2374 16.5594 17.8252L15.2727 12.2067L19.6361 8.41402C19.957 8.13568 20.0795 7.6961 19.9478 7.29389Z" fill="white"/>
</svg>
