<svg width="30" height="25" viewBox="0 0 30 25" fill="none" xmlns="http://www.w3.org/2000/svg">
<path d="M28.4131 0.531902L1.05071 7.03192C0.528066 7.15601 0.15918 7.62272 0.15918 8.15986V15.3442C0.15918 15.8811 0.528066 16.3481 1.05071 16.4722L6.65784 17.8041V21.7151C6.65784 22.2523 7.02672 22.719 7.54914 22.8431L14.3897 24.4681C15.1155 24.6409 15.817 24.0902 15.817 23.3402V19.9801L28.4129 22.9722C29.1366 23.1445 29.8404 22.5965 29.8404 21.8442V1.65985C29.8404 0.911432 29.1407 0.358895 28.4131 0.531902ZM13.4984 21.8732L8.97668 20.7989V18.3549L13.4984 19.4291V21.8732ZM27.5216 20.3771C27.2378 20.3098 2.48414 14.4294 2.47803 14.4278V9.07608L27.5216 3.12679V20.3771Z" fill="#0A192F"/>
</svg>
