<svg width="35" height="33" viewBox="0 0 35 33" fill="none" xmlns="http://www.w3.org/2000/svg">
<path d="M16.7109 0.981079C17.3631 0.981079 18.0153 0.981079 18.6674 0.981079C18.699 0.993557 18.7322 0.995254 18.7656 0.995953C19.0387 1.00184 19.3097 1.03518 19.5804 1.06543C20.0662 1.11973 20.5494 1.1932 21.029 1.29053C21.4236 1.37068 21.816 1.45922 22.2037 1.56733C22.7294 1.71397 23.2478 1.88287 23.7579 2.07752C24.5774 2.39006 25.3667 2.76539 26.1278 3.20001C26.8019 3.58492 27.4453 4.01635 28.0606 4.49C28.8351 5.08614 29.5515 5.74516 30.2138 6.46338C30.7402 7.03415 31.2233 7.63937 31.6675 8.27613C32.2863 9.16305 32.8124 10.1021 33.252 11.0896C33.6724 12.0342 34.0008 13.0105 34.2409 14.0164C34.325 14.3691 34.3973 14.7243 34.4592 15.0816C34.5126 15.3895 34.558 15.6988 34.592 16.0096C34.623 16.2939 34.6567 16.5779 34.6643 16.8642C34.6654 16.9075 34.6682 16.9503 34.6787 16.9924C34.6787 17.6513 34.6787 18.3101 34.6787 18.9689C34.6744 18.9951 34.6671 19.021 34.6663 19.0473C34.6586 19.3001 34.6333 19.5515 34.6071 19.8029C34.5679 20.1801 34.5161 20.5557 34.4502 20.9289C34.3739 21.3612 34.2804 21.7903 34.1716 22.2157C34.004 22.8707 33.7965 23.5128 33.5519 24.1431C33.2759 24.8546 32.9505 25.5428 32.5813 26.2104C32.1602 26.9717 31.6823 27.6957 31.1492 28.3835C30.7718 28.8704 30.3704 29.3367 29.9432 29.7803C29.5298 30.2095 29.0933 30.614 28.6374 30.9983C27.7669 31.7321 26.8332 32.3727 25.8335 32.9173C25.6909 32.9949 25.6775 32.987 25.6774 32.8201C25.6769 31.8785 25.6772 30.9369 25.6772 29.9953C25.6772 29.9521 25.673 29.9069 25.6891 29.8667C25.7436 29.73 25.6921 29.598 25.6738 29.4648C25.6684 29.4257 25.6329 29.4082 25.5982 29.3922C25.5199 29.3557 25.4374 29.3563 25.354 29.3563C18.8524 29.3567 12.3508 29.3566 5.84927 29.3566C5.79935 29.3566 5.74944 29.356 5.69953 29.3554C5.64313 29.3546 5.6085 29.3276 5.58783 29.2739C5.53413 29.1347 5.54441 28.9917 5.56657 28.8508C5.57695 28.7851 5.58753 28.7204 5.58753 28.6539C5.58753 28.1248 5.59063 27.5958 5.58524 27.0668C5.58404 26.9461 5.61448 26.8306 5.61408 26.7107C5.61179 26.1184 5.61299 25.5262 5.61299 24.9338C5.61299 24.8906 5.60879 24.8457 5.62477 24.8053C5.64753 24.7475 5.64762 24.6884 5.64753 24.6285C5.64753 24.2691 5.64753 23.9098 5.64753 23.5504C5.64753 23.5172 5.64663 23.4837 5.64882 23.4506C5.65651 23.3381 5.71371 23.2646 5.82251 23.235C5.93451 23.2045 6.052 23.1968 6.1657 23.1875C6.3902 23.169 6.6122 23.1274 6.8374 23.1189C6.84728 23.1185 6.85726 23.1167 6.86695 23.1144C6.98973 23.0851 7.1166 23.0849 7.24088 23.0688C7.36795 23.0522 7.49672 23.0259 7.62709 23.0347C7.64316 23.0358 7.66053 23.0321 7.676 23.0269C7.7876 22.989 7.90549 22.9917 8.02008 22.9805C8.14546 22.9684 8.26824 22.9401 8.39401 22.9304C8.4593 22.9254 8.52758 22.9269 8.59136 22.9089C8.76126 22.8608 8.93844 22.86 9.11043 22.8236C9.28861 22.786 9.47089 22.767 9.64847 22.7271C9.86189 22.6792 10.0761 22.634 10.2899 22.5899C10.5952 22.5271 10.8981 22.4542 11.2025 22.3881C11.4358 22.3374 11.6674 22.2788 11.8991 22.2218C12.1278 22.1656 12.356 22.1073 12.5842 22.0492C12.7579 22.005 12.9312 21.9596 13.1047 21.9147C13.291 21.8666 13.478 21.8216 13.6631 21.769C13.7463 21.7453 13.8313 21.7301 13.914 21.706C14.0956 21.6533 14.2768 21.5992 14.4578 21.5445C14.6833 21.4763 14.9087 21.4077 15.1337 21.338C15.2891 21.2898 15.442 21.2347 15.5942 21.1772C15.7775 21.108 15.9652 21.0504 16.1477 20.9793C16.4292 20.8698 16.7116 20.7629 16.9922 20.651C17.3068 20.5257 17.6179 20.3926 17.9314 20.2648C18.1926 20.1583 18.4489 20.0395 18.7063 19.9235C18.9697 19.8048 19.2332 19.6855 19.4923 19.5584C20.0948 19.2624 20.6975 18.9666 21.2839 18.6384C21.5561 18.4861 21.8299 18.3362 22.1028 18.1849C22.3177 18.0657 22.5274 17.9377 22.7391 17.8133C23.1138 17.5931 23.4825 17.3619 23.8468 17.1247C24.2642 16.8529 24.6747 16.5705 25.0869 16.2906C25.2295 16.1937 25.3686 16.0915 25.508 15.9899C25.5749 15.9413 25.6478 15.8967 25.7022 15.8361C25.7833 15.7458 25.7969 15.6263 25.7963 15.5095C25.7945 15.1677 25.7912 14.8263 25.7758 14.4844C25.7566 14.0561 25.7712 13.6262 25.7712 13.1969C25.7712 11.5299 25.7713 9.863 25.7706 8.19598C25.7706 8.15136 25.7814 8.10404 25.754 8.05403C25.6802 8.10704 25.6043 8.14666 25.546 8.21125C25.3921 8.38194 25.2022 8.51461 25.0465 8.6835C25.0376 8.69319 25.0272 8.70207 25.0161 8.70926C24.8814 8.7964 24.7733 8.91499 24.655 9.0207C24.5462 9.11793 24.4282 9.20417 24.3227 9.30569C24.271 9.3555 24.217 9.40731 24.1572 9.44844C23.9983 9.55764 23.8661 9.69879 23.7099 9.81169C23.5786 9.90662 23.4593 10.0181 23.3321 10.119C23.1633 10.2528 22.9924 10.3838 22.8217 10.5152C22.6929 10.6144 22.5661 10.7162 22.4334 10.8098C22.26 10.9322 22.0911 11.0608 21.919 11.1849C21.7254 11.3247 21.5267 11.4573 21.3348 11.5996C21.2015 11.6984 21.0592 11.785 20.9209 11.8771C20.7605 11.9839 20.602 12.0937 20.4395 12.197C20.2155 12.3395 19.989 12.478 19.7626 12.6168C19.59 12.7226 19.4183 12.8303 19.2419 12.9295C19.0683 13.0271 18.8968 13.1286 18.723 13.2259C18.4682 13.3686 18.2143 13.5137 17.9547 13.647C17.2895 13.9887 16.6215 14.3254 15.9371 14.628C15.7823 14.6965 15.6274 14.7646 15.4711 14.8296C15.2688 14.9137 15.0655 14.9949 14.8621 15.0762C14.6804 15.1488 14.4986 15.2212 14.3157 15.2911C14.1669 15.348 14.0149 15.3968 13.8671 15.4563C13.6111 15.5593 13.3473 15.6403 13.086 15.7268C12.8376 15.8092 12.5908 15.8987 12.3366 15.9647C12.1697 16.008 12.0072 16.068 11.8414 16.116C11.679 16.163 11.5149 16.2041 11.3517 16.2484C11.1725 16.297 10.994 16.3484 10.8142 16.3947C10.657 16.4352 10.4987 16.4715 10.3403 16.5077C10.1465 16.552 9.95223 16.5947 9.75798 16.6376C9.59626 16.6733 9.43465 16.7097 9.27254 16.7436C9.15256 16.7686 9.03217 16.7917 8.91149 16.8131C8.72882 16.8454 8.54375 16.8669 8.36357 16.9092C8.21474 16.9441 8.06341 16.9643 7.91367 16.9861C7.75017 17.0099 7.58806 17.0454 7.42265 17.0601C7.35068 17.0665 7.27482 17.0664 7.20614 17.0873C7.08985 17.1226 6.96966 17.1214 6.85197 17.1342C6.727 17.1478 6.60292 17.1695 6.47814 17.1837C6.34059 17.1993 6.20173 17.2057 6.06388 17.2269C5.92134 17.2489 5.775 17.2726 5.62786 17.2605C5.61169 17.2592 5.59352 17.2612 5.57885 17.2677C5.51237 17.2971 5.44229 17.2924 5.37252 17.2933C5.326 17.2939 5.27749 17.2876 5.23327 17.2984C5.05449 17.3419 4.86692 17.2916 4.69044 17.3521C4.40105 17.3388 4.11387 17.3944 3.82439 17.3791C3.76469 17.3759 3.7046 17.3787 3.64471 17.379C3.61476 17.3792 3.58421 17.3786 3.55626 17.3909C3.50586 17.4132 3.45265 17.4129 3.39935 17.4129C2.67065 17.4129 1.94195 17.413 1.21325 17.4126C1.17682 17.4126 1.13739 17.4159 1.10465 17.4035C1.03348 17.3768 0.961106 17.3797 0.888136 17.3784C0.818361 17.3772 0.748586 17.3744 0.678711 17.3723C0.678711 17.2458 0.678711 17.1194 0.678711 16.9929C0.70696 16.9274 0.708757 16.8574 0.713549 16.7877C0.723132 16.6485 0.729021 16.5086 0.744593 16.3701C0.786917 15.9934 0.829142 15.6169 0.890931 15.2427C0.952721 14.8684 1.02329 14.496 1.10894 14.1267C1.25189 13.5106 1.43037 12.9045 1.64039 12.3079C1.70448 12.1259 1.77725 11.9472 1.84173 11.7654C1.86888 11.6889 1.91201 11.6478 1.99606 11.6572C2.01901 11.6598 2.04257 11.6582 2.06583 11.6573C2.49676 11.6406 2.92759 11.674 3.35992 11.6308C3.65539 11.6014 3.95655 11.6096 4.25522 11.6001C4.44108 11.5942 4.62316 11.5557 4.80972 11.5546C4.89397 11.5541 4.98082 11.5391 5.06706 11.5371C5.09681 11.5364 5.12795 11.537 5.156 11.5285C5.28467 11.4898 5.41873 11.4936 5.5499 11.4814C5.68526 11.4689 5.81792 11.44 5.95348 11.4296C6.0555 11.4218 6.15662 11.403 6.25763 11.3848C6.41395 11.3564 6.57227 11.3394 6.72839 11.3105C6.78429 11.3002 6.84079 11.3018 6.89619 11.2895C7.03195 11.2593 7.16831 11.2315 7.30436 11.203C7.48913 11.1642 7.6759 11.1353 7.85897 11.0882C7.94252 11.0666 8.02577 11.0431 8.11062 11.028C8.33642 10.988 8.55622 10.9227 8.77833 10.8681C9.01331 10.8103 9.24459 10.7374 9.47658 10.6681C9.72453 10.5939 9.97159 10.5162 10.2189 10.4397C10.552 10.3364 10.8776 10.2117 11.2053 10.0931C11.3769 10.031 11.5475 9.96581 11.7169 9.89793C11.9264 9.81398 12.1327 9.72225 12.3411 9.6358C12.5741 9.53907 12.8022 9.43157 13.0324 9.32875C13.1992 9.25428 13.3596 9.16524 13.524 9.08529C13.8558 8.92387 14.1839 8.75508 14.5065 8.5762C14.7386 8.44743 14.9648 8.30818 15.1951 8.17601C15.4688 8.01899 15.7286 7.84001 15.9977 7.67551C16.2328 7.53186 16.4548 7.36826 16.6803 7.21004C16.8731 7.07478 17.0614 6.93353 17.2499 6.79229C17.4674 6.62928 17.6812 6.46178 17.8963 6.29567C17.9624 6.24467 18.0176 6.18108 18.0856 6.13446C18.2448 6.02546 18.3819 5.8899 18.5314 5.76942C18.6961 5.63665 18.8532 5.49281 19.0095 5.35007C19.1809 5.19345 19.3538 5.03752 19.5187 4.87362C19.8254 4.56866 20.1289 4.26051 20.4374 3.95736C20.5254 3.87081 20.5915 3.7661 20.6811 3.68165C20.6869 3.67616 20.6866 3.66418 20.6904 3.6507C20.641 3.62884 20.5908 3.63813 20.5425 3.63813C17.4718 3.63763 14.4011 3.63853 11.3304 3.63553C11.1447 3.63533 10.9762 3.67606 10.8137 3.75911C10.7071 3.81361 10.6013 3.87031 10.4916 3.91783C10.2115 4.03901 9.93446 4.16728 9.65166 4.28267C9.35969 4.40176 9.06591 4.51616 8.76904 4.62157C8.31885 4.78148 7.86346 4.92543 7.40209 5.0521C7.1141 5.13116 6.82302 5.19564 6.53434 5.27021C6.50809 5.277 6.48183 5.28199 6.45568 5.2747C6.42733 5.26681 6.41695 5.24665 6.43552 5.22219C6.45139 5.20133 6.47215 5.18366 6.49221 5.16649C6.58565 5.08644 6.67948 5.00678 6.77361 4.92742C7.63377 4.20242 8.56032 3.57424 9.54695 3.03471C10.5749 2.47251 11.6502 2.02322 12.7719 1.68412C13.3488 1.50973 13.9334 1.36849 14.5251 1.25599C14.8355 1.19699 15.1472 1.14718 15.4609 1.10775C15.837 1.06054 16.2134 1.01672 16.5922 0.99725C16.6327 0.994555 16.6729 0.996152 16.7109 0.981079Z" fill="#F45B56"/>
</svg>
