<svg width="35" height="35" viewBox="0 0 35 35" fill="none" xmlns="http://www.w3.org/2000/svg">
<path d="M13.6952 1.01654C12.5577 1.95113 11.8234 2.98811 11.3483 4.20124C10.498 6.38487 11.1124 8.33704 12.3291 10.1936C13.7918 12.4258 15.9131 13.9499 18.0135 15.495C20.163 17.0764 22.4128 18.5326 24.2182 20.5362C25.6848 22.1638 26.5326 24.0228 26.2313 26.2583C26.1415 26.9241 25.8881 27.5685 25.6974 28.2192C25.628 28.4565 25.5242 28.6836 25.3752 29.0738C25.5999 28.9248 25.7149 28.886 25.7726 28.8049C27.3203 26.531 28.405 24.1082 28.0745 21.2666C27.8415 19.2644 26.9146 17.5835 25.5674 16.118C23.6446 14.0261 21.2845 12.4588 19.0715 10.7143C17.5792 9.53755 16.0388 8.404 15.0352 6.73134C14.5358 5.89914 14.165 5.03636 14.1927 4.02607C14.2339 2.51014 15.6054 1.01023 17.1259 1.00198C22.0214 0.975131 26.9168 0.973999 31.8123 0.998585C33.2556 1.00441 34.3107 2.1365 34.3151 3.62331C34.3262 7.29908 34.319 10.9753 34.319 14.6516C34.319 20.4423 34.319 26.2344 34.319 32.028C34.319 33.9864 33.3236 34.9768 31.3586 34.9773C28.0449 34.9773 24.7312 34.9773 21.4175 34.9773C21.316 34.9773 21.2141 34.9647 21.0433 34.9531C21.4558 34.5081 21.8572 34.1364 22.1867 33.7089C24.2099 31.0856 24.193 28.3037 22.2284 25.5567C20.821 23.5919 18.9429 22.1667 17.0507 20.7294C14.9638 19.1421 12.8425 17.5752 10.8872 15.8342C9.20901 14.3381 8.19374 12.3976 8.40582 10.0393C8.47182 9.30754 8.72904 8.59082 8.9188 7.87265C8.99257 7.59315 9.12214 7.32917 9.27987 6.91719C9.07943 7.01861 8.99499 7.03317 8.96199 7.08218C7.59876 9.11392 6.55 11.2553 6.57523 13.7859C6.60241 16.4902 7.80889 18.6714 9.74819 20.4043C11.7676 22.2079 13.9466 23.8335 16.0529 25.5411C17.4632 26.6849 18.9283 27.7898 19.7946 29.4411C20.1052 30.0326 20.377 30.6959 20.4493 31.3506C20.6842 33.4371 19.2399 34.9734 17.1215 34.9763C12.4396 34.9825 7.75777 34.9825 3.07615 34.9763C1.38096 34.9763 0.323958 33.9117 0.323473 32.207C0.320561 22.7171 0.320561 13.2274 0.323473 3.73783C0.323473 2.06905 1.38339 0.995188 3.03441 0.991306C6.39082 0.983866 9.74722 0.983866 13.1036 0.991306C13.2478 0.990821 13.3909 1.00247 13.6952 1.01654Z" fill="#FC7375"/>
</svg>
