<svg width="55" height="3" viewBox="0 0 55 3" fill="none" xmlns="http://www.w3.org/2000/svg">
<path d="M1.07063 2.55659C1.65762 2.55659 2.1335 2.08077 2.1335 1.49378C2.1335 0.906781 1.65762 0.430908 1.07063 0.430908C0.483632 0.430908 0.0078125 0.906781 0.0078125 1.49378C0.0078125 2.08077 0.483632 2.55659 1.07063 2.55659Z" fill="#4D34D6"/>
<path d="M14.1254 2.55659C14.7124 2.55659 15.1882 2.08077 15.1882 1.49378C15.1882 0.906781 14.7124 0.430908 14.1254 0.430908C13.5384 0.430908 13.0625 0.906781 13.0625 1.49378C13.0625 2.08077 13.5384 2.55659 14.1254 2.55659Z" fill="#4D34D6"/>
<path d="M27.1761 2.55659C27.7631 2.55659 28.239 2.08077 28.239 1.49378C28.239 0.906781 27.7631 0.430908 27.1761 0.430908C26.5892 0.430908 26.1133 0.906781 26.1133 1.49378C26.1133 2.08077 26.5892 2.55659 27.1761 2.55659Z" fill="#4D34D6"/>
<path d="M40.2269 2.55659C40.8139 2.55659 41.2898 2.08077 41.2898 1.49378C41.2898 0.906781 40.8139 0.430908 40.2269 0.430908C39.6399 0.430908 39.1641 0.906781 39.1641 1.49378C39.1641 2.08077 39.6399 2.55659 40.2269 2.55659Z" fill="#4D34D6"/>
<path d="M54.3444 1.49378C54.3444 2.0823 53.8701 2.55659 53.2816 2.55659C52.693 2.55659 52.2188 2.0823 52.2188 1.49378C52.2188 0.905257 52.693 0.430908 53.2816 0.430908C53.8701 0.430908 54.3444 0.905257 54.3444 1.49378Z" fill="#4D34D6"/>
</svg>
