<svg width="55" height="3" viewBox="0 0 55 3" fill="none" xmlns="http://www.w3.org/2000/svg">
<path d="M1.07063 3.0019C1.65762 3.0019 2.1335 2.52603 2.1335 1.93904C2.1335 1.35204 1.65762 0.876221 1.07063 0.876221C0.483632 0.876221 0.0078125 1.35204 0.0078125 1.93904C0.0078125 2.52603 0.483632 3.0019 1.07063 3.0019Z" fill="#4D34D6"/>
<path d="M14.1254 3.0019C14.7124 3.0019 15.1882 2.52603 15.1882 1.93904C15.1882 1.35204 14.7124 0.876221 14.1254 0.876221C13.5384 0.876221 13.0625 1.35204 13.0625 1.93904C13.0625 2.52603 13.5384 3.0019 14.1254 3.0019Z" fill="#4D34D6"/>
<path d="M27.1761 3.0019C27.7631 3.0019 28.239 2.52603 28.239 1.93904C28.239 1.35204 27.7631 0.876221 27.1761 0.876221C26.5892 0.876221 26.1133 1.35204 26.1133 1.93904C26.1133 2.52603 26.5892 3.0019 27.1761 3.0019Z" fill="#4D34D6"/>
<path d="M40.2269 3.0019C40.8139 3.0019 41.2898 2.52603 41.2898 1.93904C41.2898 1.35204 40.8139 0.876221 40.2269 0.876221C39.6399 0.876221 39.1641 1.35204 39.1641 1.93904C39.1641 2.52603 39.6399 3.0019 40.2269 3.0019Z" fill="#4D34D6"/>
<path d="M54.3444 1.93904C54.3444 2.52755 53.8701 3.0019 53.2816 3.0019C52.693 3.0019 52.2188 2.52755 52.2188 1.93904C52.2188 1.35052 52.693 0.876221 53.2816 0.876221C53.8701 0.876221 54.3444 1.35052 54.3444 1.93904Z" fill="#4D34D6"/>
</svg>
