<svg width="55" height="3" viewBox="0 0 55 3" fill="none" xmlns="http://www.w3.org/2000/svg">
<path d="M1.07063 2.44722C1.65762 2.44722 2.1335 1.9714 2.1335 1.3844C2.1335 0.797406 1.65762 0.321533 1.07063 0.321533C0.483632 0.321533 0.0078125 0.797406 0.0078125 1.3844C0.0078125 1.9714 0.483632 2.44722 1.07063 2.44722Z" fill="#4D34D6"/>
<path d="M14.1254 2.44722C14.7124 2.44722 15.1882 1.9714 15.1882 1.3844C15.1882 0.797406 14.7124 0.321533 14.1254 0.321533C13.5384 0.321533 13.0625 0.797406 13.0625 1.3844C13.0625 1.9714 13.5384 2.44722 14.1254 2.44722Z" fill="#4D34D6"/>
<path d="M27.1761 2.44722C27.7631 2.44722 28.239 1.9714 28.239 1.3844C28.239 0.797406 27.7631 0.321533 27.1761 0.321533C26.5892 0.321533 26.1133 0.797406 26.1133 1.3844C26.1133 1.9714 26.5892 2.44722 27.1761 2.44722Z" fill="#4D34D6"/>
<path d="M40.2269 2.44722C40.8139 2.44722 41.2898 1.9714 41.2898 1.3844C41.2898 0.797406 40.8139 0.321533 40.2269 0.321533C39.6399 0.321533 39.1641 0.797406 39.1641 1.3844C39.1641 1.9714 39.6399 2.44722 40.2269 2.44722Z" fill="#4D34D6"/>
<path d="M54.3444 1.3844C54.3444 1.97292 53.8701 2.44722 53.2816 2.44722C52.693 2.44722 52.2188 1.97292 52.2188 1.3844C52.2188 0.795882 52.693 0.321533 53.2816 0.321533C53.8701 0.330317 54.3444 0.804666 54.3444 1.3844Z" fill="#4D34D6"/>
</svg>
