<svg width="55" height="4" viewBox="0 0 55 4" fill="none" xmlns="http://www.w3.org/2000/svg">
<path d="M1.07063 3.102C1.65762 3.102 2.1335 2.62615 2.1335 2.03916C2.1335 1.45216 1.65762 0.976318 1.07063 0.976318C0.483632 0.976318 0.0078125 1.45216 0.0078125 2.03916C0.0078125 2.62615 0.483632 3.102 1.07063 3.102Z" fill="#4D34D6"/>
<path d="M14.1254 3.102C14.7124 3.102 15.1882 2.62615 15.1882 2.03916C15.1882 1.45216 14.7124 0.976318 14.1254 0.976318C13.5384 0.976318 13.0625 1.45216 13.0625 2.03916C13.0625 2.62615 13.5384 3.102 14.1254 3.102Z" fill="#4D34D6"/>
<path d="M27.1761 3.102C27.7631 3.102 28.239 2.62615 28.239 2.03916C28.239 1.45216 27.7631 0.976318 27.1761 0.976318C26.5892 0.976318 26.1133 1.45216 26.1133 2.03916C26.1133 2.62615 26.5892 3.102 27.1761 3.102Z" fill="#4D34D6"/>
<path d="M40.2269 3.102C40.8139 3.102 41.2898 2.62615 41.2898 2.03916C41.2898 1.45216 40.8139 0.976318 40.2269 0.976318C39.6399 0.976318 39.1641 1.45216 39.1641 2.03916C39.1641 2.62615 39.6399 3.102 40.2269 3.102Z" fill="#4D34D6"/>
<path d="M54.3444 2.03916C54.3444 2.62768 53.8701 3.102 53.2816 3.102C52.693 3.102 52.2188 2.62768 52.2188 2.03916C52.2188 1.45064 52.693 0.976318 53.2816 0.976318C53.8701 0.985102 54.3444 1.45942 54.3444 2.03916Z" fill="#4D34D6"/>
</svg>
