<svg width="55" height="3" viewBox="0 0 55 3" fill="none" xmlns="http://www.w3.org/2000/svg">
<path d="M2.12568 1.83796C2.12568 2.42648 1.65133 2.90083 1.06281 2.90083C0.474295 2.90083 0 2.42648 0 1.83796C0 1.24944 0.474295 0.775146 1.06281 0.775146C1.65133 0.775146 2.12568 1.24944 2.12568 1.83796Z" fill="#4D34D6"/>
<path d="M15.1882 1.83796C15.1882 2.42648 14.7139 2.90083 14.1254 2.90083C13.5368 2.90083 13.0625 2.42648 13.0625 1.83796C13.0625 1.24944 13.5368 0.775146 14.1254 0.775146C14.7139 0.775146 15.1882 1.24944 15.1882 1.83796Z" fill="#4D34D6"/>
<path d="M28.239 1.83796C28.239 2.42648 27.7647 2.90083 27.1761 2.90083C26.5876 2.90083 26.1133 2.42648 26.1133 1.83796C26.1133 1.24944 26.5876 0.775146 27.1761 0.775146C27.7647 0.775146 28.239 1.24944 28.239 1.83796Z" fill="#4D34D6"/>
<path d="M41.2937 1.83796C41.2937 2.42648 40.8194 2.90083 40.2308 2.90083C39.6423 2.90083 39.168 2.42648 39.168 1.83796C39.168 1.24944 39.6423 0.775146 40.2308 0.775146C40.8194 0.775146 41.2937 1.24944 41.2937 1.83796Z" fill="#4D34D6"/>
<path d="M54.3444 1.83796C54.3444 2.42648 53.8701 2.90083 53.2816 2.90083C52.693 2.90083 52.2188 2.42648 52.2188 1.83796C52.2188 1.24944 52.693 0.775146 53.2816 0.775146C53.8701 0.775146 54.3444 1.24944 54.3444 1.83796Z" fill="#4D34D6"/>
</svg>
